<svg width="20" height="19" viewBox="0 0 20 19" fill="none" xmlns="http://www.w3.org/2000/svg">
<path d="M2.83733 6.80249L2.83724 6.80249C2.70182 6.801 2.56844 6.83539 2.45062 6.90213C2.22275 7.03399 2.07473 7.29348 2.03708 7.62409C1.99953 7.95395 2.07496 8.33988 2.27866 8.69273C2.49143 9.06125 2.79838 9.33177 3.13744 9.46126L2.83733 6.80249ZM2.83733 6.80249C2.97111 6.80387 3.10352 6.82969 3.22802 6.87869L3.2294 6.87922M2.83733 6.80249L3.2294 6.87922M3.2294 6.87922C3.56851 7.00878 3.87547 7.27929 4.08823 7.64781C4.30099 8.01632 4.3818 8.4176 4.32451 8.77605C4.2742 9.09012 4.12362 9.31886 3.91587 9.4388M3.2294 6.87922L3.91587 9.4388M4.61816 4.64978C4.78233 5.40515 5.18221 6.07193 5.74872 6.52489L5.74873 6.52489L7.7622 6.898L7.79406 7.04458C7.79409 7.04457 7.79412 7.04457 7.79414 7.04456C9.21328 6.736 10.0375 5.1493 9.68925 3.54748M4.61816 4.64978L4.76474 4.61792L4.61816 4.64978C4.61816 4.64978 4.61816 4.64978 4.61816 4.64978ZM4.61816 4.64978C4.26998 3.04793 5.09419 1.46119 6.51333 1.15272C7.22411 0.998137 7.95133 1.18685 8.55868 1.6724L8.46501 1.78957L8.55868 1.67241C9.12523 2.12536 9.52511 2.79214 9.68925 3.54748M9.68925 3.54748L9.54267 3.57933L9.68924 3.54747C9.68924 3.54747 9.68925 3.54748 9.68925 3.54748ZM6.81067 2.52078L6.84229 2.66741C6.89255 2.65657 6.94383 2.65115 6.99524 2.65124H6.99552C7.18794 2.65124 7.39479 2.72658 7.5908 2.88329L7.5908 2.88329C7.87429 3.10992 8.08425 3.46108 8.1746 3.87692L8.17461 3.87694C8.26118 4.27518 8.21546 4.66575 8.0792 4.96846C7.94253 5.27209 7.72226 5.47417 7.46483 5.53014C7.23036 5.5811 6.96505 5.51307 6.71666 5.31445L6.71665 5.31444C6.43315 5.08777 6.22319 4.7366 6.13284 4.3208L6.13284 4.32079C6.04624 3.92242 6.09195 3.53178 6.22821 3.22905C6.36487 2.9254 6.58513 2.72332 6.84254 2.66735L6.81067 2.52078ZM6.81067 2.52078C6.87141 2.50768 6.93338 2.50113 6.99552 2.50124M6.81067 2.52078L6.99552 2.50124M18.2488 5.68941L18.3238 5.55951C19.5816 6.2857 19.8833 8.04809 19.0635 9.46773C18.6772 10.137 18.0933 10.6503 17.4158 10.9091C17.4157 10.9092 17.4156 10.9092 17.4155 10.9093L17.362 10.7691L18.2488 5.68941ZM18.2488 5.68941L18.3238 5.5595C17.694 5.19586 16.9438 5.15398 16.2174 5.43143L16.2709 5.57156L16.2174 5.43143C15.5398 5.69029 14.9558 6.20357 14.5694 6.87297C14.1829 7.54236 14.0304 8.30473 14.1449 9.02099L14.1449 9.02101M18.2488 5.68941L14.1449 9.02101M14.1449 9.02101C14.2678 9.78879 14.6791 10.4175 15.3091 10.7812L14.1449 9.02101ZM16.8624 9.46129L16.8625 9.46127C17.2015 9.33179 17.5085 9.06126 17.7213 8.69273C17.925 8.33978 18.0005 7.95383 17.9629 7.62402C17.9252 7.29344 17.7772 7.03405 17.5493 6.90234C17.4315 6.83558 17.2981 6.8012 17.1627 6.80268L17.1627 6.80268C17.0289 6.80411 16.8965 6.82998 16.772 6.87901L16.7705 6.87958C16.4315 7.00912 16.1245 7.27981 15.9117 7.6482C15.6989 8.01646 15.6182 8.41753 15.6755 8.77595L16.8624 9.46129ZM16.8624 9.46129C16.5653 9.57483 16.2919 9.55882 16.0842 9.43882M16.8624 9.46129L16.0842 9.43882M3.91587 9.4388C3.70814 9.55873 3.43476 9.57473 3.13747 9.46127L3.91587 9.4388ZM16.0842 9.43882C15.8764 9.31881 15.7259 9.09014 15.6755 8.77602L16.0842 9.43882ZM6.99552 2.50124C7.22786 2.50124 7.46685 2.59214 7.68446 2.76613L6.99552 2.50124ZM14.3498 15.6408C14.3016 15.89 14.1987 16.1251 14.0486 16.3294L14.0265 16.3587C13.8664 16.5707 13.659 16.7425 13.421 16.8604C13.1829 16.9784 12.9207 17.0393 12.655 17.0383H12.6544H7.34552C7.07985 17.0383 6.81777 16.977 6.57971 16.859C6.34166 16.7411 6.13406 16.5697 5.97311 16.3584C5.81215 16.147 5.7022 15.9013 5.65181 15.6405C5.60142 15.3796 5.61197 15.1107 5.68262 14.8546L6.39543 12.2706C6.61307 11.4817 7.08353 10.7859 7.73465 10.2901C8.38576 9.79431 9.18157 9.5258 9.99997 9.5258C10.8184 9.5258 11.6142 9.79431 12.2653 10.2901C12.9164 10.7859 13.3869 11.4817 13.6045 12.2706L14.3173 14.8546L14.3175 14.8551C14.3891 15.111 14.4002 15.38 14.3498 15.6408ZM5.85511 9.02104L5.85512 9.021C5.96975 8.30458 5.81724 7.54235 5.43065 6.87295C5.04407 6.20356 4.46012 5.69038 3.78254 5.43144L3.78251 5.43143C3.05606 5.15398 2.30622 5.19587 1.67613 5.55949L1.6761 5.55951C0.418352 6.2857 0.116681 8.04809 0.936473 9.46773C1.32284 10.137 1.90665 10.6502 2.58406 10.9091C2.88576 11.0266 3.20644 11.0879 3.53021 11.0899L3.5306 11.0899C3.93788 11.0914 4.33827 10.9848 4.69096 10.7811L4.62146 10.6608L4.69096 10.7811C5.32071 10.4175 5.73204 9.78881 5.85511 9.02104ZM12.6943 7.09726H12.6943C13.244 7.09726 13.7835 6.89892 14.2512 6.52488C14.8177 6.07196 15.2176 5.40514 15.3818 4.64982C15.73 3.04797 14.9058 1.46123 13.4866 1.15275C12.7759 0.998262 12.0486 1.18684 11.4413 1.67245C10.8747 2.12536 10.4748 2.79218 10.3107 3.54747C9.96249 5.14929 10.7867 6.736 12.2058 7.04456C12.3663 7.07954 12.5301 7.09721 12.6943 7.09726ZM11.8253 3.87675L11.8253 3.87672C11.9157 3.46085 12.1257 3.10957 12.4091 2.88312L12.4091 2.8831C12.6052 2.72638 12.812 2.65105 13.0044 2.65105L13.0047 2.65105C13.0561 2.65096 13.1073 2.65636 13.1575 2.66718C13.4149 2.72317 13.6351 2.92528 13.7717 3.22891C13.908 3.53164 13.9537 3.92222 13.8672 4.32036C13.7768 4.73624 13.5668 5.08754 13.2834 5.31403L13.2834 5.31405C13.035 5.51264 12.7699 5.58068 12.5351 5.52974C12.2777 5.47386 12.0574 5.27181 11.9207 4.96819C11.7845 4.6655 11.7388 4.27492 11.8253 3.87675ZM15.0987 11.8584C14.7908 10.7425 14.1253 9.7583 13.2043 9.05695C12.2833 8.3556 11.1576 7.97579 9.99997 7.97579C8.84232 7.97579 7.71663 8.3556 6.79562 9.05695C5.8746 9.7583 5.20912 10.7425 4.90127 11.8584L4.18846 14.4424C4.05433 14.9286 4.03432 15.4393 4.12999 15.9345C4.22565 16.4297 4.43441 16.8961 4.73998 17.2974C5.04555 17.6987 5.43967 18.024 5.89162 18.2479C6.34358 18.4718 6.84114 18.5883 7.34552 18.5883H12.6544C13.1588 18.5883 13.6564 18.4718 14.1083 18.2479C14.5603 18.024 14.9544 17.6987 15.26 17.2974C15.5655 16.8961 15.7743 16.4297 15.87 15.9345C15.9656 15.4393 15.9456 14.9286 15.8115 14.4424L15.0987 11.8584Z" fill="#ADB3BC" stroke="#ADB3BC" stroke-width="0.3"/>
</svg>
