<svg width="24" height="17" viewBox="0 0 24 17" fill="none" xmlns="http://www.w3.org/2000/svg">
<path d="M6.42375 2.59922H8.4V6.19922H4.17375L5.31375 3.35297C5.49375 2.89922 5.9325 2.59922 6.42375 2.59922ZM10.2 6.19922V2.59922H13.245C13.6088 2.59922 13.9538 2.76422 14.1825 3.04922L16.7025 6.19922H10.2ZM19.8075 6.23672L16.0575 1.54922C15.375 0.694219 14.34 0.199219 13.245 0.199219H6.42375C4.95 0.199219 3.62625 1.09547 3.0825 2.46047L1.5225 6.36422C0.63 6.71672 0 7.58297 0 8.59922V12.7992C0 13.463 0.53625 13.9992 1.2 13.9992H2.44875C2.73375 15.7017 4.215 16.9992 6 16.9992C7.785 16.9992 9.26625 15.7017 9.55125 13.9992H14.4488C14.7338 15.7017 16.215 16.9992 18 16.9992C19.785 16.9992 21.2663 15.7017 21.5513 13.9992H22.8C23.4638 13.9992 24 13.463 24 12.7992V10.9992C24 8.55422 22.17 6.53672 19.8075 6.23672ZM16.3013 12.7992C16.3776 12.5733 16.4982 12.3648 16.6558 12.1859C16.8134 12.007 17.0051 11.8612 17.2195 11.7569C17.434 11.6527 17.6671 11.5921 17.9052 11.5787C18.1432 11.5653 18.3816 11.5993 18.6065 11.6788C18.8313 11.7583 19.0381 11.8817 19.2148 12.0418C19.3915 12.2019 19.5347 12.3955 19.636 12.6114C19.7373 12.8273 19.7946 13.0611 19.8048 13.2994C19.8149 13.5376 19.7776 13.7755 19.695 13.9992C19.6186 14.2251 19.4981 14.4336 19.3405 14.6125C19.1828 14.7914 18.9912 14.9373 18.7767 15.0415C18.5622 15.1458 18.3292 15.2063 18.0911 15.2198C17.853 15.2332 17.6146 15.1991 17.3898 15.1196C17.165 15.0401 16.9582 14.9168 16.7814 14.7567C16.6047 14.5966 16.4615 14.403 16.3603 14.1871C16.259 13.9712 16.2016 13.7373 16.1915 13.4991C16.1814 13.2608 16.2187 13.0229 16.3013 12.7992ZM6 11.5992C6.47739 11.5992 6.93523 11.7889 7.27279 12.1264C7.61036 12.464 7.8 12.9218 7.8 13.3992C7.8 13.8766 7.61036 14.3344 7.27279 14.672C6.93523 15.0096 6.47739 15.1992 6 15.1992C5.52261 15.1992 5.06477 15.0096 4.72721 14.672C4.38964 14.3344 4.2 13.8766 4.2 13.3992C4.2 12.9218 4.38964 12.464 4.72721 12.1264C5.06477 11.7889 5.52261 11.5992 6 11.5992Z" fill="#3A79D7"/>
</svg>
