<svg width="18" height="18" viewBox="0 0 18 18" fill="none" xmlns="http://www.w3.org/2000/svg">
<path d="M6.5 7.33333H6.50833M11.5 7.33333H11.5083M1.5 9C1.5 9.98491 1.69399 10.9602 2.0709 11.8701C2.44781 12.7801 3.00026 13.6069 3.6967 14.3033C4.39314 14.9997 5.21993 15.5522 6.12987 15.9291C7.03982 16.306 8.01509 16.5 9 16.5C9.98491 16.5 10.9602 16.306 11.8701 15.9291C12.7801 15.5522 13.6069 14.9997 14.3033 14.3033C14.9997 13.6069 15.5522 12.7801 15.9291 11.8701C16.306 10.9602 16.5 9.98491 16.5 9C16.5 8.01509 16.306 7.03982 15.9291 6.12987C15.5522 5.21993 14.9997 4.39314 14.3033 3.6967C13.6069 3.00026 12.7801 2.44781 11.8701 2.0709C10.9602 1.69399 9.98491 1.5 9 1.5C8.01509 1.5 7.03982 1.69399 6.12987 2.0709C5.21993 2.44781 4.39314 3.00026 3.6967 3.6967C3.00026 4.39314 2.44781 5.21993 2.0709 6.12987C1.69399 7.03982 1.5 8.01509 1.5 9Z" stroke="#3A79D7" stroke-width="2" stroke-linecap="round" stroke-linejoin="round"/>
<path d="M6.91663 11.5C7.18819 11.7772 7.51233 11.9974 7.87007 12.1477C8.2278 12.298 8.61193 12.3754 8.99996 12.3754C9.38799 12.3754 9.77212 12.298 10.1299 12.1477C10.4876 11.9974 10.8117 11.7772 11.0833 11.5M8.99996 1.5C8.55793 1.5 8.13401 1.67559 7.82145 1.98816C7.50889 2.30072 7.33329 2.72464 7.33329 3.16667C7.33329 3.60869 7.50889 4.03262 7.82145 4.34518C8.13401 4.65774 8.55793 4.83333 8.99996 4.83333" stroke="#3A79D7" stroke-width="2" stroke-linecap="round" stroke-linejoin="round"/>
</svg>
