<svg width="14" height="14" viewBox="0 0 14 14" fill="none" xmlns="http://www.w3.org/2000/svg">
<path d="M6.99992 0.332031C10.6826 0.332031 13.6679 3.31736 13.6679 7.00003C13.6679 10.682 10.6826 13.6667 6.99992 13.6667C3.31725 13.6674 0.333252 10.682 0.333252 7.00003C0.332585 3.31736 3.31725 0.332031 6.99992 0.332031ZM6.99725 5.83203C6.83387 5.83225 6.67627 5.89246 6.55435 6.00123C6.43244 6.10999 6.35471 6.25974 6.33592 6.42203L6.33125 6.49936L6.33392 10.1674L6.33792 10.2447C6.35655 10.4073 6.43435 10.5574 6.55649 10.6663C6.67863 10.7753 6.83658 10.8355 7.00025 10.8355C7.16392 10.8355 7.32187 10.7753 7.44402 10.6663C7.56616 10.5574 7.64395 10.4073 7.66259 10.2447L7.66659 10.1667L7.66392 6.4987L7.65925 6.4207C7.63998 6.25854 7.56186 6.10909 7.43972 6.0007C7.31757 5.89232 7.15989 5.83254 6.99659 5.8327L6.99725 5.83203ZM7.00059 3.3327C6.77931 3.3327 6.56709 3.4206 6.41062 3.57707C6.25415 3.73354 6.16625 3.94575 6.16625 4.16703C6.16625 4.38831 6.25415 4.60053 6.41062 4.75699C6.56709 4.91346 6.77931 5.00136 7.00059 5.00136C7.11011 5.00132 7.21855 4.97971 7.31972 4.93775C7.42089 4.8958 7.5128 4.83433 7.59021 4.75686C7.66763 4.67938 7.72902 4.58742 7.7709 4.48621C7.81277 4.38501 7.8343 4.27655 7.83425 4.16703C7.83421 4.05751 7.81259 3.94907 7.77064 3.8479C7.72869 3.74673 7.66722 3.65481 7.58974 3.5774C7.51227 3.49999 7.4203 3.43859 7.3191 3.39672C7.2179 3.35485 7.10944 3.33332 6.99992 3.33336L7.00059 3.3327Z" fill="#3A79D7"/>
</svg>
