<svg width="12" height="18" viewBox="0 0 12 18" fill="none" xmlns="http://www.w3.org/2000/svg">
<path d="M10.1666 3.99935H8.49996V1.49935C8.49996 1.04102 8.12496 0.666016 7.66663 0.666016H4.33329C3.87496 0.666016 3.49996 1.04102 3.49996 1.49935V3.99935H1.83329C0.916626 3.99935 0.166626 4.74935 0.166626 5.66602V14.8327C0.166626 15.7493 0.916626 16.4993 1.83329 16.4993C1.83329 16.9577 2.20829 17.3327 2.66663 17.3327C3.12496 17.3327 3.49996 16.9577 3.49996 16.4993H8.49996C8.49996 16.9577 8.87496 17.3327 9.33329 17.3327C9.79163 17.3327 10.1666 16.9577 10.1666 16.4993C11.0833 16.4993 11.8333 15.7493 11.8333 14.8327V5.66602C11.8333 4.74935 11.0833 3.99935 10.1666 3.99935ZM3.91663 13.9993H2.66663V6.49935H3.91663V13.9993ZM6.62496 13.9993H5.37496V6.49935H6.62496V13.9993ZM7.24996 3.99935H4.74996V1.91602H7.24996V3.99935ZM9.33329 13.9993H8.08329V6.49935H9.33329V13.9993Z" fill="#ADB3BC"/>
</svg>
