<svg width="22" height="28" viewBox="0 0 22 28" fill="none" xmlns="http://www.w3.org/2000/svg">
<path d="M11 13.9998C11.7334 13.9998 12.3614 13.7385 12.884 13.2158C13.4067 12.6932 13.6676 12.0656 13.6667 11.3332C13.6667 10.5998 13.4054 9.97184 12.8827 9.44917C12.36 8.9265 11.7325 8.66561 11 8.6665C10.2667 8.6665 9.63871 8.92784 9.11604 9.4505C8.59337 9.97317 8.33249 10.6007 8.33337 11.3332C8.33337 12.0665 8.59471 12.6945 9.11737 13.2172C9.64004 13.7398 10.2676 14.0007 11 13.9998ZM11 27.3332C7.42226 24.2887 4.75026 21.4612 2.98404 18.8505C1.21782 16.2398 0.334263 13.8229 0.333374 11.5998C0.333374 8.2665 1.40582 5.61095 3.55071 3.63317C5.6956 1.65539 8.17871 0.666504 11 0.666504C13.8223 0.666504 16.3058 1.65539 18.4507 3.63317C20.5956 5.61095 21.6676 8.2665 21.6667 11.5998C21.6667 13.8221 20.7832 16.2389 19.016 18.8505C17.2489 21.4621 14.5769 24.2896 11 27.3332Z" fill="#3A79D7"/>
</svg>
