<svg width="345" height="283" viewBox="0 0 345 283" fill="none" xmlns="http://www.w3.org/2000/svg">
<path d="M246.417 15.032C246.893 11.5361 241.969 8.67078 238.263 8.37208C236.492 8.22826 234.667 8.50483 232.985 7.9185C229.356 6.65732 227.907 1.96661 224.377 0.484173C221.733 -0.633188 218.69 0.36248 216.124 1.65685C213.557 2.95122 211.023 4.56641 208.158 4.75448C205.668 4.90937 202.957 3.99114 200.778 5.20807C199.151 6.11523 198.3 7.98487 196.806 9.09117C195.345 10.1753 193.431 10.3966 191.617 10.4962C189.802 10.5957 187.922 10.6179 186.262 11.3701C184.602 12.1224 183.241 13.8814 183.584 15.6626L246.417 15.0431V15.032Z" fill="#EBEBEB"/>
<path d="M220.633 66.1992C221.463 60.1809 212.966 55.2247 206.582 54.7158C203.539 54.4724 200.375 54.9371 197.487 53.9303C191.236 51.7509 188.747 43.675 182.639 41.1083C178.081 39.1834 172.837 40.8981 168.411 43.1218C163.997 45.3455 159.626 48.1444 154.681 48.4652C150.388 48.7418 145.719 47.1487 141.968 49.2507C139.169 50.8106 137.698 54.041 135.12 55.9438C132.597 57.8024 129.3 58.2006 126.169 58.3666C123.038 58.5325 119.796 58.5657 116.942 59.8712C114.087 61.1766 111.73 64.1968 112.317 67.2723L220.622 66.1992H220.633Z" fill="#F5F5F5"/>
<path d="M92.9387 273.323H86.6091L87.4377 263.089H92.9387V273.323Z" fill="#E0E0E0"/>
<path d="M92.9386 273.323C92.9386 273.323 92.9267 273.044 92.9227 272.566L92.9028 270.496L92.863 263.089L92.9386 263.341C91.4568 263.368 89.5408 263.394 87.4376 263.434L87.5372 263.182L87.4137 264.695C87.1628 267.761 86.9238 270.708 86.7007 273.429L86.6051 273.017C88.4215 273.044 89.991 273.11 91.1143 273.177C91.656 273.217 92.0982 273.243 92.4407 273.27C92.7514 273.296 92.9267 273.323 92.9347 273.349C92.9426 273.376 92.7833 273.402 92.4845 273.429C92.1499 273.455 91.7118 273.482 91.182 273.522C90.0627 273.588 88.4653 273.655 86.6051 273.681H86.4777L86.5095 273.27L87.2106 264.536L87.3341 263.023L87.354 262.771H87.4337C89.5369 262.81 91.4529 262.837 92.9347 262.863H93.0143V263.116C93.0024 266.328 92.9864 268.929 92.9705 270.681L92.9506 272.686C92.9466 273.137 92.9386 273.362 92.9347 273.349L92.9386 273.323Z" fill="#263238"/>
<path d="M342.57 273.323H336.241L337.069 263.089H342.57V273.323Z" fill="#E0E0E0"/>
<path d="M342.57 273.323C342.57 273.323 342.558 273.044 342.554 272.566C342.55 272.009 342.543 271.318 342.535 270.496C342.523 268.624 342.511 266.129 342.495 263.089L342.57 263.341C341.089 263.368 339.173 263.394 337.069 263.434L337.169 263.182C337.129 263.66 337.089 264.177 337.046 264.695C336.795 267.761 336.556 270.708 336.333 273.429L336.237 273.017C338.053 273.044 339.623 273.11 340.746 273.177C341.288 273.217 341.73 273.243 342.072 273.27C342.383 273.296 342.558 273.323 342.566 273.349C342.574 273.376 342.415 273.402 342.116 273.429C341.782 273.455 341.344 273.482 340.814 273.522C339.694 273.588 338.097 273.655 336.237 273.681H336.109L336.141 273.27C336.36 270.549 336.595 267.602 336.842 264.536C336.886 264.018 336.926 263.501 336.966 263.023L336.986 262.771H337.065C339.169 262.81 341.085 262.837 342.566 262.863H342.646V263.116C342.634 266.328 342.618 268.929 342.602 270.681C342.594 271.478 342.586 272.141 342.582 272.686C342.578 273.137 342.57 273.362 342.566 273.349L342.57 273.323Z" fill="#263238"/>
<path d="M175.995 263.089H172.239H170.494H166.738L165.909 273.323H170.494H172.239H176.824L175.995 263.089Z" fill="#E0E0E0"/>
<path d="M175.995 263.089C175.995 263.089 176.023 263.288 176.063 263.739C176.111 264.257 176.166 264.907 176.242 265.717C176.402 267.562 176.617 270.111 176.891 273.283L176.915 273.562H176.828C174.438 273.641 170.801 273.681 166.742 273.681C166.463 273.681 166.184 273.681 165.913 273.681H165.778L165.814 273.243C166.105 269.673 166.383 266.222 166.646 263.009L166.666 262.771H166.742C169.423 262.824 171.733 262.863 173.402 262.903C174.207 262.943 174.856 262.983 175.33 263.009C175.537 263.036 175.7 263.049 175.836 263.063C175.951 263.076 176.007 263.089 176.003 263.102C176.003 263.116 175.935 263.129 175.816 263.142L175.298 263.195C174.828 263.222 174.183 263.262 173.382 263.301C171.721 263.328 169.419 263.381 166.746 263.434L166.842 263.195C166.583 266.421 166.304 269.858 166.017 273.442L165.917 273.004C166.192 273.004 166.467 273.004 166.746 273.004C170.809 273.004 174.446 273.057 176.832 273.124L176.768 273.402C176.529 270.257 176.334 267.721 176.194 265.89C176.135 265.054 176.083 264.377 176.047 263.846C176.015 263.381 175.999 263.116 176.003 263.102L175.995 263.089Z" fill="#263238"/>
<path d="M142.424 140.134H123.276C120.363 140.134 117.984 137.769 117.984 134.843C117.984 130.354 121.619 126.719 126.108 126.719H137.921C140.406 126.719 142.424 128.737 142.424 131.222V140.134Z" fill="#407BFF"/>
<path d="M317.553 140.134H336.702C339.615 140.134 341.993 137.769 341.993 134.843C341.993 130.354 338.359 126.719 333.869 126.719H322.057C319.571 126.719 317.553 128.737 317.553 131.222V140.134Z" fill="#407BFF"/>
<path d="M143.778 221.837H133.454C125.722 221.837 119.454 228.105 119.454 235.837V259.171C119.454 266.903 125.722 273.171 133.454 273.171H143.778C151.51 273.171 157.778 266.903 157.778 259.171V235.837C157.778 228.105 151.51 221.837 143.778 221.837Z" fill="#263238"/>
<path d="M342.902 220.396H304.578V271.73H342.902V220.396Z" fill="#263238"/>
<path d="M123.356 152.172L134.5 143.234L152.125 94.839C154.744 88.8131 159.822 81.0635 171.488 79.8877L292.926 80.9566C299.808 81.0234 305.941 85.3391 308.307 91.806L324.088 135.017L328.417 144.837L338.706 152.026C342.648 154.791 345 159.294 345 164.118V233.436C345 233.436 344.492 246.183 331.237 246.183H132.843C132.843 246.183 120.095 246.691 118.051 231.9C116.434 220.168 117.383 179.536 117.85 163.249C117.971 158.92 119.988 154.871 123.356 152.172Z" fill="#407BFF"/>
<g opacity="0.3">
<path d="M116.901 201.743C118.425 202.117 345 201.743 345 201.743V232.634C345 240.156 339.615 246.182 332.092 246.182H134.126C124.451 246.182 117.222 238.941 117.329 229.2L116.915 201.743H116.901Z" fill="black"/>
</g>
<path d="M124.759 157.25L168.722 162.568V188.342C168.722 188.342 120.069 186.965 117.156 180.498L117.81 163.182C117.944 159.548 121.151 156.809 124.759 157.25Z" fill="#ECECEC"/>
<path d="M124.759 157.25C124.759 157.25 124.077 157.156 122.848 157.397C121.672 157.651 119.788 158.452 118.665 160.563C118.077 161.606 117.931 162.888 117.931 164.345C117.89 165.801 117.837 167.378 117.784 169.061C117.677 172.442 117.543 176.29 117.409 180.512L117.383 180.392C118.131 181.607 119.801 182.276 121.351 182.823C122.955 183.358 124.679 183.785 126.442 184.16C129.997 184.881 133.805 185.429 137.801 185.883C145.778 186.792 154.464 187.393 163.537 187.807C165.274 187.874 166.998 187.941 168.708 188.008L168.347 188.355C168.347 179.189 168.374 170.491 168.374 162.581L168.655 162.902C155.72 161.285 144.749 159.922 136.959 158.947C133.124 158.452 130.09 158.051 127.939 157.771C126.937 157.624 126.135 157.517 125.547 157.437C125.013 157.357 124.732 157.303 124.732 157.29C124.732 157.277 125.013 157.29 125.561 157.343C126.148 157.397 126.95 157.477 127.966 157.584C130.117 157.824 133.164 158.158 136.999 158.586C144.803 159.494 155.773 160.777 168.735 162.287L169.015 162.314V162.594C169.015 170.504 169.029 179.202 169.042 188.368V188.729H168.681C166.971 188.649 165.247 188.582 163.497 188.515C154.41 188.101 145.711 187.486 137.707 186.551C133.712 186.084 129.89 185.509 126.309 184.774C124.518 184.387 122.794 183.959 121.151 183.398C120.336 183.117 119.534 182.783 118.786 182.382C118.051 181.955 117.316 181.474 116.875 180.645L116.848 180.592V180.525C117.035 176.303 117.196 172.468 117.343 169.075C117.423 167.391 117.49 165.814 117.556 164.358C117.556 162.928 117.743 161.499 118.385 160.443C119.587 158.252 121.578 157.49 122.794 157.276C124.064 157.089 124.732 157.276 124.732 157.276L124.759 157.25Z" fill="#263238"/>
<path d="M337.397 157.25L293.434 162.567V188.341C293.434 188.341 341.138 186.658 344.051 180.191L344.345 163.195C344.212 159.561 341.005 156.822 337.397 157.263V157.25Z" fill="#E0E0E0"/>
<path d="M337.397 157.25C337.397 157.25 338.052 157.063 339.308 157.25C340.51 157.45 342.475 158.198 343.704 160.349C344.319 161.378 344.626 162.795 344.519 164.211C344.506 165.654 344.492 167.204 344.466 168.874C344.425 172.228 344.372 176.022 344.319 180.204V180.271L344.292 180.311C343.864 181.126 343.129 181.621 342.408 182.048C341.673 182.462 340.884 182.783 340.069 183.077C338.439 183.652 336.729 184.093 334.951 184.493C331.397 185.268 327.602 185.856 323.633 186.351C315.696 187.339 307.037 188.021 298.004 188.488C296.467 188.555 294.944 188.622 293.434 188.689H293.073V188.341C293.073 179.189 293.1 170.491 293.1 162.567V162.287L293.381 162.26C306.316 160.75 317.3 159.468 325.103 158.559C328.938 158.131 331.998 157.797 334.15 157.557C335.165 157.45 335.954 157.37 336.555 157.316C337.103 157.263 337.383 157.25 337.383 157.263C337.383 157.276 337.103 157.33 336.568 157.41C335.98 157.49 335.192 157.61 334.176 157.744C332.038 158.025 328.978 158.425 325.157 158.92C317.366 159.895 306.396 161.258 293.461 162.875L293.741 162.554C293.741 170.477 293.755 179.176 293.768 188.328L293.407 187.981C294.917 187.914 296.441 187.847 297.964 187.78C306.984 187.313 315.629 186.658 323.54 185.696C327.495 185.215 331.277 184.64 334.804 183.892C336.568 183.505 338.265 183.077 339.855 182.516C341.392 181.955 343.049 181.287 343.784 180.071L343.757 180.178C343.851 175.996 343.931 172.214 344.011 168.861C344.051 167.19 344.091 165.641 344.118 164.198C344.238 162.755 343.985 161.499 343.41 160.483C342.287 158.425 340.417 157.637 339.254 157.397C338.038 157.169 337.37 157.303 337.37 157.25H337.397Z" fill="#263238"/>
<path d="M185.598 162.554C178.77 162.554 172.837 167.471 171.822 174.219C171.528 176.143 171.407 178.374 171.541 180.966C172.316 196.372 175.389 215.238 182.712 219.861H233.169V162.554H185.598Z" fill="#263238"/>
<path d="M274.994 162.554C281.822 162.554 287.755 167.471 288.771 174.219C289.065 176.143 289.185 178.374 289.051 180.966C288.276 196.372 285.203 215.238 277.88 219.861H227.423V162.554H274.994Z" fill="#263238"/>
<path d="M287.688 182.89H173.398C171.701 182.89 170.312 181.514 170.312 179.804C170.312 178.107 171.688 176.717 173.398 176.717H287.688C289.385 176.717 290.775 178.093 290.775 179.804C290.775 181.501 289.399 182.89 287.688 182.89Z" fill="#455A64"/>
<path d="M281.702 170.718H177.434C175.737 170.718 174.347 169.342 174.347 167.631C174.347 165.934 175.724 164.545 177.434 164.545H281.702C283.399 164.545 284.789 165.921 284.789 167.631C284.789 169.328 283.412 170.718 281.702 170.718Z" fill="#455A64"/>
<path d="M287.688 190.439H174.588C172.883 190.439 171.501 191.818 171.501 193.519C171.501 195.22 172.883 196.599 174.588 196.599H287.688C289.393 196.599 290.775 195.22 290.775 193.519C290.775 191.818 289.393 190.439 287.688 190.439Z" fill="#455A64"/>
<path d="M283.746 210.321H177.127C175.43 210.321 174.04 208.945 174.04 207.235C174.04 205.538 175.416 204.148 177.127 204.148H283.733C285.43 204.148 286.82 205.525 286.82 207.235C286.82 208.932 285.443 210.321 283.733 210.321H283.746Z" fill="#455A64"/>
<path d="M142.932 135.792C142.932 135.792 155.68 93.2491 161.746 87.8511H301.198C301.198 87.8511 313.171 114.186 317.553 135.792H142.932Z" fill="#455A64"/>
<path d="M178.516 227.344V231.045C178.516 235.548 182.164 239.195 186.667 239.195H275.675C280.178 239.195 283.826 235.548 283.826 231.045V227.344H178.516Z" fill="#263238"/>
<path d="M301.679 217.069V233.276C301.679 233.276 334.257 237.872 339.027 217.069H301.679Z" fill="#263238"/>
<path d="M165.06 217.069V233.276C165.06 233.276 132.482 237.872 127.712 217.069H165.06Z" fill="#263238"/>
<path d="M328.43 144.838C328.43 144.838 328.377 144.757 328.31 144.584C328.23 144.383 328.123 144.129 327.99 143.795C327.696 143.06 327.295 142.045 326.76 140.736C325.691 138.01 324.168 134.082 322.23 129.125C318.368 119.117 312.917 104.941 306.449 88.1722L306.743 88.3726C293.18 88.3726 277.827 88.3592 261.618 88.3458C232.381 88.2657 205.909 88.1989 186.721 88.1454C177.167 88.092 169.416 88.0385 164.018 87.9985L157.844 87.9183C157.163 87.9049 156.628 87.8916 156.241 87.8782C155.88 87.8782 155.693 87.8515 155.693 87.8381C155.693 87.8248 155.88 87.8114 156.241 87.798C156.642 87.798 157.163 87.7847 157.844 87.7713C159.288 87.758 161.359 87.7446 164.018 87.7179C169.416 87.7045 177.153 87.6778 186.721 87.6377C205.923 87.6377 232.381 87.6377 261.618 87.6377C277.827 87.6778 293.18 87.7045 306.743 87.7312H306.957L307.037 87.9316C313.411 104.74 318.783 118.943 322.591 128.978C324.448 133.961 325.932 137.903 326.961 140.642C327.442 141.965 327.829 143.007 328.096 143.742C328.217 144.076 328.297 144.33 328.377 144.544C328.43 144.731 328.457 144.824 328.457 144.824L328.43 144.838Z" fill="#263238"/>
<path d="M317.553 135.792C317.553 135.979 278.455 136.166 230.243 136.193C182.017 136.219 142.918 136.099 142.918 135.899C142.918 135.712 182.004 135.525 230.243 135.498C278.455 135.471 317.553 135.591 317.553 135.792Z" fill="#263238"/>
<path d="M316.364 135.538C316.484 135.391 322.11 139.426 328.938 144.556C335.766 149.687 341.218 153.976 341.098 154.137C340.978 154.284 335.352 150.248 328.511 145.118C321.682 139.987 316.23 135.698 316.351 135.538H316.364Z" fill="#263238"/>
<path d="M142.932 135.791C143.052 135.938 138.322 140.16 132.375 145.224C126.416 150.288 121.485 154.283 121.365 154.136C121.244 153.989 125.975 149.767 131.934 144.703C137.894 139.639 142.825 135.644 142.945 135.791H142.932Z" fill="#263238"/>
<path d="M144.549 115.642C144.736 115.709 142.624 121.935 139.845 129.551C137.066 137.167 134.674 143.287 134.487 143.233C134.3 143.166 136.411 136.94 139.19 129.324C141.97 121.708 144.362 115.589 144.535 115.655L144.549 115.642Z" fill="#263238"/>
<path d="M298.325 161.966C298.325 161.966 298.218 161.993 297.991 162.02C297.723 162.033 297.403 162.06 297.015 162.087C296.093 162.14 294.837 162.207 293.247 162.3C289.973 162.474 285.229 162.661 279.363 162.835C267.631 163.196 251.422 163.383 233.53 163.316C215.624 163.262 199.429 163.049 187.696 162.902C181.87 162.821 177.153 162.755 173.813 162.701C172.222 162.661 170.953 162.634 170.031 162.621C169.63 162.608 169.309 162.594 169.055 162.581C168.828 162.581 168.721 162.554 168.721 162.541C168.721 162.528 168.828 162.514 169.055 162.501L170.044 162.474C170.966 162.474 172.222 162.447 173.826 162.421C177.167 162.421 181.897 162.407 187.723 162.394C199.509 162.447 215.677 162.514 233.556 162.608C251.449 162.674 267.644 162.568 279.377 162.327C285.189 162.194 289.92 162.087 293.26 162.006C294.85 161.966 296.12 161.94 297.042 161.926C297.443 161.926 297.763 161.926 298.031 161.926C298.258 161.926 298.365 161.926 298.365 161.953L298.325 161.966Z" fill="#263238"/>
<path d="M210.573 87.8511H247.988V89.9755C247.988 93.2624 245.315 95.9347 242.028 95.9347H216.533C213.245 95.9347 210.573 93.2624 210.573 89.9755V87.8511Z" fill="#263238"/>
<path d="M301.799 135.044H300.463C300.463 125.009 292.298 116.845 282.263 116.845C272.228 116.845 264.077 125.009 264.077 135.044H262.74C262.74 124.274 271.506 115.509 282.263 115.509C293.02 115.509 301.799 124.274 301.799 135.044Z" fill="#263238"/>
<path d="M256.834 134.295C256.834 134.295 259.533 129.285 267.377 129.071C274.66 128.871 293.14 129.071 293.14 129.071C293.14 129.071 302.16 129.472 304.765 133.186V135.538H256.821V134.282L256.834 134.295Z" fill="#263238"/>
<path d="M163.817 136.286C162.989 137.168 164.218 123.352 166.102 117.286C166.543 115.883 168.04 114.921 169.764 114.921H203.517C205.375 114.921 206.965 116.057 207.259 117.593C208.034 121.762 210.105 129.779 210.573 136.326L163.817 136.286Z" fill="#263238"/>
<path d="M197.558 99.7959H176.565C174.145 99.7959 172.182 101.758 172.182 104.178V108.695C172.182 111.115 174.145 113.077 176.565 113.077H197.558C199.978 113.077 201.941 111.115 201.941 108.695V104.178C201.941 101.758 199.978 99.7959 197.558 99.7959Z" fill="#263238"/>
<path d="M245.249 135.792C244.42 136.674 245.917 122.163 247.801 116.097C248.242 114.694 249.738 113.732 251.462 113.732H285.216C287.073 113.732 288.664 114.868 288.958 116.405C289.733 120.573 291.804 129.232 292.271 135.792H245.249Z" fill="#263238"/>
<path d="M279.27 99.7959H258.277C255.857 99.7959 253.894 101.758 253.894 104.178V108.695C253.894 111.115 255.857 113.077 258.277 113.077H279.27C281.69 113.077 283.653 111.115 283.653 108.695V104.178C283.653 101.758 281.69 99.7959 279.27 99.7959Z" fill="#263238"/>
<path d="M74.8482 105.006H62.1898V273.214H74.8482V105.006Z" fill="#E0E0E0"/>
<path d="M74.848 273.215C74.848 273.215 74.8332 272.901 74.8183 272.334C74.8183 271.737 74.8034 270.886 74.7885 269.796C74.7885 267.542 74.7588 264.273 74.729 260.063C74.6993 251.614 74.6695 239.388 74.61 224.251C74.5654 193.977 74.5059 151.985 74.4464 104.992L74.8332 105.38C70.817 105.38 66.5182 105.38 62.1748 105.38L62.5615 104.992C62.5615 181.736 62.4574 247.3 62.3087 273.2L62.1748 273.065C66.2951 273.095 69.4337 273.125 71.5756 273.14L74.0002 273.17C74.5505 273.17 74.8332 273.2 74.8332 273.2C74.8332 273.2 74.5803 273.215 74.0448 273.229C73.4796 273.229 72.6912 273.244 71.65 273.259C69.4931 273.274 66.31 273.304 62.1599 273.334H62.0261V273.2C61.8773 247.285 61.7732 181.721 61.7732 104.992V104.604H62.1748C66.5033 104.604 70.8021 104.604 74.8332 104.604H75.2199V104.992C75.1604 152.089 75.1009 194.186 75.0563 224.535C75.0117 239.642 74.967 251.823 74.9373 260.257C74.9075 264.422 74.8927 267.661 74.8778 269.901C74.8778 270.975 74.8629 271.796 74.848 272.394C74.848 272.946 74.8183 273.215 74.8183 273.215H74.848Z" fill="#263238"/>
<path d="M104.969 15.1851H36.1591C28.2151 15.1851 21.7753 21.6243 21.7753 29.5676V98.3716C21.7753 106.315 28.2151 112.754 36.1591 112.754H104.969C112.913 112.754 119.353 106.315 119.353 98.3716V29.5676C119.353 21.6243 112.913 15.1851 104.969 15.1851Z" fill="#455A64"/>
<path d="M104.85 109.497H36.2632C30.1051 109.497 25.1072 104.485 25.1072 98.3424V29.7614C25.1072 23.6039 30.1199 18.6064 36.2632 18.6064H104.85C111.008 18.6064 116.006 23.6188 116.006 29.7614V98.3424C116.006 104.5 110.994 109.497 104.85 109.497ZM36.2632 20.0938C30.9381 20.0938 26.5946 24.4368 26.5946 29.7614V98.3424C26.5946 103.667 30.9381 108.01 36.2632 108.01H104.85C110.19 108.01 114.519 103.667 114.519 98.3424V29.7614C114.519 24.4219 110.175 20.0938 104.85 20.0938H36.2632Z" fill="white"/>
<path d="M84.948 41.1984C88.0717 42.5965 90.4814 44.6044 92.1771 47.2221C93.8728 49.825 94.7207 52.9038 94.7207 56.4287C94.7207 59.9537 93.8728 63.0176 92.1771 65.5907C90.4814 68.1787 88.0717 70.1717 84.948 71.5847C81.8243 72.9976 78.1503 73.6967 73.911 73.6967H65.7448V85.9374H52.4915V39.0864H73.911C78.1503 39.0864 81.8243 39.7855 84.948 41.1984ZM79.2659 61.4708C80.6492 60.2958 81.3483 58.6002 81.3483 56.4138C81.3483 54.2275 80.6492 52.5319 79.2659 51.3272C77.8825 50.1224 75.8298 49.5126 73.1078 49.5126H65.7448V63.2407H73.1078C75.8298 63.2407 77.8825 62.6458 79.2659 61.4708Z" fill="white"/>
<path d="M86.6042 133.942L80.5433 121.025L72.0706 124.696L79.6303 136.948L86.6042 133.942Z" fill="#FFD0B7"/>
<path d="M85.9798 133.136L92.1292 137.843C92.4717 138.118 92.2241 140.415 92.2241 140.415L91.5714 147.345C91.5714 147.345 90.111 148.202 89.6475 146.445C89.5529 146.084 89.5265 144.465 89.4696 144.112C89.2413 142.765 89.258 141.627 89.258 141.627L89.0755 143.708C89.0755 143.708 88.9312 144.269 87.7666 145.279C86.33 146.521 84.8681 145.547 85.5508 144.83C86.2286 144.105 87.33 142.865 87.33 142.865C87.33 142.865 85.4913 143.991 85.0066 142.833C85.0066 142.833 83.6396 143.184 83.1429 142.208C82.6463 141.232 82.7211 140.316 82.7211 140.316C82.7211 140.316 79.6612 138.608 79.2605 137.363C78.8648 136.126 78.1383 133.967 78.1383 133.967L85.9923 133.138L85.9798 133.136Z" fill="#FFD0B7"/>
<path d="M89.5322 139.96L96.1493 144.303C96.3085 144.408 96.3526 144.622 96.2477 144.781L95.0331 146.626C94.9282 146.785 94.714 146.83 94.5548 146.725L87.9377 142.382C87.7784 142.277 87.7344 142.063 87.8393 141.904L89.0539 140.059C89.1588 139.9 89.3729 139.856 89.5322 139.96Z" fill="#455A64"/>
<path d="M94.284 141.823C94.284 141.823 92.8778 138.59 92.715 138.241C92.5571 137.9 88.1568 135.171 88.1568 135.171C88.1568 135.171 84.1744 137.437 84.0664 138.137C83.9635 138.843 86.7977 140.189 90.1956 139.888L92.0374 141.676C92.0374 141.676 92.6561 143.786 93.5608 144.041C94.4655 144.295 94.631 143.883 94.631 143.883L94.2816 141.803L94.284 141.823Z" fill="#FFD0B7"/>
<path d="M85.1367 136.234C85.0689 136.213 84.8713 136.809 85.2025 137.698C85.3593 138.137 85.6518 138.618 86.0833 139.062C86.5519 139.58 87.2938 139.735 87.948 139.839C88.8563 139.982 89.723 140.012 90.3362 140.186L90.2386 140.12C91.2541 141.125 91.9761 141.748 92.0575 141.673C92.1389 141.599 91.5569 140.841 90.6201 139.773L90.5904 139.727L90.5225 139.706C89.7793 139.433 88.9278 139.393 88.0523 139.25C87.4056 139.142 86.8146 139.018 86.4755 138.665C86.0734 138.299 85.7852 137.891 85.5999 137.525C85.2168 136.789 85.2426 136.23 85.1519 136.224L85.1367 136.234Z" fill="#FF9A6C"/>
<path d="M85.188 142.845C85.2641 142.795 85.1139 142.449 85.0037 141.881C84.9588 141.596 84.9194 141.254 84.9383 140.884C84.9343 140.528 85.1154 140.074 84.9374 139.486C84.7243 138.877 84.1197 138.6 83.6204 138.634C83.0833 138.66 82.706 139.079 82.6044 139.406C82.3777 140.139 82.8049 140.511 82.8459 140.44C82.9194 140.403 82.7417 140.032 82.9959 139.573C83.1216 139.35 83.3503 139.168 83.6376 139.175C83.9274 139.17 84.2782 139.375 84.3735 139.67C84.4837 139.988 84.3758 140.438 84.389 140.874C84.4022 141.31 84.4865 141.688 84.5994 141.994C84.825 142.605 85.1271 142.885 85.188 142.845Z" fill="#FF9A6C"/>
<path d="M86.9561 142.709C87.0315 142.724 87.1841 142.343 87.2814 141.694C87.3301 141.37 87.3592 140.982 87.346 140.546C87.3301 140.123 87.2931 139.551 86.8795 139.084C86.6777 138.858 86.4096 138.698 86.0976 138.652C85.7855 138.607 85.4668 138.717 85.261 138.884C84.8467 139.231 84.7361 139.693 84.6874 140.018C84.6278 140.675 84.6166 141.04 84.6818 141.073C84.7721 141.111 84.9502 140.702 85.1024 140.104C85.1885 139.821 85.3354 139.497 85.5969 139.315C85.8381 139.136 86.1803 139.194 86.442 139.478C86.6938 139.748 86.7676 140.176 86.8089 140.572C86.8476 140.98 86.8615 141.351 86.8684 141.66C86.8873 142.288 86.8832 142.68 86.9713 142.699L86.9561 142.709Z" fill="#FF9A6C"/>
<path d="M97.2019 148.245C97.2139 148.298 97.4518 148.297 97.7843 148.133C98.1168 147.97 98.5318 147.614 98.7537 147.069C98.9756 146.524 98.924 145.973 98.8005 145.631C98.6789 145.28 98.5035 145.117 98.4603 145.146C98.349 145.188 98.7359 146.004 98.3618 146.918C97.9931 147.828 97.1439 148.144 97.1911 148.252L97.2019 148.245Z" fill="#263238"/>
<path d="M98.6834 150.654C98.6829 150.7 99.1833 150.735 99.9125 150.435C100.629 150.152 101.57 149.421 102.014 148.285C102.247 147.733 102.35 147.135 102.289 146.606C102.228 146.076 102.047 145.633 101.871 145.294C101.501 144.621 101.24 144.245 101.199 144.264C101.137 144.289 101.314 144.735 101.604 145.415C101.736 145.759 101.873 146.17 101.9 146.636C101.928 147.103 101.83 147.613 101.621 148.119C101.217 149.152 100.418 149.828 99.7793 150.16C99.1373 150.511 98.6662 150.58 98.6799 150.648L98.6834 150.654Z" fill="#263238"/>
<path d="M101.478 152.796C101.483 152.839 102.144 152.8 103.048 152.286C103.94 151.787 105.051 150.716 105.478 149.152C105.897 147.586 105.47 146.096 104.946 145.223C104.422 144.327 103.864 143.968 103.839 144C103.787 144.05 104.251 144.477 104.675 145.362C105.108 146.225 105.441 147.608 105.059 149.041C104.669 150.473 103.684 151.501 102.877 152.036C102.063 152.583 101.447 152.724 101.464 152.798L101.478 152.796Z" fill="#263238"/>
<path d="M16.6326 267.292L15.431 272.343C15.431 272.343 7.16912 283.081 4.62629 282.549C2.95901 282.204 5.00818 279.408 8.14713 271.253L8.80846 267.888L16.6326 267.292Z" fill="#EF8D53"/>
<path d="M4.28161 280.974C4.28161 280.974 4.28161 281.03 4.34681 281.124C4.4027 281.217 4.50515 281.347 4.69144 281.45C4.86841 281.552 5.12922 281.627 5.42728 281.608C5.72534 281.59 6.05134 281.468 6.35872 281.263C7.53234 280.369 8.97607 278.98 10.5223 277.377C12.0591 275.764 13.3352 274.208 14.2108 273.052C14.6486 272.474 14.9932 271.989 15.226 271.663C15.3192 271.523 15.403 271.402 15.4869 271.272C15.5427 271.178 15.5707 271.132 15.5707 271.132C15.5707 271.132 15.5334 271.169 15.4589 271.253L15.1702 271.626C14.8628 272.027 14.5088 272.474 14.1176 272.987C13.2141 274.124 11.9287 275.671 10.4012 277.274C8.8643 278.868 7.42056 280.275 6.29352 281.17C5.70671 281.599 5.06401 281.59 4.71938 281.394C4.35612 281.207 4.29092 280.956 4.28161 280.974Z" fill="#263238"/>
<path d="M5.4553 277.526C5.4553 277.526 5.71611 277.498 6.12594 277.563C6.52646 277.619 7.07601 277.796 7.61625 278.122C8.15649 278.448 8.53838 278.877 8.73398 279.241C8.92959 279.604 8.98547 279.856 9.01341 279.846C9.03204 279.846 9.01342 279.576 8.83644 279.185C8.66878 278.793 8.26826 278.318 7.70008 277.982C7.15053 277.637 6.56373 277.47 6.14458 277.442C5.71611 277.414 5.45531 277.507 5.46462 277.526H5.4553Z" fill="#263238"/>
<path d="M13.2701 275.009C13.2701 275.009 13.1862 274.645 13.121 274.058C13.0465 273.48 13.121 272.641 13.5402 271.84C13.9407 271.038 14.602 270.498 15.1143 270.246C15.6359 269.985 16.0178 269.948 16.0085 269.92C16.0085 269.91 15.9154 269.91 15.7477 269.929C15.58 269.957 15.3379 270.013 15.0677 270.134C14.5182 270.376 13.8196 270.926 13.3912 271.756C12.9627 272.585 12.8975 273.471 13.0093 274.058C13.0558 274.356 13.121 274.589 13.1769 274.748C13.2328 274.906 13.2701 274.99 13.2794 274.99L13.2701 275.009Z" fill="#263238"/>
<path d="M16.1017 268.149C16.1017 268.149 15.7943 268.839 15.6453 269.733C15.4962 270.628 15.3286 271.337 15.3658 271.355C15.4124 271.374 15.6546 270.665 15.8036 269.771C15.9619 268.876 16.1389 268.168 16.1017 268.158V268.149Z" fill="#263238"/>
<path d="M7.99815 271.97C7.99815 272.017 8.47318 272.008 9.02273 272.138C9.57228 272.259 9.99143 272.483 10.0194 272.436C10.0473 272.399 9.6468 272.11 9.05999 271.98C8.47318 271.84 7.98884 271.933 7.99815 271.98V271.97Z" fill="#263238"/>
<path d="M7.83044 272.837C7.83044 272.884 8.23096 272.837 8.68737 272.959C9.14377 273.061 9.47909 273.275 9.50703 273.238C9.53498 273.21 9.2276 272.921 8.72462 272.8C8.23096 272.679 7.82113 272.8 7.83044 272.837Z" fill="#263238"/>
<path d="M7.16908 273.928C7.16908 273.928 7.57892 273.844 8.06327 273.956C8.54762 274.058 8.84567 274.347 8.88293 274.31C8.92019 274.291 8.64076 273.919 8.10052 273.797C7.5696 273.676 7.15045 273.891 7.17839 273.928H7.16908Z" fill="#263238"/>
<path d="M8.56624 271.607C8.56624 271.607 8.66869 271.607 8.84567 271.579C9.02264 271.542 9.27413 271.486 9.58151 271.383C9.88888 271.281 10.2428 271.132 10.6061 270.927C10.7924 270.824 10.9787 270.703 11.1743 270.572C11.3512 270.433 11.5841 270.256 11.5841 269.939C11.5655 269.603 11.1929 269.473 10.9507 269.547C10.6992 269.612 10.5223 269.79 10.3732 269.929C10.0752 270.228 9.81437 270.507 9.61876 270.759C9.41385 271.011 9.26482 271.216 9.16236 271.365C9.0599 271.514 9.01333 271.598 9.02264 271.607C9.04127 271.626 9.28345 271.309 9.7026 270.833C9.91683 270.6 10.1776 270.321 10.4757 270.041C10.6247 269.901 10.7831 269.752 10.9787 269.706C11.165 269.659 11.4071 269.762 11.4071 269.957C11.4071 270.144 11.2302 270.33 11.0625 270.451C10.8762 270.582 10.6899 270.703 10.5129 270.805C10.1497 271.011 9.81437 271.169 9.5163 271.29C8.9295 271.523 8.53829 271.598 8.5476 271.626L8.56624 271.607Z" fill="#263238"/>
<path d="M9.00407 271.504C9.00407 271.504 9.0227 271.411 9.01338 271.253C9.01338 271.094 8.99476 270.852 8.9575 270.563C8.92024 270.274 8.85504 269.929 8.6967 269.566C8.61287 269.388 8.51972 269.202 8.37069 269.034C8.24029 268.885 7.97948 268.68 7.70936 268.829C7.45787 268.988 7.45787 269.286 7.4765 269.491C7.51376 269.705 7.57896 269.901 7.65348 270.087C7.81182 270.451 8.04469 270.721 8.24029 270.936C8.44521 271.15 8.63149 271.29 8.7619 271.383C8.8923 271.476 8.97613 271.514 8.98544 271.514C9.00407 271.495 8.70601 271.29 8.32412 270.861C8.13783 270.647 7.93291 270.376 7.78388 270.032C7.70936 269.864 7.65348 269.668 7.62554 269.482C7.59759 269.295 7.62554 269.062 7.77457 268.988C7.9236 268.904 8.10989 269.016 8.24029 269.165C8.37069 269.305 8.46383 269.482 8.54766 269.649C8.70601 269.985 8.78053 270.321 8.8271 270.6C8.92024 271.169 8.9575 271.523 8.98544 271.523L9.00407 271.504Z" fill="#263238"/>
<g opacity="0.4">
<path d="M15.431 272.353L16.0085 269.92C16.0085 269.92 13.9873 270.293 13.4564 271.812C12.9348 273.331 13.0652 274.403 13.0652 274.403L8.66879 279.147C8.66879 279.147 7.56037 276.985 5.56708 277.507C5.56708 277.507 3.99295 280.965 4.03952 281.832C4.09541 282.782 5.09205 282.596 5.45531 282.428C5.61365 282.354 7.5138 281.263 9.39531 279.315C11.7239 276.892 14.304 273.825 15.431 272.343V272.353Z" fill="black"/>
</g>
<path d="M57.6906 269.845L57.7278 263.107L45.1068 262.958L44.9484 272.819L45.7309 272.875C49.2145 273.108 63.4376 273.825 65.7755 273.154C68.3835 272.399 57.6906 269.855 57.6906 269.855V269.845Z" fill="#EF8D53"/>
<g opacity="0.4">
<path d="M49.5311 272.772C49.3634 271.719 48.7859 270.731 47.957 270.06C47.1187 269.389 46.0848 269.034 45.0229 269.109L44.9763 272.641L49.5404 272.781L49.5311 272.772Z" fill="black"/>
</g>
<g opacity="0.4">
<path d="M62.9159 271.281C62.9159 271.281 66.6603 272.409 66.1853 273.024C65.7102 273.639 51.3008 273.452 44.9577 272.819L44.9857 272.539L61.7889 272.893C61.7889 272.893 62.1894 271.299 62.9252 271.281H62.9159Z" fill="black"/>
</g>
<path d="M44.7808 272.521C44.7808 272.521 44.8553 272.539 44.995 272.548C45.1813 272.558 45.3862 272.576 45.6191 272.595C46.2431 272.632 47.0069 272.67 47.9104 272.726C49.8478 272.819 52.5211 272.912 55.483 272.959C58.445 272.996 61.1183 272.977 63.0557 272.931C63.9592 272.903 64.7229 272.884 65.347 272.865C65.5799 272.856 65.7848 272.847 65.9711 272.837C66.1108 272.837 66.1853 272.819 66.1853 272.819C66.1853 272.819 66.1108 272.819 65.9711 272.809C65.7848 272.809 65.5799 272.809 65.347 272.809C64.7229 272.809 63.9592 272.819 63.0557 272.828C61.1183 272.847 58.445 272.847 55.483 272.809C52.5304 272.772 49.8571 272.688 47.9197 272.623C47.0162 272.595 46.2525 272.567 45.6284 272.539C45.3955 272.539 45.1906 272.53 45.0043 272.521C44.8646 272.521 44.7901 272.521 44.7901 272.521H44.7808Z" fill="#263238"/>
<path d="M61.7703 273.089C61.7703 273.089 61.8634 272.549 62.2081 271.999C62.5527 271.439 63.0277 271.169 62.9998 271.132C62.9998 271.094 62.4502 271.327 62.0777 271.915C61.7051 272.502 61.7237 273.098 61.761 273.089H61.7703Z" fill="#263238"/>
<path d="M58.0724 271.15C58.0724 271.15 58.2866 270.955 58.4729 270.675C58.6592 270.386 58.7803 270.135 58.7523 270.116C58.7151 270.097 58.5381 270.312 58.3518 270.591C58.1655 270.88 58.0445 271.132 58.0724 271.15Z" fill="#263238"/>
<path d="M57.0571 270.6C57.0571 270.6 57.2899 270.498 57.5042 270.311C57.7277 270.116 57.8768 269.939 57.8488 269.901C57.8209 269.873 57.616 270.004 57.4017 270.19C57.1782 270.386 57.0291 270.563 57.0571 270.6Z" fill="#263238"/>
<path d="M56.4331 269.398C56.4331 269.398 56.7218 269.482 57.0944 269.491C57.4577 269.491 57.7557 269.473 57.7557 269.426C57.7557 269.38 57.467 269.342 57.0944 269.333C56.7312 269.333 56.4331 269.352 56.4331 269.398Z" fill="#263238"/>
<path d="M56.2189 268.559C56.2189 268.559 56.5263 268.745 56.9547 268.783C57.3832 268.82 57.7185 268.727 57.7185 268.69C57.7185 268.643 57.3739 268.662 56.9734 268.624C56.5635 268.587 56.2375 268.512 56.2282 268.55L56.2189 268.559Z" fill="#263238"/>
<path d="M58.5196 270.06C58.5196 270.06 58.8269 270.116 59.3299 270.06C59.5814 270.032 59.8795 269.976 60.1962 269.883C60.3545 269.827 60.5222 269.789 60.6898 269.687C60.7736 269.631 60.8575 269.556 60.8947 269.435C60.932 269.314 60.8668 269.174 60.7736 269.109C60.0006 268.699 59.2181 269.128 58.9294 269.519C58.7711 269.724 58.6965 269.92 58.6593 270.06C58.622 270.199 58.622 270.274 58.6313 270.274C58.6593 270.283 58.6872 269.957 59.0132 269.584C59.1716 269.407 59.4044 269.23 59.7118 269.146C60.0006 269.062 60.4104 269.044 60.6805 269.221C60.8109 269.314 60.755 269.472 60.6153 269.556C60.4849 269.64 60.3079 269.687 60.1589 269.743C59.8515 269.845 59.5628 269.91 59.3206 269.948C58.8363 270.032 58.5289 270.022 58.5289 270.05L58.5196 270.06Z" fill="#263238"/>
<path d="M58.7244 270.097C58.7244 270.097 58.8548 269.901 58.8269 269.538C58.8083 269.361 58.7431 269.146 58.6127 268.941C58.4729 268.764 58.2866 268.512 57.942 268.522C57.7557 268.54 57.6626 268.755 57.6905 268.895C57.6998 269.034 57.765 269.156 57.8209 269.258C57.942 269.463 58.0724 269.631 58.1935 269.752C58.445 270.004 58.6406 270.097 58.6499 270.088C58.6685 270.069 58.4916 269.938 58.268 269.677C58.1562 269.547 58.0445 269.379 57.9327 269.184C57.8209 269.006 57.7557 268.699 57.9513 268.671C58.1562 268.652 58.3612 268.857 58.4822 269.025C58.6033 269.202 58.6779 269.389 58.7058 269.556C58.7617 269.892 58.6872 270.097 58.7058 270.106L58.7244 270.097Z" fill="#263238"/>
<path d="M45.0788 269.072C45.0788 269.072 45.4421 269.044 46.0103 269.118C46.5785 269.193 47.3609 269.426 48.0315 269.985C48.7115 270.535 49.1027 271.262 49.2797 271.803C49.4659 272.343 49.4753 272.707 49.5032 272.707C49.5032 272.707 49.5218 272.614 49.5032 272.455C49.4939 272.287 49.4566 272.054 49.3728 271.775C49.2144 271.215 48.8232 270.451 48.1153 269.873C47.4075 269.295 46.5878 269.062 46.0103 269.016C45.7215 268.988 45.4794 269.006 45.3117 269.016C45.1534 269.034 45.0602 269.062 45.0602 269.072H45.0788Z" fill="#263238"/>
<path d="M46.4573 263.833C46.4573 263.833 46.3549 264.989 46.3176 266.425C46.2804 267.86 46.2897 269.016 46.3269 269.025C46.3735 269.025 46.4294 267.869 46.4666 266.434C46.5039 264.999 46.4946 263.843 46.4573 263.843V263.833Z" fill="#263238"/>
<path d="M51.1332 271.561C51.1332 271.561 51.9436 271.747 52.9682 271.766C53.9928 271.794 54.8217 271.682 54.8124 271.644C54.8124 271.598 53.9834 271.644 52.9682 271.617C51.9529 271.598 51.1332 271.523 51.1239 271.561H51.1332Z" fill="#263238"/>
<path d="M48.6649 271.523C48.6649 271.523 48.7301 271.7 48.8139 271.887C48.8977 272.073 48.935 272.241 48.9816 272.241C49.0188 272.241 49.0468 272.045 48.9536 271.822C48.8605 271.598 48.6928 271.486 48.6649 271.514V271.523Z" fill="#263238"/>
<path d="M47.7427 270.358C47.7427 270.358 47.7892 270.516 47.9196 270.656C48.05 270.787 48.1805 270.871 48.2084 270.843C48.2363 270.815 48.1618 270.684 48.0314 270.544C47.901 270.414 47.7706 270.33 47.7427 270.358Z" fill="#263238"/>
<path d="M46.4201 269.808C46.4201 269.808 46.5971 269.855 46.7834 269.92C46.9696 269.985 47.1 270.088 47.1373 270.06C47.1746 270.041 47.0721 269.855 46.8392 269.78C46.6064 269.696 46.4201 269.78 46.4294 269.817L46.4201 269.808Z" fill="#263238"/>
<path d="M45.47 269.547C45.47 269.547 45.5259 269.65 45.6284 269.696C45.7308 269.743 45.8333 269.743 45.8426 269.696C45.8612 269.659 45.7867 269.594 45.6843 269.547C45.5818 269.501 45.4793 269.501 45.47 269.547Z" fill="#263238"/>
<path d="M5.68813 268.289L28.1731 135.992L62.8507 141.277L58.8362 267.292L42.7781 268.662L44.0076 157.728L19.2965 268.783L5.68813 268.289Z" fill="#455A64"/>
<path d="M24.6709 145.853L29.2722 106.837L22.3143 117.714L11.1929 108.086L24.1959 90.4982C26.5897 88.0189 29.3933 86.1828 32.7372 84.9618C34.3672 84.3746 36.0904 84.0204 38.093 83.9365C42.4055 85.2694 46.7181 85.2694 51.0307 83.9365C51.7572 84.0297 52.8843 84.1229 54.3652 84.328C59.4043 85.0177 63.9591 87.7021 66.9863 91.7938L80.3711 117.509L68.905 121.853L62.86 110.948L63.987 147.149L53.1916 149.498L44.9577 143.542L33.5941 149.498L24.6709 145.844V145.853Z" fill="#263238"/>
<path d="M62.2639 97.293C62.1428 97.293 62.2639 103.323 62.534 110.743C62.8135 118.171 63.1395 124.183 63.2606 124.174C63.3816 124.174 63.2606 118.153 62.9811 110.724C62.7017 103.305 62.3757 97.293 62.2546 97.293H62.2639Z" fill="#455A64"/>
<path d="M30.0546 99.6699C29.9335 99.6606 29.4864 103.137 29.0766 107.443C28.6574 111.749 28.4246 115.254 28.5456 115.263C28.6667 115.273 29.1138 111.796 29.5237 107.49C29.9428 103.184 30.1757 99.6793 30.0546 99.6699Z" fill="#455A64"/>
<path d="M48.1152 51.0348C46.3269 50.6247 44.5199 50.2052 42.6942 50.2891C40.8686 50.373 38.9871 51.0068 37.7762 52.3863C37.0311 53.2344 36.5747 54.3436 35.6898 55.0426C34.5907 55.9188 32.821 56.2077 32.4484 57.5685C32.0665 58.9666 33.5475 60.2715 33.445 61.7069C33.3891 62.5271 32.8303 63.2168 32.3552 63.8972C31.8895 64.5776 31.4797 65.4351 31.7684 66.2087C32.0013 66.8332 32.6254 67.234 32.9327 67.8212C33.4078 68.7346 33.0259 69.8531 33.1749 70.869C33.3891 72.3603 34.7584 73.4788 36.2207 73.861C37.6738 74.2431 39.22 74.0567 40.7103 73.861" fill="#263238"/>
<path d="M49.4938 51.6777C50.7233 51.4354 51.99 51.2117 53.2102 51.5006C54.4304 51.7896 55.5854 52.703 55.7624 53.9426C55.8742 54.7069 55.6227 55.5644 56.0511 56.2075C56.5355 56.9252 57.6253 56.9811 58.1748 57.6429C59.3671 59.069 57.0757 61.5296 58.268 62.9557C58.5847 63.3378 59.0969 63.5242 59.4416 63.8784C60.0377 64.4936 60.0098 65.5468 59.5161 66.2365C59.0224 66.9356 58.1562 67.2897 57.2993 67.3363C56.4423 67.383 55.604 67.1499 54.803 66.8517C52.1018 65.8544 49.6149 64.0182 48.3202 61.4364C47.0348 58.8546 47.1559 55.4898 49.0187 53.2995" fill="#263238"/>
<path d="M37.9719 61.2782L37.6272 85.81L49.8943 86.0617C50.1085 84.645 50.565 79.1365 50.565 79.1365C50.565 79.1365 55.7065 78.8569 56.2747 73.7958C56.5541 71.3351 56.7125 66.2181 56.7963 61.5951C56.8988 56.4688 52.8842 52.2092 47.7706 51.9949C42.4707 51.7712 38.0371 55.9748 37.9625 61.2782H37.9719Z" fill="#FFC7AA"/>
<path d="M50.5836 79.0621C50.5836 79.0621 47.3608 78.9969 44.166 76.5176C44.166 76.5176 45.3582 80.3204 50.4625 80.367L50.5836 79.0528V79.0621Z" fill="#EB996E"/>
<path d="M54.5049 64.5496C54.477 64.9318 54.1324 65.23 53.7319 65.2114C53.3313 65.1927 53.024 64.8665 53.0519 64.4844C53.0798 64.1022 53.4245 63.804 53.825 63.8226C54.2255 63.8412 54.5329 64.1675 54.5049 64.5496Z" fill="#263238"/>
<path d="M55.4737 64.0372C55.3712 64.1211 54.8682 63.6644 54.0858 63.5898C53.3127 63.5059 52.698 63.8415 52.6235 63.7389C52.5862 63.6923 52.698 63.5339 52.9588 63.3754C53.2196 63.217 53.6574 63.0865 54.1417 63.1331C54.6261 63.189 55.0173 63.4034 55.2315 63.6085C55.4551 63.8135 55.5203 63.9906 55.4644 64.0372H55.4737Z" fill="#263238"/>
<path d="M46.6901 64.0838C46.6622 64.4659 46.3176 64.7642 45.917 64.7456C45.5165 64.7269 45.2091 64.4007 45.2371 64.0185C45.265 63.6364 45.6097 63.3381 46.0102 63.3568C46.4107 63.3754 46.7181 63.7016 46.6901 64.0838Z" fill="#263238"/>
<path d="M47.8079 63.4127C47.7054 63.4966 47.2025 63.0399 46.4201 62.9653C45.647 62.8814 45.0322 63.217 44.9577 63.1144C44.9204 63.0678 45.0322 62.9094 45.293 62.7509C45.5538 62.5925 45.9916 62.462 46.4759 62.5086C46.9603 62.5645 47.3515 62.7789 47.5657 62.9839C47.7893 63.189 47.8545 63.3661 47.7986 63.4127H47.8079Z" fill="#263238"/>
<path d="M50.0527 69.471C50.0527 69.471 50.5464 69.3872 51.3381 69.3685C51.543 69.3685 51.7293 69.3499 51.7759 69.2194C51.8411 69.0796 51.7759 68.8559 51.7014 68.6135C51.5616 68.1102 51.4219 67.5883 51.2636 67.0384C50.6675 64.8014 50.2483 62.9653 50.3414 62.9466C50.4346 62.9186 50.9935 64.7175 51.5896 66.9545C51.7293 67.5044 51.869 68.0357 51.9994 68.5297C52.0553 68.7627 52.1578 69.033 52.0274 69.3219C51.9622 69.4617 51.8038 69.5549 51.6734 69.5829C51.543 69.6108 51.4312 69.6015 51.3288 69.5922C50.5371 69.5549 50.0434 69.5083 50.0434 69.4617L50.0527 69.471Z" fill="#263238"/>
<path d="M47.7055 69.7786C47.8359 69.7786 47.7521 70.6268 48.4134 71.2979C49.0747 71.969 49.9875 71.969 49.9782 72.0901C49.9782 72.1461 49.764 72.2299 49.3821 72.202C49.0095 72.174 48.4786 72.0063 48.0687 71.5961C47.6682 71.186 47.5285 70.6734 47.5285 70.3285C47.5285 69.9744 47.6496 69.7693 47.7055 69.7786Z" fill="#263238"/>
<path d="M48.3109 60.3833C48.2084 60.5884 47.4446 60.4113 46.5225 60.4299C45.6004 60.4299 44.8366 60.6256 44.7341 60.4299C44.6876 60.3367 44.8366 60.1503 45.1533 59.9732C45.47 59.7961 45.9636 59.647 46.5132 59.647C47.0627 59.647 47.5564 59.7775 47.8824 59.9452C48.2084 60.113 48.3574 60.2994 48.3109 60.3926V60.3833Z" fill="#263238"/>
<path d="M55.4084 61.7533C55.2501 61.9211 54.7378 61.6788 54.0951 61.6042C53.4524 61.511 52.8935 61.6042 52.7818 61.4085C52.7352 61.3152 52.8376 61.1475 53.0985 60.9983C53.3499 60.8585 53.7598 60.756 54.1976 60.8119C54.6353 60.8679 55.0079 61.0729 55.2128 61.2686C55.4177 61.4737 55.4829 61.6601 55.4084 61.744V61.7533Z" fill="#263238"/>
<path d="M39.3038 65.2488C39.22 65.2022 35.932 63.8693 35.6898 67.3459C35.457 70.8225 38.9871 70.3378 39.0058 70.2446C39.0151 70.1421 39.3038 65.2488 39.3038 65.2488Z" fill="#FFC7AA"/>
<path d="M38.0277 68.8558C38.0277 68.8558 37.9625 68.893 37.8601 68.9303C37.7576 68.9676 37.5806 68.9862 37.4036 68.9117C37.0497 68.7532 36.7796 68.1474 36.7982 67.5229C36.8075 67.206 36.9007 66.9077 37.0311 66.6654C37.1522 66.4231 37.3291 66.2553 37.5154 66.2273C37.7017 66.1994 37.8228 66.3205 37.8601 66.4138C37.8973 66.5163 37.8694 66.5815 37.888 66.5908C37.888 66.6002 37.9625 66.5349 37.9439 66.3951C37.9346 66.3299 37.8973 66.2367 37.8228 66.1714C37.7483 66.0969 37.6272 66.0596 37.4968 66.0596C37.2267 66.0596 36.9659 66.2926 36.8261 66.5536C36.6678 66.8145 36.5653 67.1501 36.5467 67.5043C36.5188 68.2033 36.8355 68.8837 37.3291 69.0608C37.5713 69.1447 37.7762 69.0794 37.888 69.0049C37.9998 68.9303 38.0277 68.8464 38.0091 68.8464L38.0277 68.8558Z" fill="#EB996E"/>
<path d="M51.0772 52.2185C50.8258 51.7245 49.9781 51.1466 49.5962 50.867C49.084 50.4942 48.0314 50.2518 47.398 50.2146C45.8425 50.1214 44.2498 50.168 42.7688 50.6433C41.2878 51.1187 39.9093 52.0787 39.192 53.4675C38.6332 54.5487 38.4748 55.8722 37.6086 56.739C36.91 57.438 35.8016 57.7643 35.4104 58.6684C34.7025 60.2715 36.8262 62.1077 36.1369 63.7108C36.0158 63.9998 35.8016 64.2607 35.7923 64.5776C35.783 64.9505 36.0717 65.2767 36.407 65.4258C36.7424 65.5749 37.1242 65.5843 37.4968 65.5843C38.8008 65.5936 40.3936 65.4258 40.9432 64.2421C41.4461 63.1516 40.7848 61.6882 41.5206 60.7375C42.1633 59.9173 43.2531 60.2435 44.1473 59.7216C44.5292 59.5072 44.8738 59.2369 45.1905 58.9387C45.7867 58.8827 46.3735 58.8082 46.9323 58.6218C47.6309 58.3794 48.2922 57.9414 48.6462 57.2889C49.0281 56.5712 49.0281 55.6392 49.6056 55.0613C50.211 54.4554 51.338 54.3809 51.6268 53.57C51.8038 53.0667 51.5243 52.4795 51.0586 52.2185H51.0772Z" fill="#263238"/>
<path d="M80.3712 116.289L81.4516 118.404C82.0291 119.541 81.5727 120.94 80.4177 121.499L72.9103 125.18C71.8112 125.721 70.4793 125.292 69.8924 124.211L68.2345 121.154L80.3712 116.289Z" fill="#263238"/>
<path d="M3.71347 86.8445L10.5596 88.5315C10.5596 88.5315 10.8483 87.1894 10.9415 86.7606C11.2675 85.2507 10.9228 84.4304 10.7831 84.1322C10.7086 83.9737 10.69 83.6755 10.69 83.6755C10.7365 83.1349 11.9754 80.6276 12.4318 79.7049C12.972 78.5957 12.4224 77.8687 12.0778 78.2975C11.4537 79.0897 9.56292 82.6129 9.11583 82.8832C8.66873 83.1535 9.2276 81.2708 9.2276 81.2708C10.5596 77.2629 10.9228 76.7037 10.2242 76.424C9.41389 76.0978 7.41129 82.063 7.41129 82.063C7.41129 82.063 7.69072 81.2242 7.05734 80.9352C6.43328 80.6463 5.97687 81.4385 5.97687 81.4385C6.13522 81.0191 5.52978 80.8327 5.52978 80.8327C3.93701 80.7768 3.71347 86.8258 3.71347 86.8258L10.5596 88.5129L9.81441 112.271L12.32 109.596L20.7123 116.493L12.3293 124.164C10.5596 125.656 8.1937 126.243 5.9303 125.758C2.13933 124.947 -0.403503 121.377 0.0529022 117.528L3.72278 86.8165L3.71347 86.8445Z" fill="#FFD0B7"/>
<path d="M9.13448 87.8603C9.13448 87.8603 8.85505 87.4408 8.47316 86.7511C8.27756 86.4063 8.07263 85.9775 7.88635 85.4928C7.7932 85.2505 7.70938 84.9895 7.63486 84.7099C7.56966 84.4396 7.45789 84.1413 7.5324 83.9083C7.56966 83.7685 7.67211 83.666 7.78389 83.6567C7.89566 83.638 8.04469 83.7033 8.16578 83.7872C8.42659 83.9643 8.65944 84.1786 8.85505 84.3837C9.24625 84.8124 9.49774 85.2505 9.65609 85.614L9.71197 85.7445L9.7958 85.6326C10.1311 85.1666 10.4944 85.0641 10.4758 85.0268C10.4758 85.0082 10.0846 85.0454 9.6654 85.5301L9.80511 85.5488C9.67471 85.1666 9.43254 84.6819 9.03202 84.2159C8.82711 83.9829 8.59425 83.7592 8.3055 83.5635C8.15647 83.4703 7.97949 83.3584 7.74663 83.3771C7.50445 83.405 7.3368 83.6101 7.2716 83.8151C7.17845 84.1879 7.31817 84.4862 7.38337 84.7658C7.4672 85.0454 7.56034 85.3157 7.6628 85.5674C7.86772 86.0707 8.09126 86.4901 8.31481 86.835C8.75259 87.5247 9.11585 87.8696 9.13448 87.8509V87.8603Z" fill="#EB996E"/>
<path d="M7.26227 82.4545C7.26227 82.4545 7.14119 82.9392 7.03873 83.7314C6.99216 84.1602 6.93627 84.6169 6.87107 85.1202C6.83381 85.3718 6.82449 85.6701 6.74998 85.9124C6.69409 86.1454 6.4426 86.3225 6.28426 86.1921C6.1166 86.0616 6.07934 85.7447 6.05139 85.465C6.02345 85.1854 6.00482 84.9058 5.99551 84.6448C5.97688 84.1229 5.97688 83.6475 5.96757 83.2467C5.96757 82.4452 5.93031 81.9512 5.89305 81.9512C5.85579 81.9512 5.82785 82.4452 5.78128 83.2374C5.76265 83.6382 5.74402 84.1136 5.75333 84.6448C5.75333 84.9058 5.76265 85.1854 5.79059 85.4837C5.82785 85.754 5.80922 86.1175 6.12591 86.3971C6.29357 86.5276 6.54506 86.509 6.69409 86.3971C6.85244 86.2946 6.94558 86.1268 6.99215 85.9777C7.07598 85.6701 7.07599 85.3998 7.10393 85.1388C7.14119 84.6355 7.17844 84.1695 7.2157 83.7407C7.27158 82.9392 7.29021 82.4545 7.25296 82.4452L7.26227 82.4545Z" fill="#EB996E"/>
<path d="M5.7906 83.9923C5.7906 83.9923 5.79991 84.2906 5.68814 84.7379C5.63225 84.943 5.53911 85.2413 5.35282 85.3997C5.25036 85.4649 5.19448 85.4649 5.12928 85.3531C5.07339 85.2413 5.02682 85.0455 4.98025 84.8871C4.60767 83.5076 4.73807 82.3332 4.66355 82.3332C4.59835 82.3146 4.34686 83.5169 4.72876 84.9616C4.78464 85.1387 4.81259 85.3065 4.90573 85.4929C4.9523 85.5861 5.05476 85.6793 5.18516 85.7073C5.31556 85.7259 5.43665 85.67 5.50185 85.6048C5.65088 85.4743 5.71608 85.3158 5.76266 85.1853C5.81854 85.0455 5.84649 84.915 5.86512 84.7939C5.93963 84.2999 5.80923 84.0016 5.78128 84.0109L5.7906 83.9923Z" fill="#EB996E"/>
<path d="M11.193 107.461L23.2458 117.518L23.0596 117.723C21.6624 119.252 19.3059 119.382 17.741 118.022L11.0719 112.196C9.92623 111.19 9.73064 109.475 10.6248 108.235L11.1837 107.461H11.193Z" fill="#263238"/>
<path d="M51.8131 84.2533L50.9841 80.5996C50.9841 80.5996 46.5132 80.8885 45.0788 85.0269C45.0788 85.0269 43.3649 80.5996 37.9626 79.8633L36.8728 84.5143L45.4979 88.1213L51.8131 84.244" fill="#263238"/>
<path d="M68.9143 121.657C68.9889 121.778 71.2802 120.548 74.149 119.131C77.0179 117.714 79.3931 116.643 79.3372 116.512C79.2906 116.391 76.8223 117.267 73.9348 118.693C71.0473 120.119 68.8491 121.545 68.9143 121.657Z" fill="#455A64"/>
<path d="M11.9101 107.322C11.8635 107.359 12.2547 108.058 13.0185 109.102C13.7823 110.146 14.9559 111.516 16.4183 112.849C17.8806 114.182 19.3523 115.226 20.4514 115.897C21.5598 116.568 22.2957 116.894 22.3236 116.847C22.3981 116.717 19.6224 115.142 16.7443 112.495C13.8475 109.866 12.0312 107.238 11.9101 107.322Z" fill="#455A64"/>
<path d="M45.0881 85.0273C45.0881 85.0273 45.0509 85.2231 45.0415 85.6052C45.0322 86.034 45.0136 86.5839 44.995 87.255C44.9763 88.7556 44.9391 90.8154 44.9018 93.332C44.8646 98.5236 44.8273 105.589 44.7714 113.39C44.7714 121.201 44.7807 128.266 44.7901 133.448C44.818 135.965 44.8366 138.024 44.8459 139.525C44.8646 140.196 44.8739 140.746 44.8832 141.175C44.9018 141.557 44.9111 141.753 44.9298 141.753C44.9484 141.753 44.967 141.557 44.9763 141.175C44.9857 140.746 45.0043 140.196 45.0229 139.525C45.0415 138.024 45.0788 135.965 45.1161 133.448C45.1533 128.256 45.1906 121.191 45.2465 113.39C45.2465 105.589 45.2371 98.5236 45.2278 93.332C45.1999 90.8154 45.1813 88.7463 45.1719 87.255C45.1533 86.5746 45.144 86.034 45.1347 85.6052C45.1161 85.2231 45.1067 85.0273 45.0881 85.0273Z" fill="#455A64"/>
<path d="M45.9637 83.6476C45.9637 83.6476 46.1034 83.5917 46.3177 83.6476C46.5319 83.6942 46.7368 83.9365 46.9417 84.328C47.3702 85.083 47.8173 86.2201 47.8732 87.5436L47.8918 88.1028L48.283 87.702L48.3016 87.6834C50.1925 85.7261 51.9529 84.3746 51.8691 84.2534C51.8039 84.1509 49.8851 85.3439 47.957 87.3385L47.9384 87.3572L48.3575 87.5156C48.3016 86.0896 47.7614 84.8779 47.2305 84.1416C46.9976 83.7781 46.6623 83.4425 46.3363 83.4518C46.0289 83.4518 45.9358 83.6289 45.9637 83.6383V83.6476Z" fill="#455A64"/>
<path d="M37.8602 79.9474C37.767 79.9288 37.2827 81.7183 36.6866 84.3188L36.6493 84.4586L36.7797 84.5425C37.5435 85.0737 38.419 85.6423 39.3691 86.1922C40.3564 86.7701 41.3251 87.2827 42.1914 87.7115L42.5174 87.8699V87.5157C42.4988 86.2668 42.9738 85.2508 43.3836 84.6357C43.8028 84.0112 44.1474 83.7129 44.1102 83.6757C44.0915 83.6477 43.6724 83.8714 43.1694 84.4865C42.6757 85.0924 42.0982 86.1456 42.0703 87.5251L42.387 87.3293C41.5394 86.8819 40.5986 86.36 39.6113 85.7914C38.6798 85.2415 37.8043 84.6916 37.0312 84.1883L37.1243 84.4213C37.6553 81.8115 37.9626 79.9754 37.8695 79.9567L37.8602 79.9474Z" fill="#455A64"/>
<path d="M43.6723 95.3449C43.6351 95.4008 43.7189 95.5313 43.663 95.7271C43.6071 95.9321 43.4395 96.0626 43.2252 95.9228C43.011 95.7737 43.0669 95.5779 43.2346 95.4381C43.3929 95.317 43.5512 95.3356 43.5792 95.2797C43.6258 95.2331 43.4488 95.0187 43.0855 95.1306C42.9272 95.1865 42.7223 95.317 42.6384 95.5779C42.5546 95.8482 42.7036 96.1745 42.9458 96.3236C43.1787 96.482 43.5326 96.5007 43.7562 96.3236C43.9704 96.1465 44.017 95.9135 43.9983 95.7364C43.9518 95.3636 43.691 95.2797 43.663 95.3449H43.6723Z" fill="#455A64"/>
<path d="M43.3277 111.246C43.2905 111.302 43.3743 111.432 43.3184 111.628C43.2625 111.833 43.0949 111.964 42.8806 111.824C42.6664 111.675 42.7223 111.479 42.89 111.339C43.0483 111.218 43.2066 111.237 43.2346 111.181C43.2812 111.143 43.1042 110.92 42.7409 111.032C42.5826 111.087 42.3777 111.218 42.2938 111.479C42.21 111.749 42.359 112.075 42.6012 112.225C42.8341 112.383 43.188 112.402 43.4116 112.225C43.6258 112.047 43.6724 111.814 43.6537 111.637C43.6072 111.265 43.3464 111.181 43.3184 111.246H43.3277Z" fill="#455A64"/>
<path d="M43.2439 128.881C43.2066 128.937 43.2904 129.067 43.2346 129.263C43.1787 129.468 43.011 129.598 42.7968 129.459C42.5825 129.309 42.6384 129.114 42.8061 128.974C42.9644 128.853 43.1228 128.871 43.1507 128.815C43.1973 128.778 43.0203 128.554 42.6571 128.666C42.4987 128.722 42.2938 128.853 42.21 129.114C42.1261 129.384 42.2752 129.71 42.5173 129.859C42.7502 130.018 43.1042 130.036 43.3277 129.859C43.5419 129.682 43.5885 129.449 43.5699 129.272C43.5233 128.899 43.2625 128.815 43.2346 128.881H43.2439Z" fill="#455A64"/>
<path d="M72.4166 115.636C72.547 115.664 72.7985 114.956 72.9847 114.061C73.1617 113.166 73.2083 112.411 73.0779 112.383C72.9475 112.355 72.696 113.064 72.5097 113.958C72.3327 114.853 72.2862 115.608 72.4166 115.636Z" fill="#F5F5F5"/>
<path d="M68.8865 105.653C68.8585 105.784 69.5944 106.054 70.5258 106.259C71.4666 106.464 72.2397 106.53 72.2769 106.399C72.3049 106.269 71.569 105.998 70.6376 105.793C69.7062 105.588 68.9238 105.523 68.8865 105.653Z" fill="#F5F5F5"/>
<path d="M66.4367 111.33C66.3342 111.423 66.6416 111.898 67.1073 112.401C67.573 112.905 68.0388 113.24 68.1319 113.147C68.225 113.054 67.927 112.579 67.4613 112.075C66.9955 111.572 66.5298 111.246 66.4367 111.33Z" fill="#F5F5F5"/>
<path d="M65.8871 100.528C66.0175 100.528 66.1573 99.6327 66.1945 98.5143C66.2318 97.3958 66.1479 96.4917 66.0082 96.4917C65.8778 96.4917 65.7381 97.3865 65.7009 98.505C65.6636 99.6234 65.7474 100.528 65.8871 100.528Z" fill="#F5F5F5"/>
<path d="M58.7524 91.4954C58.7524 91.6258 59.628 91.7284 60.7084 91.7284C61.7889 91.7284 62.6552 91.6072 62.6552 91.4674C62.6552 91.3369 61.7796 91.2344 60.6991 91.2344C59.6186 91.2344 58.7524 91.3555 58.7524 91.4954Z" fill="#F5F5F5"/>
<path d="M53.7319 91.2719C53.8623 91.2252 53.6574 90.3211 53.2848 89.2493C52.9122 88.1774 52.5024 87.3385 52.3813 87.3852C52.2509 87.4318 52.4558 88.3359 52.8284 89.4077C53.201 90.4796 53.6108 91.3185 53.7319 91.2719Z" fill="#F5F5F5"/>
<path d="M55.6135 102.475C55.7346 102.54 56.2282 101.823 56.7219 100.891C57.2155 99.9492 57.5229 99.1383 57.4018 99.073C57.2807 99.0078 56.7871 99.7161 56.2934 100.658C55.7998 101.599 55.4924 102.41 55.6135 102.475Z" fill="#F5F5F5"/>
<path d="M48.8511 98.5791C48.9815 98.5605 49.0001 97.908 48.8976 97.1158C48.7859 96.3235 48.5996 95.6991 48.4599 95.7177C48.3295 95.7363 48.3108 96.3888 48.4133 97.181C48.5251 97.9733 48.7113 98.5978 48.8511 98.5791Z" fill="#F5F5F5"/>
<path d="M49.6429 105.364C49.6243 105.495 50.2576 105.69 51.04 105.784C51.8318 105.886 52.4838 105.858 52.5024 105.728C52.521 105.597 51.8877 105.402 51.1052 105.308C50.3135 105.206 49.6615 105.234 49.6429 105.364Z" fill="#F5F5F5"/>
<path d="M58.7524 114.07C58.8828 114.079 59.0504 113.418 59.125 112.597C59.1995 111.768 59.1529 111.088 59.0225 111.078C58.8921 111.069 58.7244 111.731 58.6499 112.551C58.5754 113.38 58.622 114.061 58.7524 114.07Z" fill="#F5F5F5"/>
<path d="M51.2263 116.661C51.1238 116.745 51.5896 117.491 52.2695 118.311C52.9495 119.14 53.5828 119.737 53.6946 119.653C53.7971 119.569 53.3314 118.824 52.6514 118.003C51.9714 117.174 51.3381 116.577 51.2356 116.661H51.2263Z" fill="#F5F5F5"/>
<path d="M57.8116 126.551C57.9327 126.606 58.3239 125.973 58.6778 125.152C59.0318 124.323 59.2274 123.615 59.1063 123.559C58.9852 123.503 58.594 124.136 58.2401 124.957C57.8861 125.786 57.6905 126.495 57.8116 126.551Z" fill="#F5F5F5"/>
<path d="M49.261 127.604C49.1306 127.632 49.1678 128.405 49.3541 129.337C49.5404 130.269 49.7919 131.006 49.9223 130.978C50.0527 130.95 50.0155 130.176 49.8292 129.244C49.6429 128.312 49.3914 127.576 49.261 127.604Z" fill="#F5F5F5"/>
<path d="M57.3553 140.028C57.4578 140.112 58.0539 139.59 58.6779 138.854C59.3113 138.117 59.7398 137.446 59.6373 137.362C59.5349 137.278 58.9387 137.8 58.3147 138.537C57.6813 139.273 57.2528 139.944 57.3553 140.028Z" fill="#F5F5F5"/>
<path d="M56.936 144.763C56.9174 144.893 57.6532 145.117 58.5847 145.266C59.5161 145.415 60.2892 145.424 60.3172 145.294C60.3358 145.164 59.5999 144.94 58.6685 144.791C57.7371 144.642 56.964 144.632 56.936 144.763Z" fill="#F5F5F5"/>
<path d="M47.3143 138.397C47.2211 138.499 47.9011 139.282 48.8325 140.149C49.764 141.016 50.5929 141.64 50.6768 141.547C50.7699 141.445 50.09 140.671 49.1585 139.795C48.2271 138.928 47.3981 138.304 47.3143 138.406V138.397Z" fill="#F5F5F5"/>
<path d="M55.1384 131.509C55.008 131.528 54.9614 131.975 55.0359 132.516C55.1104 133.056 55.2781 133.476 55.4085 133.457C55.5389 133.438 55.5855 132.991 55.5109 132.45C55.4364 131.91 55.2688 131.49 55.1384 131.509Z" fill="#F5F5F5"/>
<path d="M47.4354 111.209C47.4726 111.339 48.0874 111.265 48.8046 111.05C49.5218 110.836 50.0714 110.556 50.0341 110.426C49.9968 110.295 49.3821 110.37 48.6649 110.584C47.9477 110.799 47.3981 111.078 47.4354 111.209Z" fill="#F5F5F5"/>
<path d="M40.9432 106.26C41.0736 106.241 41.0363 105.346 40.8594 104.265C40.6824 103.184 40.4309 102.326 40.2912 102.354C40.1608 102.373 40.1981 103.268 40.375 104.349C40.552 105.43 40.8035 106.287 40.9432 106.26Z" fill="#F5F5F5"/>
<path d="M33.0725 110.78C33.175 110.864 33.7897 110.295 34.4417 109.512C35.0938 108.729 35.5408 108.021 35.4384 107.937C35.3359 107.853 34.7212 108.422 34.0692 109.205C33.4172 109.987 32.9701 110.696 33.0725 110.78Z" fill="#F5F5F5"/>
<path d="M37.9347 114.592C37.8136 114.639 38.0278 115.468 38.4283 116.437C38.8196 117.407 39.248 118.152 39.3691 118.106C39.4902 118.059 39.276 117.23 38.8754 116.26C38.4842 115.291 38.0558 114.545 37.9347 114.592Z" fill="#F5F5F5"/>
<path d="M37.292 125.143C37.3851 125.236 38.0651 124.696 38.8103 123.931C39.5554 123.167 40.077 122.468 39.9839 122.375C39.8907 122.282 39.2108 122.822 38.4656 123.586C37.7205 124.351 37.1989 125.05 37.292 125.143Z" fill="#F5F5F5"/>
<path d="M31.3214 125.646C31.4518 125.618 31.3866 124.808 31.1631 123.838C30.9488 122.869 30.6601 122.105 30.5297 122.133C30.3993 122.161 30.4645 122.971 30.688 123.941C30.9023 124.91 31.191 125.674 31.3214 125.646Z" fill="#F5F5F5"/>
<path d="M37.0125 135.014C37.115 135.097 37.6925 134.575 38.4097 133.951C39.1176 133.317 39.7137 132.814 39.6392 132.693C39.5647 132.581 38.8288 132.926 38.093 133.587C37.3478 134.24 36.9194 134.93 37.0218 135.014H37.0125Z" fill="#F5F5F5"/>
<path d="M36.6307 140.755C36.5468 140.858 37.115 141.482 37.9999 141.995C38.8848 142.517 39.7137 142.703 39.751 142.573C39.7976 142.442 39.0897 142.069 38.2421 141.575C37.3945 141.081 36.7145 140.653 36.6307 140.755Z" fill="#F5F5F5"/>
<path d="M28.9555 141.929C28.8251 141.929 28.6854 142.647 28.6481 143.551C28.6109 144.446 28.6947 145.182 28.8251 145.191C28.9555 145.191 29.0952 144.474 29.1325 143.57C29.1697 142.675 29.0859 141.939 28.9555 141.929Z" fill="#F5F5F5"/>
<path d="M31.7685 135.032C31.8989 135.032 31.9828 133.858 31.9548 132.422C31.9269 130.987 31.7965 129.822 31.6568 129.822C31.5264 129.822 31.4425 130.996 31.4705 132.432C31.4984 133.867 31.6288 135.032 31.7685 135.032Z" fill="#F5F5F5"/>
<path d="M30.1291 115.375C30.0732 115.487 30.5576 115.859 31.2841 116.009C32.0106 116.167 32.6067 116.027 32.5974 115.897C32.5974 115.757 32.0386 115.673 31.3866 115.533C30.7252 115.393 30.185 115.254 30.1291 115.375Z" fill="#F5F5F5"/>
<path d="M32.8024 95.4661C32.672 95.4847 32.6906 96.4261 32.8397 97.5819C32.998 98.7283 33.2216 99.6511 33.3613 99.6324C33.4917 99.6138 33.4731 98.6724 33.324 97.5166C33.1657 96.3702 32.9421 95.4475 32.8024 95.4661Z" fill="#F5F5F5"/>
<path d="M38.8288 93.108C38.6984 93.0707 38.391 93.7045 38.1302 94.5247C37.8694 95.345 37.767 96.0533 37.8881 96.0906C38.0185 96.1279 38.3258 95.4941 38.5866 94.6739C38.8475 93.8537 38.9499 93.1453 38.8288 93.108Z" fill="#F5F5F5"/>
<path d="M36.1276 88.0098C36.0717 88.131 36.8076 88.6063 37.8321 88.9046C38.8567 89.2122 39.7416 89.2122 39.7509 89.0817C39.7695 88.9419 38.9499 88.7368 37.9625 88.4386C36.9752 88.1496 36.1742 87.8793 36.1183 88.0098H36.1276Z" fill="#F5F5F5"/>
<path d="M31.6939 90.3767C31.815 90.3301 31.6567 89.5938 31.34 88.7269C31.014 87.8601 30.6507 87.1984 30.5296 87.2543C30.4085 87.3009 30.5669 88.0372 30.8836 88.904C31.2096 89.7708 31.5729 90.4326 31.6939 90.3767Z" fill="#F5F5F5"/>
<path d="M22.6962 95.5686C22.78 95.6711 23.5438 95.2051 24.41 94.5247C25.2762 93.8443 25.9096 93.2105 25.8258 93.0986C25.742 92.9961 24.9782 93.4621 24.1119 94.1425C23.2457 94.8229 22.6123 95.4567 22.6962 95.5686Z" fill="#F5F5F5"/>
<path d="M25.8258 101.18C25.9562 101.18 26.0959 100.257 26.1332 99.1015C26.1705 97.9551 26.0866 97.0137 25.9562 97.0137C25.8258 97.0137 25.6861 97.9364 25.6488 99.0922C25.6116 100.239 25.6954 101.18 25.8258 101.18Z" fill="#F5F5F5"/>
<path d="M22.7149 107.993C22.7242 108.123 23.4321 108.17 24.2984 108.095C25.1646 108.021 25.8445 107.844 25.8352 107.713C25.8259 107.583 25.118 107.536 24.2518 107.611C23.3949 107.685 22.7056 107.862 22.7149 107.993Z" fill="#F5F5F5"/>
<path d="M18.5792 107.443C18.691 107.499 19.2219 106.614 19.4268 105.374C19.6411 104.135 19.4268 103.128 19.2964 103.137C19.1567 103.147 19.1474 104.125 18.9425 105.29C18.7562 106.455 18.4488 107.387 18.5792 107.443Z" fill="#F5F5F5"/>
<path d="M19.343 113.39C19.3151 113.52 19.9112 113.744 20.6657 113.893C21.4201 114.042 22.0535 114.051 22.0815 113.921C22.1094 113.79 21.5133 113.567 20.7588 113.418C20.0043 113.269 19.371 113.259 19.3523 113.39H19.343Z" fill="#F5F5F5"/>
<path d="M41.3158 84.5235C41.3997 84.626 41.7815 84.421 42.0237 83.9829C42.2659 83.5448 42.2286 83.1161 42.0982 83.0974C41.9678 83.0695 41.8002 83.3864 41.5953 83.7499C41.3997 84.1134 41.2227 84.4303 41.3158 84.5235Z" fill="#F5F5F5"/>
<path d="M38.7171 83.7408C38.8382 83.7967 39.1363 83.4425 39.3878 82.9392C39.6393 82.4359 39.7417 81.9792 39.63 81.9233C39.5089 81.8674 39.2108 82.2215 38.9593 82.7249C38.7078 83.2282 38.6054 83.6849 38.7171 83.7408Z" fill="#F5F5F5"/>
<path d="M48.8605 83.2188C48.8698 83.3493 49.289 83.4332 49.7919 83.3959C50.2949 83.3586 50.6954 83.2188 50.6861 83.0883C50.6768 82.9578 50.2577 82.874 49.7547 82.9112C49.2517 82.9485 48.8512 83.0883 48.8605 83.2188Z" fill="#F5F5F5"/>
<path d="M32.3833 66.9169C32.3833 66.9169 32.4857 66.9169 32.6627 66.8703C32.8397 66.8144 33.0912 66.7212 33.3892 66.5348C33.9667 66.1806 34.7771 65.3977 35.01 64.1114C35.1217 63.4963 35.1124 62.8065 35.3266 62.1821C35.4291 61.8745 35.6154 61.5949 35.8948 61.3991C36.1649 61.2034 36.5282 61.1009 36.9101 60.989C37.292 60.8772 37.7204 60.784 38.121 60.5323C38.5308 60.2807 38.8289 59.8519 38.9965 59.4232C39.3318 58.5563 39.3505 57.5963 39.8628 56.9532C40.9898 55.6483 43.337 56.9159 44.6783 55.3967C45.2465 54.6603 45.2651 53.8308 45.498 53.197C45.7029 52.5539 46.1221 52.0506 46.5878 51.7057C47.5378 51.0066 48.5904 51.0719 49.2144 51.249C49.8571 51.4354 50.1552 51.687 50.1738 51.6498C50.1738 51.6404 50.1179 51.5659 49.9782 51.454C49.8292 51.3422 49.6056 51.1931 49.2703 51.0719C48.6369 50.8296 47.482 50.6897 46.3922 51.4261C45.8613 51.7803 45.3769 52.3395 45.1161 53.0665C44.8553 53.7562 44.7901 54.5578 44.3337 55.117C43.8773 55.6763 43.0297 55.7695 42.1727 55.7881C41.735 55.8068 41.2786 55.8068 40.8035 55.9093C40.3285 56.0025 39.8348 56.2448 39.4902 56.6549C38.8382 57.5124 38.8661 58.5097 38.5587 59.2647C38.419 59.6469 38.1955 59.9638 37.8881 60.1595C37.5714 60.3645 37.1895 60.4671 36.7983 60.5789C36.4164 60.6908 36.0066 60.8119 35.6526 61.0729C35.2987 61.3246 35.0658 61.7067 34.9541 62.0702C34.7305 62.8159 34.7771 63.4869 34.684 64.0741C34.5256 65.2392 33.8177 66.0035 33.2961 66.395C32.7652 66.7958 32.3833 66.889 32.4019 66.9356L32.3833 66.9169Z" fill="#455A64"/>
<path d="M51.1332 267.291C51.1332 267.291 51.1518 267.189 51.1611 266.984C51.1704 266.76 51.1891 266.462 51.2077 266.089C51.2356 265.278 51.2822 264.122 51.3381 262.668C51.4406 259.658 51.5803 255.37 51.7573 250.076C52.1298 239.413 52.6328 224.734 53.1917 208.525C53.7226 192.288 54.0579 177.59 54.1324 166.946C54.179 161.624 54.179 157.318 54.1324 154.344C54.1138 152.881 54.0952 151.734 54.0859 150.914C54.0765 150.541 54.0672 150.253 54.0579 150.019C54.0579 149.814 54.0393 149.712 54.03 149.712C54.03 149.712 54.0113 149.814 54.002 150.019L53.9834 150.914C53.9741 151.725 53.9555 152.881 53.9368 154.344C53.8996 157.355 53.8437 161.652 53.7785 166.946C53.6108 177.581 53.2289 192.279 52.698 208.506C52.1671 224.734 51.6734 239.423 51.4033 250.067C51.2636 255.389 51.1798 259.695 51.1332 262.668C51.1146 264.132 51.1052 265.278 51.0959 266.098C51.0959 266.471 51.0959 266.76 51.0959 266.993C51.0959 267.198 51.0959 267.301 51.1146 267.301L51.1332 267.291Z" fill="#263238"/>
<path d="M11.9754 268.522C12.1058 268.55 17.0518 241.921 23.0223 209.066C28.9928 176.192 33.7246 149.535 33.5942 149.517C33.4638 149.498 28.5178 176.108 22.5473 208.982C16.5767 241.837 11.845 268.504 11.9754 268.532V268.522Z" fill="#263238"/>
<path d="M43.3556 157.206C43.3556 157.206 43.5418 157.327 43.9144 157.29C44.287 157.253 44.8272 157.029 45.2464 156.488C45.6842 155.957 45.917 155.183 46.0847 154.363C46.2616 153.543 46.4293 152.639 46.569 151.688C46.8578 149.777 46.9882 148.025 47.0161 146.767C47.0534 145.499 46.9975 144.716 46.9323 144.716C46.7926 144.716 46.6622 147.829 46.0847 151.614C45.945 152.564 45.7959 153.459 45.6469 154.279C45.5072 155.09 45.3209 155.799 44.9763 156.283C44.6409 156.768 44.1938 157.01 43.8772 157.103C43.5512 157.197 43.3556 157.159 43.3556 157.206Z" fill="#263238"/>
<path d="M45.1719 145.434C45.1253 145.481 45.1999 145.639 45.1253 145.854C45.0508 146.077 44.8273 146.245 44.5758 146.068C44.315 145.9 44.3802 145.63 44.5665 145.471C44.7341 145.313 44.9111 145.332 44.939 145.266C44.9763 145.22 44.7621 145.024 44.3988 145.182C44.2312 145.257 44.0355 145.415 43.9703 145.695C43.9051 145.984 44.0635 146.31 44.315 146.469C44.5665 146.636 44.9297 146.664 45.1626 146.487C45.3955 146.32 45.47 146.077 45.47 145.9C45.47 145.509 45.2092 145.378 45.1812 145.434H45.1719Z" fill="#263238"/>
</svg>
