<svg width="345" height="364" viewBox="0 0 345 364" fill="none" xmlns="http://www.w3.org/2000/svg">
<path d="M224.417 123.331C224.754 120.853 221.264 118.822 218.639 118.606C217.39 118.504 216.087 118.693 214.899 118.282C212.327 117.384 211.302 114.07 208.797 113.01C206.921 112.22 204.768 112.922 202.945 113.84C201.129 114.751 199.334 115.906 197.302 116.034C195.534 116.149 193.617 115.494 192.071 116.358C190.917 116.999 190.316 118.329 189.256 119.112C188.217 119.875 186.867 120.037 185.578 120.111C184.288 120.178 182.959 120.192 181.784 120.732C180.61 121.272 179.638 122.507 179.887 123.776L224.417 123.337V123.331Z" fill="#F5F5F5"/>
<path d="M235.61 298.573C235.808 296.211 235.484 293.155 232.73 292.244C228.068 290.703 225.305 287.088 225.458 283.004C225.611 278.911 220.707 274.936 217.026 278.767C213.345 282.598 213.84 275.819 208.936 274.169C204.031 272.52 199.873 276.522 201.214 280.173C202.555 283.824 197.713 286.105 191.918 283.004C186.122 279.894 179.742 285.546 180.974 289.973C182.207 294.399 181.199 294.886 177.528 293.416C174.567 292.226 169.716 294.723 169.176 298.582H235.61V298.573Z" fill="#E0E0E0"/>
<path d="M233.392 75.9146C233.392 73.715 235.174 71.921 237.379 71.921C237.775 71.921 238.162 71.9841 238.522 72.0923C238.468 71.6956 238.432 71.2809 238.432 70.8663C238.432 66.1966 242.212 62.4193 246.864 62.4193C247.395 62.4193 247.917 62.4734 248.421 62.5636C249.717 60.4361 252.048 59.0117 254.712 59.0117C258.753 59.0117 262.028 62.2661 262.082 66.2957C262.127 66.2957 262.163 66.2957 262.208 66.2957C265.961 66.2957 269.003 69.3427 269.003 73.1019C269.003 76.8611 265.961 79.9082 262.208 79.9082H237.262C235.111 79.8451 233.392 78.0872 233.392 75.9146Z" fill="#F5F5F5"/>
<path d="M322.72 98.0101C322.72 96.6399 323.827 95.531 325.195 95.531C325.438 95.531 325.681 95.5671 325.906 95.6392C325.87 95.3868 325.852 95.1344 325.852 94.882C325.852 91.9792 328.201 89.6263 331.099 89.6263C331.432 89.6263 331.756 89.6624 332.062 89.7165C332.872 88.3913 334.32 87.5078 335.976 87.5078C338.487 87.5078 340.521 89.5271 340.557 92.0333C340.584 92.0333 340.611 92.0333 340.629 92.0333C342.96 92.0333 344.85 93.9264 344.85 96.2612C344.85 98.5961 342.96 100.489 340.629 100.489H325.123C323.791 100.444 322.72 99.3533 322.72 98.0101Z" fill="#F5F5F5"/>
<path d="M275.109 296.499H254.707V311.824H275.109V296.499Z" fill="#F5F5F5"/>
<path d="M236.007 296.499H216.46V311.824H236.007V296.499Z" fill="#F5F5F5"/>
<path d="M197.759 296.499H177.358V311.824H197.759V296.499Z" fill="#F5F5F5"/>
<path d="M158.657 296.499H139.11V311.824H158.657V296.499Z" fill="#F5F5F5"/>
<path d="M120.41 296.499H100.863V311.824H120.41V296.499Z" fill="#F5F5F5"/>
<path d="M82.1621 296.499H61.7605V311.824H82.1621V296.499Z" fill="#F5F5F5"/>
<path d="M182.784 147.145C183.664 140.766 174.657 135.512 167.891 134.973C164.666 134.715 161.312 135.207 158.251 134.14C151.625 131.83 148.987 123.27 142.513 120.55C137.682 118.51 132.123 120.327 127.432 122.684C122.753 125.041 118.121 128.008 112.879 128.348C108.329 128.641 103.38 126.952 99.4045 129.18C96.4375 130.834 94.8778 134.258 92.1454 136.275C89.4717 138.245 85.977 138.667 82.6582 138.843C79.3395 139.018 75.9034 139.054 72.8778 140.437C69.8523 141.821 67.3544 145.022 67.9759 148.282L182.772 147.145H182.784Z" fill="#F5F5F5"/>
<path d="M109.131 99.4035C109.677 95.6596 104.085 92.5765 99.8841 92.2599C97.8818 92.1085 95.7994 92.3975 93.899 91.7713C89.7851 90.4155 88.1469 85.3916 84.1276 83.795C81.1278 82.5975 77.6765 83.6642 74.764 85.0475C71.8588 86.4308 68.9828 88.1719 65.7281 88.3715C62.903 88.5436 59.8303 87.5526 57.362 88.8601C55.5199 89.8305 54.5515 91.8401 52.855 93.0238C51.1948 94.18 49.0251 94.4277 46.9645 94.531C44.9039 94.6342 42.7705 94.6548 40.892 95.4669C39.0134 96.279 37.4625 98.1578 37.8484 100.071L109.124 99.4035H109.131Z" fill="#F5F5F5"/>
<path d="M274.935 337.948L176.663 337.497C164.841 337.445 155.303 327.818 155.355 315.995L156.398 69.6102C156.449 57.78 166.076 48.2346 177.905 48.2863L276.177 48.7374C287.999 48.7891 297.536 58.4159 297.484 70.2387L296.442 316.631C296.39 328.461 286.764 338.007 274.935 337.948Z" fill="#455A64"/>
<path d="M276.036 57.2476L256.984 57.1588C254.426 57.144 252.348 59.3031 252.341 61.9722L252.326 65.4252C252.319 68.0943 250.234 70.2533 247.683 70.2385L210.546 70.0685C207.988 70.0537 205.926 67.8799 205.94 65.2107L205.955 61.7578C205.962 59.0886 203.907 56.9074 201.349 56.9001L194.651 56.8705L177.971 56.7965C169.691 56.7596 162.948 63.4436 162.911 71.7247L161.891 312.217C161.854 320.498 168.538 327.234 176.811 327.271L274.89 327.722C283.171 327.759 289.914 321.075 289.951 312.794L290.971 72.3014C291.008 64.0203 284.324 57.2845 276.051 57.2476H276.036Z" fill="#FAFAFA"/>
<path d="M177.986 85.9282C177.912 86.0022 176.263 84.5678 174.297 82.7193C174.297 82.1574 174.297 82.564 174.297 82.4383H174.304L174.319 82.4162L174.341 82.394L174.386 82.3496L174.474 82.2609L174.659 82.0908C174.777 81.9799 174.896 81.869 175.014 81.7581C175.243 81.5437 175.472 81.3367 175.694 81.137C176.101 80.7747 176.485 80.4346 176.855 80.1019C177.52 79.5178 177.957 79.1851 177.994 79.222C178.031 79.259 177.661 79.673 177.04 80.3015C176.685 80.649 176.323 81.0113 175.938 81.3958L175.28 82.0317L174.925 82.3644L174.748 82.5345L174.659 82.6232L174.615 82.6676L174.593 82.6897H174.578V82.7045H174.57C174.57 82.5862 174.57 82.9855 174.57 82.431C176.537 84.2868 178.075 85.8469 178.001 85.9208L177.986 85.9282Z" fill="#263238"/>
<path d="M280.177 80.2868C280.177 80.7304 279.814 81.0854 279.378 81.0854C278.942 81.0854 278.58 80.7231 278.58 80.2868C278.58 79.8506 278.942 79.4883 279.378 79.4883C279.814 79.4883 280.177 79.8506 280.177 80.2868Z" fill="#263238"/>
<path d="M279.947 82.4756C280.258 82.7861 280.258 83.2963 279.947 83.6068C279.637 83.9174 279.127 83.9174 278.816 83.6068C278.506 83.2963 278.506 82.7861 278.816 82.4756C279.127 82.165 279.637 82.165 279.947 82.4756Z" fill="#263238"/>
<path d="M280.177 85.8029C280.177 86.2466 279.814 86.6015 279.378 86.6015C278.942 86.6015 278.58 86.2392 278.58 85.8029C278.58 85.3667 278.942 85.0044 279.378 85.0044C279.814 85.0044 280.177 85.3667 280.177 85.8029Z" fill="#263238"/>
<path d="M245.532 83.5625H210.946V86.4461H245.532V83.5625Z" fill="#263238"/>
<path d="M286.917 190.001V266.259C286.917 268.393 285.188 270.122 283.062 270.122H170.415C168.281 270.122 166.552 268.393 166.552 266.259V190.001C166.552 187.875 168.281 186.146 170.415 186.146H283.062C285.188 186.146 286.917 187.875 286.917 190.001Z" fill="#EBEBEB"/>
<path d="M286.917 213.98C271.564 218.783 255.714 223.763 240.507 228.566L254.376 254.426L286.917 255.528V263.184L249.717 261.922L233.08 230.914C225.996 233.155 219.104 235.343 212.51 237.431L227.465 270.122H219.058L205.167 239.771C189.539 244.751 176.068 249.095 166.552 252.231V244.185C169.351 243.267 172.48 242.242 175.907 241.133C183.174 238.777 191.887 235.978 201.961 232.765L189.003 204.427L166.552 211.563V203.539L185.798 197.42L180.642 186.146H189.049L209.305 230.425C217.276 227.893 225.988 225.132 235.42 222.156C240.905 220.428 246.39 218.691 251.798 216.993L237.585 186.146H246.015L259.157 214.676C269.04 211.57 278.487 208.61 286.917 205.964V213.98Z" fill="white"/>
<path d="M282.913 102.87H170.555C168.731 102.87 167.252 104.513 167.252 106.541V171.979C167.252 174.006 168.731 175.649 170.555 175.649H282.913C284.738 175.649 286.217 174.006 286.217 171.979V106.541C286.217 104.513 284.738 102.87 282.913 102.87Z" fill="#EBEBEB"/>
<path d="M256.376 108.092H197.437C195.914 108.092 194.679 109.329 194.679 110.856V167.656C194.679 169.182 195.914 170.419 197.437 170.419H256.376C257.899 170.419 259.134 169.182 259.134 167.656V110.856C259.134 109.329 257.899 108.092 256.376 108.092Z" fill="white"/>
<path d="M203.932 140.341H248.91L248.009 132.264L235.049 129.485L223.007 131.588L208.502 133.015L204.902 137.145L203.932 140.341Z" fill="#263238"/>
<path opacity="0.2" d="M203.932 140.341H248.91L248.009 132.264L235.049 129.485L223.007 131.588L208.502 133.015L204.902 137.145L203.932 140.341Z" fill="black"/>
<path d="M216.444 140.342C216.444 142.976 214.315 145.109 211.685 145.109C209.055 145.109 206.925 142.976 206.925 140.342C206.925 137.707 209.055 135.574 211.685 135.574C214.315 135.574 216.444 137.707 216.444 140.342Z" fill="#263238"/>
<path opacity="0.2" d="M211.685 143.53C213.443 143.53 214.868 142.103 214.868 140.342C214.868 138.581 213.443 137.153 211.685 137.153C209.927 137.153 208.502 138.581 208.502 140.342C208.502 142.103 209.927 143.53 211.685 143.53Z" fill="black"/>
<path d="M247.516 140.342C247.516 142.976 245.387 145.109 242.757 145.109C240.127 145.109 237.997 142.976 237.997 140.342C237.997 137.707 240.127 135.574 242.757 135.574C245.387 135.574 247.516 137.707 247.516 140.342Z" fill="#263238"/>
<path opacity="0.2" d="M242.757 143.53C244.514 143.53 245.94 142.103 245.94 140.342C245.94 138.581 244.514 137.153 242.757 137.153C240.999 137.153 239.574 138.581 239.574 140.342C239.574 142.103 240.999 143.53 242.757 143.53Z" fill="black"/>
<path d="M251.98 136.098L251.457 139.825L248.532 140.751C248.532 140.751 248.456 134.45 242.09 134.45C235.724 134.45 236.543 141.958 236.543 141.958H235.428L233.329 141.055H219.582L218.384 141.958H217.573C217.573 141.958 218.248 134.45 211.685 134.45C205.122 134.45 205.956 141.958 205.956 141.958L202.204 140.341L201.833 136.553L203.402 135.574L203.781 133.273C203.947 133.144 204.122 133.023 204.296 132.909C208.684 129.964 214.686 129.569 214.686 129.569C219.847 124.308 221.939 123.564 221.939 123.564C233.784 122.736 245.084 124.012 245.084 124.012L248.532 128.438L249.343 129.098L250.184 129.789C250.707 132.195 250.555 134.45 250.555 134.45L251.98 136.098Z" fill="#407BFF"/>
<path opacity="0.6" d="M207.554 133.167L204.925 135.574H203.401L203.78 133.273C203.947 133.144 204.121 133.023 204.296 132.909L206.205 132.621L207.554 133.167Z" fill="white"/>
<path opacity="0.6" d="M250.555 134.451L249.6 134.094C249.6 132.097 248.403 130.093 248.403 130.093L249.342 129.099L250.184 129.789C250.707 132.196 250.555 134.451 250.555 134.451Z" fill="white"/>
<path d="M248.532 128.438C242.294 129.933 214.686 129.569 214.686 129.569C214.845 129.409 214.997 129.25 215.156 129.098C217.998 126.244 219.847 124.832 220.885 124.156C221.605 123.678 221.938 123.564 221.938 123.564C233.784 122.736 245.083 124.012 245.083 124.012L248.532 128.438Z" fill="#263238"/>
<path opacity="0.2" d="M251.98 136.098L251.457 139.826L248.532 140.752C248.532 140.752 248.456 134.451 242.09 134.451C235.724 134.451 236.542 141.959 236.542 141.959H235.428L233.329 141.055H219.582L218.384 141.959H217.573C217.573 141.959 218.248 134.451 211.685 134.451C205.122 134.451 205.955 141.959 205.955 141.959L202.204 140.342L201.833 136.554H204.925C204.925 136.554 207.176 132.872 212.124 132.872C217.073 132.872 218.665 136.554 218.665 136.554H234.534C234.534 136.554 237.232 132.819 241.203 132.621C245.174 132.424 247.516 134.094 247.516 134.094H249.6L250.555 134.451L251.98 136.098Z" fill="black"/>
<path d="M286.531 131.869V142.057H271.01C271.01 142.057 272.041 138.572 272.844 136.204C273.238 135.027 273.579 134.116 273.708 134.048C275.762 132.924 280.582 132.249 286.531 131.869Z" fill="#263238"/>
<path opacity="0.2" d="M286.531 131.869V142.057H271.01C271.01 142.057 272.041 138.572 272.844 136.204C273.238 135.027 273.579 134.116 273.708 134.048C275.762 132.924 280.582 132.249 286.531 131.869Z" fill="black"/>
<path d="M279.634 145.101C282.137 145.101 284.166 143.069 284.166 140.562C284.166 138.054 282.137 136.022 279.634 136.022C277.131 136.022 275.102 138.054 275.102 140.562C275.102 143.069 277.131 145.101 279.634 145.101Z" fill="#263238"/>
<path opacity="0.2" d="M279.634 144.577C281.848 144.577 283.643 142.779 283.643 140.561C283.643 138.343 281.848 136.545 279.634 136.545C277.42 136.545 275.625 138.343 275.625 140.561C275.625 142.779 277.42 144.577 279.634 144.577Z" fill="white"/>
<path d="M280.703 127.534C282.923 126.176 284.841 125.067 286.531 124.171V143.401H285.053L284.803 142.057L284.227 138.952C283.886 137.092 282.272 135.749 280.385 135.749H278.573C276.823 135.749 275.292 136.91 274.814 138.595L273.837 142.057L273.458 143.401L267.312 142.604L268.092 137.373L268.213 136.546L269.411 135.749L271.76 130.343L273.943 129.66L280.703 127.534Z" fill="#407BFF"/>
<path opacity="0.7" d="M275.102 130.04L272.215 134.944L269.418 135.749L271.768 130.343L273.95 129.66C274.632 129.858 275.102 130.04 275.102 130.04Z" fill="white"/>
<path opacity="0.4" d="M286.531 125.515V128.445C284.932 128.468 283.37 128.385 282.029 128.142C282.029 128.142 284.197 126.844 286.531 125.515Z" fill="black"/>
<path opacity="0.2" d="M286.531 137.495V143.401H285.053L284.803 142.057L284.227 138.952C283.886 137.092 282.272 135.749 280.384 135.749H278.573C276.823 135.749 275.292 136.91 274.814 138.595L273.837 142.057L273.458 143.401L267.312 142.604L268.092 137.373L272.707 136.022L272.844 136.204L273.708 137.35C273.708 137.35 275.216 134.443 280.362 134.443C284.469 134.443 286.061 136.622 286.531 137.495Z" fill="black"/>
<path d="M237.914 164.376H215.906C213.928 164.376 212.329 162.775 212.329 160.793C212.329 158.812 213.928 157.21 215.906 157.21H237.914C239.892 157.21 241.491 158.812 241.491 160.793C241.491 162.775 239.892 164.376 237.914 164.376Z" fill="#407BFF"/>
<mask id="mask0_370_10151" style="mask-type:alpha" maskUnits="userSpaceOnUse" x="167" y="115" width="120" height="59">
<path d="M282.913 115.466H170.555C168.731 115.466 167.252 116.778 167.252 118.396V170.62C167.252 172.238 168.731 173.549 170.555 173.549H282.913C284.738 173.549 286.217 172.238 286.217 170.62V118.396C286.217 116.778 284.738 115.466 282.913 115.466Z" fill="white"/>
</mask>
<g mask="url(#mask0_370_10151)">
<path d="M132.398 140.763L182.62 140.842L182.632 133.409L132.41 133.33L132.398 140.763Z" fill="#455A64"/>
<path d="M185.248 127.933C185.248 127.933 183.99 128.074 183.768 127.931C183.263 127.606 172.271 123.177 162.826 123.164C155.25 123.154 148.429 125.164 141.793 129.592C141.793 129.592 133.715 130.484 130.56 132.848C129.821 133.276 128.316 134.963 128.89 138.795C129.256 141.24 131.076 141.344 133.562 141.288C133.562 141.288 132.637 133.864 139.254 134.432C144.876 134.914 143.8 141.777 143.8 141.777L171.97 141.82C171.97 141.82 172.093 138.773 172.212 138.033C172.451 136.554 174.289 134.13 177.722 134.491C181.486 134.886 182.739 138.321 182.498 141.22C182.498 141.22 186.47 142.079 187.006 138.884L187.953 138.589C187.953 138.589 188.318 131.962 185.009 129.174L185.72 128.702L185.248 127.932V127.933Z" fill="#407BFF"/>
<path d="M183.374 127.721C183.374 127.721 183.139 128.36 182.332 128.289C181.674 128.231 177.914 126.806 176.545 126.281C176.152 126.13 175.839 125.811 175.726 125.404C175.699 125.303 175.688 125.211 175.708 125.143C175.708 125.143 181.552 126.546 183.374 127.721Z" fill="#263238"/>
<g opacity="0.3">
<path d="M177.803 128.289C177.803 128.289 178.2 128.633 177.802 129.041C177.405 129.448 175.504 130.861 174.622 130.946C173.74 131.031 146.951 132.82 145.363 132.366C143.775 131.912 142.85 131.108 143.247 130.649L143.968 130.411L156.598 130.67L177.804 128.289H177.803Z" fill="white"/>
</g>
<g opacity="0.7">
<path d="M187.549 133.986C187.549 133.986 185.989 134.448 185.324 133.218C184.659 131.988 183.924 130.688 183.924 130.407C183.924 130.054 184.175 128.922 185.01 129.152C185.01 129.152 187.328 130.999 187.549 133.986Z" fill="white"/>
</g>
<path d="M177.538 128.289C177.538 128.289 175.196 130.328 174.182 130.325C173.167 130.324 146.422 131.947 145.232 131.466C144.041 130.985 143.422 130.59 143.422 130.59C143.422 130.59 152.149 124.305 162.319 124.607C169.783 124.828 177.538 128.288 177.538 128.288V128.289Z" fill="#263238"/>
<path d="M180.25 143.088C182 141.338 182 138.501 180.25 136.751C178.5 135 175.663 135 173.913 136.751C172.163 138.501 172.163 141.338 173.913 143.088C175.663 144.838 178.5 144.838 180.25 143.088Z" fill="#263238"/>
<path d="M177.087 136.935C175.438 136.932 174.102 138.268 174.099 139.917C174.097 141.561 175.427 142.901 177.076 142.904C178.725 142.906 180.061 141.571 180.064 139.927C180.066 138.278 178.735 136.938 177.087 136.936V136.935ZM174.691 139.918C174.693 138.597 175.765 137.525 177.085 137.527C178.406 137.529 179.474 138.605 179.472 139.926C179.469 141.246 178.398 142.314 177.077 142.312C175.757 142.31 174.689 141.238 174.691 139.918Z" fill="#1E282D"/>
<path d="M177.085 137.525C175.765 137.523 174.694 138.597 174.691 139.916C174.689 141.237 175.758 142.308 177.078 142.31C178.398 142.313 179.469 141.244 179.472 139.924C179.474 138.605 178.405 137.528 177.085 137.525Z" fill="#1E282D"/>
</g>
<path opacity="0.2" d="M189.121 144.21L192.812 149.145V139.283L189.121 144.21Z" fill="black"/>
<path opacity="0.2" d="M264.691 144.21L261.001 139.283V149.145L264.691 144.21Z" fill="black"/>
<path d="M183.74 260.188H176.379V337.309H183.74V260.188Z" fill="#263238"/>
<path opacity="0.2" d="M183.74 260.188H176.379V337.309H183.74V260.188Z" fill="black"/>
<path d="M236.435 260.188H229.075V337.309H236.435V260.188Z" fill="#263238"/>
<path opacity="0.2" d="M236.435 260.188H229.075V337.309H236.435V260.188Z" fill="black"/>
<path d="M113.476 260.188H106.115V337.309H113.476V260.188Z" fill="#263238"/>
<path d="M60.7805 260.188H53.4199V337.309H60.7805V260.188Z" fill="#263238"/>
<path d="M251.52 257.336V263.041C251.52 263.961 250.783 264.71 249.864 264.71H46.453C45.5342 264.71 44.787 263.961 44.787 263.041V257.336C44.787 256.426 45.5342 255.678 46.453 255.678H249.864C250.783 255.678 251.52 256.426 251.52 257.336Z" fill="#263238"/>
<path opacity="0.1" d="M251.52 257.336V263.041C251.52 263.961 250.783 264.71 249.864 264.71H46.453C45.5342 264.71 44.787 263.961 44.787 263.041V257.336C44.787 256.426 45.5342 255.678 46.453 255.678H249.864C250.783 255.678 251.52 256.426 251.52 257.336Z" fill="white"/>
<path opacity="0.2" d="M102.208 257.336V263.041C102.208 263.961 101.471 264.71 100.552 264.71H46.453C45.5342 264.71 44.787 263.961 44.787 263.041V257.336C44.787 256.426 45.5342 255.678 46.453 255.678H100.552C101.471 255.678 102.208 256.426 102.208 257.336Z" fill="white"/>
<path d="M151.074 187.811L159.838 172.285L164.388 171.695C164.388 171.695 163.332 182.525 161.364 187.073C161.364 187.073 159.752 192.474 153.857 192.554C147.962 192.635 151.076 187.816 151.076 187.816L151.074 187.811Z" fill="#FFC7B1"/>
<path d="M146.799 167.194C150.322 169.72 149.719 176.805 151.106 178.831C152.321 187.561 155.158 180.452 155.158 180.452L162.857 181.667C162.857 181.667 163.296 186.305 159.21 192.204C155.125 198.113 147.341 197.242 143.068 187.762C138.795 178.282 146.81 167.194 146.81 167.194H146.799Z" fill="#407BFF"/>
<path d="M146.799 167.194C150.322 169.72 149.719 176.805 151.106 178.831C152.321 187.561 155.158 180.452 155.158 180.452L162.857 181.667C162.857 181.667 163.296 186.305 159.21 192.204C155.125 198.113 147.341 197.242 143.068 187.762C138.795 178.282 146.81 167.194 146.81 167.194H146.799Z" fill="white" fill-opacity="0.2"/>
<path d="M193.118 331.802L200.154 329.871L198.893 312.686L191.878 314.628L193.118 331.802Z" fill="#EBB376"/>
<path d="M200.581 328.931L192.43 329.495C192.149 329.495 191.92 329.735 191.93 330.027L191.982 336.532C192.034 337.231 192.639 337.774 193.337 337.733C196.183 337.492 197.527 337.231 201.113 336.949C203.312 336.793 207.679 336.688 210.66 335.989C213.641 335.3 212.869 332.366 211.556 332.397C208.419 332.45 204.031 330.727 201.873 329.255C201.498 329.004 201.05 328.889 200.591 328.921L200.581 328.931Z" fill="#263238"/>
<path d="M203.239 329.996C202.582 330.028 201.925 329.986 201.279 329.871C201.217 329.871 201.154 329.819 201.144 329.756C201.133 329.693 201.144 329.62 201.196 329.579C201.415 329.401 203.385 327.856 204.291 328.138C204.5 328.211 204.667 328.378 204.719 328.597C204.865 328.921 204.802 329.297 204.573 329.558C204.198 329.871 203.718 330.028 203.228 330.007L203.239 329.996ZM204.198 328.482C203.708 328.326 202.54 329.025 201.738 329.62C203.051 329.787 204.01 329.683 204.323 329.318C204.458 329.14 204.489 328.91 204.406 328.702C204.385 328.597 204.302 328.514 204.198 328.482Z" fill="#263238"/>
<path d="M201.321 329.87C201.321 329.87 201.279 329.891 201.248 329.881C201.196 329.86 201.165 329.808 201.144 329.755C201.144 329.693 200.821 327.584 201.498 326.822C201.686 326.623 201.936 326.519 202.207 326.54C202.509 326.529 202.77 326.728 202.853 327.01C203.072 327.793 202.092 329.39 201.404 329.87C201.373 329.881 201.342 329.881 201.311 329.87H201.321ZM202.124 326.905C201.988 326.905 201.863 326.978 201.769 327.083C201.363 327.532 201.394 328.743 201.456 329.421C202.04 328.847 202.655 327.646 202.54 327.124C202.52 327.03 202.447 326.916 202.207 326.905H202.124Z" fill="#263238"/>
<path opacity="0.2" d="M191.878 314.627L198.893 312.695L199.612 322.52L192.556 324.097L191.878 314.627Z" fill="black"/>
<path d="M183.936 331.551L177.296 334.579L175.608 327.438L173.336 317.832L179.954 314.794L182.226 324.389L183.936 331.551Z" fill="#EBB376"/>
<path opacity="0.2" d="M182.226 324.389L175.608 327.438L173.336 317.832L179.954 314.794L182.226 324.389Z" fill="black"/>
<path d="M184.207 330.56L176.244 332.419C175.962 332.471 175.775 332.742 175.827 333.024L176.911 339.435C177.067 340.124 177.755 340.552 178.443 340.406C181.215 339.706 182.497 339.237 185.989 338.391C188.136 337.879 192.43 337.086 195.265 335.927C198.1 334.768 196.87 332.001 195.578 332.241C192.493 332.795 187.886 331.792 185.52 330.686C185.103 330.498 184.644 330.456 184.207 330.56Z" fill="#263238"/>
<path d="M187 331.186C186.354 331.321 185.708 331.384 185.051 331.374C184.989 331.374 184.926 331.342 184.895 331.28C184.874 331.217 184.884 331.144 184.916 331.092C185.103 330.883 186.792 329.035 187.751 329.171C187.969 329.202 188.157 329.348 188.24 329.557C188.428 329.849 188.439 330.225 188.251 330.528C187.928 330.893 187.49 331.134 187 331.186ZM187.709 329.536C187.198 329.463 186.166 330.33 185.458 331.05C186.781 331.008 187.709 330.747 187.969 330.34C188.074 330.142 188.063 329.912 187.949 329.724C187.907 329.62 187.813 329.547 187.709 329.536Z" fill="#263238"/>
<path d="M185.082 331.364C185.082 331.364 185.041 331.395 185.02 331.395C184.968 331.374 184.926 331.343 184.895 331.29C184.884 331.228 184.238 329.202 184.78 328.336C184.926 328.117 185.166 327.97 185.437 327.939C185.729 327.876 186.031 328.033 186.156 328.304C186.489 329.035 185.781 330.779 185.176 331.353C185.145 331.374 185.114 331.374 185.082 331.374V331.364ZM185.395 328.304C185.26 328.336 185.145 328.419 185.082 328.534C184.749 329.046 184.968 330.226 185.145 330.894C185.635 330.236 186.052 328.952 185.854 328.461C185.812 328.367 185.729 328.263 185.489 328.294H185.405L185.395 328.304Z" fill="#263238"/>
<path d="M134.73 233.983L132.593 210.241L93.0179 211.17C93.0179 211.17 88.3277 244.247 91.7359 250.323C97.8124 261.171 137.711 255.011 147.039 255.94C150.844 257.976 171.241 325.653 171.241 325.653L182.654 321.038C182.654 321.038 170.376 263.917 167.583 253.152C163.695 238.191 147.842 238.452 134.74 233.973L134.73 233.983Z" fill="#407BFF"/>
<path opacity="0.6" d="M134.73 233.983L132.593 210.241L93.0179 211.17C93.0179 211.17 88.3277 244.247 91.7359 250.323C97.8124 261.171 137.711 255.011 147.039 255.94C150.844 257.976 171.241 325.653 171.241 325.653L182.654 321.038C182.654 321.038 170.376 263.917 167.583 253.152C163.695 238.191 147.842 238.452 134.74 233.973L134.73 233.983Z" fill="white"/>
<path d="M200.31 319.878L190.242 320.808C190.242 320.808 177.891 257.819 176.942 257.558C175.222 257.067 170.219 256.503 167.53 255.804C148.842 250.939 102.836 241.98 102.836 241.98L119.804 225.609C119.804 225.609 196.735 234.86 198.444 252.943C199.268 261.64 200.32 319.878 200.32 319.878H200.31Z" fill="#407BFF"/>
<path opacity="0.6" d="M200.31 319.878L190.242 320.808C190.242 320.808 177.891 257.819 176.942 257.558C175.222 257.067 170.219 256.503 167.53 255.804C148.842 250.939 102.836 241.98 102.836 241.98L119.804 225.609C119.804 225.609 196.735 234.86 198.444 252.943C199.268 261.64 200.32 319.878 200.32 319.878H200.31Z" fill="white"/>
<path opacity="0.2" d="M174.211 257.611C172.492 257.12 170.209 256.514 167.52 255.815C168.26 256.212 166.102 246.397 163.945 243.86C159.661 238.807 142.474 236.071 136.314 235.08C131.155 234.255 113.863 232.72 113.863 232.72C113.863 232.72 142.128 231.954 165.152 238.281C170.587 241.206 176.765 250.657 174.222 257.611H174.211Z" fill="black"/>
<path d="M133.489 215.096C135.803 201.805 139.701 183.993 146.904 167.34C143.11 165.733 139.212 164.407 135.23 163.373C129.414 161.796 123.515 160.554 117.563 159.656C113.446 159.218 109.298 159.103 105.16 159.311C105.16 159.311 96.2384 176.006 91.7149 215.096H133.489Z" fill="#407BFF"/>
<path d="M120.607 170.922C120.607 170.922 110.226 162.621 108.913 157.714C107.599 152.807 113.697 149.497 122.243 151.387C130.79 153.277 138.701 158.664 136.179 165.012C133.656 171.36 129.237 172.801 129.237 172.801C129.237 172.801 127.403 169.157 120.607 170.922Z" fill="#407BFF"/>
<path d="M141.785 175.512L143.811 174.702L148.238 172.538L149.564 166.928C149.775 166.051 150.312 165.292 151.066 164.801C151.867 164.281 152.848 164.117 153.777 164.339L157.617 165.911C157.938 166.04 158.183 166.314 158.248 166.653C158.3 166.94 158.23 167.214 157.739 167.173C156.787 167.097 154.8 166.887 154.8 166.887L155.706 170.084C155.945 170.919 155.852 171.819 155.449 172.591L154.87 173.695L153.777 174.702L152.726 175.512C152.726 175.512 146.459 183.181 139.354 184.022C135.082 184.531 131.654 180.78 131.654 180.78L132.87 179.398L141.785 175.512Z" fill="#FFC7B1"/>
<path d="M154.917 167.109C154.917 167.109 154.817 166.975 154.601 166.828C154.385 166.688 154.04 166.507 153.614 166.525C153.176 166.548 152.854 166.834 152.743 167.086C152.626 167.349 152.702 167.524 152.72 167.518C152.755 167.518 152.731 167.349 152.86 167.15C152.983 166.957 153.269 166.735 153.625 166.717C153.988 166.7 154.309 166.84 154.537 166.951C154.765 167.062 154.905 167.138 154.917 167.115V167.109Z" fill="#AA6550"/>
<path d="M153.275 169.102C153.275 169.102 153.357 168.997 153.486 168.839C153.608 168.687 153.813 168.494 154.087 168.389C154.362 168.278 154.643 168.278 154.835 168.307C155.034 168.336 155.151 168.377 155.168 168.354C155.18 168.336 155.075 168.243 154.865 168.173C154.66 168.108 154.339 168.085 154.017 168.208C153.696 168.336 153.48 168.57 153.375 168.763C153.264 168.956 153.252 169.09 153.275 169.102Z" fill="#AA6550"/>
<path opacity="0.2" d="M120.607 170.922C120.607 170.922 110.226 162.621 108.913 157.714C107.599 152.807 113.697 149.497 122.243 151.387C130.79 153.277 138.701 158.664 136.179 165.012C133.656 171.36 129.237 172.801 129.237 172.801C129.237 172.801 127.403 169.157 120.607 170.922Z" fill="white"/>
<path d="M126.63 145.347C125.046 151.058 121.622 160.566 116.255 162.216C116.255 162.216 119.887 169.235 125.807 169.778C129.569 170.123 131.654 165.863 131.654 165.863C127.818 165.143 129.277 162.324 132.31 158.795L126.63 145.358V145.347Z" fill="#FFBF9D"/>
<path opacity="0.2" d="M129.716 150.207L133.073 158.163C132.353 158.977 131.707 159.854 131.144 160.783C127.371 161.065 124.661 155.072 125.589 152.64C125.923 151.637 129.049 151.021 129.727 150.207H129.716Z" fill="black"/>
<path d="M133.072 193.776H133.052C132.906 193.776 132.802 193.64 132.812 193.494C133.677 180.704 129.404 172.352 129.362 172.278C129.299 172.153 129.341 171.997 129.477 171.923C129.602 171.861 129.758 171.903 129.831 172.038C129.873 172.122 134.219 180.589 133.343 193.536C133.343 193.671 133.218 193.776 133.083 193.776H133.072Z" fill="white"/>
<path d="M117.282 189.224C117.282 189.224 117.188 189.214 117.147 189.193C117.022 189.12 116.98 188.963 117.053 188.838C121.733 180.872 120.357 170.076 120.347 169.961C120.326 169.815 120.43 169.69 120.565 169.669C120.701 169.648 120.836 169.752 120.857 169.888C120.868 170.003 122.264 180.966 117.501 189.099C117.449 189.182 117.366 189.224 117.272 189.224H117.282Z" fill="white"/>
<path d="M132.874 193.338C132.874 193.338 133.708 193.38 133.562 194.737L132.343 194.612C132.343 194.612 132.207 193.474 132.874 193.338Z" fill="white"/>
<path d="M117.365 188.483C117.365 188.483 118.064 188.953 117.24 190.039L116.25 189.308C116.25 189.308 116.709 188.264 117.365 188.483Z" fill="white"/>
<path d="M106.151 159.322C110.163 160.251 119.784 176.914 124.922 179.984C130.061 183.053 144.277 173.177 144.277 173.177L149.145 179.243C149.145 179.243 137.627 189.412 127.549 189.652C117.47 189.892 103.18 175.62 101.054 170.378C98.9276 165.148 101.273 158.184 106.151 159.311V159.322Z" fill="#407BFF"/>
<path opacity="0.2" d="M106.151 159.322C110.163 160.251 119.784 176.914 124.922 179.984C130.061 183.053 144.277 173.177 144.277 173.177L149.145 179.243C149.145 179.243 137.627 189.412 127.549 189.652C117.47 189.892 103.18 175.62 101.054 170.378C98.9276 165.148 101.273 158.184 106.151 159.311V159.322Z" fill="white"/>
<path d="M140.669 140.502C141.978 140.877 143.511 140.124 144.018 138.857C144.524 137.591 143.928 135.989 142.721 135.359C143.696 134.644 144.133 133.287 143.765 132.135C143.395 130.988 142.241 130.138 141.033 130.13C141.179 128.946 140.666 127.705 139.726 126.972C138.787 126.24 137.458 126.038 136.346 126.471C135.233 125.143 133.153 124.75 131.633 125.583C130.526 125.179 129.183 125.581 128.478 126.519C127.773 127.457 127.758 128.858 128.448 129.81" fill="#263238"/>
<path d="M139.351 155.951C139.897 152.941 140.516 146.652 141.006 140.95C141.535 134.825 137.271 129.316 131.206 128.299L130.606 128.198C124.046 127.484 119.772 132.661 119.24 139.238L116.255 162.216L131.654 165.863L131.808 162.108C131.808 162.108 138.218 162.19 139.348 155.956L139.351 155.951Z" fill="#FFBF9D"/>
<path d="M131.864 162.105C131.864 162.105 127.837 161.673 124.084 158.332C124.084 158.332 125.251 163.149 131.582 163.637L131.869 162.108L131.864 162.105Z" fill="#FF9A6C"/>
<path d="M137.419 145.946C137.358 146.421 136.904 146.755 136.407 146.699C135.91 146.642 135.557 146.214 135.624 145.742C135.684 145.267 136.138 144.932 136.636 144.989C137.133 145.045 137.485 145.473 137.419 145.946Z" fill="#263238"/>
<path d="M139.149 143.779C139.018 143.879 138.429 143.262 137.468 143.102C136.512 142.931 135.722 143.305 135.639 143.168C135.596 143.109 135.746 142.916 136.09 142.745C136.428 142.571 136.984 142.442 137.576 142.546C138.174 142.652 138.641 142.953 138.89 143.228C139.144 143.506 139.21 143.731 139.151 143.773L139.149 143.779Z" fill="#263238"/>
<path d="M128.907 144.601C128.846 145.076 128.392 145.41 127.895 145.354C127.398 145.298 127.045 144.87 127.112 144.397C127.172 143.922 127.626 143.588 128.124 143.644C128.621 143.7 128.973 144.128 128.907 144.601Z" fill="#263238"/>
<path d="M129.78 142.429C129.658 142.539 129.021 141.969 128.048 141.886C127.082 141.785 126.328 142.221 126.233 142.093C126.183 142.038 126.318 141.831 126.652 141.635C126.98 141.437 127.514 141.265 128.12 141.321C128.726 141.376 129.214 141.645 129.483 141.902C129.761 142.156 129.841 142.38 129.78 142.429Z" fill="#263238"/>
<path d="M131.966 150.077C131.968 150.024 132.587 150.017 133.572 150.058C133.821 150.077 134.063 150.065 134.132 149.905C134.216 149.738 134.16 149.457 134.089 149.148C133.958 148.517 133.821 147.856 133.678 147.159C133.117 144.333 132.76 142.028 132.873 142.002C132.984 141.981 133.531 144.253 134.092 147.078C134.223 147.771 134.35 148.441 134.472 149.075C134.515 149.371 134.625 149.716 134.439 150.056C134.344 150.232 134.14 150.328 133.977 150.346C133.811 150.37 133.673 150.345 133.549 150.333C132.569 150.219 131.966 150.125 131.968 150.072L131.966 150.077Z" fill="#263238"/>
<path d="M129.982 139.13C129.884 139.393 129.02 139.228 127.985 139.321C126.954 139.389 126.116 139.688 125.989 139.444C125.932 139.325 126.088 139.087 126.436 138.842C126.776 138.602 127.317 138.379 127.934 138.331C128.55 138.282 129.11 138.413 129.476 138.603C129.844 138.787 130.022 139.005 129.982 139.13Z" fill="#263238"/>
<path d="M139.52 141.101C139.285 141.272 138.625 140.882 137.767 140.672C136.915 140.43 136.144 140.446 136.033 140.182C135.986 140.054 136.148 139.865 136.514 139.737C136.874 139.607 137.441 139.564 138.025 139.719C138.609 139.873 139.077 140.188 139.326 140.477C139.581 140.769 139.624 141.017 139.52 141.101Z" fill="#263238"/>
<path d="M140.883 137.987C140.883 137.987 139.893 133.8 138.159 132.566C136.06 131.075 134.656 133.414 132.586 132.442C130.51 131.468 128.513 130.041 126.005 131.347C123.263 132.776 124.187 134.261 123.569 137.01C121.066 148.141 118.481 150.978 118.786 145.584C118.82 144.996 117.286 144.26 117.462 141.769C117.688 138.542 118.213 134.663 119.306 132.53C120.224 130.728 121.531 129.6 123.715 128.481C127.165 126.71 131.384 127.373 134.198 128.141C137.012 128.908 141.973 133.131 140.885 137.981L140.883 137.987Z" fill="#263238"/>
<path d="M119.215 145.483C119.338 144.513 118.633 143.61 117.661 143.541C116.478 143.456 115.071 143.898 114.743 146.317C114.163 150.612 118.591 150.308 118.615 150.19C118.629 150.108 118.989 147.282 119.215 145.483Z" fill="#FFBF9D"/>
<path d="M117.896 148.447C117.896 148.447 117.818 148.488 117.678 148.529C117.546 148.568 117.332 148.578 117.116 148.466C116.686 148.235 116.4 147.463 116.487 146.688C116.533 146.294 116.659 145.935 116.843 145.648C117.017 145.35 117.248 145.157 117.482 145.149C117.715 145.126 117.858 145.282 117.897 145.414C117.938 145.54 117.901 145.626 117.919 145.633C117.928 145.644 118.018 145.574 118.007 145.393C118.005 145.304 117.962 145.198 117.875 145.1C117.783 145 117.64 144.939 117.48 144.931C117.144 144.91 116.808 145.173 116.61 145.494C116.395 145.809 116.235 146.215 116.189 146.655C116.097 147.523 116.431 148.39 117.027 148.658C117.319 148.783 117.583 148.719 117.726 148.638C117.872 148.551 117.911 148.46 117.896 148.447Z" fill="#FF9A6C"/>
<path d="M120.688 137.223C121.177 137.695 121.7 138.183 122.356 138.361C123.011 138.539 123.844 138.285 124.064 137.641C124.167 137.353 124.151 136.994 124.384 136.796C124.66 136.562 125.08 136.721 125.432 136.816C126.654 137.156 128.068 136.493 128.587 135.34C128.822 135.867 129.562 135.973 130.095 135.74C130.626 135.512 131.022 135.059 131.469 134.694C131.916 134.33 132.509 134.035 133.058 134.208C133.368 134.306 133.63 134.547 133.953 134.569C134.522 134.616 134.906 134.001 135.082 133.461C135.259 132.92 135.438 132.279 135.966 132.057C136.453 131.852 136.993 132.109 137.499 132.271C138.006 132.433 138.691 132.428 138.905 131.944C139.015 131.686 138.95 131.394 138.842 131.138C138.354 129.982 136.98 129.267 135.753 129.542C135.571 128.064 134.437 126.74 133.004 126.338C131.565 125.934 129.91 126.48 128.99 127.652C128.226 126.683 126.972 126.114 125.736 126.188C124.501 126.257 123.319 126.965 122.674 128.017C121.681 127.566 120.43 127.77 119.627 128.51C118.823 129.251 118.523 130.477 118.89 131.506C118.046 131.817 117.26 132.47 117.095 133.347C116.928 134.23 117.643 135.253 118.533 135.166C118.075 135.796 118.198 136.776 118.797 137.276C119.399 137.769 120.386 137.71 120.915 137.137" fill="#263238"/>
<path d="M135.868 130.858C135.868 130.858 135.87 130.885 135.856 130.934C135.842 130.982 135.828 131.064 135.789 131.155C135.714 131.347 135.588 131.625 135.339 131.925C135.091 132.218 134.726 132.55 134.224 132.776C133.727 133.004 133.076 133.132 132.389 132.981L132.479 132.898C132.55 133.287 132.44 133.72 132.192 134.062C131.954 134.414 131.626 134.707 131.283 134.987C131.11 135.123 130.952 135.286 130.722 135.398C130.5 135.506 130.254 135.543 129.999 135.536C129.507 135.516 128.988 135.274 128.711 134.81L128.881 134.795C128.627 135.627 128.003 136.39 127.145 136.783C126.69 137.008 126.157 137.099 125.669 137.006C125.178 136.918 124.738 136.696 124.34 136.472L124.461 136.443C124.142 136.936 123.711 137.328 123.227 137.588C122.749 137.851 122.158 137.951 121.671 137.744C120.697 137.362 120.168 136.412 120.169 135.6L120.259 135.658C119.713 135.845 119.17 135.783 118.756 135.626C118.334 135.473 118.021 135.224 117.812 135C117.6 134.767 117.489 134.551 117.424 134.401C117.368 134.248 117.349 134.166 117.351 134.16C117.378 134.145 117.439 134.509 117.867 134.949C118.081 135.162 118.388 135.395 118.798 135.529C119.2 135.667 119.713 135.716 120.224 135.535L120.311 135.505L120.311 135.599C120.327 136.357 120.832 137.25 121.735 137.595C122.176 137.783 122.697 137.687 123.148 137.44C123.599 137.192 124.011 136.813 124.31 136.351L124.356 136.276L124.436 136.31C124.826 136.538 125.249 136.752 125.703 136.831C126.16 136.917 126.635 136.836 127.072 136.622C127.878 136.256 128.462 135.537 128.71 134.749L128.774 134.553L128.88 134.733C129.116 135.132 129.576 135.355 130.023 135.37C130.241 135.382 130.468 135.343 130.66 135.256C130.848 135.167 131.011 135.006 131.19 134.873C131.53 134.598 131.848 134.314 132.074 133.991C132.306 133.67 132.405 133.293 132.345 132.942L132.33 132.834L132.435 132.859C133.08 133.012 133.704 132.899 134.185 132.692C134.681 132.483 135.036 132.174 135.29 131.897C135.787 131.317 135.852 130.864 135.881 130.876L135.868 130.858Z" fill="#455A64"/>
<path d="M128.932 150.889C130.064 151.298 131.143 151.846 132.143 152.517L132.151 152.547C131.888 153.322 131.503 154.16 130.747 154.473C130.18 154.705 129.5 154.571 129.03 154.181C128.56 153.791 128.305 153.262 128.307 152.654C128.31 152.045 128.648 151.411 128.926 150.887L128.932 150.889Z" fill="#FF9A6C"/>
<path d="M130.02 154.494C130.03 154.437 129.506 154.525 128.986 154.012C128.734 153.762 128.516 153.385 128.477 152.921C128.432 152.455 128.551 151.938 128.798 151.44C128.852 151.328 128.935 151.167 128.987 151.108C129.022 151.089 128.964 151.098 129.009 151.104L129.181 151.177C129.42 151.299 129.649 151.411 129.879 151.523C130.296 151.721 130.698 151.906 131.076 152.081C131.762 152.394 132.197 152.566 132.214 152.526C132.231 152.485 131.834 152.242 131.173 151.885C130.804 151.687 130.418 151.482 130.009 151.267C129.782 151.149 129.554 151.032 129.315 150.91C129.246 150.88 129.205 150.849 129.12 150.813C129.035 150.756 128.82 150.8 128.765 150.898C128.643 151.056 128.605 151.162 128.524 151.303C128.263 151.835 128.129 152.421 128.2 152.952C128.257 153.484 128.537 153.922 128.843 154.174C129.143 154.438 129.475 154.532 129.691 154.55C129.915 154.564 130.03 154.518 130.023 154.502L130.02 154.494Z" fill="#263238"/>
<path d="M157.66 158.667L163.261 157.29C164.106 157.082 165.108 157.876 165 158.757L162.063 171.112C161.952 171.591 161.575 171.966 161.099 172.084L154.269 173.746C153.459 173.83 152.962 173.032 153.169 172.481L155.963 160.402C156.149 159.544 156.808 158.871 157.659 158.661L157.66 158.667Z" fill="#455A64"/>
<path d="M158.202 159.233L163.803 157.855C164.506 157.682 165.142 158.308 164.972 159.012L162.113 171.095C162.002 171.573 161.625 171.949 161.148 172.066L154.396 173.727C153.982 173.829 153.609 173.463 153.706 173.048L156.499 160.969C156.686 160.111 157.344 159.438 158.195 159.228L158.202 159.233Z" fill="#263238"/>
<path d="M159.554 163.288L163.334 163.398L165.014 165.794L164.235 173.303L159.364 173.303L160.431 170.933L159.655 169.494C159.655 169.494 157.844 169.578 157.715 169.345C157.586 169.112 157.522 168.19 157.753 168.055C157.986 167.927 159.923 167.933 159.923 167.933C159.923 167.933 157.319 167.075 157.285 166.795C157.246 166.517 157.226 165.784 157.598 165.561C157.973 165.343 161.793 165.68 161.793 165.68L162.761 166.694L162.517 164.599C162.517 164.599 159.328 164.846 159.561 163.273L159.554 163.288Z" fill="#FFC7B1"/>
<path d="M161.418 169.669C161.418 169.669 161.458 169.524 161.407 169.3C161.362 169.074 161.233 168.773 161.003 168.502C160.773 168.232 160.493 168.06 160.281 167.976C160.064 167.894 159.926 167.888 159.921 167.909C159.902 167.959 160.442 168.11 160.866 168.621C161.296 169.117 161.365 169.677 161.418 169.669Z" fill="#AA6550"/>
<path d="M162.776 168.518C162.776 168.518 162.559 168.23 162.329 167.704C162.203 167.446 162.069 167.115 161.815 166.81C161.685 166.658 161.53 166.509 161.326 166.41C161.122 166.311 160.891 166.277 160.664 166.267C159.769 166.271 158.977 166.3 158.393 166.32C157.812 166.347 157.454 166.372 157.456 166.396C157.459 166.42 157.814 166.439 158.395 166.444C158.972 166.457 159.778 166.448 160.654 166.445C160.869 166.453 161.073 166.484 161.245 166.564C161.418 166.644 161.566 166.776 161.685 166.913C161.929 167.191 162.075 167.505 162.212 167.76C162.479 168.284 162.758 168.537 162.776 168.518Z" fill="#AA6550"/>
<path d="M163.315 167.643C163.356 167.622 163.244 167.333 163.055 167.004C162.867 166.675 162.682 166.425 162.642 166.452C162.6 166.474 162.712 166.762 162.901 167.091C163.09 167.421 163.275 167.67 163.315 167.643Z" fill="#AA6550"/>
<path d="M161.254 160.678C161.35 161.07 161.112 161.472 160.715 161.569C160.318 161.667 159.922 161.427 159.824 161.03C159.726 160.633 159.966 160.237 160.363 160.139C160.76 160.042 161.156 160.281 161.254 160.678Z" fill="#FAFAFA"/>
<path d="M95.762 214.571C95.762 214.571 102.334 219.498 104.692 230.593C107.049 241.679 115.894 266.204 95.762 256.519L96.2793 254.226C96.2793 254.226 102.699 259.713 105.048 256.018C107.389 252.323 106.176 232.496 96.7202 221.962L95.762 214.571Z" fill="#263238"/>
<path d="M82.202 209.976C82.202 209.976 84.5934 205.159 88.1128 205.049C91.6321 204.938 92.8618 205.941 92.6413 209.415L91.0555 209.525C91.0555 209.525 92.6582 206.62 88.8336 206.501C85.009 206.382 83.915 209.976 83.915 209.976H82.202Z" fill="#263238"/>
<path d="M63.0108 258.405C63.0108 258.405 59.9155 239.215 67.9718 233.396C67.9718 233.396 66.6913 229.37 73.1788 216.134C75.8671 210.647 78.1483 209.135 80.421 209.041L96.1266 208.387C97.7803 208.319 99.2135 209.517 99.434 211.165C100.536 219.371 103.199 243.157 99.5103 258.405H63.0193H63.0108Z" fill="#263238"/>
<path opacity="0.1" d="M63.0108 258.405C63.0108 258.405 59.9155 239.215 67.9718 233.396C67.9718 233.396 66.6913 229.37 73.1788 216.134C75.8671 210.647 78.1483 209.135 80.421 209.041L96.1266 208.387C97.7803 208.319 99.2135 209.517 99.434 211.165C100.536 219.371 103.199 243.157 99.5103 258.405H63.0193H63.0108Z" fill="white"/>
<path d="M88.2399 229.37C89.7918 229.429 91.0045 227.994 90.6483 226.482C89.919 223.355 87.8837 218.785 82.2019 217.936C76.113 217.027 72.2544 222.54 70.465 226.006C69.829 227.246 70.694 228.724 72.0933 228.775L88.2399 229.37Z" fill="#263238"/>
<path d="M65.5719 238.204C65.9705 236.828 86.264 237.644 87.6039 238.204C88.9438 238.765 87.324 252.875 86.1198 254.226C84.9156 255.568 65.1224 254.676 63.6129 254.226C62.1034 253.776 62.3239 249.52 65.5719 238.204Z" fill="#263238"/>
<path opacity="0.2" d="M88.2399 229.37C89.7918 229.429 91.0045 227.994 90.6483 226.482C89.919 223.355 87.8837 218.785 82.2019 217.936C76.113 217.027 72.2544 222.54 70.465 226.006C69.829 227.246 70.694 228.724 72.0933 228.775L88.2399 229.37Z" fill="white"/>
<path opacity="0.2" d="M65.5719 238.204C65.9705 236.828 86.264 237.644 87.6039 238.204C88.9438 238.765 87.324 252.875 86.1198 254.226C84.9156 255.568 65.1224 254.676 63.6129 254.226C62.1034 253.776 62.3239 249.52 65.5719 238.204Z" fill="white"/>
<path d="M98.1109 243.335C98.1109 243.335 98.077 243.335 98.0516 243.335C97.8226 243.301 97.653 243.089 97.6869 242.859C98.7724 234.679 97.0509 214.767 96.6862 213.331C96.3386 211.921 95.4481 211.165 94.0573 211.071C92.3104 210.961 78.3432 211.071 78.2075 211.071C77.9786 211.071 77.7835 210.885 77.7835 210.647C77.7835 210.409 77.9701 210.222 78.2075 210.222C78.7842 210.222 92.3443 210.111 94.1252 210.222C95.8806 210.332 97.0848 211.36 97.5258 213.119C97.865 214.469 99.6883 234.356 98.5434 242.961C98.518 243.174 98.3314 243.327 98.1194 243.327L98.1109 243.335Z" fill="#263238"/>
<path d="M85.2972 241.322C85.2972 241.322 85.2378 241.322 85.2124 241.322C80.3277 240.337 66.2588 240.872 66.1231 240.88C65.9026 240.88 65.6906 240.71 65.6821 240.473C65.6736 240.235 65.8517 240.039 66.0892 240.031C66.6743 240.005 80.404 239.479 85.382 240.49C85.611 240.532 85.7636 240.761 85.7127 240.991C85.6703 241.195 85.4922 241.331 85.2972 241.331V241.322Z" fill="#263238"/>
<path d="M89.2829 226.312C89.1048 226.312 88.9352 226.201 88.8759 226.014C87.943 223.143 85.6194 218.403 80.5142 218.802C75.2818 219.227 73.0345 224.927 73.0176 224.978C72.9328 225.199 72.6868 225.309 72.4664 225.224C72.2459 225.139 72.1356 224.893 72.2204 224.672C72.3222 224.417 74.6797 218.411 80.4464 217.953C86.1367 217.477 88.6808 222.642 89.6815 225.751C89.7578 225.972 89.6306 226.21 89.4101 226.286C89.3677 226.303 89.3253 226.303 89.2829 226.303V226.312Z" fill="#263238"/>
</svg>
