<?xml version="1.0" encoding="utf-8"?>
<!-- Generator: Adobe Illustrator 27.9.0, SVG Export Plug-In . SVG Version: 6.00 Build 0)  -->
<svg version="1.1" id="Layer_1" xmlns="http://www.w3.org/2000/svg" xmlns:xlink="http://www.w3.org/1999/xlink" x="0px" y="0px"
	 viewBox="0 0 345 300" enable-background="new 0 0 345 300" xml:space="preserve">
<path fill="#F5F5F5" d="M214.22,81.13c0.34-2.48-3.15-4.51-5.78-4.72c-1.25-0.1-2.55,0.09-3.74-0.32c-2.57-0.9-3.6-4.21-6.1-5.27
	c-1.88-0.79-4.03-0.09-5.85,0.83c-1.82,0.91-3.61,2.07-5.64,2.19c-1.77,0.12-3.68-0.54-5.23,0.32c-1.15,0.64-1.76,1.97-2.82,2.75
	c-1.04,0.76-2.39,0.93-3.68,1s-2.62,0.08-3.79,0.62s-2.15,1.78-1.9,3.04L214.22,81.13L214.22,81.13z"/>
<path fill="#E0E0E0" d="M225.41,256.37c0.2-2.36-0.13-5.42-2.88-6.33c-4.66-1.54-7.43-5.16-7.27-9.24c0.15-4.09-4.75-8.07-8.43-4.24
	s-3.19-2.95-8.09-4.6s-9.06,2.35-7.72,6s-3.5,5.93-9.3,2.83c-5.8-3.11-12.18,2.54-10.94,6.97c1.23,4.43,0.23,4.91-3.45,3.44
	c-2.96-1.19-7.81,1.31-8.35,5.17L225.41,256.37L225.41,256.37z"/>
<path fill="#F5F5F5" d="M223.19,33.71c0-2.2,1.78-3.99,3.99-3.99c0.4,0,0.78,0.06,1.14,0.17c-0.05-0.4-0.09-0.81-0.09-1.23
	c0-4.67,3.78-8.45,8.43-8.45c0.53,0,1.05,0.05,1.56,0.14c1.3-2.13,3.63-3.55,6.29-3.55c4.04,0,7.32,3.25,7.37,7.28
	c0.05,0,0.08,0,0.13,0c3.75,0,6.79,3.05,6.79,6.81s-3.04,6.81-6.79,6.81h-24.95C224.91,37.65,223.19,35.89,223.19,33.71z"/>
<path fill="#F5F5F5" d="M312.52,55.81c0-1.37,1.11-2.48,2.48-2.48c0.24,0,0.49,0.04,0.71,0.11c-0.04-0.25-0.05-0.5-0.05-0.76
	c0-2.9,2.35-5.26,5.25-5.26c0.33,0,0.66,0.04,0.96,0.09c0.81-1.33,2.26-2.21,3.91-2.21c2.51,0,4.54,2.02,4.58,4.53
	c0.03,0,0.05,0,0.07,0c2.33,0,4.22,1.89,4.22,4.23c0,2.33-1.89,4.23-4.22,4.23h-15.51C313.59,58.24,312.52,57.15,312.52,55.81z"/>
<path fill="#F5F5F5" d="M264.91,254.3h-20.4v15.33h20.4V254.3z"/>
<path fill="#F5F5F5" d="M225.81,254.3h-19.55v15.33h19.55V254.3z"/>
<path fill="#F5F5F5" d="M187.56,254.3h-20.4v15.33h20.4V254.3z"/>
<path fill="#F5F5F5" d="M148.46,254.3h-19.55v15.33h19.55V254.3z"/>
<path fill="#F5F5F5" d="M110.21,254.3H90.66v15.33h19.55V254.3z"/>
<path fill="#F5F5F5" d="M71.96,254.3h-20.4v15.33h20.4V254.3z"/>
<path fill="#F5F5F5" d="M172.58,104.95c0.88-6.38-8.13-11.63-14.89-12.17c-3.23-0.26-6.58,0.23-9.64-0.83
	c-6.63-2.31-9.26-10.87-15.74-13.59c-4.83-2.04-10.39-0.22-15.08,2.13c-4.68,2.36-9.31,5.32-14.55,5.66
	c-4.55,0.29-9.5-1.4-13.47,0.83c-2.97,1.65-4.53,5.08-7.26,7.1c-2.67,1.97-6.17,2.39-9.49,2.57c-3.32,0.18-6.75,0.21-9.78,1.59
	c-3.03,1.38-5.52,4.59-4.9,7.85L172.58,104.95L172.58,104.95L172.58,104.95z"/>
<path fill="#F5F5F5" d="M98.93,57.2c0.55-3.74-5.05-6.83-9.25-7.14c-2-0.15-4.08,0.14-5.99-0.49c-4.11-1.36-5.75-6.38-9.77-7.98
	c-3-1.2-6.45-0.13-9.36,1.25c-2.91,1.38-5.78,3.12-9.04,3.32c-2.83,0.17-5.9-0.82-8.37,0.49c-1.84,0.97-2.81,2.98-4.51,4.16
	c-1.66,1.16-3.83,1.4-5.89,1.51c-2.06,0.1-4.19,0.12-6.07,0.94c-1.88,0.81-3.43,2.69-3.04,4.6L98.93,57.2L98.93,57.2z"/>
<path fill="#455A64" d="M264.73,295.75l-98.27-0.45c-11.82-0.05-21.36-9.68-21.31-21.5l1.04-246.38
	c0.05-11.83,9.68-21.38,21.51-21.32l98.27,0.45c11.82,0.05,21.36,9.68,21.31,21.5l-1.04,246.39
	C286.19,286.26,276.56,295.81,264.73,295.75z"/>
<path fill="#FAFAFA" d="M265.84,15.05l-19.05-0.09c-2.56-0.01-4.64,2.14-4.64,4.81l-0.01,3.45c-0.01,2.67-2.09,4.83-4.64,4.81
	l-37.14-0.17c-2.56-0.01-4.62-2.19-4.61-4.86l0.01-3.45c0.01-2.67-2.05-4.85-4.61-4.86l-6.7-0.03l-16.68-0.07
	c-8.28-0.04-15.02,6.65-15.06,14.93l-1.02,240.49c-0.04,8.28,6.65,15.02,14.92,15.05l98.08,0.45c8.28,0.04,15.02-6.65,15.06-14.93
	l1.02-240.49C280.81,21.81,274.12,15.07,265.84,15.05L265.84,15.05L265.84,15.05z"/>
<path fill="#263238" d="M167.79,43.73c-0.07,0.07-1.72-1.36-3.69-3.21c0-0.56,0-0.16,0-0.28h0.01l0.01-0.02l0.02-0.02l0.04-0.04
	l0.09-0.09l0.18-0.17c0.12-0.11,0.24-0.22,0.36-0.33c0.23-0.21,0.46-0.42,0.68-0.62c0.41-0.36,0.79-0.7,1.16-1.04
	c0.67-0.58,1.1-0.92,1.14-0.88s-0.33,0.45-0.95,1.08c-0.35,0.35-0.72,0.71-1.1,1.09l-0.66,0.64l-0.35,0.33l-0.18,0.17l-0.09,0.09
	l-0.04,0.04l-0.02,0.02h-0.01v0.01h-0.01c0-0.12,0,0.28,0-0.27c1.97,1.86,3.5,3.42,3.43,3.49L167.79,43.73z"/>
<path fill="#263238" d="M269.98,38.09c0,0.44-0.36,0.8-0.8,0.8s-0.8-0.36-0.8-0.8s0.36-0.8,0.8-0.8S269.98,37.65,269.98,38.09z"/>
<path fill="#263238" d="M269.75,40.28c0.31,0.31,0.31,0.82,0,1.13s-0.82,0.31-1.13,0s-0.31-0.82,0-1.13
	C268.93,39.97,269.44,39.97,269.75,40.28z"/>
<path fill="#263238" d="M269.98,43.6c0,0.44-0.36,0.8-0.8,0.8s-0.8-0.36-0.8-0.8s0.36-0.8,0.8-0.8S269.98,43.17,269.98,43.6z"/>
<path fill="#263238" d="M235.33,41.36h-34.59v2.88h34.59V41.36z"/>
<path fill="#EBEBEB" d="M276.72,147.8v76.26c0,2.13-1.73,3.86-3.85,3.86H160.21c-2.13,0-3.86-1.73-3.86-3.86V147.8
	c0-2.13,1.73-3.86,3.86-3.86h112.65C274.99,143.95,276.72,145.68,276.72,147.8z"/>
<path fill="#FFFFFF" d="M276.72,171.78c-15.35,4.8-31.2,9.78-46.41,14.59l13.87,25.86l32.54,1.1v7.66l-37.2-1.26l-16.64-31.01
	c-7.08,2.24-13.98,4.43-20.57,6.52l14.96,32.69h-8.41l-13.89-30.35c-15.63,4.98-29.1,9.32-38.62,12.46v-8.05
	c2.8-0.92,5.93-1.94,9.35-3.05c7.27-2.36,15.98-5.15,26.05-8.37l-12.95-28.34l-22.45,7.14v-8.02l19.25-6.12l-5.16-11.27h8.41
	l20.26,44.28c7.97-2.53,16.68-5.29,26.12-8.27c5.49-1.73,10.97-3.47,16.38-5.16l-14.21-30.85h8.43l13.14,28.53
	c9.88-3.11,19.33-6.07,27.76-8.71v8H276.72z"/>
<path fill="#EBEBEB" d="M272.71,60.67H160.35c-1.82,0-3.3,1.64-3.3,3.67v65.44c0,2.03,1.48,3.67,3.3,3.67h112.36
	c1.83,0,3.3-1.64,3.3-3.67V64.34C276.02,62.31,274.54,60.67,272.71,60.67z"/>
<path fill="#FFFFFF" d="M246.18,65.89h-58.94c-1.52,0-2.76,1.24-2.76,2.76v56.8c0,1.53,1.24,2.76,2.76,2.76h58.94
	c1.52,0,2.76-1.24,2.76-2.76v-56.8C248.93,67.13,247.7,65.89,246.18,65.89z"/>
<path fill="#263238" d="M193.73,98.14h44.98l-0.9-8.08l-12.96-2.78l-12.04,2.1l-14.51,1.43l-3.6,4.13L193.73,98.14z"/>
<path opacity="0.2" enable-background="new    " d="M193.73,98.14h44.98l-0.9-8.08l-12.96-2.78l-12.04,2.1l-14.51,1.43l-3.6,4.13
	L193.73,98.14z"/>
<path fill="#263238" d="M206.24,98.14c0,2.63-2.13,4.77-4.76,4.77s-4.76-2.13-4.76-4.77c0-2.63,2.13-4.77,4.76-4.77
	S206.24,95.51,206.24,98.14z"/>
<path opacity="0.2" enable-background="new    " d="M201.48,101.33c1.76,0,3.18-1.43,3.18-3.19s-1.43-3.19-3.18-3.19
	s-3.18,1.43-3.18,3.19S199.73,101.33,201.48,101.33z"/>
<path fill="#263238" d="M237.32,98.14c0,2.63-2.13,4.77-4.76,4.77c-2.63,0-4.76-2.13-4.76-4.77c0-2.63,2.13-4.77,4.76-4.77
	C235.19,93.37,237.32,95.51,237.32,98.14z"/>
<path opacity="0.2" enable-background="new    " d="M232.56,101.33c1.76,0,3.18-1.43,3.18-3.19s-1.43-3.19-3.18-3.19
	c-1.76,0-3.18,1.43-3.18,3.19S230.8,101.33,232.56,101.33z"/>
<path fill="#407BFF" d="M241.78,93.9l-0.52,3.73l-2.93,0.93c0,0-0.08-6.3-6.44-6.3s-5.55,7.51-5.55,7.51h-1.12l-2.1-0.9h-13.75
	l-1.2,0.9h-0.81c0,0,0.68-7.51-5.89-7.51s-5.73,7.51-5.73,7.51l-3.75-1.62l-0.37-3.79l1.57-0.98l0.38-2.3
	c0.17-0.13,0.34-0.25,0.51-0.36c4.39-2.94,10.39-3.34,10.39-3.34c5.16-5.26,7.25-6,7.25-6c11.85-0.83,23.15,0.45,23.15,0.45
	l3.45,4.43l0.81,0.66l0.84,0.69c0.52,2.41,0.37,4.66,0.37,4.66L241.78,93.9z"/>
<path opacity="0.6" fill="#FFFFFF" enable-background="new    " d="M197.35,90.97l-2.63,2.41h-1.52l0.38-2.3
	c0.17-0.13,0.34-0.25,0.52-0.36l1.91-0.29L197.35,90.97z"/>
<path opacity="0.6" fill="#FFFFFF" enable-background="new    " d="M240.35,92.25l-0.95-0.36c0-2-1.2-4-1.2-4l0.94-0.99l0.84,0.69
	C240.51,90,240.35,92.25,240.35,92.25z"/>
<path fill="#263238" d="M238.33,86.24c-6.24,1.49-33.85,1.13-33.85,1.13c0.16-0.16,0.31-0.32,0.47-0.47
	c2.84-2.85,4.69-4.27,5.73-4.94c0.72-0.48,1.05-0.59,1.05-0.59c11.85-0.83,23.14,0.45,23.14,0.45L238.33,86.24z"/>
<path opacity="0.2" enable-background="new    " d="M241.78,93.9l-0.52,3.73l-2.93,0.93c0,0-0.08-6.3-6.44-6.3s-5.55,7.51-5.55,7.51
	h-1.11l-2.1-0.9h-13.75l-1.2,0.9h-0.81c0,0,0.68-7.51-5.89-7.51s-5.73,7.51-5.73,7.51L192,98.15l-0.37-3.79h3.09
	c0,0,2.25-3.68,7.2-3.68s6.54,3.68,6.54,3.68h15.87c0,0,2.7-3.74,6.67-3.93c3.97-0.2,6.31,1.47,6.31,1.47h2.08l0.95,0.36
	L241.78,93.9z"/>
<path fill="#263238" d="M276.33,89.67v10.19h-15.52c0,0,1.03-3.49,1.83-5.85c0.39-1.18,0.74-2.09,0.86-2.16
	C265.56,90.72,270.38,90.05,276.33,89.67z"/>
<path opacity="0.2" enable-background="new    " d="M276.33,89.67v10.19h-15.52c0,0,1.03-3.49,1.83-5.85
	c0.39-1.18,0.74-2.09,0.86-2.16C265.56,90.72,270.38,90.05,276.33,89.67z"/>
<path fill="#263238" d="M269.43,102.9c2.5,0,4.53-2.03,4.53-4.54s-2.03-4.54-4.53-4.54s-4.53,2.03-4.53,4.54
	S266.93,102.9,269.43,102.9z"/>
<path opacity="0.2" fill="#FFFFFF" enable-background="new    " d="M269.43,102.38c2.21,0,4.01-1.8,4.01-4.02s-1.8-4.02-4.01-4.02
	s-4.01,1.8-4.01,4.02S267.22,102.38,269.43,102.38z"/>
<path fill="#407BFF" d="M270.5,85.33c2.22-1.36,4.14-2.47,5.83-3.36v19.23h-1.48l-0.25-1.34l-0.58-3.11
	c-0.34-1.86-1.95-3.2-3.84-3.2h-1.81c-1.75,0-3.28,1.16-3.76,2.85l-0.98,3.46l-0.38,1.34l-6.15-0.8l0.78-5.23l0.12-0.83l1.2-0.8
	l2.35-5.41l2.18-0.68L270.5,85.33z"/>
<path opacity="0.7" fill="#FFFFFF" enable-background="new    " d="M264.9,87.84l-2.89,4.9l-2.8,0.8l2.35-5.41l2.18-0.68
	C264.43,87.66,264.9,87.84,264.9,87.84z"/>
<path opacity="0.4" enable-background="new    " d="M276.33,83.31v2.93c-1.6,0.02-3.16-0.06-4.5-0.3
	C271.83,85.94,274,84.64,276.33,83.31z"/>
<path opacity="0.2" enable-background="new    " d="M276.33,95.29v5.91h-1.48l-0.25-1.34l-0.58-3.11c-0.34-1.86-1.95-3.2-3.84-3.2
	h-1.81c-1.75,0-3.28,1.16-3.76,2.85l-0.98,3.46l-0.38,1.34l-6.15-0.8l0.78-5.23l4.61-1.35l0.14,0.18l0.86,1.15
	c0,0,1.51-2.91,6.65-2.91C274.27,92.24,275.86,94.42,276.33,95.29z"/>
<path fill="#407BFF" d="M227.71,122.18H205.7c-1.98,0-3.58-1.6-3.58-3.58s1.6-3.58,3.58-3.58h22.01c1.98,0,3.58,1.6,3.58,3.58
	C231.29,120.57,229.69,122.18,227.71,122.18z"/>
<defs>
	<filter id="Adobe_OpacityMaskFilter" filterUnits="userSpaceOnUse" x="118.57" y="80.96" width="59.21" height="21.24">
		<feColorMatrix  type="matrix" values="1 0 0 0 0  0 1 0 0 0  0 0 1 0 0  0 0 0 1 0"/>
	</filter>
</defs>
<mask maskUnits="userSpaceOnUse" x="118.57" y="80.96" width="59.21" height="21.24" id="mask0_370_10151_00000072961035070943237310000017700299998395521954_">
	<path fill="#FFFFFF" filter="url(#Adobe_OpacityMaskFilter)" d="M272.71,73.27H160.35c-1.82,0-3.3,1.31-3.3,2.93v52.22
		c0,1.62,1.48,2.93,3.3,2.93h112.36c1.83,0,3.3-1.31,3.3-2.93V76.2C276.02,74.58,274.54,73.27,272.71,73.27z"/>
</mask>
<g mask="url(#mask0_370_10151_00000072961035070943237310000017700299998395521954_)">
	<path fill="#455A64" d="M122.2,98.56l50.22,0.08l0.01-7.43l-50.22-0.08L122.2,98.56z"/>
	<path fill="#407BFF" d="M175.05,85.73c0,0-1.26,0.14-1.48,0c-0.51-0.32-11.5-4.75-20.94-4.77c-7.58-0.01-14.4,2-21.03,6.43
		c0,0-8.08,0.89-11.23,3.26c-0.74,0.43-2.24,2.11-1.67,5.95c0.37,2.45,2.19,2.55,4.67,2.49c0,0-0.93-7.42,5.69-6.86
		c5.62,0.48,4.55,7.34,4.55,7.34l28.17,0.04c0,0,0.12-3.05,0.24-3.79c0.24-1.48,2.08-3.9,5.51-3.54c3.76,0.4,5.02,3.83,4.78,6.73
		c0,0,3.97,0.86,4.51-2.34l0.95-0.29c0,0,0.36-6.63-2.94-9.42l0.71-0.47L175.05,85.73L175.05,85.73z"/>
	<path fill="#263238" d="M173.17,85.52c0,0-0.23,0.64-1.04,0.57c-0.66-0.06-4.42-1.48-5.79-2.01c-0.39-0.15-0.71-0.47-0.82-0.88
		c-0.03-0.1-0.04-0.19-0.02-0.26C165.51,82.94,171.35,84.35,173.17,85.52z"/>
	<g opacity="0.3">
		<path fill="#FFFFFF" d="M167.6,86.09c0,0,0.4,0.34,0,0.75s-2.3,1.82-3.18,1.9c-0.88,0.09-27.67,1.87-29.26,1.42
			s-2.51-1.26-2.12-1.72l0.72-0.24l12.63,0.26L167.6,86.09L167.6,86.09z"/>
	</g>
	<g opacity="0.7">
		<path fill="#FFFFFF" d="M177.35,91.79c0,0-1.56,0.46-2.22-0.77c-0.67-1.23-1.4-2.53-1.4-2.81c0-0.35,0.25-1.49,1.09-1.26
			C174.81,86.95,177.13,88.8,177.35,91.79z"/>
	</g>
	<path fill="#263238" d="M167.34,86.09c0,0-2.34,2.04-3.36,2.04c-1.01,0-27.76,1.62-28.95,1.14s-1.81-0.88-1.81-0.88
		s8.73-6.28,18.9-5.98C159.58,82.63,167.34,86.09,167.34,86.09L167.34,86.09z"/>
	<path fill="#263238" d="M170.05,100.89c1.75-1.75,1.75-4.59,0-6.34s-4.59-1.75-6.34,0s-1.75,4.59,0,6.34
		S168.3,102.64,170.05,100.89z"/>
	<path fill="#1E282D" d="M166.89,94.73c-1.65,0-2.99,1.33-2.99,2.98c0,1.64,1.33,2.98,2.98,2.99c1.65,0,2.99-1.33,2.99-2.98
		C169.87,96.08,168.54,94.74,166.89,94.73L166.89,94.73z M164.49,97.72c0-1.32,1.07-2.39,2.39-2.39c1.32,0,2.39,1.08,2.39,2.4
		c0,1.32-1.07,2.39-2.4,2.39C165.56,100.11,164.49,99.04,164.49,97.72z"/>
	<path fill="#1E282D" d="M166.89,95.32c-1.32,0-2.39,1.07-2.39,2.39c0,1.32,1.07,2.39,2.39,2.39c1.32,0,2.39-1.07,2.39-2.39
		C169.27,96.4,168.2,95.33,166.89,95.32z"/>
</g>
<path opacity="0.2" enable-background="new    " d="M178.92,102.01l3.69,4.93v-9.86L178.92,102.01z"/>
<path opacity="0.2" enable-background="new    " d="M254.49,102.01l-3.69-4.93v9.86L254.49,102.01z"/>
<path fill="#263238" d="M173.54,217.99h-7.36v77.12h7.36V217.99z"/>
<path opacity="0.2" enable-background="new    " d="M173.54,217.99h-7.36v77.12h7.36V217.99z"/>
<path fill="#263238" d="M226.23,217.99h-7.36v77.12h7.36V217.99z"/>
<path opacity="0.2" enable-background="new    " d="M226.23,217.99h-7.36v77.12h7.36V217.99z"/>
<path fill="#263238" d="M103.28,217.99h-7.36v77.12h7.36V217.99z"/>
<path fill="#263238" d="M50.58,217.99h-7.36v77.12h7.36V217.99z"/>
<path fill="#263238" d="M241.32,215.14v5.7c0,0.92-0.74,1.67-1.66,1.67H36.25c-0.92,0-1.67-0.75-1.67-1.67v-5.7
	c0-0.91,0.75-1.66,1.67-1.66h203.41C240.58,213.48,241.32,214.23,241.32,215.14z"/>
<path opacity="0.1" fill="#FFFFFF" enable-background="new    " d="M241.32,215.14v5.7c0,0.92-0.74,1.67-1.66,1.67H36.25
	c-0.92,0-1.67-0.75-1.67-1.67v-5.7c0-0.91,0.75-1.66,1.67-1.66h203.41C240.58,213.48,241.32,214.23,241.32,215.14z"/>
<path opacity="0.2" fill="#FFFFFF" enable-background="new    " d="M92.01,215.14v5.7c0,0.92-0.74,1.67-1.66,1.67h-54.1
	c-0.92,0-1.67-0.75-1.67-1.67v-5.7c0-0.91,0.75-1.66,1.67-1.66h54.1C91.27,213.48,92.01,214.23,92.01,215.14z"/>
<path fill="#FFC7B1" d="M140.87,145.61l8.76-15.53l4.55-0.59c0,0-1.06,10.83-3.02,15.38c0,0-1.61,5.4-7.51,5.48
	C137.76,150.43,140.88,145.62,140.87,145.61L140.87,145.61z"/>
<path fill="#407BFF" d="M136.6,124.99c3.52,2.53,2.92,9.61,4.31,11.64c1.21,8.73,4.05,1.62,4.05,1.62l7.7,1.22
	c0,0,0.44,4.64-3.65,10.54c-4.09,5.91-11.87,5.04-16.14-4.44s3.74-20.57,3.74-20.57L136.6,124.99L136.6,124.99z"/>
<path fill="#FFFFFF" fill-opacity="0.2" d="M136.6,124.99c3.52,2.53,2.92,9.61,4.31,11.64c1.21,8.73,4.05,1.62,4.05,1.62l7.7,1.22
	c0,0,0.44,4.64-3.65,10.54c-4.09,5.91-11.87,5.04-16.14-4.44s3.74-20.57,3.74-20.57L136.6,124.99L136.6,124.99z"/>
<path fill="#EBB376" d="M182.92,289.6l7.04-1.93l-1.26-17.18l-7.01,1.94L182.92,289.6z"/>
<path fill="#263238" d="M190.38,286.73l-8.15,0.56c-0.28,0-0.51,0.24-0.5,0.53l0.05,6.51c0.05,0.7,0.66,1.24,1.36,1.2
	c2.85-0.24,4.19-0.5,7.78-0.78c2.2-0.16,6.57-0.26,9.55-0.96c2.98-0.69,2.21-3.62,0.9-3.59c-3.14,0.05-7.52-1.67-9.68-3.14
	c-0.38-0.25-0.82-0.37-1.28-0.33L190.38,286.73z"/>
<path fill="#263238" d="M193.04,287.8c-0.66,0.03-1.31-0.01-1.96-0.12c-0.06,0-0.12-0.05-0.14-0.11c-0.01-0.06,0-0.14,0.05-0.18
	c0.22-0.18,2.19-1.72,3.1-1.44c0.21,0.07,0.38,0.24,0.43,0.46c0.15,0.32,0.08,0.7-0.15,0.96c-0.38,0.31-0.85,0.47-1.35,0.45
	L193.04,287.8z M194,286.28c-0.49-0.16-1.66,0.54-2.46,1.14c1.31,0.17,2.27,0.06,2.58-0.3c0.13-0.18,0.17-0.41,0.08-0.62
	C194.18,286.4,194.1,286.31,194,286.28z"/>
<path fill="#263238" d="M191.12,287.67c0,0-0.04,0.02-0.07,0.01c-0.05-0.02-0.08-0.07-0.1-0.13c0-0.06-0.32-2.17,0.35-2.93
	c0.19-0.2,0.44-0.3,0.71-0.28c0.3-0.01,0.56,0.19,0.65,0.47c0.22,0.78-0.76,2.38-1.45,2.86
	C191.17,287.68,191.14,287.68,191.12,287.67L191.12,287.67z M191.92,284.7c-0.14,0-0.26,0.07-0.35,0.18
	c-0.41,0.45-0.38,1.66-0.31,2.34c0.58-0.57,1.2-1.77,1.08-2.3c-0.02-0.09-0.09-0.21-0.33-0.22H191.92z"/>
<path opacity="0.2" enable-background="new    " d="M181.68,272.43l7.01-1.93l0.72,9.82l-7.06,1.58L181.68,272.43z"/>
<path fill="#EBB376" d="M173.74,289.35l-6.64,3.03l-1.69-7.14l-2.27-9.61l6.62-3.04l2.27,9.6L173.74,289.35z"/>
<path opacity="0.2" enable-background="new    " d="M172.03,282.19l-6.62,3.05l-2.27-9.61l6.62-3.04L172.03,282.19z"/>
<path fill="#263238" d="M174.01,288.36l-7.96,1.86c-0.28,0.05-0.47,0.32-0.42,0.6l1.08,6.41c0.16,0.69,0.84,1.12,1.53,0.97
	c2.77-0.7,4.05-1.17,7.55-2.02c2.15-0.51,6.44-1.3,9.28-2.46s1.6-3.93,0.31-3.69c-3.09,0.55-7.69-0.45-10.06-1.55
	C174.9,288.3,174.44,288.26,174.01,288.36z"/>
<path fill="#263238" d="M176.8,288.99c-0.65,0.14-1.29,0.2-1.95,0.19c-0.06,0-0.12-0.03-0.16-0.09c-0.02-0.06-0.01-0.14,0.02-0.19
	c0.19-0.21,1.88-2.06,2.84-1.92c0.22,0.03,0.41,0.18,0.49,0.39c0.19,0.29,0.2,0.67,0.01,0.97
	C177.73,288.69,177.29,288.93,176.8,288.99z M177.51,287.34c-0.51-0.07-1.54,0.79-2.25,1.51c1.32-0.04,2.25-0.3,2.51-0.71
	c0.11-0.2,0.09-0.43-0.02-0.62C177.71,287.42,177.61,287.35,177.51,287.34z"/>
<path fill="#263238" d="M174.88,289.16c0,0-0.04,0.03-0.06,0.03c-0.05-0.02-0.09-0.05-0.12-0.1c-0.01-0.06-0.66-2.09-0.12-2.95
	c0.15-0.22,0.39-0.37,0.66-0.4c0.29-0.06,0.59,0.09,0.72,0.36c0.33,0.73-0.38,2.48-0.98,3.05
	C174.95,289.17,174.91,289.17,174.88,289.16L174.88,289.16z M175.2,286.1c-0.14,0.03-0.25,0.12-0.31,0.23
	c-0.33,0.51-0.11,1.69,0.06,2.36c0.49-0.66,0.91-1.94,0.71-2.43c-0.04-0.09-0.12-0.2-0.37-0.17L175.2,286.1L175.2,286.1z"/>
<path fill="#407BFF" d="M124.53,191.78l-2.14-23.74l-39.58,0.93c0,0-4.69,33.08-1.28,39.15c6.08,10.85,45.98,4.69,55.3,5.62
	c3.8,2.04,24.2,69.71,24.2,69.71l11.41-4.62c0,0-12.28-57.12-15.07-67.89c-3.89-14.96-19.74-14.7-32.84-19.18L124.53,191.78z"/>
<path opacity="0.6" fill="#FFFFFF" enable-background="new    " d="M124.53,191.78l-2.14-23.74l-39.58,0.93
	c0,0-4.69,33.08-1.28,39.15c6.08,10.85,45.98,4.69,55.3,5.62c3.8,2.04,24.2,69.71,24.2,69.71l11.41-4.62
	c0,0-12.28-57.12-15.07-67.89c-3.89-14.96-19.74-14.7-32.84-19.18L124.53,191.78z"/>
<path fill="#407BFF" d="M190.11,277.68l-10.07,0.93c0,0-12.35-62.99-13.3-63.25c-1.72-0.49-6.72-1.06-9.41-1.75
	c-18.69-4.87-64.69-13.82-64.69-13.82l16.97-16.37c0,0,76.93,9.25,78.64,27.33c0.82,8.7,1.88,66.93,1.88,66.93H190.11z"/>
<path opacity="0.6" fill="#FFFFFF" enable-background="new    " d="M190.11,277.68l-10.07,0.93c0,0-12.35-62.99-13.3-63.25
	c-1.72-0.49-6.72-1.06-9.41-1.75c-18.69-4.87-64.69-13.82-64.69-13.82l16.97-16.37c0,0,76.93,9.25,78.64,27.33
	c0.82,8.7,1.88,66.93,1.88,66.93H190.11z"/>
<path opacity="0.2" enable-background="new    " d="M164.01,215.41c-1.72-0.49-4-1.1-6.69-1.8c0.74,0.4-1.42-9.42-3.57-11.96
	c-4.28-5.05-21.47-7.79-27.63-8.78c-5.16-0.82-22.45-2.36-22.45-2.36s28.27-0.77,51.29,5.56c5.44,2.92,11.61,12.38,9.07,19.33h-0.02
	V215.41z"/>
<path fill="#407BFF" d="M123.29,172.9c2.31-13.29,6.21-31.1,13.42-47.76c-3.79-1.61-7.69-2.93-11.67-3.97
	c-5.82-1.58-11.71-2.82-17.67-3.72c-4.12-0.44-8.27-0.55-12.4-0.35c0,0-8.92,16.69-13.45,55.78h41.77V172.9z"/>
<path fill="#407BFF" d="M110.41,128.72c0,0-10.38-8.3-11.69-13.21c-1.31-4.91,4.78-8.22,13.33-6.33s16.46,7.28,13.94,13.62
	c-2.52,6.35-6.94,7.79-6.94,7.79S117.2,126.96,110.41,128.72z"/>
<path fill="#FFC7B1" d="M131.59,133.31l2.03-0.81l4.43-2.16l1.33-5.61c0.21-0.88,0.75-1.64,1.5-2.13c0.8-0.52,1.78-0.68,2.71-0.46
	l3.84,1.57c0.32,0.13,0.57,0.4,0.63,0.74c0.05,0.29-0.02,0.56-0.51,0.52c-0.95-0.08-2.94-0.29-2.94-0.29l0.91,3.2
	c0.24,0.84,0.15,1.74-0.26,2.51l-0.58,1.1l-1.09,1.01l-1.05,0.81c0,0-6.27,7.67-13.37,8.51c-4.27,0.51-7.7-3.24-7.7-3.24l1.22-1.38
	L131.59,133.31z"/>
<path fill="#AA6550" d="M144.72,124.91c0,0-0.1-0.13-0.32-0.28c-0.22-0.14-0.56-0.32-0.99-0.3c-0.44,0.02-0.76,0.31-0.87,0.56
	c-0.12,0.26-0.04,0.44-0.02,0.43c0.04,0,0.01-0.17,0.14-0.37c0.12-0.19,0.41-0.41,0.76-0.43c0.36-0.02,0.68,0.12,0.91,0.23
	S144.7,124.94,144.72,124.91L144.72,124.91z"/>
<path fill="#AA6550" d="M143.07,126.9c0,0,0.08-0.11,0.21-0.26c0.12-0.15,0.33-0.35,0.6-0.45c0.27-0.11,0.56-0.11,0.75-0.08
	c0.2,0.03,0.32,0.07,0.33,0.05s-0.09-0.11-0.3-0.18c-0.21-0.07-0.53-0.09-0.85,0.03c-0.32,0.13-0.54,0.36-0.64,0.56
	C143.06,126.76,143.05,126.89,143.07,126.9z"/>
<path opacity="0.2" fill="#FFFFFF" enable-background="new    " d="M110.41,128.72c0,0-10.38-8.3-11.69-13.21
	c-1.31-4.91,4.78-8.22,13.33-6.33s16.46,7.28,13.94,13.62c-2.52,6.35-6.94,7.79-6.94,7.79S117.2,126.96,110.41,128.72z"/>
<path fill="#FFBF9D" d="M116.43,103.15c-1.58,5.71-5.01,15.22-10.38,16.87c0,0,3.63,7.02,9.55,7.56c3.76,0.35,5.85-3.91,5.85-3.91
	c-3.84-0.72-2.38-3.54,0.66-7.07L116.43,103.15L116.43,103.15L116.43,103.15z"/>
<path opacity="0.2" enable-background="new    " d="M119.52,108.01l3.36,7.96c-0.72,0.81-1.37,1.69-1.93,2.62
	c-3.77,0.28-6.48-5.71-5.56-8.14c0.33-1,3.46-1.62,4.14-2.43h-0.01V108.01z"/>
<path fill="#FFFFFF" d="M122.87,151.58h-0.02c-0.15,0-0.25-0.14-0.24-0.28c0.87-12.79-3.41-21.14-3.45-21.22
	c-0.06-0.12-0.02-0.28,0.12-0.35c0.12-0.06,0.28-0.02,0.35,0.11c0.04,0.08,4.39,8.55,3.51,21.5
	C123.14,151.48,123.02,151.58,122.87,151.58L122.87,151.58z"/>
<path fill="#FFFFFF" d="M107.08,147.02c0,0-0.09-0.01-0.13-0.03c-0.12-0.07-0.17-0.23-0.09-0.35c4.68-7.97,3.3-18.76,3.29-18.88
	c-0.02-0.15,0.08-0.27,0.22-0.29c0.14-0.02,0.27,0.08,0.29,0.22c0.01,0.12,1.41,11.08-3.36,19.21
	C107.25,146.98,107.17,147.02,107.08,147.02L107.08,147.02z"/>
<path fill="#FFFFFF" d="M122.67,151.14c0,0,0.83,0.04,0.69,1.4l-1.22-0.12C122.14,152.41,122.01,151.27,122.67,151.14z"/>
<path fill="#FFFFFF" d="M107.16,146.28c0,0,0.7,0.47-0.12,1.56l-0.99-0.73C106.05,147.11,106.51,146.06,107.16,146.28z"/>
<path fill="#407BFF" d="M95.95,117.12c4.01,0.93,13.63,17.59,18.77,20.66s19.35-6.81,19.35-6.81l4.87,6.07
	c0,0-11.52,10.17-21.6,10.41s-24.37-14.03-26.5-19.27c-2.13-5.23,0.22-12.19,5.1-11.07v0.01H95.95z"/>
<path opacity="0.2" fill="#FFFFFF" enable-background="new    " d="M95.95,117.12c4.01,0.93,13.63,17.59,18.77,20.66
	s19.35-6.81,19.35-6.81l4.87,6.07c0,0-11.52,10.17-21.6,10.41s-24.37-14.03-26.5-19.27c-2.13-5.23,0.22-12.19,5.1-11.07v0.01H95.95z
	"/>
<path fill="#263238" d="M130.47,98.3c1.31,0.38,2.84-0.38,3.35-1.65c0.51-1.27-0.09-2.87-1.3-3.5c0.98-0.71,1.41-2.07,1.04-3.22
	c-0.37-1.15-1.52-2-2.73-2c0.15-1.18-0.37-2.43-1.31-3.16s-2.27-0.93-3.38-0.5c-1.11-1.33-3.19-1.72-4.71-0.89
	c-1.11-0.4-2.45,0-3.15,0.94s-0.72,2.34-0.03,3.29"/>
<path fill="#FFBF9D" d="M129.15,113.75c0.55-3.01,1.17-9.3,1.65-15c0.53-6.12-3.74-11.63-9.8-12.65l-0.6-0.1
	c-6.56-0.71-10.83,4.46-11.37,11.04l-2.99,22.98l15.4,3.65l0.15-3.76C121.61,119.91,128.02,119.99,129.15,113.75L129.15,113.75z"/>
<path fill="#FF9A6C" d="M121.66,119.9c0,0-4.03-0.43-7.78-3.77c0,0,1.17,4.82,7.5,5.3L121.66,119.9L121.66,119.9z"/>
<path fill="#263238" d="M127.22,103.75c-0.06,0.48-0.51,0.81-1.01,0.75s-0.85-0.49-0.78-0.96c0.06-0.48,0.51-0.81,1.01-0.75
	C126.93,102.84,127.29,103.27,127.22,103.75z"/>
<path fill="#263238" d="M128.95,101.58c-0.13,0.1-0.72-0.52-1.68-0.68c-0.96-0.17-1.75,0.2-1.83,0.07
	c-0.04-0.06,0.11-0.25,0.45-0.42s0.89-0.3,1.49-0.2c0.6,0.11,1.07,0.41,1.31,0.68C128.94,101.31,129.01,101.53,128.95,101.58
	L128.95,101.58z"/>
<path fill="#263238" d="M118.71,102.4c-0.06,0.48-0.51,0.81-1.01,0.75c-0.5-0.06-0.85-0.48-0.78-0.96c0.06-0.48,0.51-0.81,1.01-0.75
	C118.42,101.5,118.77,101.93,118.71,102.4z"/>
<path fill="#263238" d="M119.58,100.23c-0.12,0.11-0.76-0.46-1.73-0.54c-0.97-0.1-1.72,0.33-1.82,0.21
	c-0.05-0.06,0.08-0.26,0.42-0.46c0.33-0.2,0.86-0.37,1.47-0.31c0.61,0.06,1.09,0.32,1.36,0.58
	C119.56,99.96,119.64,100.18,119.58,100.23z"/>
<path fill="#263238" d="M121.77,107.88c0-0.05,0.62-0.06,1.61-0.02c0.25,0.02,0.49,0.01,0.56-0.15c0.08-0.17,0.03-0.45-0.04-0.76
	c-0.13-0.63-0.27-1.29-0.41-1.99c-0.56-2.83-0.92-5.13-0.8-5.16c0.11-0.02,0.66,2.25,1.22,5.08c0.13,0.69,0.26,1.36,0.38,2
	c0.04,0.3,0.15,0.64-0.03,0.98c-0.1,0.18-0.3,0.27-0.46,0.29c-0.17,0.02-0.3,0-0.43-0.01C122.37,108.02,121.77,107.92,121.77,107.88
	L121.77,107.88z"/>
<path fill="#263238" d="M119.78,96.93c-0.1,0.26-0.96,0.1-2,0.19c-1.03,0.07-1.87,0.37-2,0.12c-0.06-0.12,0.1-0.36,0.45-0.6
	c0.34-0.24,0.88-0.46,1.5-0.51c0.62-0.05,1.18,0.08,1.54,0.27C119.64,96.59,119.82,96.81,119.78,96.93z"/>
<path fill="#263238" d="M129.32,98.9c-0.24,0.17-0.9-0.22-1.75-0.43c-0.85-0.24-1.62-0.23-1.73-0.49c-0.05-0.13,0.11-0.32,0.48-0.45
	c0.36-0.13,0.93-0.17,1.51-0.02s1.05,0.47,1.3,0.76C129.38,98.57,129.42,98.82,129.32,98.9z"/>
<path fill="#263238" d="M130.68,95.79c0,0-0.99-4.19-2.72-5.42c-2.1-1.49-3.5,0.85-5.57-0.12c-2.08-0.97-4.07-2.4-6.58-1.1
	c-2.74,1.43-1.82,2.91-2.44,5.66c-2.5,11.13-5.09,13.97-4.78,8.57c0.03-0.59-1.5-1.32-1.32-3.82c0.23-3.23,0.75-7.11,1.84-9.24
	c0.92-1.8,2.22-2.93,4.41-4.05c3.45-1.77,7.67-1.11,10.48-0.34C126.81,86.71,131.77,90.93,130.68,95.79L130.68,95.79z"/>
<path fill="#FFBF9D" d="M109.01,103.28c0.12-0.97-0.58-1.87-1.55-1.94c-1.18-0.09-2.59,0.36-2.92,2.78
	c-0.58,4.29,3.85,3.99,3.87,3.87C108.43,107.91,108.79,105.08,109.01,103.28z"/>
<path fill="#FF9A6C" d="M107.7,106.25c0,0-0.08,0.04-0.22,0.08c-0.13,0.04-0.35,0.05-0.56-0.06c-0.43-0.23-0.72-1-0.63-1.78
	c0.05-0.39,0.17-0.75,0.36-1.04c0.17-0.3,0.4-0.49,0.64-0.5c0.23-0.02,0.38,0.13,0.42,0.26c0.04,0.13,0,0.21,0.02,0.22
	c0.01,0.01,0.1-0.06,0.09-0.24c0-0.09-0.05-0.2-0.13-0.29c-0.09-0.1-0.24-0.16-0.39-0.17c-0.34-0.02-0.67,0.24-0.87,0.56
	c-0.22,0.32-0.38,0.72-0.42,1.16c-0.09,0.87,0.24,1.74,0.84,2c0.29,0.12,0.56,0.06,0.7-0.02
	C107.67,106.35,107.71,106.26,107.7,106.25z"/>
<path fill="#263238" d="M110.49,95.02c0.49,0.47,1.01,0.96,1.67,1.14c0.65,0.18,1.49-0.08,1.71-0.72c0.1-0.29,0.09-0.65,0.32-0.85
	c0.28-0.23,0.7-0.08,1.05,0.02c1.22,0.34,2.64-0.32,3.16-1.48c0.24,0.53,0.97,0.63,1.51,0.4c0.53-0.23,0.93-0.68,1.37-1.05
	c0.45-0.36,1.04-0.66,1.59-0.49c0.31,0.1,0.57,0.34,0.9,0.36c0.57,0.05,0.95-0.57,1.13-1.11c0.18-0.54,0.36-1.18,0.88-1.4
	c0.49-0.21,1.03,0.05,1.53,0.21c0.51,0.16,1.19,0.16,1.41-0.33c0.11-0.26,0.04-0.55-0.06-0.81c-0.49-1.16-1.86-1.87-3.09-1.6
	c-0.18-1.48-1.32-2.8-2.75-3.2c-1.44-0.4-3.09,0.14-4.01,1.31c-0.76-0.97-2.02-1.54-3.25-1.46c-1.24,0.07-2.42,0.78-3.06,1.83
	c-0.99-0.45-2.24-0.25-3.05,0.49c-0.8,0.74-1.1,1.97-0.74,3c-0.84,0.31-1.63,0.96-1.79,1.84c-0.17,0.88,0.55,1.91,1.44,1.82
	c-0.46,0.63-0.33,1.61,0.26,2.11c0.6,0.49,1.59,0.43,2.12-0.14"/>
<path fill="#455A64" d="M125.67,88.66c0,0,0,0.03-0.01,0.08s-0.03,0.13-0.07,0.22c-0.07,0.19-0.2,0.47-0.45,0.77
	c-0.25,0.29-0.61,0.62-1.12,0.85c-0.5,0.23-1.15,0.36-1.83,0.21l0.09-0.08c0.07,0.39-0.04,0.82-0.29,1.16
	c-0.24,0.35-0.57,0.65-0.91,0.93c-0.17,0.14-0.33,0.3-0.56,0.41c-0.22,0.11-0.47,0.15-0.72,0.14c-0.49-0.02-1.01-0.26-1.29-0.73
	l0.17-0.01c-0.25,0.83-0.88,1.6-1.74,1.99c-0.45,0.22-0.99,0.32-1.48,0.22c-0.49-0.09-0.93-0.31-1.33-0.53l0.12-0.03
	c-0.32,0.49-0.75,0.89-1.23,1.15s-1.07,0.36-1.56,0.16c-0.97-0.38-1.5-1.33-1.5-2.14l0.09,0.06c-0.55,0.19-1.09,0.12-1.5-0.03
	c-0.42-0.15-0.73-0.4-0.94-0.63c-0.21-0.23-0.32-0.45-0.39-0.6c-0.06-0.15-0.08-0.24-0.07-0.24c0.03-0.01,0.09,0.35,0.52,0.79
	c0.21,0.21,0.52,0.45,0.93,0.58c0.4,0.14,0.92,0.19,1.43,0.01l0.09-0.03v0.09c0.02,0.76,0.52,1.65,1.42,2
	c0.44,0.19,0.96,0.09,1.41-0.15c0.45-0.25,0.86-0.63,1.16-1.09l0.05-0.07l0.08,0.03c0.39,0.23,0.81,0.44,1.27,0.52
	c0.46,0.09,0.93,0.01,1.37-0.21c0.81-0.37,1.39-1.08,1.64-1.87l0.06-0.2l0.11,0.18c0.24,0.4,0.7,0.62,1.14,0.64
	c0.22,0.01,0.45-0.03,0.64-0.11c0.19-0.09,0.35-0.25,0.53-0.38c0.34-0.27,0.66-0.56,0.88-0.88c0.23-0.32,0.33-0.7,0.27-1.05
	l-0.01-0.11l0.1,0.02c0.65,0.15,1.27,0.04,1.75-0.17c0.5-0.21,0.85-0.52,1.1-0.79c0.5-0.58,0.56-1.03,0.59-1.02L125.67,88.66z"/>
<path fill="#FF9A6C" d="M118.73,108.69c1.13,0.41,2.21,0.96,3.21,1.63l0.01,0.03c-0.26,0.78-0.65,1.61-1.4,1.93
	c-0.57,0.23-1.25,0.1-1.72-0.29s-0.73-0.92-0.72-1.53C118.11,109.84,118.45,109.21,118.73,108.69L118.73,108.69z"/>
<path fill="#263238" d="M119.82,112.29c0.01-0.06-0.51,0.03-1.03-0.48c-0.25-0.25-0.47-0.63-0.51-1.09
	c-0.04-0.47,0.07-0.98,0.32-1.48c0.05-0.11,0.14-0.27,0.19-0.33c0.04-0.02-0.02-0.01,0.02,0l0.17,0.07c0.24,0.12,0.47,0.23,0.7,0.35
	c0.42,0.2,0.82,0.38,1.2,0.56c0.69,0.31,1.12,0.49,1.14,0.45c0.02-0.04-0.38-0.28-1.04-0.64c-0.37-0.2-0.76-0.4-1.16-0.62
	c-0.23-0.12-0.46-0.24-0.69-0.36c-0.07-0.03-0.11-0.06-0.2-0.1c-0.08-0.06-0.3-0.01-0.35,0.08c-0.12,0.16-0.16,0.26-0.24,0.4
	c-0.26,0.53-0.4,1.12-0.32,1.65c0.06,0.53,0.34,0.97,0.64,1.22c0.3,0.26,0.63,0.36,0.85,0.38
	C119.71,112.36,119.83,112.32,119.82,112.29L119.82,112.29z"/>
<path fill="#455A64" d="M147.46,116.47l5.6-1.38c0.85-0.21,1.85,0.59,1.74,1.47l-2.94,12.35c-0.11,0.48-0.49,0.85-0.96,0.97
	l-6.83,1.66c-0.81,0.08-1.31-0.71-1.1-1.26l2.79-12.08C145.95,117.34,146.61,116.67,147.46,116.47L147.46,116.47z"/>
<path fill="#263238" d="M148,117.03l5.6-1.38c0.7-0.17,1.34,0.45,1.17,1.16l-2.86,12.08c-0.11,0.48-0.49,0.85-0.97,0.97l-6.75,1.66
	c-0.41,0.1-0.79-0.26-0.69-0.68l2.79-12.08C146.49,117.91,147.14,117.24,148,117.03L148,117.03z"/>
<path fill="#FFC7B1" d="M149.35,121.09l3.78,0.11l1.68,2.4l-0.78,7.51h-4.87l1.07-2.37l-0.78-1.44c0,0-1.81,0.08-1.94-0.15
	s-0.19-1.15,0.04-1.29c0.23-0.13,2.17-0.12,2.17-0.12s-2.6-0.86-2.64-1.14s-0.06-1.01,0.31-1.23c0.38-0.22,4.19,0.12,4.19,0.12
	l0.97,1.01l-0.24-2.1c0,0-3.19,0.25-2.96-1.33L149.35,121.09z"/>
<path fill="#AA6550" d="M151.22,127.47c0,0,0.04-0.15-0.01-0.37c-0.04-0.23-0.17-0.53-0.4-0.8s-0.51-0.44-0.72-0.53
	c-0.22-0.08-0.36-0.09-0.36-0.07c-0.02,0.05,0.52,0.2,0.94,0.71C151.1,126.92,151.17,127.48,151.22,127.47z"/>
<path fill="#AA6550" d="M152.58,126.32c0,0-0.22-0.29-0.45-0.81c-0.13-0.26-0.26-0.59-0.51-0.89c-0.13-0.15-0.29-0.3-0.49-0.4
	c-0.2-0.1-0.43-0.13-0.66-0.14c-0.9,0-1.69,0.03-2.27,0.05c-0.58,0.03-0.94,0.05-0.94,0.08c0,0.02,0.36,0.04,0.94,0.05
	c0.58,0.01,1.38,0,2.26,0c0.21,0.01,0.42,0.04,0.59,0.12s0.32,0.21,0.44,0.35c0.24,0.28,0.39,0.59,0.53,0.85
	C152.28,126.08,152.56,126.34,152.58,126.32z"/>
<path fill="#AA6550" d="M153.12,125.44c0.04-0.02-0.07-0.31-0.26-0.64c-0.19-0.33-0.37-0.58-0.41-0.55
	c-0.04,0.02,0.07,0.31,0.26,0.64C152.89,125.22,153.07,125.47,153.12,125.44z"/>
<path fill="#FAFAFA" d="M151.05,118.48c0.1,0.39-0.14,0.79-0.54,0.89s-0.79-0.14-0.89-0.54s0.14-0.79,0.54-0.89
	S150.96,118.08,151.05,118.48z"/>
<path fill="#263238" d="M85.56,172.37c0,0,6.57,4.93,8.93,16.02c2.36,11.09,11.2,35.61-8.93,25.93l0.52-2.29
	c0,0,6.42,5.49,8.77,1.79c2.34-3.7,1.13-23.52-8.33-34.06L85.56,172.37z"/>
<path fill="#263238" d="M72,167.78c0,0,2.39-4.82,5.91-4.93c3.52-0.11,4.75,0.89,4.53,4.37l-1.59,0.11c0,0,1.6-2.9-2.22-3.02
	c-3.82-0.12-4.92,3.47-4.92,3.47H72z"/>
<path fill="#263238" d="M52.81,216.2c0,0-3.1-19.19,4.96-25.01c0,0-1.28-4.03,5.21-17.26c2.69-5.49,4.97-7,7.24-7.09l15.71-0.65
	c1.65-0.07,3.09,1.13,3.31,2.78c1.1,8.21,3.76,31.99,0.08,47.24H52.81V216.2z"/>
<path opacity="0.1" fill="#FFFFFF" enable-background="new    " d="M52.81,216.2c0,0-3.1-19.19,4.96-25.01c0,0-1.28-4.03,5.21-17.26
	c2.69-5.49,4.97-7,7.24-7.09l15.71-0.65c1.65-0.07,3.09,1.13,3.31,2.78c1.1,8.21,3.76,31.99,0.08,47.24H52.81V216.2z"/>
<path fill="#263238" d="M78.04,187.17c1.55,0.06,2.76-1.38,2.41-2.89c-0.73-3.13-2.76-7.7-8.45-8.55c-6.09-0.91-9.95,4.6-11.74,8.07
	c-0.64,1.24,0.23,2.72,1.63,2.77L78.04,187.17z"/>
<path fill="#263238" d="M55.37,196c0.4-1.38,20.69-0.56,22.03,0s-0.28,14.67-1.48,16.02c-1.2,1.34-21,0.45-22.51,0
	S52.12,207.32,55.37,196z"/>
<path opacity="0.2" fill="#FFFFFF" enable-background="new    " d="M78.04,187.17c1.55,0.06,2.76-1.38,2.41-2.89
	c-0.73-3.13-2.76-7.7-8.45-8.55c-6.09-0.91-9.95,4.6-11.74,8.07c-0.64,1.24,0.23,2.72,1.63,2.77L78.04,187.17z"/>
<path opacity="0.2" fill="#FFFFFF" enable-background="new    " d="M55.37,196c0.4-1.38,20.69-0.56,22.03,0s-0.28,14.67-1.48,16.02
	c-1.2,1.34-21,0.45-22.51,0S52.12,207.32,55.37,196z"/>
<path fill="#263238" d="M87.91,201.14c0,0-0.03,0-0.06,0c-0.23-0.03-0.4-0.25-0.36-0.48c1.09-8.18-0.64-28.09-1-29.53
	c-0.35-1.41-1.24-2.17-2.63-2.26c-1.75-0.11-15.71,0-15.85,0c-0.23,0-0.42-0.19-0.42-0.42c0-0.24,0.19-0.43,0.42-0.43
	c0.58,0,14.14-0.11,15.92,0c1.76,0.11,2.96,1.14,3.4,2.9c0.34,1.35,2.16,21.24,1.02,29.84C88.32,200.97,88.13,201.13,87.91,201.14
	L87.91,201.14z"/>
<path fill="#263238" d="M75.1,199.12c0,0-0.06,0-0.08,0c-4.88-0.99-18.95-0.45-19.09-0.44c-0.22,0-0.43-0.17-0.44-0.41
	s0.17-0.43,0.41-0.44c0.59-0.03,14.31-0.55,19.29,0.46c0.23,0.04,0.38,0.27,0.33,0.5C75.47,199,75.29,199.13,75.1,199.12
	L75.1,199.12z"/>
<path fill="#263238" d="M79.08,184.11c-0.18,0-0.35-0.11-0.41-0.3c-0.93-2.87-3.26-7.61-8.36-7.21c-5.23,0.43-7.48,6.12-7.5,6.18
	c-0.08,0.22-0.33,0.33-0.55,0.25s-0.33-0.33-0.25-0.55c0.1-0.25,2.46-6.26,8.23-6.72c5.69-0.48,8.23,4.69,9.24,7.8
	c0.08,0.22-0.05,0.46-0.27,0.53C79.17,184.1,79.13,184.1,79.08,184.11L79.08,184.11z"/>
</svg>
