<svg width="345" height="191" viewBox="0 0 345 191" fill="none" xmlns="http://www.w3.org/2000/svg">
<path d="M251.06 28.7162C251.06 20.8406 242.789 15.8556 234.354 19.8031C232.448 20.6958 230.875 22.2015 229.915 24.0545C227.792 28.1661 228.728 32.8567 230.653 36.7559L237.216 53.3902C238.162 55.7886 241.559 55.7742 242.485 53.3661L248.922 36.6449C251.152 31.5538 251.055 28.7114 251.055 28.7114L251.06 28.7162ZM243.137 35.5688C237.467 38.8647 231.72 32.7698 234.827 26.757C235.242 25.9559 235.874 25.2851 236.627 24.846C242.297 21.55 248.044 27.6449 244.937 33.6578C244.522 34.4588 243.889 35.1296 243.137 35.5688Z" fill="#F5F5F5"/>
<path d="M137.441 189.143L73.2713 188.849C65.5519 188.815 59.3241 182.529 59.3579 174.809L60.0386 13.9242C60.0724 6.19933 66.3581 -0.0336594 74.0824 0.000136789L138.252 0.294647C145.972 0.328443 152.199 6.61454 152.165 14.3346L151.485 175.224C151.451 182.949 145.165 189.182 137.441 189.143Z" fill="#455A64"/>
<path d="M138.16 5.85174L125.719 5.7938C124.049 5.78415 122.692 7.19393 122.688 8.93685L122.678 11.1915C122.673 12.9345 121.312 14.3442 119.646 14.3346L95.3966 14.2235C93.7262 14.2139 92.3793 12.7944 92.389 11.0515L92.3986 8.79684C92.4035 7.05392 91.0614 5.62965 89.391 5.62482L85.0171 5.60551L74.1258 5.55723C68.7188 5.53309 64.316 9.89763 64.2918 15.305L63.6256 172.342C63.6014 177.749 67.9657 182.147 73.3679 182.171L137.412 182.466C142.819 182.49 147.222 178.126 147.246 172.718L147.912 15.6816C147.936 10.2742 143.572 5.87588 138.17 5.85174H138.16Z" fill="#FAFAFA"/>
<path d="M64.205 34.1489H74.7004L84.0709 43.5153L74.3286 53.2534L64.316 43.2401L64.205 34.1489Z" fill="#EBEBEB"/>
<path d="M86.2047 39.4067L80.9474 34.1489H92.7801L86.2047 39.4067Z" fill="#EBEBEB"/>
<path d="M90.8055 43.6986L100.022 34.4819H132.222C132.222 34.4819 137.151 56.4978 117.759 70.6294L90.8055 43.6938V43.6986Z" fill="#EBEBEB"/>
<path d="M86.8613 46.6392L77.0032 56.5028L104.284 83.786L114.143 73.5941L86.8613 46.6392Z" fill="#EBEBEB"/>
<path d="M64.0842 62.0885L70.2637 55.6769L64.2049 49.6177L64.0842 62.0885Z" fill="#EBEBEB"/>
<path d="M73.9617 59.4575L64.4705 68.9494V82.1396L84.0709 102.195L100.668 86.7407L73.9617 59.4575Z" fill="#EBEBEB"/>
<path d="M121.423 73.4008C121.423 73.4008 141.752 58.4918 135.182 34.4868H147.825L147.671 102.253L121.423 73.4056V73.4008Z" fill="#EBEBEB"/>
<path d="M117.614 77.3115L107.78 87.5807L137.929 117.727L147.149 107.955L117.614 77.3115Z" fill="#EBEBEB"/>
<path d="M103.671 90.3906L88.2227 105.734L119.125 136.426L134.549 121.512L103.671 90.3906Z" fill="#EBEBEB"/>
<path d="M95.5752 167.267L119.197 142.774L141.67 165.683L95.5752 167.267Z" fill="#EBEBEB"/>
<path d="M122.881 139.617L147.483 115.245C147.483 116.327 147.27 165.804 147.27 165.804L122.881 139.622V139.617Z" fill="#EBEBEB"/>
<path d="M101.817 125.92L115.774 139.878L88.2226 168.32L75.4872 153.044L101.817 125.92Z" fill="#EBEBEB"/>
<path d="M64.1084 155.028C65.4264 154.898 99.1768 123.289 99.1768 123.289L64.1084 86.9482V155.028Z" fill="#EBEBEB"/>
<path d="M63.6207 162.232L71.7457 155.028L82.9991 168.32H63.6207V163.236" fill="#EBEBEB"/>
<path d="M74.1355 24.5796C74.0872 24.6279 73.0106 23.6912 71.7264 22.4842C71.7264 22.1173 71.7264 22.3828 71.7264 22.3007H71.7313L71.7409 22.2863L71.7554 22.2718L71.7844 22.2428L71.8423 22.1849L71.963 22.0738C72.0402 22.0014 72.1175 21.929 72.1947 21.8566C72.3444 21.7166 72.494 21.5814 72.6389 21.451C72.9044 21.2144 73.1554 20.9923 73.3968 20.7751C73.8313 20.3937 74.1161 20.1764 74.1403 20.2006C74.1644 20.2247 73.923 20.4951 73.5175 20.9054C73.2858 21.1324 73.0492 21.3689 72.7982 21.62L72.3685 22.0352L72.1368 22.2525L72.0209 22.3635L71.963 22.4214L71.934 22.4504L71.9196 22.4649H71.9099V22.4746H71.9051C71.9051 22.3973 71.9051 22.658 71.9051 22.2959C73.1892 23.5078 74.1934 24.5265 74.1451 24.5747L74.1355 24.5796Z" fill="#263238"/>
<path d="M140.864 20.8959C140.864 21.1856 140.627 21.4174 140.342 21.4174C140.058 21.4174 139.821 21.1808 139.821 20.8959C139.821 20.6111 140.058 20.3745 140.342 20.3745C140.627 20.3745 140.864 20.6111 140.864 20.8959Z" fill="#263238"/>
<path d="M140.714 22.3254C140.917 22.5282 140.917 22.8613 140.714 23.0641C140.511 23.2669 140.178 23.2669 139.976 23.0641C139.773 22.8613 139.773 22.5282 139.976 22.3254C140.178 22.1226 140.511 22.1226 140.714 22.3254Z" fill="#263238"/>
<path d="M140.864 24.498C140.864 24.7877 140.627 25.0194 140.342 25.0194C140.058 25.0194 139.821 24.7828 139.821 24.498C139.821 24.2131 140.058 23.9766 140.342 23.9766C140.627 23.9766 140.864 24.2131 140.864 24.498Z" fill="#263238"/>
<path d="M118.241 23.0347H95.6573V24.9176H118.241V23.0347Z" fill="#263238"/>
<path d="M115.789 56.836C115.789 48.0393 106.544 42.4629 97.1201 46.8757C94.9911 47.8703 93.229 49.5553 92.1621 51.6313C89.7917 56.2228 90.8393 61.4709 92.9876 65.8258L100.321 84.4185C101.378 87.0981 105.178 87.0836 106.211 84.3944L113.404 65.7051C115.895 60.0128 115.789 56.8408 115.789 56.8408V56.836ZM106.935 64.4932C100.601 68.177 94.1801 61.3695 97.6512 54.6489C98.1146 53.7557 98.8195 53.0025 99.6643 52.5149C105.998 48.8311 112.424 55.6386 108.948 62.3592C108.485 63.2524 107.78 64.0056 106.935 64.4932Z" fill="#407BFF"/>
<path d="M323.732 119.797H38.1937V161.698H323.732V119.797Z" fill="#407BFF"/>
<g opacity="0.5">
<path d="M323.732 119.797H38.1937V161.698H323.732V119.797Z" fill="black"/>
</g>
<path d="M78.4106 188.891C93.5828 187.87 105.055 174.742 104.034 159.568C103.013 144.395 89.8853 132.922 74.7131 133.944C59.5409 134.965 48.0692 148.093 49.0902 163.266C50.1112 178.439 63.2384 189.912 78.4106 188.891Z" fill="#343F44"/>
<path d="M49.0374 160.951C49.0374 160.951 49.0374 160.998 49.0374 161.023C48.8161 176.227 60.967 188.734 76.1698 188.95C91.3726 189.171 103.879 177.02 104.1 161.816C104.1 161.79 104.1 161.77 104.1 161.744L49.0477 160.951H49.0374Z" fill="#343F44"/>
<path d="M57.2357 161.142C57.0813 171.817 65.6091 180.597 76.2829 180.752C86.9568 180.906 95.7367 172.378 95.8911 161.703C96.0455 151.028 87.5178 142.248 76.8439 142.093C66.17 141.939 57.3901 150.467 57.2357 161.142Z" fill="#FAFAFA"/>
<path d="M76.844 142.088C66.1702 141.934 57.3902 150.462 57.2358 161.137L95.8913 161.693C96.0457 151.018 87.5179 142.237 76.844 142.083V142.088Z" fill="#E0E0E0"/>
<path d="M64.7909 161.25C64.6983 167.75 69.8911 173.098 76.3963 173.195C82.8963 173.288 88.2487 168.095 88.3413 161.589C88.434 155.089 83.2411 149.736 76.7359 149.643C70.2359 149.551 64.8887 154.744 64.7909 161.25Z" fill="#343F44"/>
<path d="M288.711 188.884C303.892 188.004 315.485 174.982 314.604 159.8C313.723 144.618 300.703 133.025 285.522 133.905C270.341 134.786 258.748 147.807 259.629 162.99C260.51 178.172 273.53 189.765 288.711 188.884Z" fill="#263238"/>
<path d="M259.581 160.951C259.581 160.951 259.581 160.998 259.581 161.023C259.36 176.227 271.511 188.734 286.714 188.95C301.916 189.171 314.422 177.02 314.644 161.816C314.644 161.79 314.644 161.77 314.644 161.744L259.591 160.951H259.581Z" fill="#263238"/>
<path d="M267.78 161.141C267.625 171.816 276.153 180.596 286.827 180.751C297.501 180.905 306.281 172.377 306.435 161.702C306.589 151.027 298.062 142.247 287.388 142.092C276.714 141.938 267.934 150.466 267.78 161.141Z" fill="#FAFAFA"/>
<path d="M287.388 142.088C276.714 141.934 267.934 150.462 267.78 161.137L306.435 161.693C306.589 151.018 298.062 142.237 287.388 142.083V142.088Z" fill="#E0E0E0"/>
<path d="M275.335 161.249C275.242 167.75 280.435 173.097 286.94 173.195C293.44 173.288 298.792 168.094 298.885 161.589C298.978 155.088 293.785 149.735 287.28 149.643C280.78 149.55 275.432 154.743 275.335 161.249Z" fill="#263238"/>
<path d="M112.653 96.2243C112.653 96.2243 72.1093 99.2146 57.0815 102.586C46.49 104.964 26.0686 109.061 26.3156 121.912L27.9368 131.12C27.9368 131.12 20.3611 134.579 20.3611 143.411C20.3611 152.243 18.5135 165.939 36.1918 166.484C39.1047 166.577 44.6424 166.484 44.6424 166.484C44.6424 166.484 41.2457 128.825 75.8456 127.718C111.043 126.596 108.706 166.139 108.706 166.139H255.598C255.598 166.139 249.571 127.615 287.46 127.564C325.348 127.507 319.584 166.392 319.584 166.392C319.584 166.392 333.521 167.596 340.006 155.882C346.49 144.167 344.802 135.829 344.802 135.829L344.586 128.423C344.514 125.901 342.497 123.868 339.98 123.77C339.98 123.77 342.512 105.123 338.626 101.896C334.741 98.669 313.45 79.2035 313.45 79.2035L314.464 78.5653C316.162 77.4999 315.868 74.9368 313.969 74.2831C305.884 71.5038 289.899 66.0018 286.142 64.6894C285.576 64.4938 284.995 64.3703 284.398 64.3239C282.154 64.1541 275.808 63.7475 264.151 63.624C249.952 63.4747 193.577 63.624 193.577 63.624C193.577 63.624 174.175 65.2195 163.367 69.9803C152.004 74.9831 112.659 96.2243 112.659 96.2243H112.653Z" fill="#407BFF"/>
<g opacity="0.4">
<path d="M30.6387 142.392C29.1668 142.093 26.9126 142.062 25.7907 143.061C24.957 143.802 24.7357 144.996 24.6122 146.108C24.4372 147.626 24.3497 149.186 24.7151 150.673C25.0753 152.161 25.9451 153.581 27.2883 154.312C28.6316 155.043 30.4792 154.924 31.5239 153.808C32.4812 152.789 32.5892 151.255 32.5635 149.855C32.5275 147.868 32.687 146.185 32.3216 144.234C32.2496 143.864 32.054 143.39 31.8173 143.102C31.4261 142.629 31.1276 142.428 30.6439 142.397" fill="black"/>
</g>
<path d="M27.9367 131.12C32.2392 131.13 36.4181 130.883 40.7103 130.595C41.1735 130.564 41.6779 130.513 42.0176 130.199C42.4293 129.818 42.4601 129.19 42.4653 128.629C42.4859 126.323 42.3727 123.698 40.6228 122.195C39.5524 121.279 38.0856 120.991 36.6858 120.857C33.2325 120.533 29.6093 120.801 26.3156 121.902L27.9367 131.11V131.12Z" fill="#FAFAFA"/>
<path d="M117.311 164.961C117.311 164.961 117.296 164.837 117.275 164.596C117.26 164.343 117.234 163.983 117.203 163.515C117.152 162.557 117.074 161.157 116.977 159.361C116.874 157.56 116.755 155.352 116.498 152.799C116.23 150.251 115.839 147.348 114.98 144.24C114.115 141.136 112.792 137.832 110.837 134.584C108.871 131.362 106.287 128.14 102.829 125.649C95.881 120.708 86.499 117.913 76.6897 117.795C66.8496 117.677 57.5035 120.785 50.7359 125.968C47.3186 128.506 44.488 131.47 42.311 134.569C40.1135 137.657 38.5078 140.832 37.3807 143.848C36.2382 146.865 35.636 149.742 35.2963 152.274C34.9258 154.811 34.9824 157.03 35.0442 158.831C35.1831 160.627 35.3427 162.022 35.5485 162.949C35.6309 163.412 35.6978 163.767 35.7389 164.014C35.7801 164.256 35.7956 164.379 35.7956 164.379C35.7956 164.379 35.7647 164.261 35.7132 164.019C35.6618 163.772 35.5897 163.417 35.4919 162.959C35.2706 162.032 35.0956 160.638 34.9361 158.836C34.8589 157.035 34.7868 154.806 35.142 152.258C35.4713 149.711 36.058 146.823 37.1954 143.787C38.3225 140.755 39.9231 137.554 42.1258 134.445C44.3079 131.326 47.1488 128.336 50.5866 125.778C57.3903 120.554 66.7981 117.414 76.6949 117.533C86.5607 117.656 95.984 120.466 102.978 125.454C106.467 127.976 109.061 131.228 111.032 134.471C112.993 137.739 114.316 141.069 115.17 144.188C116.024 147.317 116.4 150.231 116.652 152.783C116.899 155.341 117.002 157.549 117.085 159.356C117.162 161.157 117.218 162.552 117.26 163.515C117.28 163.983 117.296 164.343 117.306 164.596C117.316 164.837 117.311 164.966 117.311 164.966V164.961Z" fill="white"/>
<path d="M118.704 165.61C118.704 165.61 118.694 165.507 118.689 165.301L118.658 164.39C118.632 163.582 118.596 162.388 118.55 160.834C118.462 157.715 118.328 153.144 118.164 147.339C118.004 141.528 117.814 134.472 117.593 126.391C117.536 124.368 117.479 122.284 117.423 120.137C117.351 119.067 117.464 117.971 117.562 116.869C117.639 116.318 117.716 115.768 117.798 115.212C117.912 114.661 118.025 114.11 118.138 113.549C118.658 111.336 119.414 109.118 120.428 106.956C121.447 104.8 122.657 102.669 124.201 100.693L124.211 100.677L124.226 100.667C132.085 95.7156 140.628 90.3319 149.666 84.6395C151.925 83.2138 154.215 81.7727 156.536 80.311C158.811 78.7669 161.271 77.4493 163.808 76.2501C166.351 75.056 168.991 74.0112 171.703 73.0951C173.056 72.6215 174.441 72.2304 175.825 71.8186C177.225 71.4635 178.62 71.0672 180.051 70.779C185.526 69.5643 191.044 68.9621 196.447 68.7099C201.856 68.4577 207.162 68.4732 212.319 68.7614L212.468 68.7717L212.438 68.9209C210.003 79.8117 207.708 90.0849 205.603 99.4985V99.5191L205.588 99.5397C204.306 101.65 203.282 103.868 202.52 106.107C201.789 108.351 201.316 110.657 201.481 112.906C201.656 115.166 201.717 117.379 201.774 119.52C201.815 121.666 201.856 123.751 201.897 125.768C202.016 133.849 202.047 140.895 202.067 146.706C202.072 152.511 202.078 157.071 202.083 160.19C202.078 161.745 202.072 162.934 202.067 163.747C202.067 164.148 202.062 164.447 202.057 164.658C202.057 164.864 202.047 164.967 202.047 164.967C202.047 164.967 202.042 164.864 202.036 164.658C202.036 164.447 202.031 164.143 202.026 163.747C202.026 162.939 202.016 161.745 202.006 160.19C201.985 157.071 201.959 152.506 201.928 146.706C201.887 140.9 201.836 133.849 201.702 125.773C201.661 123.756 201.614 121.671 201.568 119.525C201.506 117.379 201.439 115.176 201.264 112.922C201.095 110.631 201.568 108.3 202.304 106.035C203.071 103.776 204.09 101.547 205.387 99.411L205.371 99.4471C207.466 90.0283 209.756 79.7551 212.18 68.8643L212.299 69.0239C207.157 68.7357 201.851 68.7254 196.458 68.9776C191.064 69.2298 185.568 69.8319 180.107 71.0415C178.682 71.3245 177.292 71.726 175.897 72.076C174.518 72.4877 173.139 72.8737 171.79 73.3473C169.088 74.2583 166.453 75.2979 163.921 76.4869C161.394 77.6809 158.945 78.9934 156.685 80.522C154.364 81.9837 152.074 83.4248 149.815 84.8454C140.767 90.5327 132.219 95.9111 124.355 100.852L124.381 100.826C122.857 102.772 121.648 104.898 120.634 107.039C119.62 109.185 118.869 111.388 118.349 113.586C117.191 117.996 117.773 122.351 117.783 126.381C117.984 134.461 118.159 141.518 118.303 147.328C118.442 153.134 118.55 157.704 118.622 160.823C118.653 162.378 118.678 163.572 118.699 164.38C118.704 164.781 118.709 165.085 118.714 165.291C118.714 165.497 118.714 165.6 118.714 165.6L118.704 165.61Z" fill="#263238"/>
<path d="M212.3 69.6302C212.3 69.6302 212.382 69.6199 212.542 69.6147C212.712 69.6096 212.943 69.5993 213.252 69.589C213.885 69.5735 214.801 69.553 215.985 69.5221C218.373 69.4758 221.826 69.4088 226.118 69.3213C234.729 69.1721 246.72 68.9714 260.281 68.7397H260.343L260.384 68.7861C261.918 70.6647 263.528 72.6411 265.17 74.6484C270.018 80.593 274.64 86.2597 278.839 91.4117C279.364 92.0551 279.884 92.6933 280.394 93.3212C280.898 93.9594 281.33 94.6543 281.67 95.3697C282.344 96.8108 282.689 98.3549 282.694 99.8474C282.709 101.34 282.401 102.781 281.865 104.058C281.325 105.319 280.805 106.528 280.306 107.686C278.314 112.293 276.704 116.024 275.582 118.618C275.021 119.9 274.588 120.898 274.285 121.583C274.135 121.912 274.022 122.169 273.94 122.35C273.863 122.525 273.816 122.607 273.816 122.607C273.816 122.607 273.847 122.514 273.914 122.339C273.991 122.154 274.094 121.897 274.233 121.562C274.521 120.867 274.943 119.864 275.484 118.577C276.585 115.978 278.17 112.236 280.131 107.614C281.016 105.288 282.576 102.838 282.468 99.8526C282.457 98.3909 282.118 96.8828 281.454 95.4726C281.114 94.7726 280.697 94.0984 280.198 93.4705C279.683 92.8426 279.164 92.2095 278.639 91.5661C274.434 86.4193 269.807 80.7577 264.954 74.8182C263.317 72.8109 261.701 70.8345 260.168 68.9559L260.271 69.0022C246.71 69.1978 234.718 69.3728 226.103 69.4963C221.811 69.5478 218.358 69.589 215.97 69.6147C214.791 69.625 213.87 69.6302 213.237 69.6353H212.527C212.367 69.6353 212.285 69.625 212.285 69.625L212.3 69.6302Z" fill="#263238"/>
<path d="M195.054 115.061C195.054 115.061 195.198 115.046 195.466 115C195.728 114.953 196.12 114.85 196.547 114.567C196.969 114.289 197.422 113.816 197.648 113.137C197.766 112.797 197.802 112.421 197.787 112.004C197.777 111.603 197.674 111.176 197.468 110.779C197.056 109.992 196.161 109.333 195.095 109.333C194.009 109.333 192.846 109.338 191.627 109.343C189.177 109.343 186.496 109.348 183.675 109.354C183.001 109.354 182.342 109.616 181.864 110.059C181.38 110.501 181.071 111.114 181.004 111.742C180.937 112.39 181.025 113.023 181.334 113.559C181.632 114.094 182.116 114.5 182.651 114.727C183.191 114.969 183.778 114.933 184.365 114.938C184.941 114.938 185.507 114.938 186.048 114.943C187.134 114.948 188.142 114.953 189.074 114.959C190.901 114.974 192.393 114.989 193.454 115C193.953 115.01 194.349 115.02 194.642 115.025C194.915 115.036 195.059 115.041 195.059 115.051C195.059 115.061 194.915 115.072 194.642 115.077C194.344 115.082 193.948 115.092 193.454 115.103C192.393 115.113 190.901 115.128 189.074 115.144C188.148 115.144 187.134 115.154 186.048 115.159C185.502 115.159 184.941 115.159 184.365 115.164C184.072 115.164 183.788 115.175 183.475 115.159C183.166 115.139 182.852 115.072 182.558 114.948C181.972 114.701 181.442 114.264 181.112 113.677C180.773 113.095 180.675 112.38 180.747 111.706C180.819 111.011 181.159 110.337 181.689 109.853C182.219 109.364 182.939 109.076 183.68 109.076C186.501 109.076 189.187 109.081 191.632 109.086C192.851 109.091 194.015 109.096 195.106 109.101C196.253 109.112 197.216 109.832 197.638 110.682C197.854 111.109 197.957 111.562 197.957 111.989C197.967 112.406 197.921 112.823 197.787 113.173C197.535 113.888 197.046 114.372 196.603 114.645C196.15 114.923 195.744 115.01 195.471 115.041C195.198 115.072 195.054 115.046 195.054 115.046V115.061Z" fill="#263238"/>
<path d="M271.187 115.061C271.187 115.061 271.331 115.046 271.598 115C271.861 114.953 272.252 114.85 272.679 114.567C273.101 114.289 273.554 113.816 273.78 113.137C273.899 112.797 273.94 112.421 273.919 112.004C273.909 111.603 273.806 111.176 273.6 110.779C273.188 109.992 272.293 109.333 271.228 109.333C270.142 109.333 268.979 109.338 267.759 109.343C265.309 109.343 262.628 109.348 259.808 109.354C259.133 109.354 258.475 109.616 257.996 110.059C257.512 110.501 257.203 111.114 257.137 111.742C257.07 112.39 257.157 113.023 257.466 113.559C257.764 114.094 258.248 114.5 258.783 114.727C259.324 114.969 259.91 114.933 260.497 114.938C261.074 114.938 261.64 114.938 262.18 114.943C263.266 114.948 264.275 114.953 265.206 114.959C267.033 114.974 268.526 114.989 269.586 115C270.085 115.01 270.481 115.02 270.775 115.025C271.048 115.036 271.192 115.041 271.192 115.051C271.192 115.061 271.048 115.072 270.775 115.077C270.476 115.082 270.08 115.092 269.586 115.103C268.526 115.113 267.033 115.128 265.206 115.144C264.28 115.144 263.266 115.154 262.18 115.159C261.635 115.159 261.074 115.159 260.497 115.164C260.204 115.164 259.921 115.175 259.607 115.159C259.298 115.139 258.984 115.072 258.691 114.948C258.104 114.701 257.574 114.264 257.245 113.677C256.905 113.095 256.807 112.38 256.879 111.706C256.951 111.011 257.291 110.337 257.821 109.853C258.351 109.364 259.072 109.076 259.813 109.076C262.633 109.076 265.319 109.081 267.764 109.086C268.984 109.091 270.147 109.096 271.238 109.101C272.386 109.112 273.348 109.832 273.77 110.682C273.986 111.109 274.089 111.562 274.089 111.989C274.099 112.406 274.053 112.823 273.919 113.173C273.667 113.888 273.178 114.372 272.736 114.645C272.283 114.923 271.876 115.01 271.603 115.041C271.331 115.072 271.187 115.046 271.187 115.046V115.061Z" fill="#263238"/>
<path d="M337.947 102.637H322.713C320.624 102.637 318.709 103.795 317.737 105.643C316.939 107.161 316.877 108.958 317.567 110.527L323.542 124.1L338.796 123.95C338.796 123.95 342.038 106.75 337.947 102.642V102.637Z" fill="#FAFAFA"/>
<path d="M126.379 100.718L204.982 99.2713L256.138 98.3346L273.008 88.5967C274.372 87.8092 274.738 85.9975 273.786 84.7417L263.287 70.9429C262.191 69.5018 260.492 68.6526 258.686 68.6371L201.467 68.1739C201.467 68.1739 179.918 66.9232 162.945 76.4295C145.077 86.435 126.379 100.723 126.379 100.723V100.718Z" fill="#263238"/>
<path d="M162.405 69.5947C162.405 69.5947 166.347 71.391 163.779 73.0586C161.216 74.721 121.392 99.8326 121.392 99.8326L112.237 95.6894C128.453 86.6515 144.835 77.8812 162.405 69.5999V69.5947Z" fill="#455A64"/>
<path d="M122.679 100.46C122.679 100.46 122.597 100.486 122.432 100.522L121.706 100.682C121.058 100.815 120.116 101.011 118.912 101.258C116.482 101.742 112.962 102.421 108.598 103.167C99.8695 104.67 87.7444 106.42 74.2759 107.589C70.9101 107.882 67.6164 108.124 64.4358 108.33C61.2553 108.541 58.188 108.731 55.275 108.999C49.4492 109.508 44.2255 110.358 39.9848 111.619C35.7337 112.838 32.4811 114.403 30.3453 115.638C29.2491 116.215 28.472 116.781 27.9162 117.121C27.6486 117.29 27.4427 117.424 27.2883 117.517C27.1442 117.604 27.067 117.646 27.067 117.646C27.067 117.646 27.1339 117.589 27.2677 117.496C27.417 117.393 27.6177 117.254 27.8802 117.074C28.4257 116.719 29.1977 116.138 30.2887 115.546C32.4142 114.28 35.6668 112.679 39.9281 111.433C44.1792 110.141 49.4132 109.272 55.2493 108.752C58.1674 108.479 61.2347 108.278 64.4152 108.067C67.5958 107.856 70.8844 107.614 74.2502 107.321C87.7135 106.158 99.8335 104.439 108.567 102.982C112.937 102.256 116.457 101.608 118.896 101.155C120.106 100.929 121.047 100.748 121.701 100.625C122.015 100.568 122.257 100.527 122.432 100.491C122.597 100.465 122.684 100.455 122.684 100.455L122.679 100.46Z" fill="#263238"/>
<path d="M344.035 135.66C344.035 135.732 338.796 135.794 332.337 135.794C325.878 135.794 320.634 135.732 320.634 135.66C320.634 135.588 325.873 135.526 332.337 135.526C338.801 135.526 344.035 135.588 344.035 135.66Z" fill="#263238"/>
<path d="M248.192 149.031C248.192 149.103 218.62 149.165 182.147 149.165C145.673 149.165 116.096 149.103 116.096 149.031C116.096 148.959 145.663 148.897 182.147 148.897C218.63 148.897 248.192 148.959 248.192 149.031Z" fill="#263238"/>
<path d="M41.1273 136.102C41.1273 136.174 36.9431 136.236 31.7863 136.236C26.6295 136.236 22.4454 136.174 22.4454 136.102C22.4454 136.03 26.6244 135.968 31.7863 135.968C36.9483 135.968 41.1273 136.03 41.1273 136.102Z" fill="#263238"/>
<path d="M313.028 78.6682C313.028 78.6682 309.518 82.6004 310.897 85.4827C312.276 88.3649 326.532 98.458 326.532 98.458L336.882 100.398L313.022 78.6631L313.028 78.6682Z" fill="#455A64"/>
<path d="M214.626 71.6377L212.3 96.7699L253.946 95.5809L270.728 85.8276L259.864 71.6377H214.626Z" fill="#455A64"/>
<path d="M136.24 98.0563C136.24 98.0563 161.365 79.9085 171.277 76.3056C180.845 72.8264 185.832 71.9514 194.817 71.6992C203.407 71.4573 208.641 71.6941 208.641 71.6941L202.002 97.2483L136.24 98.0666V98.0563Z" fill="#455A64"/>
<path d="M132.565 98.1388C132.565 96.5484 133.425 95.0816 134.809 94.2993L140.578 91.0567C142.225 90.1303 144.078 89.6465 145.967 89.6465C147.14 89.6465 148.298 89.8318 149.394 90.1921C151.86 91.0001 153.501 93.3419 153.604 95.936C153.743 99.5388 150.856 102.539 147.248 102.539H136.966C134.536 102.539 132.565 100.568 132.565 98.1388Z" fill="#407BFF"/>
<path d="M132.565 98.1388C132.565 98.1388 132.581 98.3344 132.632 98.6947C132.679 99.055 132.812 99.5902 133.137 100.203C133.476 100.805 134.042 101.474 134.907 101.942C135.339 102.169 135.844 102.339 136.389 102.411C136.935 102.478 137.537 102.436 138.165 102.442C140.676 102.431 143.661 102.426 146.97 102.411C147.794 102.411 148.622 102.313 149.42 102.009C150.218 101.711 150.964 101.242 151.597 100.625C152.225 100.007 152.745 99.2505 153.064 98.3962C153.388 97.5418 153.517 96.605 153.45 95.6735C153.306 93.8 152.307 92.0707 150.851 91.067C150.13 90.5523 149.302 90.259 148.468 90.0634C147.634 89.8626 146.795 89.77 145.977 89.77C144.335 89.77 142.786 90.1354 141.458 90.7376C140.795 91.0361 140.187 91.4119 139.585 91.7361C138.988 92.0707 138.412 92.3898 137.866 92.6934C136.77 93.3008 135.782 93.8463 134.907 94.3353C134.037 94.8036 133.471 95.4779 133.142 96.0801C132.807 96.6874 132.684 97.2278 132.632 97.5881C132.581 97.9535 132.586 98.144 132.57 98.144C132.57 98.144 132.545 97.9484 132.581 97.5778C132.617 97.2124 132.725 96.6617 133.054 96.0286C133.378 95.4058 133.955 94.6956 134.84 94.2015C135.71 93.7074 136.693 93.1463 137.779 92.5287C138.324 92.2199 138.895 91.8957 139.487 91.556C140.084 91.2266 140.692 90.8457 141.371 90.5369C142.719 89.9141 144.304 89.5281 145.982 89.5229C146.821 89.5229 147.681 89.6156 148.535 89.8163C149.384 90.0119 150.259 90.3156 151.01 90.856C152.529 91.9008 153.578 93.7074 153.723 95.658C153.795 96.6308 153.661 97.6087 153.321 98.4991C152.987 99.3895 152.446 100.182 151.787 100.82C151.129 101.464 150.346 101.953 149.518 102.256C148.689 102.57 147.809 102.673 146.976 102.663C143.666 102.653 140.686 102.642 138.17 102.632C137.542 102.622 136.95 102.653 136.374 102.581C135.802 102.503 135.283 102.318 134.84 102.076C133.95 101.577 133.384 100.872 133.049 100.254C132.73 99.6211 132.612 99.0704 132.581 98.705C132.55 98.3344 132.57 98.1388 132.57 98.1388H132.565Z" fill="#263238"/>
<path d="M326.136 165.197C326.136 165.197 326.136 165.074 326.151 164.842C326.167 164.6 326.192 164.25 326.223 163.797C326.249 163.339 326.306 162.773 326.336 162.099C326.357 161.425 326.388 160.647 326.414 159.778C326.424 158.903 326.414 157.93 326.398 156.87C326.331 155.809 326.326 154.651 326.182 153.421C325.961 150.951 325.549 148.146 324.695 145.14C324.252 143.647 323.748 142.088 323.053 140.533C322.394 138.964 321.555 137.399 320.567 135.855C318.606 132.756 315.832 129.905 312.523 127.455C309.204 125.016 305.277 123.055 300.98 121.763C296.687 120.445 292.014 119.966 287.259 119.936C282.499 119.925 277.846 120.569 273.569 121.927C271.434 122.602 269.39 123.451 267.476 124.444C265.566 125.443 263.812 126.637 262.185 127.903C258.948 130.456 256.215 133.317 254.033 136.261C252.958 137.744 252.088 139.288 251.326 140.811C250.606 142.355 249.952 143.853 249.453 145.335C247.368 151.234 246.715 156.303 246.483 159.778C246.401 161.522 246.411 162.881 246.452 163.797C246.478 164.25 246.499 164.6 246.514 164.842C246.524 165.079 246.524 165.197 246.524 165.197C246.524 165.197 246.509 165.079 246.483 164.842C246.463 164.6 246.432 164.25 246.396 163.797C246.334 162.876 246.308 161.517 246.375 159.767C246.576 156.283 247.204 151.193 249.273 145.269C249.772 143.781 250.42 142.273 251.141 140.719C251.903 139.185 252.777 137.631 253.858 136.128C256.045 133.158 258.783 130.276 262.036 127.707C263.673 126.431 265.433 125.227 267.357 124.218C269.287 123.219 271.341 122.36 273.492 121.68C277.795 120.311 282.483 119.658 287.264 119.673C292.04 119.704 296.734 120.188 301.057 121.516C305.38 122.818 309.327 124.794 312.667 127.26C314.34 128.49 315.858 129.833 317.217 131.254C318.576 132.669 319.775 134.172 320.753 135.737C321.746 137.291 322.585 138.871 323.238 140.451C323.933 142.016 324.427 143.585 324.87 145.088C325.719 148.11 326.115 150.93 326.326 153.406C326.465 154.641 326.46 155.804 326.522 156.864C326.522 157.93 326.527 158.903 326.511 159.778C326.47 160.653 326.439 161.425 326.409 162.104C326.367 162.778 326.306 163.344 326.27 163.802C326.228 164.255 326.198 164.6 326.172 164.847C326.146 165.084 326.131 165.202 326.131 165.202L326.136 165.197Z" fill="white"/>
<path d="M200.901 100.717C200.901 100.717 200.859 100.727 200.782 100.733C200.69 100.733 200.571 100.743 200.432 100.748C200.103 100.753 199.655 100.763 199.089 100.779C197.9 100.799 196.217 100.83 194.154 100.866C189.985 100.944 184.231 101.098 177.87 101.273C171.509 101.448 165.75 101.571 161.581 101.597C159.497 101.613 157.809 101.613 156.641 101.597C156.075 101.587 155.627 101.582 155.297 101.577L154.947 101.566C154.87 101.566 154.829 101.556 154.829 101.551C154.829 101.546 154.87 101.541 154.947 101.535C155.04 101.535 155.158 101.525 155.297 101.52C155.627 101.515 156.075 101.505 156.641 101.489C157.83 101.469 159.512 101.438 161.576 101.402C165.745 101.324 171.504 101.17 177.865 100.995C184.226 100.82 189.985 100.696 194.154 100.671C196.238 100.655 197.926 100.655 199.094 100.671C199.66 100.681 200.108 100.686 200.437 100.691C200.576 100.691 200.69 100.702 200.787 100.702C200.865 100.702 200.906 100.712 200.906 100.717H200.901Z" fill="white"/>
<path d="M194.076 108.458C194.076 108.53 192.059 108.592 189.568 108.592C187.077 108.592 185.06 108.53 185.06 108.458C185.06 108.386 187.077 108.324 189.568 108.324C192.059 108.324 194.076 108.386 194.076 108.458Z" fill="white"/>
<path d="M195.733 80.9121C195.759 80.979 190.165 83.3106 183.233 86.1156C176.3 88.9207 170.66 91.1389 170.629 91.072C170.598 91.0051 176.197 88.6736 183.13 85.8686C190.062 83.0635 195.703 80.8452 195.728 80.9121H195.733Z" fill="white"/>
<path d="M184.391 82.6728C184.421 82.7398 179.09 85.0867 172.487 87.9175C165.884 90.7483 160.506 92.982 160.48 92.9151C160.449 92.8482 165.781 90.5012 172.384 87.6705C178.987 84.8448 184.365 82.6059 184.391 82.6728Z" fill="white"/>
<path d="M256.318 79.9395C256.344 80.0064 250.75 82.3379 243.817 85.143C236.885 87.948 231.244 90.1663 231.213 90.0994C231.188 90.0325 236.782 87.7009 243.714 84.8959C250.647 82.0909 256.287 79.8726 256.313 79.9395H256.318Z" fill="white"/>
<path d="M244.98 81.6997C245.011 81.7666 239.679 84.1136 233.077 86.9444C226.474 89.7751 221.095 92.0089 221.07 91.942C221.039 91.8751 226.371 89.5281 232.974 86.6973C239.577 83.8717 244.955 81.6328 244.98 81.6997Z" fill="white"/>
<path d="M257.414 100.712C257.414 100.784 246.283 100.913 232.552 100.995C218.816 101.077 207.689 101.083 207.689 101.011C207.689 100.939 218.816 100.81 232.552 100.728C246.283 100.645 257.414 100.64 257.414 100.712Z" fill="white"/>
<path d="M269.74 108.026C269.74 108.098 266.622 108.191 262.767 108.227C258.912 108.263 255.793 108.232 255.793 108.16C255.793 108.088 258.912 107.995 262.767 107.959C266.616 107.923 269.74 107.954 269.74 108.026Z" fill="white"/>
<path d="M56.5977 104.222C56.5977 104.222 56.4948 104.253 56.2941 104.279C56.0676 104.31 55.7794 104.346 55.4191 104.392C55.0383 104.433 54.5751 104.495 54.0399 104.583C53.5046 104.67 52.8922 104.747 52.2232 104.881C50.8799 105.113 49.2948 105.468 47.5501 105.931C45.8158 106.415 43.9218 107.017 41.9868 107.769C40.0517 108.535 38.2555 109.374 36.655 110.203C35.0596 111.047 33.6597 111.865 32.512 112.612C31.9305 112.967 31.4261 113.327 30.9784 113.631C30.5255 113.929 30.1446 114.202 29.841 114.429C29.5476 114.634 29.3109 114.804 29.1256 114.938C28.9609 115.051 28.8683 115.108 28.8632 115.103C28.858 115.098 28.9352 115.026 29.0896 114.897C29.2697 114.753 29.4962 114.573 29.7792 114.346C30.0777 114.104 30.4483 113.821 30.896 113.507C31.3386 113.193 31.8378 112.823 32.4142 112.452C33.5516 111.685 34.9515 110.846 36.5418 109.987C38.1423 109.143 39.9487 108.288 41.8941 107.522C43.8446 106.765 45.7437 106.163 47.4935 105.694C49.2485 105.241 50.8439 104.907 52.1974 104.696C52.8716 104.572 53.4892 104.505 54.0244 104.439C54.5648 104.361 55.028 104.32 55.4088 104.294C55.7691 104.269 56.0573 104.248 56.2889 104.228C56.4896 104.217 56.5977 104.212 56.5977 104.228V104.222Z" fill="white"/>
<path d="M148.499 92.081C148.499 92.081 148.344 91.8803 148.005 91.6023C147.665 91.3296 147.084 91.0156 146.306 90.9178C145.524 90.8149 144.582 90.9487 143.563 91.2163C142.539 91.4737 141.438 91.834 140.321 92.3178C138.082 93.2802 136.26 94.5618 135.051 95.5963C133.826 96.6257 133.183 97.3823 133.142 97.3463C133.126 97.336 133.281 97.1404 133.574 96.8007C133.872 96.4661 134.32 95.9926 134.922 95.4574C136.111 94.3765 137.943 93.0538 140.213 92.0759C141.345 91.5869 142.462 91.2266 143.502 90.9796C144.531 90.7222 145.514 90.6039 146.332 90.7325C147.15 90.8612 147.742 91.2163 148.077 91.5303C148.247 91.6847 148.355 91.8288 148.422 91.9266C148.483 92.0295 148.514 92.0862 148.504 92.0913L148.499 92.081Z" fill="white"/>
<path d="M314.196 78.488C314.196 78.488 313.434 78.7196 312.003 78.7093C311.293 78.6939 310.424 78.6064 309.435 78.3902C308.447 78.174 307.346 77.8344 306.162 77.3814C304.973 76.9337 303.707 76.3624 302.338 75.7808C301.649 75.5028 300.938 75.2146 300.203 74.9161C299.467 74.6227 298.689 74.3705 297.907 74.0823C294.747 72.9963 291.196 72.0235 287.419 71.2258C279.858 69.6405 272.869 68.9817 267.816 68.7862C266.55 68.7192 265.407 68.7192 264.403 68.6884C263.405 68.6884 262.54 68.6884 261.825 68.6884C261.13 68.7038 260.59 68.7141 260.194 68.7244C260.019 68.7244 259.88 68.7244 259.772 68.7244C259.674 68.7244 259.627 68.7244 259.627 68.7141C259.627 68.7141 259.674 68.7038 259.772 68.6935C259.88 68.6884 260.024 68.6781 260.194 68.6626C260.585 68.642 261.13 68.6112 261.825 68.5751C262.54 68.5648 263.405 68.5494 264.409 68.5288C265.417 68.5442 266.565 68.5288 267.831 68.5854C272.895 68.7347 279.9 69.3626 287.48 70.953C291.268 71.7508 294.83 72.739 297.995 73.8404C298.782 74.1286 299.559 74.386 300.295 74.6845C301.031 74.9881 301.746 75.2815 302.436 75.5646C303.805 76.1616 305.061 76.7381 306.239 77.191C307.413 77.6542 308.504 78.0042 309.477 78.2307C310.454 78.4623 311.314 78.5549 312.014 78.5909C312.719 78.6115 313.27 78.5755 313.635 78.5292C313.805 78.5086 313.944 78.4932 314.057 78.4777C314.15 78.4674 314.201 78.4674 314.201 78.4674L314.196 78.488Z" fill="#263238"/>
<path d="M66.5817 79.1933C64.5282 67.932 63.1438 66.2026 61.9756 62.327C60.8279 58.4978 58.9649 55.9346 56.6644 55.0494C55.1101 54.4523 47.3698 51.6576 44.6679 52.584C41.6675 53.6134 39.0479 55.1111 37.19 56.3412C35.3836 57.5404 34.0146 59.2904 33.2889 61.3337L29.146 72.9502L36.3923 80.1815L40.0257 72.4612L43.9679 81.705L43.3864 91.0466L66.0001 97.1302C68.0588 93.8362 67.75 85.5909 66.5817 79.2036V79.1933Z" fill="#407BFF"/>
<g opacity="0.2">
<path d="M60.6942 66.9129C59.6958 72.7751 59.5363 73.5832 58.5379 79.4455C58.193 81.4579 57.1946 84.5975 55.7587 86.0489C54.6986 87.1246 53.6538 88.1643 52.1819 88.5143C50.8078 88.8385 48.7286 88.8746 47.4368 88.3033C46.1451 87.732 45.0489 85.2306 45.5789 83.9233C47.4934 84.335 48.0904 84.9732 49.7425 83.9233C51.1835 83.0071 53.2318 80.9793 54.0141 79.4609C57.313 73.0788 58.2188 72.8472 60.6839 66.9077" fill="black"/>
</g>
<path d="M44.3283 78.2673C44.2974 78.2879 43.9217 77.6857 43.3299 76.7078C42.6969 75.6733 41.8889 74.3608 40.9985 72.9094C40.0876 71.4683 39.259 70.1713 38.6105 69.1471C37.9929 68.1846 37.6224 67.5875 37.6533 67.567C37.6687 67.5567 37.7819 67.6905 37.9775 67.9478C38.1731 68.2 38.4407 68.5757 38.7701 69.0441C39.4288 69.9808 40.3037 71.2933 41.225 72.7704C42.1462 74.2527 42.9387 75.6167 43.4894 76.6152C43.7673 77.1144 43.9835 77.5262 44.1276 77.8092C44.2717 78.0975 44.3437 78.257 44.3283 78.2673Z" fill="#263238"/>
<path d="M60.1074 88.7818C60.1074 88.7818 59.9222 88.8693 59.5773 88.9825C59.4024 89.0391 59.1914 89.106 58.934 89.1626C58.6819 89.2193 58.3936 89.2965 58.0694 89.3428C57.4261 89.4612 56.649 89.5332 55.7792 89.5487C54.9146 89.5487 53.9574 89.4818 52.9744 89.3068C51.9914 89.1215 51.0753 88.8487 50.2622 88.5399C49.4593 88.2208 48.7542 87.8759 48.1933 87.5362C47.9051 87.3818 47.6632 87.2068 47.447 87.0627C47.2309 86.9238 47.0507 86.7848 46.9118 86.6716C46.6236 86.4451 46.4743 86.3113 46.4846 86.2958C46.5155 86.2547 47.1485 86.7539 48.2859 87.3715C48.852 87.6855 49.5519 88.0046 50.3497 88.3083C51.1525 88.5965 52.0532 88.859 53.0207 89.0391C53.9882 89.209 54.9249 89.281 55.7792 89.2965C56.6335 89.2965 57.4004 89.245 58.0385 89.1472C59.32 88.9671 60.0868 88.7252 60.1023 88.7766L60.1074 88.7818Z" fill="#263238"/>
<path d="M51.0343 71.236C50.9931 71.4368 48.5639 76.2748 48.5639 76.2748L37.0975 70.2324L35.9292 65.2914C35.744 64.5194 35.2705 63.8503 34.6066 63.4179C33.9015 62.9599 33.0369 62.8158 32.2186 63.0113L28.8374 64.3959C28.5543 64.5091 28.3381 64.751 28.2815 65.0495C28.2352 65.3017 28.297 65.5436 28.7293 65.5076C29.5682 65.4407 31.318 65.2554 31.318 65.2554L30.5203 68.0707C30.3093 68.8067 30.3916 69.5993 30.7467 70.2787L31.2562 71.2515L32.373 73.058L32.3524 73.0735C32.3524 73.0735 43.4998 84.5253 49.7579 85.2664C53.52 85.7142 57.7813 75.1683 57.7813 75.1683L51.0445 71.2258L51.0343 71.236Z" fill="#FFC7B1"/>
<path d="M31.2151 65.4508C31.2151 65.4508 31.3026 65.3324 31.493 65.2037C31.6834 65.0802 31.9871 64.9207 32.3628 64.9361C32.7487 64.9567 33.0318 65.2089 33.1296 65.4302C33.2325 65.6618 33.1656 65.8162 33.1502 65.8111C33.1193 65.8111 33.1399 65.6618 33.0267 65.4868C32.9186 65.317 32.6664 65.1214 32.3525 65.1059C32.0334 65.0905 31.7503 65.214 31.5496 65.3118C31.3489 65.4096 31.2254 65.4765 31.2151 65.4559V65.4508Z" fill="#AA6550"/>
<path d="M32.6612 67.206C32.6612 67.206 32.5891 67.1134 32.4759 66.9744C32.3678 66.8406 32.1877 66.6708 31.9458 66.5781C31.7039 66.4803 31.4569 66.4803 31.287 66.5061C31.1121 66.5318 31.0091 66.5678 30.9937 66.5472C30.9834 66.5318 31.076 66.4495 31.2613 66.3877C31.4414 66.3311 31.7245 66.3105 32.0076 66.4186C32.2906 66.5318 32.481 66.7377 32.5737 66.9075C32.6715 67.0774 32.6817 67.1957 32.6612 67.206Z" fill="#AA6550"/>
<path d="M53.4119 55.9652L50.3086 70.6801L58.5379 75.6263L61.6978 66.5832C61.6978 66.5832 60.3906 55.6049 53.4119 55.9652Z" fill="#407BFF"/>
<path d="M57.8481 56.228C57.8481 56.228 57.7812 56.2795 57.6371 56.3618C57.493 56.439 57.2872 56.5523 57.0093 56.6912C56.4637 56.9692 55.666 57.3603 54.6624 57.8081C52.6605 58.6934 49.8041 59.8257 46.4795 60.3867C43.1549 60.9529 40.0464 60.6904 37.926 60.0985C36.8607 59.8103 36.0269 59.486 35.4711 59.2184C35.1881 59.0948 34.9822 58.9713 34.8381 58.8993C34.694 58.8221 34.6219 58.7757 34.6271 58.7706C34.6374 58.75 34.9462 58.8941 35.5123 59.1257C36.0784 59.3625 36.9121 59.6558 37.9723 59.9183C40.0824 60.4536 43.1446 60.6852 46.4332 60.1242C49.7218 59.5684 52.5678 58.4772 54.5852 57.6383C55.594 57.2162 56.4071 56.8508 56.9629 56.6037C57.5239 56.3516 57.8327 56.2177 57.843 56.2383L57.8481 56.228Z" fill="#EBEBEB"/>
<path d="M60.0148 57.8495C60.0148 57.8495 59.9428 57.9165 59.7884 58.0194C59.6083 58.1378 59.3818 58.2819 59.1039 58.4569C58.8054 58.6473 58.44 58.8738 57.9923 59.1002C57.5497 59.3319 57.0556 59.6201 56.474 59.8723C56.1858 60.0061 55.8873 60.1399 55.5734 60.284C55.2595 60.4281 54.9198 60.5465 54.575 60.6803C53.8905 60.9686 53.1288 61.2002 52.3362 61.4575C50.7357 61.9259 48.9396 62.3273 47.0251 62.5641C45.1106 62.7803 43.2681 62.8111 41.6006 62.7288C40.7669 62.6619 39.9743 62.6156 39.2435 62.4972C38.8781 62.4406 38.5179 62.4045 38.1834 62.3428C37.8488 62.2759 37.5246 62.2141 37.2107 62.1523C36.5879 62.0443 36.0424 61.8796 35.5586 61.756C35.0697 61.6377 34.6631 61.5038 34.3286 61.3855C34.0198 61.2774 33.7676 61.1899 33.5618 61.1178C33.3868 61.0561 33.2993 61.0149 33.2993 61.0097C33.2993 61.0046 33.3971 61.02 33.5772 61.0663C33.7831 61.123 34.0404 61.195 34.3544 61.2825C34.6889 61.3855 35.1006 61.5038 35.5895 61.6068C36.0733 61.7149 36.624 61.8693 37.2415 61.9619C37.5503 62.0185 37.8746 62.0751 38.2091 62.1369C38.5436 62.1935 38.8987 62.2244 39.2641 62.2759C39.9949 62.3839 40.7823 62.4251 41.6058 62.4817C43.2578 62.5486 45.0848 62.5126 46.9839 62.2965C48.8829 62.0597 50.6636 61.6685 52.2539 61.2208C53.0413 60.9686 53.7979 60.7472 54.4823 60.4745C54.8272 60.3406 55.1617 60.2274 55.4756 60.0936C55.7896 59.9546 56.0881 59.826 56.3763 59.6973C56.9578 59.4605 57.4519 59.1826 57.8996 58.9664C58.3474 58.7503 58.7231 58.5392 59.0267 58.3642C59.3149 58.2047 59.5465 58.076 59.7318 57.9731C59.8965 57.8856 59.984 57.8444 59.9891 57.8495H60.0148Z" fill="#EBEBEB"/>
<path d="M58.5378 75.6265C58.5378 75.6265 58.2959 75.5184 57.8687 75.2868C57.4107 75.0294 56.8034 74.6897 56.0571 74.2677C54.4875 73.3618 52.3414 72.1266 49.8659 70.7009L49.7887 70.6546L49.8041 70.5671C50.0254 69.4657 50.2622 68.287 50.5041 67.0724C50.8798 65.2401 51.2349 63.5004 51.5591 61.9101C51.7289 61.1174 51.8679 60.3608 52.0223 59.6557C52.187 58.9506 52.3928 58.297 52.681 57.7411C53.2472 56.6139 54.1529 56.0014 54.8065 55.7904C55.1411 55.6823 55.4138 55.6566 55.594 55.6617C55.7741 55.6617 55.8719 55.6823 55.8719 55.6926C55.8719 55.7287 55.4807 55.6566 54.8426 55.8934C54.2198 56.125 53.3707 56.7374 52.8509 57.8286C52.5832 58.369 52.3877 59.0072 52.2384 59.702C52.0995 60.4123 51.9554 61.1638 51.801 61.9564C51.4819 63.5468 51.1319 65.2915 50.7665 67.1238C50.5195 68.3385 50.2776 69.5171 50.0563 70.6186L49.9946 70.4847C52.4494 71.9413 54.5801 73.2074 56.1343 74.1339C56.8651 74.5817 57.4621 74.9419 57.9099 75.2147C58.3216 75.4721 58.5429 75.6162 58.5326 75.6316L58.5378 75.6265Z" fill="#263238"/>
<path d="M61.0595 66.1509C61.0904 66.1509 61.1007 66.6759 61.0184 67.5251C60.936 68.3692 60.7559 69.5324 60.4265 70.7831C60.0971 72.0389 59.6803 73.1352 59.3355 73.9124C58.9906 74.6896 58.7282 75.1425 58.6973 75.1271C58.6613 75.1116 58.862 74.6278 59.1605 73.8403C59.459 73.0529 59.8398 71.9566 60.1692 70.7162C60.4934 69.4758 60.7044 68.3332 60.8331 67.4994C60.9618 66.6656 61.0235 66.1458 61.0647 66.1509H61.0595Z" fill="#263238"/>
<path d="M16.4087 147.996L16.3161 155.855C16.3161 155.855 8.29783 158.403 8.14343 159.854L23.3719 160.58L24.0153 148.341L16.4087 148.001V147.996Z" fill="#455A64"/>
<path d="M21.0558 155.418C21.3492 155.511 21.5345 155.855 21.4521 156.149C21.3698 156.442 21.025 156.638 20.7316 156.55C20.4383 156.463 20.2015 156.056 20.3148 155.773C20.428 155.49 20.85 155.284 21.1125 155.439" fill="#E0E0E0"/>
<path d="M23.3718 160.575L23.3872 159.34L8.78141 159.108C8.78141 159.108 8.09178 159.371 8.14325 159.855L23.3718 160.58V160.575Z" fill="#E0E0E0"/>
<path d="M16.0741 155.763C16.0741 155.835 16.4447 155.886 16.7998 156.144C17.1601 156.391 17.335 156.72 17.4019 156.694C17.4688 156.684 17.3814 156.231 16.9491 155.933C16.5167 155.624 16.0639 155.691 16.0741 155.763Z" fill="#263238"/>
<path d="M14.4477 156.349C14.4272 156.421 14.7411 156.56 14.983 156.89C15.23 157.209 15.2763 157.554 15.3535 157.554C15.4204 157.569 15.4925 157.137 15.194 156.735C14.8955 156.334 14.458 156.282 14.4529 156.349H14.4477Z" fill="#263238"/>
<path d="M13.4493 158.218C13.5162 158.239 13.6397 157.868 13.4648 157.456C13.2949 157.039 12.9553 156.859 12.9192 156.921C12.8729 156.978 13.0891 157.209 13.2229 157.554C13.367 157.894 13.3721 158.208 13.4442 158.218H13.4493Z" fill="#263238"/>
<path d="M16.2953 153.977C16.3211 154.043 16.671 153.961 17.0879 154.007C17.5099 154.049 17.829 154.203 17.8702 154.141C17.9165 154.09 17.6077 153.802 17.1136 153.75C16.6196 153.699 16.2593 153.915 16.2953 153.977Z" fill="#263238"/>
<g opacity="0.3">
<path d="M16.3931 149.551L16.3726 150.951L23.8607 151.239L23.9328 149.983L16.3931 149.551Z" fill="black"/>
</g>
<path d="M16.3416 152.392C16.3416 152.423 16.6298 152.484 17.1033 152.423C17.34 152.392 17.6179 152.33 17.9113 152.217C18.0605 152.16 18.2098 152.088 18.359 152.006C18.4311 151.965 18.5186 151.923 18.5958 151.836C18.6833 151.764 18.7399 151.568 18.6472 151.44C18.5752 151.321 18.4414 151.259 18.3281 151.254C18.2149 151.244 18.1223 151.265 18.0399 151.28C17.8701 151.311 17.7054 151.362 17.5562 151.419C17.2577 151.537 17.0158 151.692 16.8305 151.846C16.46 152.155 16.3262 152.428 16.3519 152.443C16.3828 152.469 16.568 152.242 16.9386 151.99C17.1239 151.867 17.3606 151.738 17.6385 151.64C17.7775 151.594 17.9267 151.553 18.0811 151.527C18.2458 151.491 18.3796 151.496 18.4208 151.573C18.4362 151.599 18.4362 151.615 18.4002 151.656C18.3642 151.697 18.2973 151.738 18.2252 151.779C18.0863 151.862 17.9473 151.928 17.8135 151.99C17.5407 152.109 17.2834 152.186 17.0621 152.237C16.6195 152.34 16.3313 152.345 16.3313 152.387L16.3416 152.392Z" fill="#263238"/>
<path d="M16.4343 152.505C16.46 152.515 16.6196 152.258 16.671 151.779C16.6968 151.543 16.6865 151.249 16.6041 150.94C16.563 150.786 16.5063 150.626 16.4343 150.467C16.352 150.312 16.2542 150.107 15.966 150.06C15.8167 150.05 15.6829 150.158 15.6366 150.256C15.58 150.359 15.5697 150.446 15.5439 150.534C15.5079 150.709 15.5028 150.884 15.5182 151.048C15.5491 151.373 15.6726 151.651 15.8064 151.851C16.0843 152.258 16.3931 152.366 16.3983 152.34C16.424 152.304 16.1718 152.15 15.9608 151.759C15.8579 151.568 15.7704 151.316 15.755 151.033C15.7447 150.889 15.755 150.74 15.791 150.596C15.8219 150.436 15.8888 150.307 15.9505 150.328C16.0277 150.328 16.1512 150.457 16.2078 150.59C16.2799 150.729 16.3365 150.873 16.3777 151.012C16.46 151.29 16.4909 151.558 16.4909 151.779C16.4909 152.227 16.3983 152.5 16.4394 152.515L16.4343 152.505Z" fill="#263238"/>
<path d="M47.4419 91.1183C47.4419 91.1183 23.6599 81.1436 16.2953 80.7164C11.6788 80.4488 8.18437 83.4134 8.81224 88.1948C9.12618 90.583 15.6983 118.567 15.6983 118.567L25.7237 113.986L20.9065 94.6387L40.4427 104.135L47.4419 91.1131V91.1183Z" fill="#263238"/>
<path d="M17.9061 89.7444C17.8289 89.8113 18.6163 90.8252 19.4449 92.1685C20.2787 93.5119 20.8345 94.6699 20.9271 94.6288C21.0146 94.5979 20.5926 93.3523 19.7434 91.9833C18.8994 90.609 17.973 89.6775 17.9061 89.7392V89.7444Z" fill="#455A64"/>
<path d="M15.9607 90.8558C15.9092 90.9432 17.1135 91.705 18.5185 92.7447C19.9287 93.7792 21.0146 94.6953 21.0815 94.6233C21.1432 94.5564 20.1551 93.5115 18.7244 92.4616C17.2988 91.4116 16.0019 90.7734 15.9607 90.8558Z" fill="#455A64"/>
<path d="M66.0003 97.1194C66.0003 97.1194 63.0102 100.974 60.1539 102.03C56.5719 103.352 30.0674 115.859 30.0674 115.859C30.0674 115.859 25.2605 151.568 25.6414 150.081L14.5507 149.813L15.7549 116.919C15.899 112.704 19.2752 107.871 22.8983 105.72L47.4368 91.1182L65.9952 97.1194H66.0003Z" fill="#263238"/>
<path d="M15.5439 122.936C15.5439 122.936 15.5696 122.782 15.5902 122.483C15.6057 122.154 15.6314 121.722 15.6571 121.192C15.7189 120.07 15.7806 118.438 16.0946 116.462C16.424 114.501 17.0209 112.133 18.4929 109.941C19.2237 108.849 20.2015 107.861 21.344 106.997C22.4865 106.132 23.7732 105.37 25.1061 104.613C30.443 101.556 35.0492 98.4373 38.4562 96.3013C40.1545 95.2205 41.5338 94.3609 42.491 93.7742C42.9439 93.4963 43.3093 93.2698 43.5924 93.0948C43.8446 92.9352 43.9732 92.8478 43.9681 92.8375C43.9629 92.8272 43.824 92.8941 43.5615 93.033C43.299 93.172 42.913 93.3779 42.4241 93.6558C41.4411 94.2065 40.0413 95.0352 38.3275 96.0903C34.8845 98.1748 30.2578 101.263 24.9363 104.31C23.6033 105.066 22.3013 105.833 21.1382 106.724C19.975 107.609 18.9715 108.633 18.2252 109.76C16.7327 112.025 16.1512 114.439 15.8527 116.42C15.5696 118.423 15.5439 120.059 15.5233 121.181C15.5233 121.717 15.5233 122.144 15.5233 122.478C15.5233 122.777 15.5388 122.931 15.549 122.931L15.5439 122.936Z" fill="#455A64"/>
<path d="M56.2116 100.887C56.2528 100.841 55.9286 100.542 55.5323 99.971C55.136 99.4049 54.6934 98.5402 54.4824 97.5108C54.2765 96.4763 54.3434 95.5087 54.4927 94.8344C54.6368 94.1551 54.8169 93.7536 54.7654 93.7279C54.7346 93.7073 54.4721 94.0779 54.2559 94.7727C54.0398 95.4624 53.9214 96.4866 54.1427 97.5829C54.364 98.674 54.8684 99.5747 55.3367 100.125C55.805 100.681 56.191 100.918 56.2116 100.887Z" fill="#455A64"/>
<path d="M18.6266 149.813C18.6266 149.813 18.642 149.751 18.6626 149.633C18.6781 149.494 18.7038 149.314 18.7295 149.093C18.781 148.593 18.8582 147.893 18.9508 147.013C19.1309 145.181 19.3883 142.571 19.7022 139.36C19.8566 137.739 20.0264 135.973 20.2066 134.074C20.3918 132.175 20.5823 130.142 20.7315 128.001C20.8962 125.865 21.1021 123.621 21.488 121.325C21.8895 119.04 22.4865 116.688 23.5261 114.459C24.5451 112.22 25.9912 110.265 27.5506 108.556C29.1358 106.857 30.8495 105.401 32.5736 104.129C36.0218 101.592 39.4236 99.7392 42.2285 98.1025C45.0436 96.4863 47.2875 95.107 48.78 94.0673C49.5314 93.5526 50.0975 93.1357 50.4783 92.8423C50.6533 92.7034 50.7923 92.5953 50.9055 92.5078C50.9981 92.4306 51.0496 92.3894 51.0444 92.3843C51.0444 92.3843 50.9878 92.41 50.8849 92.4821C50.7665 92.5644 50.6224 92.6622 50.4372 92.7909C50.046 93.0637 49.4645 93.4651 48.7079 93.9592C47.1949 94.9629 44.9407 96.301 42.1101 97.8914C39.295 99.4973 35.8725 101.33 32.3883 103.872C30.6488 105.143 28.9145 106.605 27.3036 108.324C25.7185 110.053 24.2517 112.035 23.2121 114.315C22.1571 116.585 21.5549 118.963 21.1535 121.269C20.7675 123.579 20.5668 125.834 20.4124 127.975C20.2735 130.116 20.0933 132.149 19.9235 134.048C19.7588 135.947 19.6044 137.718 19.4655 139.339C19.1978 142.556 18.9765 145.165 18.8222 147.003C18.7553 147.888 18.7038 148.583 18.6678 149.087C18.6523 149.309 18.642 149.489 18.6369 149.633C18.6317 149.756 18.6369 149.818 18.6369 149.818L18.6266 149.813Z" fill="#455A64"/>
<path d="M44.7401 34.4719C44.0556 32.5315 41.7808 31.3066 39.784 31.8058C39.3259 31.9191 38.8731 32.1146 38.4047 32.1043C37.8232 32.0941 37.2982 31.7749 36.727 31.6617C35.5021 31.4147 34.164 32.2845 33.8861 33.5043C32.9134 33.3036 31.8326 33.4425 31.0555 34.0653C30.2835 34.6881 29.9233 35.8564 30.3968 36.7314C30.5975 37.1071 30.9268 37.4056 31.1121 37.7916C31.4158 38.4247 31.2768 39.1864 31.4878 39.8555C31.8018 40.8489 32.8516 41.4614 33.8861 41.5797C34.9205 41.6981 35.955 41.415 36.9586 41.1371" fill="#263238"/>
<path d="M39.9692 54.8279C39.8406 53.8345 39.7531 53.1345 39.7531 53.1345C39.7531 53.1345 36.4387 53.114 35.1007 49.0016C34.4368 46.9583 33.9942 43.5048 33.7265 40.6688C33.4846 38.116 35.4146 35.8719 37.9776 35.7381L46.7884 35.2749L46.9788 36.6388L49.2999 53.5823C49.655 56.1661 47.8383 58.5439 45.2496 58.8836C42.6712 59.2233 40.3141 57.4013 39.9744 54.8279H39.9692Z" fill="#FFC7B1"/>
<path d="M34.9668 43.0976C35.0028 43.3858 35.2756 43.5917 35.5741 43.5608C35.8726 43.5299 36.0888 43.2726 36.0527 42.9844C36.0167 42.6961 35.7439 42.4903 35.4454 42.5211C35.1469 42.552 34.9308 42.8094 34.9668 43.0976Z" fill="#263238"/>
<path d="M34.7507 42.3361C34.8279 42.3979 35.1882 42.0273 35.7697 41.9347C36.3513 41.8369 36.8248 42.0685 36.8762 41.9862C36.902 41.9501 36.8145 41.8317 36.6086 41.7288C36.4027 41.6207 36.0734 41.5435 35.708 41.6001C35.3477 41.6619 35.0646 41.842 34.9103 42.0067C34.7507 42.1714 34.7147 42.3104 34.7507 42.3361Z" fill="#263238"/>
<path d="M40.4942 42.1615C40.5302 42.4498 40.8029 42.6556 41.1014 42.6248C41.3999 42.5939 41.6161 42.3365 41.5801 42.0483C41.544 41.7601 41.2713 41.5542 40.9728 41.5851C40.6743 41.616 40.4581 41.8733 40.4942 42.1615Z" fill="#263238"/>
<path d="M40.4839 41.5383C40.5611 41.6001 40.9265 41.2295 41.5029 41.1368C42.0844 41.039 42.5579 41.2707 42.6094 41.1883C42.6351 41.1523 42.5476 41.0339 42.3418 40.931C42.1359 40.8229 41.8065 40.7457 41.4411 40.8023C41.0809 40.864 40.7978 41.0442 40.6434 41.2089C40.489 41.3736 40.4478 41.5126 40.4839 41.5383Z" fill="#263238"/>
<path d="M39.0584 46.186C39.0584 46.15 38.6827 46.15 38.0858 46.1655C37.9365 46.1758 37.7873 46.1655 37.7461 46.0677C37.6946 45.9647 37.7306 45.7949 37.777 45.6096C37.8593 45.2287 37.9468 44.8273 38.0343 44.4104C38.3894 42.7016 38.621 41.3068 38.5489 41.2965C38.482 41.2811 38.1372 42.6553 37.7821 44.3641C37.6998 44.7861 37.6174 45.1876 37.5402 45.5684C37.5093 45.7486 37.4424 45.9544 37.5557 46.1655C37.6123 46.2684 37.7358 46.3353 37.8336 46.3456C37.9314 46.361 38.0188 46.3456 38.0909 46.3456C38.6879 46.2838 39.0533 46.2272 39.0481 46.1963L39.0584 46.186Z" fill="#263238"/>
<path d="M39.7531 53.1341C39.7531 53.1341 42.6197 52.8664 45.1569 50.7305C45.1569 50.7305 44.246 53.8443 39.9692 54.1223L39.7531 53.1341Z" fill="#AA6550"/>
<path d="M40.8338 46.315C40.7361 46.3253 40.8338 46.9583 40.3707 47.4885C39.9023 48.0237 39.2178 48.0598 39.2281 48.1473C39.2281 48.1884 39.398 48.245 39.681 48.209C39.9589 48.173 40.3552 48.0186 40.6434 47.6943C40.9316 47.3649 41.014 46.9789 40.9934 46.7164C40.978 46.4488 40.8802 46.3047 40.839 46.315H40.8338Z" fill="#263238"/>
<path d="M39.9693 39.2794C40.0516 39.4287 40.6229 39.2588 41.3177 39.2331C42.0124 39.1919 42.594 39.3051 42.6609 39.1507C42.6918 39.0787 42.5734 38.9449 42.3264 38.8265C42.0793 38.7081 41.7088 38.6206 41.2919 38.6412C40.8751 38.6618 40.5097 38.7853 40.2781 38.9243C40.0413 39.0632 39.9384 39.2073 39.9744 39.2794H39.9693Z" fill="#263238"/>
<path d="M34.6941 40.6174C34.8176 40.7306 35.1984 40.5299 35.6771 40.4475C36.1557 40.3498 36.5828 40.3961 36.6549 40.2417C36.6858 40.1696 36.5983 40.0461 36.4027 39.9483C36.2071 39.8505 35.8984 39.799 35.569 39.8608C35.2396 39.9226 34.972 40.0873 34.8279 40.252C34.6786 40.4167 34.6426 40.5608 34.6992 40.6174H34.6941Z" fill="#263238"/>
<path d="M33.284 38.8211C33.284 38.8211 35.6154 39.6085 38.2915 37.8174C40.0465 36.6439 42.1772 35.9079 42.7073 36.227C43.2373 36.541 43.5822 38.4659 45.5121 38.7902C45.5121 38.7902 45.8518 42.4959 47.3031 42.1768C48.3375 41.9504 47.7354 37.8637 47.3031 35.5322C47.1281 34.6006 46.3304 33.9109 45.3783 33.8749L42.6661 33.772L39.2797 34.719L35.6462 35.7072L32.8826 36.8549L33.2788 38.8211H33.284Z" fill="#263238"/>
<path d="M46.984 40.6789C47.0406 40.6378 49.2896 39.4591 49.7065 41.9142C50.1234 44.3692 47.5707 44.2817 47.5553 44.2097C47.5398 44.1376 46.984 40.6789 46.984 40.6789Z" fill="#FFC7B1"/>
<path d="M48.147 43.1499C48.147 43.1499 48.1934 43.1705 48.2706 43.1911C48.3478 43.2117 48.4713 43.2117 48.5896 43.1447C48.8315 43.0058 48.9808 42.558 48.919 42.1102C48.8881 41.8838 48.8058 41.683 48.6977 41.5183C48.5948 41.3536 48.4558 41.2455 48.322 41.2455C48.1882 41.2353 48.1059 41.333 48.0904 41.4051C48.0698 41.4772 48.0904 41.5235 48.0801 41.5338C48.075 41.5389 48.0184 41.5029 48.0235 41.3948C48.0235 41.3433 48.0441 41.2816 48.0956 41.225C48.147 41.1683 48.2294 41.1272 48.322 41.122C48.5124 41.1014 48.7132 41.2507 48.8315 41.4257C48.9602 41.6058 49.058 41.8323 49.094 42.0845C49.1609 42.5837 48.9859 43.0881 48.6514 43.2477C48.4867 43.3197 48.3323 43.294 48.25 43.2477C48.1625 43.2014 48.1419 43.1447 48.147 43.1396V43.1499Z" fill="#AA6550"/>
<path d="M34.4625 32.5985C34.4625 32.5985 34.55 32.7272 34.7199 32.9279C34.8897 33.1287 35.1985 33.3706 35.6462 33.525C36.094 33.6845 36.6652 33.7257 37.2828 33.597C37.9004 33.4787 38.554 33.2162 39.2642 32.9691C39.9693 32.7221 40.6949 32.5471 41.3691 32.5934C42.0433 32.6243 42.63 32.9331 42.9646 33.314C43.3145 33.6897 43.4535 34.1066 43.4535 34.3896C43.4638 34.6727 43.3917 34.822 43.3814 34.8168C43.3557 34.8168 43.3917 34.6624 43.3505 34.3999C43.3145 34.1426 43.1653 33.772 42.8308 33.4478C42.5014 33.1132 41.9816 32.861 41.3537 32.8456C40.731 32.8147 40.0465 32.9845 39.3517 33.2265C38.6569 33.4684 37.9827 33.736 37.3291 33.8441C36.6807 33.9676 36.0528 33.9007 35.5845 33.7051C35.111 33.5198 34.7971 33.2316 34.6375 32.9948C34.478 32.7632 34.4471 32.6037 34.4625 32.5985Z" fill="#455A64"/>
<path d="M42.7535 34.9505C42.7535 34.9505 42.63 34.8218 42.3726 34.6417C42.1205 34.4616 41.6933 34.2917 41.1375 34.2763C40.5817 34.2505 39.9332 34.4101 39.2642 34.7343C38.59 35.0432 37.8849 35.5012 37.0306 35.7792C35.3065 36.335 33.6133 35.8821 32.6355 35.3005C32.1311 35.0123 31.776 34.7035 31.5547 34.4719C31.3334 34.2351 31.2305 34.091 31.2459 34.0807C31.2871 34.0395 31.7297 34.616 32.7281 35.1358C33.7008 35.6556 35.3168 36.0571 36.9534 35.527C37.7614 35.2645 38.4664 34.8218 39.1664 34.513C39.856 34.1939 40.5662 34.0344 41.1529 34.091C41.7396 34.1322 42.1977 34.3483 42.4396 34.5645C42.6917 34.7807 42.7689 34.9505 42.7586 34.9557L42.7535 34.9505Z" fill="#455A64"/>
<path d="M35.1316 76.7735L23.1814 66.5879L19.2391 67.4783C19.2391 67.4783 23.3924 76.1148 26.3979 79.2801C26.3979 79.2801 29.3675 83.2586 34.2669 81.5396C39.1664 79.8205 35.1316 76.7787 35.1316 76.7787V76.7735Z" fill="#FFC7B1"/>
<path d="M22.2807 55.3679H17.2011C16.4342 55.3679 15.7446 56.2583 16.0225 56.9892L21.133 66.9381C21.3286 67.3241 21.73 67.566 22.1623 67.566L28.3536 67.5506C29.0638 67.4528 29.3211 66.6653 29.0278 66.2381L24.0974 56.4951C23.7577 55.8003 23.0527 55.3628 22.2807 55.3628V55.3679Z" fill="#455A64"/>
<path d="M21.9358 55.9651H16.8562C16.218 55.9651 15.8063 56.6342 16.0997 57.2004L21.0866 66.9331C21.2822 67.3191 21.6836 67.561 22.1159 67.561H28.2403C28.616 67.561 28.8579 67.1699 28.688 66.8353L23.7577 57.0923C23.418 56.3975 22.7129 55.96 21.941 55.96L21.9358 55.9651Z" fill="#263238"/>
<path d="M21.5037 60.0415L18.4106 61.2768L17.7467 63.7679L19.234 67.4736L24.6945 68.2662L23.0939 66.6295L23.2998 65.2039C23.2998 65.2039 24.8232 64.7252 24.8592 64.4936C24.8952 64.262 24.6688 63.4797 24.4372 63.4385C24.2056 63.4024 22.605 63.9943 22.605 63.9943C22.605 63.9943 24.4989 62.4966 24.4423 62.2547C24.3908 62.0128 24.185 61.4003 23.8093 61.3283C23.4336 61.2614 20.3766 62.6973 20.3766 62.6973L19.8825 63.8296L19.4502 62.0231C19.4502 62.0231 22.1624 61.2614 21.4934 60.0312L21.5037 60.0415Z" fill="#FFC7B1"/>
<path d="M21.8948 65.8835C21.8948 65.8835 21.8176 65.7754 21.7919 65.5747C21.761 65.374 21.7764 65.0858 21.8845 64.7924C21.9926 64.499 22.1727 64.2726 22.322 64.1387C22.4764 64.0049 22.5896 63.9586 22.5999 63.974C22.6308 64.0101 22.2293 64.2983 22.0338 64.849C21.8279 65.3894 21.9411 65.8732 21.8948 65.8835Z" fill="#AA6550"/>
<path d="M20.423 65.3427C20.423 65.3427 20.5156 65.039 20.5465 64.5346C20.5722 64.2824 20.5825 63.9684 20.7009 63.639C20.7626 63.4743 20.845 63.3045 20.9839 63.1604C21.1229 63.0163 21.303 62.9185 21.4883 62.8413C22.2294 62.5737 22.8933 62.3575 23.3822 62.1979C23.8711 62.0435 24.1748 61.956 24.1799 61.9766C24.1851 61.9972 23.8969 62.1207 23.4182 62.3009C22.9448 62.4862 22.2757 62.7229 21.5501 62.9854C21.3751 63.0575 21.2155 63.145 21.0972 63.2633C20.9788 63.3817 20.8965 63.5361 20.8398 63.6854C20.7215 63.989 20.6957 64.2927 20.6597 64.5449C20.598 65.0596 20.4436 65.353 20.423 65.3427Z" fill="#AA6550"/>
<path d="M19.7127 64.782C19.6715 64.7768 19.6767 64.5041 19.7333 64.1747C19.7899 63.8453 19.8671 63.5828 19.9082 63.5931C19.9494 63.5982 19.9443 63.871 19.8877 64.2004C19.8311 64.5298 19.7539 64.7923 19.7127 64.782Z" fill="#AA6550"/>
<path d="M19.6302 57.8438C19.6302 58.1989 19.9185 58.4923 20.2787 58.4923C20.639 58.4923 20.9272 58.2041 20.9272 57.8438C20.9272 57.4835 20.639 57.1953 20.2787 57.1953C19.9185 57.1953 19.6302 57.4835 19.6302 57.8438Z" fill="#FAFAFA"/>
<path d="M43.5241 20.5469C43.8534 18.1274 40.4458 16.1442 37.8805 15.9375C36.6553 15.838 35.3918 16.0294 34.2278 15.6236C31.7162 14.7507 30.713 11.5042 28.2703 10.4782C26.4401 9.70483 24.3343 10.3939 22.5577 11.2898C20.7812 12.1856 19.0276 13.3035 17.0443 13.4337C15.3214 13.5409 13.4453 12.9054 11.9367 13.7476C10.8111 14.3755 10.2214 15.6695 9.18767 16.4352C8.17687 17.1856 6.85211 17.3387 5.59628 17.4076C4.34044 17.4765 3.03866 17.4918 1.89003 18.0125C0.741396 18.5332 -0.200486 19.7506 0.0368976 20.9834L43.5241 20.5546V20.5469Z" fill="#EBEBEB"/>
</svg>
