<?xml version="1.0" encoding="utf-8"?>
<!-- Generator: Adobe Illustrator 27.9.0, SVG Export Plug-In . SVG Version: 6.00 Build 0)  -->
<svg version="1.1" id="Layer_1" xmlns="http://www.w3.org/2000/svg" xmlns:xlink="http://www.w3.org/1999/xlink" x="0px" y="0px"
	 viewBox="0 0 300 300" style="enable-background:new 0 0 300 300;" xml:space="preserve">
<style type="text/css">
	.st0{fill:#F5F5F5;}
	.st1{fill:#EBEBEB;}
	.st2{fill:#E0E0E0;}
	.st3{fill:#FAFAFA;}
	.st4{fill:#FFFFFF;}
	.st5{fill:#FFBF9D;}
	.st6{fill:#FF9A6C;}
	.st7{fill:#263238;}
	.st8{fill:#455A64;}
	.st9{opacity:0.6;}
	.st10{opacity:0.3;}
	.st11{fill:#407BFF;}
	.st12{opacity:0.2;}
</style>
<path class="st0" d="M256.3,75.8h-30.8v97.7h30.8V75.8z"/>
<path class="st1" d="M256.3,75.8h-15.4v97.5h15.4V75.8z"/>
<path class="st0" d="M239.9,66.2H229v9.6h10.9V66.2z"/>
<path class="st1" d="M239.9,66.2h-2.6v9.6h2.6V66.2z"/>
<path class="st2" d="M222.9,75.8v-0.6h34.3v0.6"/>
<path class="st3" d="M234.2,80h-2.6v5.5h2.6V80z"/>
<path class="st2" d="M240.9,87.7c0,0.1-3.5,0.1-7.7,0.1c-4.3,0-7.7,0-7.7-0.1s3.5-0.1,7.7-0.1S240.9,87.6,240.9,87.7z"/>
<path class="st2" d="M249.7,80h-2.6v5.5h2.6V80z"/>
<path class="st2" d="M256.4,87.7c0,0.1-3.5,0.1-7.7,0.1c-4.3,0-7.7,0-7.7-0.1s3.5-0.1,7.7-0.1C253,87.6,256.4,87.6,256.4,87.7z"/>
<path class="st2" d="M249.7,90.9h-2.6v5.6h2.6V90.9z"/>
<path class="st2" d="M256.4,98.6c0,0.1-3.5,0.1-7.7,0.1c-4.3,0-7.7,0-7.7-0.1s3.5-0.1,7.7-0.1C253,98.5,256.4,98.6,256.4,98.6z"/>
<path class="st2" d="M249.7,102.2h-2.6v5.5h2.6V102.2z"/>
<path class="st2" d="M256.4,109.9c0,0.1-3.5,0.1-7.7,0.1c-4.3,0-7.7,0-7.7-0.1s3.5-0.1,7.7-0.1C253,109.8,256.4,109.8,256.4,109.9z"
	/>
<path class="st2" d="M249.7,113.5h-2.6v5.5h2.6V113.5z"/>
<path class="st2" d="M256.4,121.1c0,0.1-3.5,0.1-7.7,0.1c-4.3,0-7.7,0-7.7-0.1s3.5-0.1,7.7-0.1C253,121,256.4,121.1,256.4,121.1z"/>
<path class="st2" d="M249.7,124.4h-2.6v5.5h2.6V124.4z"/>
<path class="st2" d="M256.4,132.1c0,0.1-3.5,0.1-7.7,0.1c-4.3,0-7.7,0-7.7-0.1s3.5-0.1,7.7-0.1C253,132,256.4,132,256.4,132.1z"/>
<path class="st2" d="M249.7,135.4h-2.6v5.5h2.6V135.4z"/>
<path class="st2" d="M249.7,146.5h-2.6v5.5h2.6V146.5z"/>
<path class="st2" d="M256.4,143c0,0.1-3.5,0.1-7.7,0.1c-4.3,0-7.7,0-7.7-0.1s3.5-0.1,7.7-0.1C253,142.9,256.4,143,256.4,143z"/>
<path class="st3" d="M234.2,91.1h-2.6v5.5h2.6V91.1z"/>
<path class="st2" d="M240.9,98.8c0,0.1-3.5,0.1-7.7,0.1c-4.3,0-7.7,0-7.7-0.1s3.5-0.1,7.7-0.1S240.9,98.7,240.9,98.8z"/>
<path class="st3" d="M234.2,102.2h-2.6v5.5h2.6V102.2z"/>
<path class="st2" d="M240.9,109.9c0,0.1-3.5,0.1-7.7,0.1c-4.3,0-7.7,0-7.7-0.1s3.5-0.1,7.7-0.1S240.9,109.8,240.9,109.9z"/>
<path class="st3" d="M234.2,113.3h-2.6v5.5h2.6V113.3z"/>
<path class="st2" d="M240.9,121c0,0.1-3.5,0.1-7.7,0.1c-4.3,0-7.7,0-7.7-0.1s3.5-0.1,7.7-0.1S240.9,120.9,240.9,121z"/>
<path class="st3" d="M234.2,124.4h-2.6v5.5h2.6V124.4z"/>
<path class="st2" d="M240.9,132.1c0,0.1-3.5,0.1-7.7,0.1c-4.3,0-7.7,0-7.7-0.1s3.5-0.1,7.7-0.1S240.9,132,240.9,132.1z"/>
<path class="st3" d="M234.2,135.5h-2.6v5.5h2.6V135.5z"/>
<path class="st2" d="M240.9,143.2c0,0.1-3.5,0.1-7.7,0.1c-4.3,0-7.7,0-7.7-0.1s3.5-0.1,7.7-0.1S240.9,143.1,240.9,143.2z"/>
<path class="st3" d="M234.2,146.6h-2.6v5.5h2.6V146.6z"/>
<path class="st0" d="M292.2,117.8h-36.4v115.5h36.4V117.8z"/>
<path class="st1" d="M292.2,119.3H274v114h18.2V119.3z"/>
<path class="st0" d="M272.7,108h-12.9v11.3h12.9V108z"/>
<path class="st1" d="M272.7,108h-3.1v11.3h3.1V108z"/>
<path class="st2" d="M252.7,119.3v-0.7h40.5v0.7"/>
<path class="st3" d="M266,124.3h-3.1v6.5h3.1V124.3z"/>
<path class="st2" d="M273.9,133.3c0,0.1-4.1,0.1-9.1,0.1s-9.1-0.1-9.1-0.1c0-0.1,4.1-0.1,9.1-0.1
	C269.9,133.2,273.9,133.3,273.9,133.3z"/>
<path class="st2" d="M284.4,124.3h-3.1v6.5h3.1V124.3z"/>
<path class="st2" d="M292.3,133.3c0,0.1-4.1,0.1-9.1,0.1s-9.1-0.1-9.1-0.1c0-0.1,4.1-0.1,9.1-0.1
	C288.2,133.2,292.3,133.3,292.3,133.3z"/>
<path class="st2" d="M284.4,137.2h-3.1v6.5h3.1V137.2z"/>
<path class="st2" d="M292.3,146.3c0,0.1-4.1,0.1-9.1,0.1s-9.1-0.1-9.1-0.1c0-0.1,4.1-0.1,9.1-0.1
	C288.2,146.1,292.3,146.2,292.3,146.3z"/>
<path class="st2" d="M284.4,150.5h-3.1v6.5h3.1V150.5z"/>
<path class="st2" d="M292.3,159.6c0,0.1-4.1,0.1-9.1,0.1s-9.1-0.1-9.1-0.1c0-0.1,4.1-0.1,9.1-0.1
	C288.2,159.4,292.3,159.5,292.3,159.6z"/>
<path class="st2" d="M284.4,163.8h-3.1v6.5h3.1V163.8z"/>
<path class="st2" d="M292.3,172.9c0,0.1-4.1,0.1-9.1,0.1s-9.1-0.1-9.1-0.1s4.1-0.1,9.1-0.1C288.2,172.7,292.3,172.8,292.3,172.9z"/>
<path class="st2" d="M284.4,176.7h-3.1v6.5h3.1V176.7z"/>
<path class="st2" d="M292.3,185.8c0,0.1-4.1,0.1-9.1,0.1s-9.1-0.1-9.1-0.1c0-0.1,4.1-0.1,9.1-0.1
	C288.2,185.7,292.3,185.7,292.3,185.8z"/>
<path class="st2" d="M284.4,189.7h-3.1v6.5h3.1V189.7z"/>
<path class="st2" d="M284.4,202.8h-3.1v6.5h3.1V202.8z"/>
<path class="st2" d="M292.3,198.8c0,0.1-4.1,0.1-9.1,0.1s-9.1-0.1-9.1-0.1s4.1-0.1,9.1-0.1C288.2,198.6,292.3,198.7,292.3,198.8z"/>
<path class="st3" d="M266,137.4h-3.1v6.5h3.1V137.4z"/>
<path class="st2" d="M273.9,146.5c0,0.1-4.1,0.1-9.1,0.1s-9.1-0.1-9.1-0.1c0-0.1,4.1-0.1,9.1-0.1
	C269.9,146.3,273.9,146.4,273.9,146.5z"/>
<path class="st3" d="M266,150.5h-3.1v6.5h3.1V150.5z"/>
<path class="st2" d="M273.9,159.6c0,0.1-4.1,0.1-9.1,0.1s-9.1-0.1-9.1-0.1c0-0.1,4.1-0.1,9.1-0.1
	C269.9,159.4,273.9,159.5,273.9,159.6z"/>
<path class="st3" d="M266,163.6h-3.1v6.5h3.1V163.6z"/>
<path class="st2" d="M273.9,172.7c0,0.1-4.1,0.1-9.1,0.1s-9.1-0.1-9.1-0.1c0-0.1,4.1-0.1,9.1-0.1
	C269.9,172.5,273.9,172.6,273.9,172.7z"/>
<path class="st3" d="M266,176.7h-3.1v6.5h3.1V176.7z"/>
<path class="st2" d="M273.9,185.8c0,0.1-4.1,0.1-9.1,0.1s-9.1-0.1-9.1-0.1c0-0.1,4.1-0.1,9.1-0.1
	C269.9,185.7,273.9,185.7,273.9,185.8z"/>
<path class="st3" d="M266,189.8h-3.1v6.5h3.1V189.8z"/>
<path class="st2" d="M273.9,198.9c0,0.1-4.1,0.1-9.1,0.1s-9.1-0.1-9.1-0.1c0-0.1,4.1-0.1,9.1-0.1
	C269.9,198.8,273.9,198.8,273.9,198.9z"/>
<path class="st3" d="M266,202.9h-3.1v6.5h3.1V202.9z"/>
<path class="st0" d="M264.8,233.3h-47.4l-0.2-75h47.4L264.8,233.3z"/>
<path class="st1" d="M264.6,158.4h-23.7v75h23.7V158.4z"/>
<path class="st0" d="M239.3,143.6h-16.7v14.8h16.7V143.6z"/>
<path class="st1" d="M239.3,143.6h-4v14.8h4V143.6z"/>
<path class="st2" d="M265.9,157.5h-52.8v0.9h52.8V157.5z"/>
<path class="st4" d="M230.5,164.8h-4v8.5h4V164.8z"/>
<path class="st2" d="M240.8,176.6c0,0.1-5.3,0.2-11.9,0.2c-6.5,0-11.9-0.1-11.9-0.2c0-0.1,5.3-0.2,11.9-0.2S240.8,176.5,240.8,176.6
	z"/>
<path class="st0" d="M254.4,164.8h-4v8.5h4V164.8z"/>
<path class="st2" d="M264.8,176.6c0,0.1-5.3,0.2-11.9,0.2c-6.5,0-11.9-0.1-11.9-0.2c0-0.1,5.3-0.2,11.9-0.2
	C259.5,176.4,264.8,176.5,264.8,176.6z"/>
<path class="st0" d="M254.4,181.6h-4v8.5h4V181.6z"/>
<path class="st2" d="M264.8,193.4c0,0.1-5.3,0.2-11.9,0.2c-6.5,0-11.9-0.1-11.9-0.2c0-0.1,5.3-0.2,11.9-0.2
	C259.5,193.2,264.8,193.3,264.8,193.4z"/>
<path class="st0" d="M254.4,198.9h-4v8.5h4V198.9z"/>
<path class="st2" d="M264.8,210.7c0,0.1-5.3,0.2-11.9,0.2c-6.5,0-11.9-0.1-11.9-0.2c0-0.1,5.3-0.2,11.9-0.2
	C259.5,210.5,264.8,210.6,264.8,210.7z"/>
<path class="st0" d="M254.4,216.2h-4v8.5h4V216.2z"/>
<path class="st2" d="M264.8,228c0,0.1-5.3,0.2-11.9,0.2c-6.5,0-11.9-0.1-11.9-0.2c0-0.1,5.3-0.2,11.9-0.2
	C259.5,227.9,264.8,227.9,264.8,228z"/>
<path class="st4" d="M230.5,181.9h-4v8.5h4V181.9z"/>
<path class="st2" d="M240.8,193.6c0,0.1-5.3,0.2-11.9,0.2c-6.5,0-11.9-0.1-11.9-0.2c0-0.1,5.3-0.2,11.9-0.2
	C235.5,193.5,240.8,193.6,240.8,193.6z"/>
<path class="st4" d="M230.5,198.9h-4v8.5h4V198.9z"/>
<path class="st2" d="M240.8,210.7c0,0.1-5.3,0.2-11.9,0.2c-6.5,0-11.9-0.1-11.9-0.2c0-0.1,5.3-0.2,11.9-0.2S240.8,210.6,240.8,210.7
	z"/>
<path class="st4" d="M230.5,216h-4v8.5h4V216z"/>
<path class="st2" d="M240.8,227.8c0,0.1-5.3,0.2-11.9,0.2c-6.5,0-11.9-0.1-11.9-0.2c0-0.1,5.3-0.2,11.9-0.2S240.8,227.7,240.8,227.8
	z"/>
<path class="st0" d="M86.5,74.3H50.8v113.1h35.7V74.3z"/>
<path class="st1" d="M86.5,74.3H68.6v112.8h17.8V74.3H86.5z"/>
<path class="st0" d="M67.5,63.2H54.9v11.1h12.6V63.2z"/>
<path class="st1" d="M67.5,63.2h-3v11.1h3V63.2z"/>
<path class="st2" d="M47.8,74.3v-0.6h39.7v0.6"/>
<path class="st3" d="M60.9,79.2h-3v6.3h3V79.2z"/>
<path class="st2" d="M68.6,88.1c0,0.1-4,0.1-8.9,0.1s-8.9-0.1-8.9-0.1c0-0.1,4-0.1,8.9-0.1C64.6,87.9,68.6,88,68.6,88.1z"/>
<path class="st2" d="M78.9,79.2h-3v6.3h3V79.2z"/>
<path class="st2" d="M86.6,88.1c0,0.1-4,0.1-8.9,0.1s-8.9-0.1-8.9-0.1c0-0.1,4-0.1,8.9-0.1C82.6,87.9,86.6,88,86.6,88.1z"/>
<path class="st2" d="M78.9,91.8h-3v6.4h3V91.8z"/>
<path class="st2" d="M86.6,100.7c0,0.1-4,0.1-8.9,0.1s-8.9-0.1-8.9-0.1c0-0.1,4-0.1,8.9-0.1S86.6,100.6,86.6,100.7z"/>
<path class="st2" d="M78.9,104.9h-3v6.4h3V104.9z"/>
<path class="st2" d="M86.6,113.7c0,0.1-4,0.1-8.9,0.1s-8.9-0.1-8.9-0.1c0-0.1,4-0.1,8.9-0.1S86.6,113.7,86.6,113.7z"/>
<path class="st2" d="M78.9,117.9h-3v6.4h3V117.9z"/>
<path class="st2" d="M86.6,126.8c0,0.1-4,0.1-8.9,0.1s-8.9-0.1-8.9-0.1c0-0.1,4-0.1,8.9-0.1C82.6,126.6,86.6,126.7,86.6,126.8z"/>
<path class="st2" d="M78.9,130.5h-3v6.4h3V130.5z"/>
<path class="st2" d="M86.6,139.4c0,0.1-4,0.1-8.9,0.1s-8.9-0.1-8.9-0.1c0-0.1,4-0.1,8.9-0.1S86.6,139.3,86.6,139.4z"/>
<path class="st2" d="M78.9,143.2h-3v6.4h3V143.2z"/>
<path class="st2" d="M78.9,156.1h-3v6.4h3V156.1z"/>
<path class="st2" d="M86.6,152.1c0,0.1-4,0.1-8.9,0.1s-8.9-0.1-8.9-0.1s4-0.1,8.9-0.1S86.6,152,86.6,152.1z"/>
<path class="st3" d="M60.9,92h-3v6.4h3V92z"/>
<path class="st2" d="M68.6,100.9c0,0.1-4,0.1-8.9,0.1s-8.9-0.1-8.9-0.1c0-0.1,4-0.1,8.9-0.1S68.6,100.8,68.6,100.9z"/>
<path class="st3" d="M60.9,104.9h-3v6.4h3V104.9z"/>
<path class="st2" d="M68.6,113.7c0,0.1-4,0.1-8.9,0.1s-8.9-0.1-8.9-0.1c0-0.1,4-0.1,8.9-0.1S68.6,113.7,68.6,113.7z"/>
<path class="st3" d="M60.9,117.7h-3v6.4h3V117.7z"/>
<path class="st2" d="M68.6,126.6c0,0.1-4,0.1-8.9,0.1s-8.9-0.1-8.9-0.1c0-0.1,4-0.1,8.9-0.1C64.6,126.4,68.6,126.5,68.6,126.6z"/>
<path class="st3" d="M60.9,130.5h-3v6.4h3V130.5z"/>
<path class="st2" d="M68.6,139.4c0,0.1-4,0.1-8.9,0.1s-8.9-0.1-8.9-0.1c0-0.1,4-0.1,8.9-0.1S68.6,139.3,68.6,139.4z"/>
<path class="st3" d="M60.9,143.4h-3v6.4h3V143.4z"/>
<path class="st2" d="M68.6,152.2c0,0.1-4,0.1-8.9,0.1s-8.9-0.1-8.9-0.1c0-0.1,4-0.1,8.9-0.1S68.6,152.2,68.6,152.2z"/>
<path class="st3" d="M60.9,156.2h-3v6.4h3V156.2z"/>
<path class="st0" d="M122.3,83.4H89.8v102.9h32.5V83.4z"/>
<path class="st1" d="M122.3,83.4H106V186h16.2V83.4H122.3z"/>
<path class="st2" d="M123.2,82.9H88.6v0.6h34.6V82.9z"/>
<path class="st3" d="M99,87.8h-2.7v5.8H99V87.8z"/>
<path class="st2" d="M106,95.9c0,0.1-3.6,0.1-8.1,0.1s-8.1,0-8.1-0.1s3.6-0.1,8.1-0.1S106,95.9,106,95.9z"/>
<path class="st2" d="M115.3,87.8h-2.7v5.8h2.7V87.8z"/>
<path class="st2" d="M122.4,95.9c0,0.1-3.6,0.1-8.1,0.1s-8.1,0-8.1-0.1s3.6-0.1,8.1-0.1S122.4,95.9,122.4,95.9z"/>
<path class="st2" d="M115.3,99.4h-2.7v5.8h2.7V99.4z"/>
<path class="st2" d="M122.4,107.4c0,0.1-3.6,0.1-8.1,0.1s-8.1,0-8.1-0.1s3.6-0.1,8.1-0.1S122.4,107.4,122.4,107.4z"/>
<path class="st2" d="M115.3,111.2h-2.7v5.8h2.7V111.2z"/>
<path class="st2" d="M122.4,119.3c0,0.1-3.6,0.1-8.1,0.1s-8.1,0-8.1-0.1s3.6-0.1,8.1-0.1S122.4,119.2,122.4,119.3z"/>
<path class="st2" d="M115.3,123.1h-2.7v5.8h2.7V123.1z"/>
<path class="st2" d="M122.4,131.1c0,0.1-3.6,0.1-8.1,0.1s-8.1,0-8.1-0.1s3.6-0.1,8.1-0.1S122.4,131.1,122.4,131.1z"/>
<path class="st2" d="M115.3,134.6h-2.7v5.8h2.7V134.6z"/>
<path class="st2" d="M122.4,142.7c0,0.1-3.6,0.1-8.1,0.1s-8.1,0-8.1-0.1s3.6-0.1,8.1-0.1C118.8,142.5,122.4,142.6,122.4,142.7z"/>
<path class="st2" d="M115.3,146.1h-2.7v5.8h2.7V146.1z"/>
<path class="st2" d="M115.3,157.9h-2.7v5.8h2.7V157.9z"/>
<path class="st2" d="M122.4,154.2c0,0.1-3.6,0.1-8.1,0.1s-8.1,0-8.1-0.1s3.6-0.1,8.1-0.1S122.4,154.2,122.4,154.2z"/>
<path class="st3" d="M99,99.5h-2.7v5.8H99V99.5z"/>
<path class="st2" d="M106,107.6c0,0.1-3.6,0.1-8.1,0.1s-8.1,0-8.1-0.1s3.6-0.1,8.1-0.1S106,107.5,106,107.6z"/>
<path class="st3" d="M99,111.2h-2.7v5.8H99V111.2z"/>
<path class="st2" d="M106,119.3c0,0.1-3.6,0.1-8.1,0.1s-8.1,0-8.1-0.1s3.6-0.1,8.1-0.1S106,119.2,106,119.3z"/>
<path class="st3" d="M99,122.9h-2.7v5.8H99V122.9z"/>
<path class="st2" d="M106,131c0,0.1-3.6,0.1-8.1,0.1s-8.1,0-8.1-0.1s3.6-0.1,8.1-0.1S106,130.9,106,131z"/>
<path class="st3" d="M99,134.6h-2.7v5.8H99V134.6z"/>
<path class="st2" d="M106,142.7c0,0.1-3.6,0.1-8.1,0.1s-8.1,0-8.1-0.1s3.6-0.1,8.1-0.1C102.4,142.5,106,142.6,106,142.7z"/>
<path class="st3" d="M99,146.3h-2.7v5.8H99V146.3z"/>
<path class="st2" d="M106,154.3c0,0.1-3.6,0.1-8.1,0.1s-8.1,0-8.1-0.1s3.6-0.1,8.1-0.1S106,154.3,106,154.3z"/>
<path class="st3" d="M99,157.9h-2.7v5.8H99V157.9z"/>
<path class="st0" d="M48.8,120.1H13.1v113.1h35.7C48.8,233.2,48.8,120.1,48.8,120.1z"/>
<path class="st1" d="M48.8,120.1H31v112.8h17.8V120.1z"/>
<path class="st0" d="M29.8,109H17.2v11.1h12.6C29.8,120.1,29.8,109,29.8,109z"/>
<path class="st1" d="M29.8,109h-3v11.1h3V109z"/>
<path class="st2" d="M10.2,120.1v-0.6h39.7v0.6"/>
<path class="st3" d="M23.2,125h-3v6.4h3V125z"/>
<path class="st2" d="M31,133.9c0,0.1-4,0.1-8.9,0.1s-8.9-0.1-8.9-0.1c0-0.1,4-0.1,8.9-0.1C27,133.7,31,133.8,31,133.9z"/>
<path class="st2" d="M41.2,125h-3v6.4h3V125z"/>
<path class="st2" d="M49,133.9c0,0.1-4,0.1-8.9,0.1s-8.9-0.1-8.9-0.1c0-0.1,4-0.1,8.9-0.1C45,133.7,49,133.8,49,133.9z"/>
<path class="st2" d="M41.2,137.6h-3v6.4h3V137.6z"/>
<path class="st2" d="M49,146.5c0,0.1-4,0.1-8.9,0.1s-8.9-0.1-8.9-0.1c0-0.1,4-0.1,8.9-0.1S49,146.4,49,146.5z"/>
<path class="st2" d="M41.2,150.7h-3v6.4h3V150.7z"/>
<path class="st2" d="M49,159.5c0,0.1-4,0.1-8.9,0.1s-8.9-0.1-8.9-0.1c0-0.1,4-0.1,8.9-0.1S49,159.5,49,159.5z"/>
<path class="st2" d="M41.2,163.7h-3v6.4h3V163.7z"/>
<path class="st2" d="M49,172.6c0,0.1-4,0.1-8.9,0.1s-8.9-0.1-8.9-0.1c0-0.1,4-0.1,8.9-0.1C45,172.4,49,172.5,49,172.6z"/>
<path class="st2" d="M41.2,176.3h-3v6.4h3V176.3z"/>
<path class="st2" d="M49,185.2c0,0.1-4,0.1-8.9,0.1s-8.9-0.1-8.9-0.1c0-0.1,4-0.1,8.9-0.1S49,185.1,49,185.2z"/>
<path class="st2" d="M41.2,189h-3v6.4h3V189z"/>
<path class="st2" d="M41.2,201.9h-3v6.4h3V201.9z"/>
<path class="st2" d="M49,197.9c0,0.1-4,0.1-8.9,0.1s-8.9-0.1-8.9-0.1c0-0.1,4-0.1,8.9-0.1C45,197.8,49,197.8,49,197.9z"/>
<path class="st3" d="M23.2,137.8h-3v6.4h3V137.8z"/>
<path class="st2" d="M31,146.7c0,0.1-4,0.1-8.9,0.1s-8.9-0.1-8.9-0.1c0-0.1,4-0.1,8.9-0.1S31,146.6,31,146.7z"/>
<path class="st3" d="M23.2,150.7h-3v6.4h3V150.7z"/>
<path class="st2" d="M31,159.5c0,0.1-4,0.1-8.9,0.1s-8.9-0.1-8.9-0.1c0-0.1,4-0.1,8.9-0.1S31,159.5,31,159.5z"/>
<path class="st3" d="M23.2,163.5h-3v6.4h3V163.5z"/>
<path class="st2" d="M31,172.4c0,0.1-4,0.1-8.9,0.1s-8.9-0.1-8.9-0.1s4-0.1,8.9-0.1S31,172.3,31,172.4z"/>
<path class="st3" d="M23.2,176.3h-3v6.4h3V176.3z"/>
<path class="st2" d="M31,185.2c0,0.1-4,0.1-8.9,0.1s-8.9-0.1-8.9-0.1c0-0.1,4-0.1,8.9-0.1S31,185.1,31,185.2z"/>
<path class="st3" d="M23.2,189.2h-3v6.4h3V189.2z"/>
<path class="st2" d="M31,198.1c0,0.1-4,0.1-8.9,0.1s-8.9-0.1-8.9-0.1c0-0.1,4-0.1,8.9-0.1C27,197.9,31,198,31,198.1z"/>
<path class="st3" d="M23.2,202h-3v6.4h3V202z"/>
<path class="st0" d="M88.2,233.2H41.8l-0.2-73.4H88L88.2,233.2z"/>
<path class="st1" d="M88,159.8H64.8v73.4H88V159.8z"/>
<path class="st0" d="M63.3,145.3H46.9v14.5h16.4C63.3,159.8,63.3,145.3,63.3,145.3z"/>
<path class="st1" d="M63.3,145.3h-3.9v14.5h3.9V145.3z"/>
<path class="st2" d="M89.4,158.9H37.7v0.8h51.7V158.9z"/>
<path class="st4" d="M54.7,166.1h-3.9v8.3h3.9V166.1z"/>
<path class="st2" d="M64.8,177.6c0,0.1-5.2,0.2-11.6,0.2s-11.6-0.1-11.6-0.2c0-0.1,5.2-0.2,11.6-0.2
	C59.6,177.5,64.8,177.5,64.8,177.6z"/>
<path class="st0" d="M78.1,166.1h-3.9v8.3h3.9V166.1z"/>
<path class="st2" d="M88.2,177.6c0,0.1-5.2,0.2-11.6,0.2S65,177.7,65,177.6c0-0.1,5.2-0.2,11.6-0.2C83,177.5,88.2,177.5,88.2,177.6z
	"/>
<path class="st0" d="M78.1,182.5h-3.9v8.3h3.9V182.5z"/>
<path class="st2" d="M88.2,194.1c0,0.1-5.2,0.2-11.6,0.2S65,194.2,65,194.1c0-0.1,5.2-0.2,11.6-0.2C83,193.9,88.2,194,88.2,194.1z"
	/>
<path class="st0" d="M78.1,199.5h-3.9v8.3h3.9V199.5z"/>
<path class="st2" d="M88.2,211c0,0.1-5.2,0.2-11.6,0.2S65,211.1,65,211s5.2-0.2,11.6-0.2C83,210.9,88.2,211,88.2,211z"/>
<path class="st0" d="M78.1,216.5h-3.9v8.3h3.9V216.5z"/>
<path class="st2" d="M88.2,228c0,0.1-5.2,0.2-11.6,0.2S65,228.1,65,228s5.2-0.2,11.6-0.2S88.2,227.9,88.2,228z"/>
<path class="st4" d="M54.7,182.8h-3.9v8.3h3.9V182.8z"/>
<path class="st2" d="M64.8,194.3c0,0.1-5.2,0.2-11.6,0.2s-11.6-0.1-11.6-0.2c0-0.1,5.2-0.2,11.6-0.2
	C59.6,194.2,64.8,194.3,64.8,194.3z"/>
<path class="st4" d="M54.7,199.5h-3.9v8.3h3.9V199.5z"/>
<path class="st2" d="M64.8,211.1c0,0.1-5.2,0.2-11.6,0.2s-11.6-0.1-11.6-0.2c0-0.1,5.2-0.2,11.6-0.2C59.6,210.9,64.8,211,64.8,211.1
	z"/>
<path class="st4" d="M54.7,216.2h-3.9v8.3h3.9V216.2z"/>
<path class="st2" d="M64.8,227.8c0,0.1-5.2,0.2-11.6,0.2s-11.6-0.1-11.6-0.2c0-0.1,5.2-0.2,11.6-0.2S64.8,227.7,64.8,227.8z"/>
<path class="st0" d="M122.7,233.2H87.6l-0.2-55.6h35.2L122.7,233.2z"/>
<path class="st1" d="M122.6,177.6H105v55.6h17.6V177.6z"/>
<path class="st0" d="M103.8,166.7H91.4v10.9h12.4V166.7z"/>
<path class="st1" d="M103.8,166.7h-3v10.9h3V166.7z"/>
<path class="st2" d="M123.6,177H84.5v0.6h39.1V177z"/>
<path class="st4" d="M97.3,182.4h-3v6.3h3V182.4z"/>
<path class="st2" d="M105,191.1c0,0.1-3.9,0.1-8.8,0.1s-8.8-0.1-8.8-0.1s3.9-0.1,8.8-0.1C101,191,105,191,105,191.1z"/>
<path class="st0" d="M115,182.4h-3v6.3h3V182.4z"/>
<path class="st2" d="M122.7,191.1c0,0.1-3.9,0.1-8.8,0.1s-8.8-0.1-8.8-0.1s3.9-0.1,8.8-0.1S122.7,191,122.7,191.1z"/>
<path class="st0" d="M115,194.8h-3v6.3h3V194.8z"/>
<path class="st2" d="M122.7,203.6c0,0.1-3.9,0.1-8.8,0.1s-8.8-0.1-8.8-0.1c0-0.1,3.9-0.1,8.8-0.1S122.7,203.5,122.7,203.6z"/>
<path class="st0" d="M115,207.7h-3v6.3h3V207.7z"/>
<path class="st2" d="M122.7,216.4c0,0.1-3.9,0.1-8.8,0.1s-8.8-0.1-8.8-0.1c0-0.1,3.9-0.1,8.8-0.1S122.7,216.3,122.7,216.4z"/>
<path class="st0" d="M115,220.5h-3v6.3h3V220.5z"/>
<path class="st2" d="M122.7,229.2c0,0.1-3.9,0.1-8.8,0.1s-8.8-0.1-8.8-0.1c0-0.1,3.9-0.1,8.8-0.1S122.7,229.2,122.7,229.2z"/>
<path class="st4" d="M97.3,195h-3v6.3h3V195z"/>
<path class="st2" d="M105,203.8c0,0.1-3.9,0.1-8.8,0.1s-8.8-0.1-8.8-0.1s3.9-0.1,8.8-0.1C101,203.6,105,203.7,105,203.8z"/>
<path class="st4" d="M97.3,207.7h-3v6.3h3V207.7z"/>
<path class="st2" d="M105,216.4c0,0.1-3.9,0.1-8.8,0.1s-8.8-0.1-8.8-0.1c0-0.1,3.9-0.1,8.8-0.1C101,216.3,105,216.3,105,216.4z"/>
<path class="st4" d="M97.3,220.3h-3v6.3h3V220.3z"/>
<path class="st2" d="M105,229.1c0,0.1-3.9,0.1-8.8,0.1s-8.8-0.1-8.8-0.1c0-0.1,3.9-0.1,8.8-0.1C101,228.9,105,229,105,229.1z"/>
<path class="st0" d="M187.4,98c0.4-2.7-3.5-4.9-6.4-5.2c-1.4-0.1-2.8,0.1-4.1-0.4c-2.9-1-4-4.6-6.8-5.8c-2.1-0.9-4.5-0.1-6.5,0.9
	s-4,2.3-6.3,2.4c-2,0.1-4.1-0.6-5.8,0.4c-1.3,0.7-1.9,2.2-3.1,3c-1.2,0.8-2.7,1-4.1,1.1c-1.4,0.1-2.9,0.1-4.2,0.7s-2.4,1.9-2.1,3.3
	L187.4,98z"/>
<path class="st0" d="M214.6,75.5c0.2-1.5-1.9-2.7-3.5-2.8c-0.7-0.1-1.5,0.1-2.2-0.2c-1.5-0.5-2.2-2.5-3.7-3.2
	c-1.1-0.5-2.4-0.1-3.5,0.5c-1.1,0.5-2.2,1.2-3.4,1.3c-1.1,0.1-2.2-0.3-3.1,0.2c-0.7,0.4-1.1,1.2-1.7,1.6c-0.6,0.5-1.4,0.6-2.2,0.6
	s-1.6,0-2.3,0.4s-1.3,1.1-1.1,1.8L214.6,75.5L214.6,75.5z"/>
<path class="st0" d="M40.8,88.5c0.2-1.5-1.9-2.7-3.5-2.8c-0.7-0.1-1.5,0.1-2.2-0.2c-1.5-0.5-2.2-2.5-3.7-3.2
	c-1.1-0.5-2.4-0.1-3.5,0.5c-1.1,0.5-2.2,1.2-3.4,1.3c-1.1,0.1-2.2-0.3-3.1,0.2c-0.7,0.4-1.1,1.2-1.7,1.6c-0.6,0.5-1.4,0.6-2.2,0.6
	c-0.8,0-1.6,0-2.3,0.4s-1.3,1.1-1.1,1.8L40.8,88.5L40.8,88.5z"/>
<path class="st5" d="M250.8,106.1c0,0-1.1-1.2-1.6-0.9s-0.9,1-1.1,1.5c-0.2,0.5,0.3,0.9,0.5,0.8s0.7-0.7,0.7-0.7l1,0.8v1.4l-0.1,0.4
	l-0.9-0.2l-0.2-1c-0.1-0.4-0.5-0.6-0.8-0.3c-0.1,0.1-0.2,0.3-0.2,0.5c-0.1,0.9,0,2.5,1,2.9c1,0.5,2.8,1,2.8,1l0.8,0.9l3.5-0.7
	l-0.7-1.5l-0.3-4.6c0,0,1.1-1.9,1-2.6c-0.1-0.6-0.5-2.5-0.5-2.5s-0.5-0.2-0.6,0.4s0.1,2.2,0.1,2.2l-0.9,1.5l-0.9-5.1
	c-0.1-0.4-0.6-0.5-0.8-0.1c-0.1,0.2-0.1,0.4-0.1,0.7c0,1.3,0.5,4.3,0.4,4.4c-0.2,0-0.6-0.2-0.7-0.8c-0.2-0.6-1.1-3-1.4-4
	c-0.1-0.2-0.4-0.3-0.6-0.1c-0.2,0.3-0.3,0.7-0.1,1.6c0.3,1,0.8,3,0.8,3.3C250.8,105.5,250.8,106.1,250.8,106.1L250.8,106.1z"/>
<path class="st6" d="M253.1,110.4c0,0-0.1-0.1-0.3-0.3c-0.2-0.2-0.5-0.4-0.9-0.5s-0.7-0.2-1-0.2s-0.4,0.1-0.4,0c0,0,0.1-0.1,0.4-0.2
	c0.3,0,0.7,0,1.1,0.1c0.4,0.2,0.7,0.4,0.9,0.6C253,110.2,253.1,110.3,253.1,110.4z"/>
<path class="st7" d="M244,216.6l5.7,8.8l2.5,8.2c0.2,0.6,0.8,0.9,1.4,0.7c0.3-0.1,0.6-0.4,0.7-0.7c0.4-2.1,2-11.7,1.7-12.1
	c-0.5-0.7-4.9-8.2-4.9-8.2L244,216.6L244,216.6z"/>
<path class="st8" d="M253.6,234.3l2-13.4l0.2,0.4c0.2,0.3,0.3,0.7,0.2,1.1c-0.2,1-0.7,5.9-1.8,11.2
	C254.2,233.9,253.9,234.2,253.6,234.3L253.6,234.3z"/>
<g class="st9">
	<path class="st4" d="M252.4,220.6c-0.1,0.3,0,0.7,0.3,0.8s0.7,0,0.8-0.3s0-0.8-0.3-0.9C252.9,220.2,252.4,220.3,252.4,220.6"/>
</g>
<path class="st4" d="M253.2,229.2c0,0.1-0.5-0.3-1.2-0.2s-1.1,0.5-1.1,0.4c0,0,0-0.2,0.2-0.3c0.2-0.2,0.5-0.3,0.9-0.3
	s0.7,0.1,0.9,0.2C253.2,229,253.3,229.1,253.2,229.2L253.2,229.2z"/>
<path class="st4" d="M253.3,230.7c0,0.1-0.5,0-1,0.1s-0.9,0.5-0.9,0.4c-0.1,0,0.3-0.5,0.9-0.6C252.9,230.4,253.4,230.7,253.3,230.7z
	"/>
<path class="st4" d="M253.5,226.9c0,0.1-0.7-0.1-1.6,0.1c-0.9,0.1-1.5,0.6-1.5,0.5c0,0,0.5-0.6,1.5-0.7
	C252.8,226.6,253.5,226.9,253.5,226.9z"/>
<path class="st4" d="M252,224.1c0,0.1-0.6,0.2-1.3,0.5c-0.7,0.4-1.1,0.8-1.1,0.8c-0.1,0,0.3-0.6,1-1C251.3,224,252,224,252,224.1
	L252,224.1z"/>
<path class="st4" d="M250.9,222.2c0,0.1-0.7,0.1-1.3,0.5c-0.7,0.4-0.9,1.1-1,1c0,0,0-0.2,0.1-0.4s0.4-0.6,0.7-0.8
	c0.4-0.2,0.7-0.3,1-0.4C250.8,222.2,250.9,222.2,250.9,222.2L250.9,222.2z"/>
<path class="st7" d="M221.9,161c0,0.4,2.6,32.7,3.6,34.9c1,2.1,20.6,26.3,20.6,26.3l8.2-5.6l-17.4-25.2l-0.5-23.6l-4-9.3L221.9,161
	L221.9,161z"/>
<path class="st7" d="M246.5,154.5c0.2,0.5,2.9,8.2,3.1,11.5c0.2,3.3-5.8,61.5-5.8,61.5l-10-0.8l2.6-56.4l-4.3-11.9L246.5,154.5z"/>
<path class="st8" d="M235.3,167.1L235.3,167.1c0,0.2,0,0.3,0,0.4c0,0.3,0,0.7,0.1,1.3c0.1,1.1,0.2,2.8,0.3,4.9
	c0.3,4.2,0.7,10.3,1.2,17.6l0,0l0,0c4.1,5.9,8.9,12.9,14,20.3c1.2,1.7,2.3,3.3,3.4,4.9v-0.1c-2.9,2-5.6,3.9-8.2,5.7h0.1
	c-6-7.5-11.2-13.9-14.9-18.5c-1.8-2.3-3.3-4.1-4.3-5.3c-0.5-0.6-0.9-1.1-1.1-1.4c-0.1-0.2-0.2-0.3-0.3-0.4c-0.1-0.1-0.1-0.1-0.1-0.1
	s0,0,0.1,0.1s0.2,0.2,0.3,0.4c0.3,0.3,0.6,0.8,1.1,1.4c1,1.2,2.4,3.1,4.3,5.4c3.7,4.6,8.8,11,14.8,18.5l0.1,0.1l0.1-0.1
	c2.6-1.8,5.3-3.7,8.2-5.6l0.1-0.1l-0.1-0.1c-1.1-1.6-2.2-3.3-3.4-4.9c-5.1-7.4-9.9-14.4-14-20.3l0,0c-0.5-7.3-1-13.3-1.3-17.6
	c-0.2-2.1-0.3-3.8-0.4-4.9c0-0.6-0.1-1-0.1-1.3C235.3,167.3,235.3,167.1,235.3,167.1L235.3,167.1L235.3,167.1z"/>
<path class="st7" d="M235.9,221.8l0.2,7.6c0,0-7.6,2.8-7.7,4.2l14.7,0.1l0.2-11.8L235.9,221.8L235.9,221.8z"/>
<path class="st2" d="M240.6,228.8c0.3,0.1,0.5,0.4,0.4,0.7s-0.4,0.5-0.7,0.4s-0.5-0.5-0.4-0.7C240,228.9,240.4,228.7,240.6,228.8"/>
<path class="st8" d="M243.1,233.7v-1.2l-14.1,0.3c0,0-0.7,0.3-0.6,0.7L243.1,233.7z"/>
<path class="st4" d="M235.8,229.3c0,0.1,0.4,0.1,0.7,0.3c0.4,0.2,0.5,0.5,0.6,0.5s0-0.4-0.5-0.7
	C236.3,229.2,235.8,229.2,235.8,229.3L235.8,229.3z"/>
<path class="st4" d="M234.3,229.9c0,0.1,0.3,0.2,0.5,0.5c0.3,0.3,0.3,0.6,0.4,0.6c0.1,0,0.1-0.4-0.2-0.8
	C234.7,229.9,234.3,229.9,234.3,229.9L234.3,229.9z"/>
<path class="st4" d="M233.4,231.8c0.1,0,0.2-0.3,0-0.7s-0.5-0.6-0.5-0.5s0.2,0.3,0.3,0.6C233.3,231.5,233.3,231.8,233.4,231.8z"/>
<path class="st4" d="M236,227.6c0,0.1,0.4,0,0.8,0c0.4,0,0.7,0.2,0.8,0.1c0-0.1-0.3-0.3-0.7-0.4C236.3,227.3,236,227.5,236,227.6
	L236,227.6z"/>
<path class="st7" d="M230.6,102.3c0.8-0.1,1.5-0.9,1.4-1.7c0-0.8-0.7-1.5-1.5-1.6c0.4-0.6,0.3-1.5-0.2-2s-1.3-0.7-2-0.5
	c-0.2-0.7-0.8-1.2-1.4-1.4c-0.7-0.2-1.5,0-2,0.5c-0.9-0.5-2.1-0.2-2.8,0.6c-0.7,0-1.3,0.6-1.5,1.2c-0.2,0.7,0.2,1.4,0.8,1.8"/>
<path class="st5" d="M233.5,111.1c-0.4-1.8-1.5-5.3-2.6-8.6c-1.1-3.5-4.8-5.5-8.3-4.6l-0.4,0.1c-3.7,1.1-4.9,5-3.6,8.7l3.8,13.2l9-1
	l-0.7-2.6C230.8,116.2,234.3,114.7,233.5,111.1L233.5,111.1z"/>
<path class="st6" d="M230.8,116.2c0,0-2.3,0.7-5.1-0.2c0,0,1.8,2.4,5.3,1.1L230.8,116.2L230.8,116.2z"/>
<path class="st7" d="M230.1,106.1c0.1,0.3-0.1,0.6-0.4,0.6c-0.3,0.1-0.6-0.1-0.7-0.3c-0.1-0.3,0.1-0.6,0.4-0.6
	C229.7,105.6,230,105.8,230.1,106.1z"/>
<path class="st7" d="M230.5,104.5c0,0.1-0.5-0.1-1.1,0s-0.9,0.5-1,0.5c0,0,0-0.2,0.1-0.3c0.1-0.2,0.4-0.4,0.8-0.5
	c0.4-0.1,0.7,0,0.9,0.1C230.4,104.3,230.5,104.4,230.5,104.5L230.5,104.5z"/>
<path class="st7" d="M225.1,107.3c0.1,0.3-0.1,0.6-0.4,0.6c-0.3,0.1-0.6-0.1-0.7-0.3c-0.1-0.3,0.1-0.6,0.4-0.6
	C224.7,106.9,225,107,225.1,107.3z"/>
<path class="st7" d="M225.1,105.9c0,0.1-0.5-0.1-1.1,0.1s-0.9,0.6-0.9,0.5c0,0,0-0.2,0.1-0.3c0.1-0.2,0.4-0.4,0.7-0.5s0.7-0.1,0.9,0
	C225,105.8,225.1,105.9,225.1,105.9z"/>
<path class="st7" d="M228.1,109.6c0,0,0.3-0.2,0.9-0.4c0.1,0,0.3-0.1,0.3-0.2s-0.1-0.3-0.2-0.4c-0.2-0.3-0.4-0.6-0.7-1
	c-1-1.4-1.7-2.6-1.6-2.6c0.1,0,0.9,1.1,1.8,2.5c0.2,0.3,0.5,0.7,0.7,1c0.1,0.2,0.2,0.3,0.2,0.5c0,0.1-0.1,0.2-0.2,0.3
	c-0.1,0.1-0.2,0.1-0.2,0.1C228.4,109.5,228.1,109.6,228.1,109.6L228.1,109.6z"/>
<path class="st7" d="M224.4,104.1c0,0.2-0.5,0.3-1,0.6s-0.9,0.6-1.1,0.5c-0.1-0.1,0-0.2,0.1-0.4s0.4-0.5,0.7-0.6
	c0.3-0.2,0.7-0.2,0.9-0.2C224.3,103.9,224.4,104,224.4,104.1z"/>
<path class="st7" d="M230.1,102.9c-0.1,0.1-0.5,0.1-1.1,0.2c-0.5,0.1-0.9,0.3-1.1,0.1c-0.1-0.1,0-0.2,0.2-0.4
	c0.2-0.2,0.5-0.3,0.8-0.4c0.4-0.1,0.7,0,0.9,0.1C230,102.7,230.1,102.9,230.1,102.9z"/>
<path class="st7" d="M230.1,100.9c0,0-1.5-2.1-2.8-2.3c-1.5-0.3-1.7,1.3-3.1,1.2c-1.4,0-2.8-0.4-3.8,0.9c-1.2,1.4-0.3,2,0,3.7
	c1.2,6.7,0.5,8.8-0.6,5.8c-0.1-0.3-1.1-0.4-1.6-1.8c-0.6-1.8-1.2-4.1-1.1-5.5c0.1-1.2,0.5-2.1,1.5-3.2c1.5-1.8,3.9-2.4,5.6-2.6
	C225.9,96.8,229.6,98,230.1,100.9L230.1,100.9z"/>
<path class="st5" d="M220,110c-0.2-0.6-0.8-0.9-1.3-0.7c-0.7,0.2-1.3,0.8-0.9,2.2c0.7,2.5,3,1.3,3,1.2
	C220.8,112.7,220.3,111.1,220,110z"/>
<path class="st6" d="M220,112c0,0,0,0-0.1,0.1s-0.2,0.1-0.3,0.1c-0.3,0-0.6-0.4-0.8-0.8c-0.1-0.2-0.1-0.5,0-0.7
	c0-0.2,0.1-0.4,0.2-0.4c0.1-0.1,0.2,0,0.3,0c0.1,0.1,0.1,0.1,0.1,0.1s0-0.1,0-0.2l-0.1-0.1c-0.1,0-0.2,0-0.3,0
	c-0.2,0.1-0.3,0.3-0.3,0.5s0,0.5,0,0.7c0.2,0.5,0.5,0.9,0.9,0.9C219.8,112.2,219.9,112.1,220,112L220,112z"/>
<path class="st7" d="M218.9,105.2c0.4,0.1,0.8,0.3,1.2,0.2s0.8-0.4,0.8-0.8c0-0.2-0.1-0.4,0-0.5c0.1-0.2,0.4-0.2,0.6-0.2
	c0.7-0.1,1.4-0.8,1.4-1.5c0.3,0.2,0.7,0.1,0.9-0.1s0.3-0.6,0.5-0.9s0.4-0.6,0.8-0.6c0.2,0,0.4,0.1,0.6,0c0.3-0.1,0.4-0.5,0.4-0.9
	c0-0.3-0.1-0.7,0.2-1c0.2-0.2,0.6-0.2,0.9-0.2c0.3,0,0.7-0.2,0.7-0.5c0-0.2-0.1-0.3-0.2-0.4c-0.5-0.5-1.5-0.6-2.1-0.2
	c-0.4-0.8-1.4-1.2-2.2-1.1c-0.9,0.1-1.7,0.8-1.9,1.7c-0.6-0.4-1.5-0.4-2.1,0c-0.7,0.3-1.1,1-1.2,1.7c-0.6,0-1.3,0.4-1.5,1
	c-0.3,0.6-0.1,1.3,0.3,1.8c-0.4,0.4-0.7,0.9-0.6,1.4c0.1,0.5,0.7,0.9,1.2,0.7c-0.1,0.5,0.2,1,0.6,1.1c0.4,0.1,1-0.1,1.1-0.6"/>
<path class="st8" d="M225.7,98.2L225.7,98.2c0,0.1,0,0.1,0,0.2s0,0.3-0.1,0.5s-0.2,0.5-0.4,0.7s-0.5,0.5-1,0.5V100
	c0.1,0.2,0.2,0.5,0.1,0.7c0,0.2-0.2,0.5-0.3,0.7c-0.1,0.1-0.1,0.2-0.2,0.4c-0.1,0.1-0.2,0.2-0.4,0.2c-0.3,0.1-0.6,0.1-0.9-0.1h0.1
	c0.1,0.5-0.1,1.1-0.5,1.5c-0.2,0.2-0.5,0.4-0.8,0.5s-0.6,0-0.8,0h0.1c-0.1,0.3-0.2,0.7-0.4,0.9c-0.2,0.3-0.5,0.4-0.8,0.4
	c-0.6,0-1.1-0.4-1.3-0.8h0.1c-0.3,0.2-0.6,0.3-0.8,0.3c-0.3,0-0.5,0-0.7-0.1s-0.3-0.2-0.4-0.2c-0.1-0.1-0.1-0.1-0.1-0.1
	s0.1,0.2,0.5,0.3c0.2,0.1,0.4,0.1,0.6,0.1c0.3,0,0.5-0.1,0.8-0.3l0,0v0.1c0.2,0.4,0.7,0.8,1.2,0.8c0.3,0,0.5-0.2,0.7-0.4
	s0.3-0.5,0.4-0.9v-0.1h0.1c0.3,0,0.5,0.1,0.8,0s0.5-0.2,0.7-0.4c0.4-0.4,0.5-0.9,0.5-1.4V102l0.1,0.1c0.2,0.2,0.5,0.2,0.8,0.1
	c0.1,0,0.2-0.1,0.3-0.2s0.1-0.2,0.2-0.3c0.1-0.2,0.2-0.5,0.3-0.7s0-0.5-0.1-0.6v-0.1h0.1c0.4-0.1,0.7-0.3,0.9-0.5s0.3-0.5,0.4-0.7
	C225.8,98.4,225.7,98.2,225.7,98.2L225.7,98.2z"/>
<path class="st6" d="M226.6,110.7c0.7,0,1.4,0,2.1,0.1l0,0c0,0.5,0,1-0.3,1.4c-0.3,0.3-0.7,0.3-1,0.2s-0.6-0.3-0.8-0.7
	C226.5,111.5,226.6,111.1,226.6,110.7L226.6,110.7z"/>
<path class="st7" d="M228,112.4c0,0-0.3,0.1-0.7,0c-0.2-0.1-0.4-0.2-0.5-0.5c-0.1-0.2-0.2-0.6-0.2-0.9c0-0.1,0-0.2,0-0.2l0,0h0.1
	c0.2,0,0.3,0,0.5,0c0.3,0,0.5,0,0.8,0c0.4,0,0.7,0,0.7,0s-0.3-0.1-0.7-0.1c-0.2,0-0.5,0-0.8-0.1c-0.2,0-0.3,0-0.5,0h-0.1
	c-0.1,0-0.2,0.1-0.2,0.1c0,0.1,0,0.2,0,0.3c0,0.4,0,0.7,0.2,1s0.4,0.5,0.6,0.5c0.2,0.1,0.4,0,0.6,0C228,112.5,228,112.5,228,112.4
	L228,112.4z"/>
<path class="st8" d="M213.4,124l-14,4.1l-4.6-6c0,0.7-5.7-0.2-5.7-0.2c4.1,9.8,6.3,13.1,6.9,13.4c1.5,0.7,13.2,0.6,14.1,0.4
	c0.9-0.2,9.3-1.4,9.3-1.4l-1.5-11.8l-3.5,1.1C214,123.7,213.7,123.8,213.4,124L213.4,124z"/>
<path class="st8" d="M247.2,150.8c-0.8-3-2.6-10-2.6-10l-3.7-21.6l-8.2,0.1l-0.7-1.4c-0.1-0.3-0.5-0.5-0.8-0.4l-8.7,1.6
	c-0.4,0.1-0.7,0.4-0.6,0.8l0.2,1.2l-6.6,2.5l-0.7,9.7l5.3,22l0.3,3.1c0.1,0.7,0.5,1.4,1.1,1.9l1,0.7l24.1-5.6l0.6-1.6
	C247.4,152.7,247.4,151.7,247.2,150.8z"/>
<path class="st8" d="M221.9,160.2l0.2,3.3l25.8-6l-0.9-4.2L221.9,160.2z"/>
<path class="st7" d="M244.6,155.4c-0.1,0,0,0.6,0,1.3c0.1,0.7,0.2,1.3,0.2,1.3c0.1,0,0-0.6,0-1.3
	C244.8,155.9,244.7,155.3,244.6,155.4z"/>
<path class="st7" d="M240.5,156.3c-0.1,0,0,0.6,0.1,1.3s0.3,1.3,0.3,1.3c0.1,0,0-0.6-0.1-1.3S240.6,156.3,240.5,156.3z"/>
<path class="st7" d="M236.2,157.6c-0.1,0,0,0.6,0.1,1.3s0.3,1.2,0.3,1.2c0.1,0,0-0.6-0.1-1.3S236.3,157.6,236.2,157.6L236.2,157.6z"
	/>
<path class="st7" d="M230.9,158.8c-0.1,0,0,0.7,0.2,1.4c0.1,0.8,0.3,1.4,0.4,1.4c0.1,0,0-0.7-0.2-1.4
	C231.1,159.4,230.9,158.8,230.9,158.8z"/>
<path class="st7" d="M225.8,160c-0.1,0,0.1,0.6,0.3,1.3s0.4,1.3,0.5,1.3s-0.1-0.6-0.3-1.3C226.1,160.5,225.9,160,225.8,160z"/>
<path class="st8" d="M240.9,119.2h0.9c1.1,0,2.2,0.3,3.2,0.9l8.1,4.7l-2-11.8l6.4-1.3c0,0,3.8,15.3,3.8,17.7c0,4.9-3.8,6.6-7.6,5.4
	c-1.1-0.3-14.6-6.5-14.6-6.5L240.9,119.2L240.9,119.2z"/>
<path class="st7" d="M244.4,142.2c0.1,0-0.5-4.6-1.3-10.2c-0.8-5.7-1.5-10.2-1.5-10.2c-0.1,0,0.5,4.6,1.3,10.3
	C243.7,137.6,244.4,142.2,244.4,142.2L244.4,142.2z"/>
<path class="st7" d="M238.6,140c0,0,0,0-0.1,0.2c-0.1,0.1-0.2,0.3-0.3,0.5c-0.3,0.4-0.7,1-1.2,1.7c-1,1.4-2.4,3.4-3.9,5.5
	c-1.6,2.1-3.1,4-4.2,5.4c-0.5,0.7-1,1.2-1.3,1.6l-0.4,0.4c-0.1,0.1-0.1,0.2-0.1,0.2s0.1,0,0.1-0.1c0.1-0.1,0.2-0.2,0.4-0.4
	c0.3-0.4,0.8-0.9,1.3-1.6c1.1-1.3,2.6-3.2,4.2-5.3c1.6-2.1,2.9-4.1,3.9-5.6c0.5-0.7,0.9-1.3,1.1-1.7c0.1-0.2,0.2-0.4,0.3-0.5
	C238.6,140.1,238.6,140,238.6,140L238.6,140z"/>
<path class="st7" d="M235.8,134.8c0,0-0.1,0.2-0.3,0.5s-0.5,0.8-0.8,1.3c-0.6,1.1-1.5,2.6-2.5,4.2s-2,3.1-2.7,4.2
	c-0.3,0.5-0.6,0.9-0.8,1.2s-0.3,0.5-0.3,0.5s0.1-0.1,0.3-0.4c0.2-0.3,0.5-0.7,0.9-1.2c0.7-1,1.7-2.5,2.7-4.1s1.9-3.2,2.5-4.3
	c0.3-0.6,0.5-1,0.7-1.3C235.7,134.9,235.8,134.8,235.8,134.8z"/>
<path class="st7" d="M232.5,119.2c0,0-0.5,0.2-1.4,0.6c-0.9,0.3-2.2,0.7-3.6,1c-1.4,0.2-2.8,0.3-3.7,0.2c-1,0-1.5-0.1-1.5-0.1
	s0.1,0,0.4,0.1c0.3,0,0.7,0.1,1.1,0.1c1,0.1,2.3,0.1,3.7-0.2c1.5-0.2,2.7-0.7,3.6-1c0.4-0.2,0.8-0.4,1-0.5
	C232.4,119.3,232.5,119.2,232.5,119.2L232.5,119.2z"/>
<g class="st10">
	<path d="M237.3,142.2c-0.7,4.9-4,9.4-8.5,11.4L237.3,142.2z"/>
</g>
<path class="st7" d="M213.8,128.7c-0.1,0,0.6,2.9,1.5,6.4s1.6,6.4,1.7,6.4c0.1,0-0.6-2.9-1.5-6.4S213.9,128.7,213.8,128.7
	L213.8,128.7z"/>
<path class="st5" d="M193.2,118.1c0,0,0.8-0.2,1.2,0.5s0.8,2.2,0.7,3c0,0,1.1,0.2,1.2,0.7c0,0.5-0.2,0.9-1.3,0.9
	c0,0-0.7,1.4-1.4,0.9s-0.5-1.1-0.5-1.1s-0.6,1.1-1.6-0.3c0,0-0.4,0.3-0.9,0.2c-0.5-0.1-0.7-0.5-0.7-0.5s-0.6,0.3-1-0.1
	s-1.5-2.3-1.7-2.8c-0.2-0.6,0-1.4,0.5-1.7s1.3,0,1.3,0s0.8-0.8,1.7-0.2C190.6,117.7,192,116.5,193.2,118.1L193.2,118.1z"/>
<path class="st6" d="M188.7,119.5c-0.1,0,0.2,0.7,0.5,1.5c0.2,0.4,0.3,0.8,0.4,1c0.1,0.3,0.1,0.4,0.2,0.4c0,0,0-0.2,0-0.5
	c-0.1-0.3-0.2-0.7-0.3-1.1C189.1,120.1,188.7,119.5,188.7,119.5L188.7,119.5z"/>
<path class="st6" d="M190.2,119.1c-0.1,0,0.1,0.8,0.4,1.8c0.3,1,0.6,1.8,0.7,1.8c0.1,0-0.2-0.8-0.5-1.8
	C190.6,119.9,190.3,119.1,190.2,119.1L190.2,119.1z"/>
<path class="st6" d="M192.3,119.2c-0.1,0,0.3,0.9,0.5,2c0.1,0.5,0.2,1,0.2,1.4s-0.1,0.6-0.1,0.6s0.2-0.2,0.2-0.6s-0.1-0.9-0.2-1.4
	C192.8,120,192.4,119.1,192.3,119.2z"/>
<path class="st6" d="M194.7,119.4c-0.1,0,0.2,0.9,0.3,2c0,0.5,0,1.1,0,1.4c0,0.4-0.2,0.5-0.2,0.6c0,0,0.2-0.1,0.3-0.5s0.1-0.9,0-1.4
	C195.1,120.2,194.7,119.4,194.7,119.4L194.7,119.4z"/>
<path class="st7" d="M71.7,172.9c0,0-2.2-2.3-2.9,11.5c-0.6,13-1.5,31.7,1.6,39.7c0.3,0.9,0.9,1.6,1.7,2.1c0.6,0.4,1.5,0.8,2.7,1
	c2.7,0.4,13.4,0.2,13.4,0.2s6.1,0,6.2-5c0.1-4.1,0-13.1,0-13.1L71.7,172.9z"/>
<g class="st10">
	<path d="M71.7,172.9c0,0-2.2-2.3-2.9,11.5c-0.6,13-1.5,31.7,1.6,39.7c0.3,0.9,0.9,1.6,1.7,2.1c0.6,0.4,1.5,0.8,2.7,1
		c2.7,0.4,13.4,0.2,13.4,0.2s6.1,0,6.2-5c0.1-4.1,0-13.1,0-13.1L71.7,172.9z"/>
</g>
<path class="st7" d="M195.4,172.9c0,0-2.2-2.3-2.9,11.5c-0.6,13-1.5,31.7,1.6,39.7c0.3,0.9,0.9,1.6,1.7,2.1c0.6,0.4,1.5,0.8,2.7,1
	c2.7,0.4,13.4,0.2,13.4,0.2s6.1,0,6.2-5c0.1-4.1,0-13.1,0-13.1L195.4,172.9L195.4,172.9z"/>
<g class="st10">
	<path d="M195.4,172.9c0,0-2.2-2.3-2.9,11.5c-0.6,13-1.5,31.7,1.6,39.7c0.3,0.9,0.9,1.6,1.7,2.1c0.6,0.4,1.5,0.8,2.7,1
		c2.7,0.4,13.4,0.2,13.4,0.2s6.1,0,6.2-5c0.1-4.1,0-13.1,0-13.1L195.4,172.9L195.4,172.9z"/>
</g>
<path class="st7" d="M228.5,149.2c0,0-0.7,2.3-2.1,2.6c-1.4,0.2-12.5,0.6-12.5,0.6l-1.1,2.2h-2.1l-1.5-8.9l1.3,0.3
	c0.4,0.1,0.8,0.4,1,0.8c0.2,0.5,0.6,0.8,1.1,0.8L228.5,149.2L228.5,149.2z"/>
<path class="st11" d="M228,149.5c0.8-0.1,1.4-0.8,1.3-1.6c-0.4-2.5-1.7-7.5-6.6-8.2c-4.4-0.7-7.5-0.5-9.2-0.2
	c-0.8,0.1-1.1,0.8-1.2,1.6c-0.4,3.5-0.1,7.8,0.9,8.4C214.3,149.9,224.4,149.8,228,149.5L228,149.5z"/>
<path class="st7" d="M221.4,139.7c0,0,0.1,0.1,0.3,0.4c0.2,0.2,0.4,0.6,0.7,1c0.6,0.9,1.3,2.1,1.9,3.6c0.6,1.4,1.1,2.8,1.3,3.8
	c0.1,0.5,0.2,0.9,0.3,1.2s0.1,0.4,0.1,0.4s-0.1-0.1-0.1-0.4c-0.1-0.3-0.2-0.7-0.3-1.2c-0.3-1-0.7-2.3-1.4-3.8
	c-0.6-1.4-1.3-2.7-1.8-3.6c-0.3-0.4-0.5-0.8-0.6-1C221.5,139.8,221.4,139.7,221.4,139.7z"/>
<path class="st7" d="M226,182.2c0,0,2.2-2.3,2.9,11.5c0.6,13,1.5,31.7-1.6,39.7c-0.3,0.9-0.9,1.6-1.7,2.1c-0.6,0.4-1.5,0.8-2.7,1
	c-2.7,0.4-13.4,0.2-13.4,0.2s-6.1,0-6.2-5c-0.1-4.1,0-13.1,0-13.1L226,182.2L226,182.2z"/>
<path class="st8" d="M226,182.2c0,0,0,0.1-0.1,0.2s-0.2,0.3-0.3,0.5c-0.3,0.5-0.7,1.1-1.2,2c-1.1,1.7-2.7,4.3-4.7,7.5
	c-4,6.4-9.7,15.5-16.3,26.2l0,0c0,3.9,0,8,0,12.2c0,0.5,0,1.1,0.1,1.6s0.2,1,0.5,1.5c0.5,0.9,1.4,1.6,2.4,2c2,0.9,4.3,0.6,6.5,0.7
	c2.4,0,4.7,0,7,0c1.1,0,2.3-0.1,3.4-0.3c0.5-0.1,1.1-0.3,1.6-0.5s1-0.5,1.4-0.9s0.7-0.8,0.9-1.3c0.1-0.2,0.2-0.5,0.3-0.8
	s0.2-0.5,0.3-0.8s0.2-0.5,0.2-0.8c0.1-0.3,0.1-0.5,0.2-0.8c0.1-0.5,0.2-1,0.3-1.6c0.2-1,0.3-2.1,0.5-3.1c0.1-0.5,0.1-1,0.2-1.5
	c0-0.5,0.1-1,0.1-1.5c0.3-4.1,0.3-7.9,0.3-11.6c0-3.6-0.1-7-0.3-10.1c-0.1-3.1-0.2-5.9-0.4-8.3c-0.1-2.4-0.3-4.5-0.6-6.3
	c-0.3-1.7-0.6-3-1.1-3.8c-0.1-0.2-0.2-0.3-0.4-0.4c-0.1-0.1-0.3-0.1-0.4-0.1C226.1,182.1,226,182.2,226,182.2L226,182.2
	c0.1-0.1,0.2-0.1,0.3-0.1s0.3,0,0.4,0.1c0.1,0.1,0.3,0.3,0.4,0.4c0.5,0.8,0.8,2.1,1.1,3.8s0.5,3.8,0.6,6.3c0.1,2.4,0.3,5.2,0.4,8.3
	c0.1,3.1,0.2,6.5,0.3,10.1c0,3.6,0,7.5-0.3,11.6c0,0.5-0.1,1-0.1,1.5c-0.1,0.5-0.1,1-0.2,1.6c-0.1,1-0.3,2.1-0.5,3.1
	c-0.1,0.5-0.2,1.1-0.3,1.6c-0.1,0.3-0.1,0.5-0.2,0.8c-0.1,0.3-0.1,0.5-0.2,0.8c-0.1,0.3-0.2,0.5-0.3,0.8s-0.2,0.5-0.3,0.8
	c-0.2,0.5-0.6,1-1,1.4s-0.9,0.7-1.4,0.9s-1.1,0.4-1.6,0.5c-1.1,0.2-2.3,0.2-3.4,0.3c-2.3,0.1-4.6,0.1-7,0c-1.1,0-2.2,0-3.3,0
	s-2.2-0.2-3.3-0.7c-1-0.4-1.9-1.1-2.5-2.1c-0.3-0.5-0.4-1-0.5-1.5s-0.1-1.1-0.1-1.6c0-4.2,0-8.3,0-12.2l0,0l0,0
	c6.7-10.6,12.4-19.7,16.4-26.1c2-3.2,3.6-5.7,4.7-7.5c0.5-0.9,1-1.5,1.3-2c0.1-0.2,0.3-0.4,0.3-0.5C226,182.3,226,182.2,226,182.2
	L226,182.2z"/>
<path class="st7" d="M61.6,182.2c0,0-2.2-2.3-2.9,11.5c-0.6,13-1.5,31.7,1.6,39.7c0.3,0.9,0.9,1.6,1.7,2.1c0.6,0.4,1.5,0.8,2.7,1
	c2.7,0.4,13.4,0.2,13.4,0.2s6.1,0,6.2-5c0.1-4.1,0-13.1,0-13.1L61.6,182.2L61.6,182.2z"/>
<path class="st11" d="M228.1,170.4l-5-3.3c-1.1-5.1-10.4-15.6-10.4-15.6s-9.6-23.2-17.9-28.6c-8.3-5.5-48.8-4.8-48.8-4.8h-2.1
	c0,0-42.9-0.7-51.2,4.7c-8.3,5.5-17.9,28.7-17.9,28.7s-9.2,10.6-10.4,15.6l-5,3.3c-1,0.7-1.6,1.8-1.6,3c0.3,8.6,2,42.7,4.8,46.5
	c2.8,3.7,28.8,1.7,35.9,1.7c10.2,0,41.8-0.4,41.8-0.4l46.5-0.1c5.3-0.6,34.3,3,37.9-1.2c3.1-3.6,4.5-37.9,4.8-46.5
	C229.7,172.2,229.1,171,228.1,170.4L228.1,170.4z"/>
<path class="st8" d="M192.6,124.4c-0.2-0.4-0.6-0.6-1-0.6l-47.1-2h-0.4l0,0l-48.2,2c-0.4,0-0.8,0.3-1,0.6l-12.2,21.4
	c-0.4,0.7,0.1,1.6,0.9,1.6c1.3,0,3.3,0.1,5.7,0c3.8-0.2,33.8-0.1,49.6,0l0,0c0,0,1.8,0,4.9,0c3,0,4.9,0,4.9,0l0,0
	c15.8,0,45.9-0.1,49.6,0c2.4,0.1,4.5,0.1,5.9,0c0.7,0,1.2-0.8,0.8-1.5L192.6,124.4z"/>
<path class="st7" d="M59.1,149.2c0,0,0.7,2.3,2.1,2.6c1.4,0.2,12.5,0.6,12.5,0.6l1.1,2.2h2.1l1.5-8.9l-1.4,0.2
	c-0.4,0.1-0.8,0.4-1,0.8c-0.2,0.5-0.6,0.8-1.1,0.8L59.1,149.2L59.1,149.2z"/>
<path class="st7" d="M129.7,143.9c0-1.2-0.5-4.7-1.6-5.7c-0.9-0.7-3-0.9-4-1H124c-0.5,0-4.2,0.1-5.3,1c-1.1,0.9-1.6,4.4-1.6,5.7l0,0
	c0,0.8,0.6,1.4,1.4,1.4h9.9C129.1,145.3,129.7,144.7,129.7,143.9L129.7,143.9L129.7,143.9z"/>
<g class="st10">
	<path d="M129.7,143.9c0-1.2-0.5-4.7-1.6-5.7c-0.9-0.7-3-0.9-4-1H124c-0.5,0-4.2,0.1-5.3,1c-1.1,0.9-1.6,4.4-1.6,5.7l0,0
		c0,0.8,0.6,1.4,1.4,1.4h9.9C129.1,145.3,129.7,144.7,129.7,143.9L129.7,143.9L129.7,143.9z"/>
</g>
<path class="st7" d="M124.7,143c0-2-0.8-7.7-2.7-9.3c-1.4-1.2-4.9-1.5-6.6-1.6c-0.1,0-0.1,0-0.2,0c-0.9,0-6.9,0.2-8.7,1.6
	c-1.9,1.5-2.7,7.2-2.7,9.3v0.1c0,1.3,1,2.3,2.3,2.3h16.2C123.7,145.3,124.7,144.3,124.7,143L124.7,143L124.7,143z"/>
<g class="st10">
	<path d="M104.9,202.1c0,0-36.2-4.8-37.7-4.9c-2.2-0.3-3.4,1.2-3.4,2.9c0,1.2-0.2,5.9-0.3,8.5c-0.1,1.6,0.7,3,2.1,3.8
		c0.8,0.5,1.8,0.9,3.2,1.3c3,0.9,21.4,1.7,25.2,1.9c0.4,0,0.9-0.1,1.2-0.4c1.4-1.2,5-4.5,6.2-6.1
		C105.2,203.7,104.9,202.1,104.9,202.1L104.9,202.1z M86.1,212l-17.5-2.8l0.7-9.6l23.8,2.2L86.1,212L86.1,212z"/>
</g>
<g class="st10">
	<path d="M64.3,177.5c0,0-1.8,5.5,9.6,8c11.5,2.6,28.6,7.2,28.6,7.2l-9.2-6.5c0,0-26.4-4.4-27.1-8.4c-0.8-4.6,0-9.8,0-9.8
		L64.3,177.5z"/>
</g>
<path class="st7" d="M108.8,202L108.8,202c-0.2,0-0.3-0.1-0.5-0.1c-0.3-0.1-0.8-0.2-1.4-0.3c-1.2-0.3-2.9-0.7-5.1-1.2
	c-4.3-1-10.3-2.2-17-3.2c-3.3-0.5-6.5-1-9.4-1.4c-1.5-0.2-2.8-0.4-4.1-0.6c-1.3-0.2-2.5-0.4-3.6-0.3c-1.1,0-2.1,0.3-2.8,0.8
	c-0.7,0.5-1.2,1.1-1.5,1.6c-0.7,1.1-0.7,1.8-0.7,1.8s0-0.2,0.1-0.5s0.2-0.8,0.6-1.3c0.3-0.5,0.8-1.1,1.5-1.7
	c0.7-0.5,1.7-0.8,2.9-0.8c1.1,0,2.3,0.1,3.6,0.3c1.3,0.2,2.7,0.4,4.1,0.6c2.9,0.4,6.1,0.9,9.4,1.4c6.7,1.1,12.7,2.3,17,3.3
	c2.2,0.5,3.9,0.9,5.1,1.3c0.6,0.2,1.1,0.3,1.4,0.4c0.1,0,0.3,0.1,0.4,0.1C108.8,201.9,108.8,202,108.8,202L108.8,202z"/>
<path class="st7" d="M62.8,187.9c0,0,0-0.1,0-0.2c0-0.2,0-0.3,0-0.6c0-0.5,0-1.2,0-2.1c0-1.8,0.1-4.3,0.4-7.1c0.2-2.8,0.6-5.2,0.9-7
	c0.1-0.9,0.3-1.6,0.4-2.1c0-0.2,0.1-0.4,0.1-0.6c0-0.1,0-0.2,0.1-0.2c0,0,0,0.1,0,0.2c0,0.2,0,0.3-0.1,0.6c-0.1,0.5-0.2,1.2-0.3,2.1
	c-0.3,1.8-0.6,4.3-0.8,7s-0.4,5.2-0.4,7c0,0.9,0,1.6-0.1,2.1c0,0.2,0,0.4,0,0.6C62.8,187.8,62.8,187.9,62.8,187.9z"/>
<path class="st7" d="M70.8,163.3c0,0,0-0.2,0-0.4c0-0.1,0-0.3,0-0.5s0-0.4,0.1-0.7c0.1-1,0.5-2.3,0.9-3.8c0.5-1.5,1-2.8,1.3-3.7
	c0.2-0.5,0.3-0.8,0.5-1.1c0.1-0.3,0.2-0.4,0.2-0.4s0,0.2-0.1,0.4c-0.1,0.3-0.2,0.7-0.4,1.1c-0.3,0.9-0.8,2.2-1.3,3.7s-0.8,2.8-1,3.8
	C70.8,162.7,70.8,163.3,70.8,163.3z"/>
<path class="st0" d="M72.9,165.8c0,0-5.9-2.2-6.7,2.4c-0.8,4.6-0.7,9.2,0.3,10.8s10.2,3.8,10.2,3.8l15.9,3.5c0,0,1.1,0.2,0.5-1.1
	c-0.8-1.4-5-10.7-7.4-13C81.1,168.1,72.9,165.8,72.9,165.8L72.9,165.8z"/>
<g class="st10">
	<path d="M78.8,183.3c0,0,0-10.9-0.8-12.1c-0.8-1.2-10.2-5.5-10.2-5.5s0.9-0.8,2.8-0.4s5,1.2,7.6,2.5s6.7,3.2,8.3,5.4
		c0.7,1,2.1,3.2,3.4,5.7c1.7,3.2,3.4,6.7,3.4,6.8c0,0.4,0.1,0.8-1.5,0.4C88.2,185.4,78.8,183.3,78.8,183.3L78.8,183.3z"/>
</g>
<path class="st0" d="M83.9,182.3c2.1,0,3.9-1.7,3.9-3.9c0-2.1-1.7-3.9-3.9-3.9c-2.1,0-3.9,1.7-3.9,3.9
	C80.1,180.6,81.8,182.3,83.9,182.3z"/>
<path class="st7" d="M87.8,178.5c0,0,0-0.3-0.2-0.9c-0.1-0.6-0.5-1.4-1.4-2.1c-0.4-0.3-1-0.6-1.6-0.7s-1.3-0.1-2,0.2
	c-0.3,0.1-0.7,0.3-1,0.5s-0.6,0.5-0.8,0.8c-0.5,0.6-0.7,1.4-0.7,2.2s0.3,1.6,0.7,2.2c0.2,0.3,0.5,0.6,0.8,0.8s0.6,0.4,1,0.5
	c0.7,0.3,1.4,0.3,2,0.2s1.2-0.4,1.6-0.7c0.9-0.7,1.3-1.5,1.4-2.1C87.8,178.8,87.8,178.5,87.8,178.5s0,0.3-0.1,0.9
	c-0.1,0.6-0.5,1.5-1.4,2.2c-0.4,0.3-1,0.6-1.6,0.7c-0.6,0.1-1.4,0.1-2.1-0.2c-0.3-0.1-0.7-0.3-1-0.5s-0.6-0.5-0.8-0.8
	c-0.5-0.6-0.8-1.5-0.8-2.3c0-0.9,0.3-1.7,0.8-2.3c0.2-0.3,0.5-0.6,0.8-0.8s0.6-0.4,1-0.5c0.7-0.3,1.4-0.3,2.1-0.2
	c0.6,0.1,1.2,0.4,1.6,0.7c0.9,0.7,1.3,1.6,1.4,2.2C87.8,178.1,87.8,178.5,87.8,178.5z"/>
<path class="st2" d="M83.9,178.3c1.4,0,2.6,0.8,3.3,1.9c0.3-0.5,0.5-1.1,0.5-1.8c0-2.1-1.7-3.7-3.7-3.7c-2.1,0-3.7,1.7-3.7,3.7
	c0,0.7,0.2,1.3,0.5,1.8C81.3,179.1,82.5,178.3,83.9,178.3L83.9,178.3z"/>
<path class="st4" d="M85.6,178.3c0,0.9-0.7,1.7-1.7,1.7c-0.9,0-1.7-0.7-1.7-1.7s0.7-1.7,1.7-1.7C84.9,176.7,85.6,177.4,85.6,178.3z"
	/>
<path class="st7" d="M85.6,178.3c0,0,0-0.1-0.1-0.4c-0.1-0.2-0.2-0.6-0.6-0.9s-0.9-0.4-1.5-0.2s-1,0.8-1,1.5s0.5,1.3,1,1.5
	c0.6,0.2,1.1,0.1,1.5-0.2s0.5-0.6,0.6-0.9C85.6,178.5,85.6,178.3,85.6,178.3L85.6,178.3c0,0.2,0,0.3,0,0.4c0,0.3-0.2,0.7-0.6,1
	s-1,0.5-1.6,0.3s-1.2-0.9-1.2-1.6c0-0.8,0.5-1.4,1.2-1.6c0.6-0.2,1.3,0,1.6,0.3c0.4,0.3,0.5,0.7,0.6,1
	C85.6,178.2,85.6,178.3,85.6,178.3C85.6,178.3,85.6,178.3,85.6,178.3L85.6,178.3z"/>
<path class="st4" d="M85.4,175.7c-0.1,0.1-0.4,0-0.9,0s-1.2,0-1.9,0.4c-0.7,0.4-1.1,0.9-1.4,1.4s-0.4,0.8-0.5,0.8s-0.2-0.4-0.1-1
	s0.6-1.5,1.5-2s1.9-0.4,2.5-0.2C85.2,175.3,85.5,175.6,85.4,175.7z"/>
<path class="st4" d="M86.4,176.4c-0.2,0.1-0.4,0.2-0.4,0.2s0-0.2,0.2-0.4c0.1-0.2,0.4-0.3,0.5-0.2C86.7,176,86.6,176.2,86.4,176.4
	L86.4,176.4z"/>
<path class="st7" d="M144.6,166.4c0,0,0,0-0.2,0c-0.1,0-0.3,0-0.4,0c-0.4,0-1,0-1.7,0c-1.5,0-3.7,0-6.3,0c-5.3,0-12.7,0-20.8,0
	c-4.1,0-7.9,0-11.5,0c-1.8,0-3.4,0-5,0c-0.8,0-1.5,0-2.3,0c-0.7,0-1.4,0.2-1.9,0.6c-1,0.9-1.9,1.6-2.8,2.3c-0.4,0.3-0.8,0.7-1.1,0.9
	c-0.4,0.3-0.8,0.5-1.1,0.5c-0.4,0.1-0.7,0.1-1,0.1s-0.5,0-0.7,0s-0.3,0-0.4,0s-0.2,0-0.2,0s0.1,0,0.2,0s0.3,0,0.4,0
	c0.2,0,0.4,0,0.7,0c0.3,0,0.6,0,1-0.1s0.7-0.3,1.1-0.5c0.3-0.3,0.7-0.6,1.1-1c0.8-0.7,1.7-1.5,2.7-2.3c0.5-0.4,1.3-0.6,2-0.6
	s1.5,0,2.3,0c1.6,0,3.2,0,5,0c3.5,0,7.4,0,11.5,0c8.1,0,15.5,0,20.8,0.1c2.7,0,4.8,0,6.3,0c0.7,0,1.3,0,1.7,0c0.2,0,0.3,0,0.4,0
	C144.5,166.4,144.6,166.4,144.6,166.4L144.6,166.4z"/>
<path class="st7" d="M219.1,217c-0.2-0.4-0.6-0.7-1.4-0.6c-2.2,0.3-25.5,0.8-28.7,0s-13.9-12.9-18.4-13.7
	c-3.8-0.7-22.2-1.1-28.1-0.9c-5.9-0.2-24.3,0.2-28.1,0.9c-4.5,0.8-15.1,14.1-18.3,14.9c-3.2,0.8-26.6-0.9-28.9-1.2
	c-0.8-0.1-1.2,0.2-1.4,0.6c-0.4,0.8,0.2,1.8,1.2,1.8c5,0.1,24.1,0.4,27.7,0.3c3.8-0.1,42.2-0.8,48.6-0.9c9.7,0.1,42.9,0.3,46.4,0.3
	c4.1,0.1,23.2,0.4,28.2,0.3C218.8,218.8,219.5,217.8,219.1,217L219.1,217z"/>
<path class="st7" d="M135.9,123.3c0.2,0,0.8,3.3,3.5,3.3c2.7-0.1,9.3,0,9.3,0v-4.1L135.9,123.3L135.9,123.3z"/>
<path class="st11" d="M59.5,149.5c-0.8-0.1-1.4-0.8-1.3-1.6c0.4-2.5,1.7-7.5,6.6-8.2c4.4-0.7,7.5-0.5,9.2-0.2
	c0.8,0.1,1.1,0.8,1.2,1.6c0.4,3.5,0.1,7.8-0.9,8.4C73.3,149.9,63.1,149.8,59.5,149.5L59.5,149.5z"/>
<path class="st7" d="M93.6,122.4C93.6,122.4,93.6,122.5,93.6,122.4c-0.1,0.1-0.1,0.2-0.2,0.3c-0.1,0.2-0.3,0.5-0.5,0.9
	c-0.4,0.8-1,1.9-1.8,3.3c-1.5,2.8-3.6,6.6-6,10.8c-1.9,3.4-3.7,6.6-5.1,9.1l0,0l0,0c-1.7,1.3-3.1,2.4-4.1,3.1
	c-0.5,0.4-0.9,0.6-1.1,0.9c-0.1,0.1-0.2,0.2-0.3,0.2c-0.1,0-0.1,0.1-0.1,0.1s0,0,0.1-0.1s0.2-0.1,0.3-0.2c0.3-0.2,0.6-0.5,1.1-0.9
	c1-0.8,2.4-1.9,4-3.2l0,0c1.4-2.5,3.2-5.7,5-9.1c2.3-4.2,4.5-8,6-10.8c0.8-1.4,1.4-2.5,1.8-3.3c0.2-0.4,0.4-0.7,0.5-0.9L93.6,122.4
	C93.5,122.5,93.6,122.5,93.6,122.4L93.6,122.4z"/>
<path class="st7" d="M100.1,120.4c0,0-0.3,0.1-0.9,0.3c-0.5,0.2-1.3,0.5-2,1s-1.2,1.2-1.6,1.6c-0.3,0.5-0.6,0.8-0.6,0.7
	c0,0,0.1-0.3,0.5-0.8c0.3-0.5,0.8-1.1,1.6-1.7c0.7-0.5,1.5-0.8,2.1-1C99.8,120.5,100.1,120.4,100.1,120.4L100.1,120.4z"/>
<g class="st10">
	<path d="M80.1,146.9l-0.3,0.2c-0.1-0.2,8.2,17.3,12.1,21.9l2.6-2.2C88.9,161.5,84.7,153.1,80.1,146.9z"/>
</g>
<path class="st7" d="M96.6,215.7c0,0,0.1,0,0.2-0.1s0.3-0.2,0.5-0.4c0.4-0.3,1.1-0.9,1.9-1.6c1.6-1.4,3.8-3.6,6.5-6.3
	c0.7-0.7,1.4-1.4,2.1-2.2c0.7-0.7,1.4-1.6,2.3-2.3s1.9-1.3,3.1-1.7c1.1-0.4,2.4-0.7,3.6-0.8c0.6,0,1.3,0,1.9-0.1c0.6,0,1.3,0,2,0
	c1.3,0,2.7,0,4.1,0c2.8,0,5.6-0.1,8.5-0.1c11.7-0.1,22.3-0.2,30-0.2c3.8,0,6.9,0,9.1-0.1c1.1,0,1.9,0,2.5,0c0.3,0,0.5,0,0.6,0
	s0.2,0,0.2,0s-0.1,0-0.2,0c-0.2,0-0.4,0-0.6,0c-0.6,0-1.4,0-2.5,0c-2.2,0-5.3,0.1-9.1,0.1c-7.7,0.1-18.3,0.2-30,0.3
	c-2.9,0-5.8,0.1-8.5,0.1c-1.4,0-2.7,0-4.1,0c-0.7,0-1.3,0-2,0s-1.3,0-1.9,0.1c-1.3,0.1-2.5,0.3-3.6,0.7s-2.1,1-3,1.7
	s-1.6,1.6-2.3,2.3c-0.7,0.8-1.4,1.5-2.1,2.2c-2.7,2.7-5,4.9-6.6,6.3c-0.8,0.7-1.4,1.3-1.9,1.6c-0.2,0.2-0.4,0.3-0.5,0.4
	C96.7,215.7,96.6,215.7,96.6,215.7L96.6,215.7z"/>
<g class="st10">
	<path class="st4" d="M77.5,194.5c-1.1-1.1-2.2-2.2-3.5-3s-3.2-1.8-4.4-1c-0.6,0.7-1.1,1.4-1.4,2.2c-0.1,0.3-0.2,0.6-0.1,0.9
		c0.2,0.3,0.6,0.4,1,0.5c2.7,0.3,5.4,0.7,8.2,1c0.2,0,0.4,0,0.4-0.1C77.7,194.8,77.6,194.6,77.5,194.5z"/>
</g>
<g class="st10">
	<path d="M109.3,189.3c20.8,5.5,42.8,4.2,64.2,1.7c3.3-0.4,6.9-0.9,9.1-3.4"/>
</g>
<path class="st7" d="M186.8,170.1c-8.1-1.1-25.2-1.7-42.2-1.7s-34.1,0.6-42.2,1.7c-2.5,0.4-4.2,2.9-3.5,5.4v0.1
	c0.9,2.9,4.4,12.2,10,13.6c2.6,0.6,17.2,1.3,32.8,1.4l0,0c1,0,1.9,0,2.9,0s1.9,0,2.9,0l0,0c15.6-0.1,30.2-0.7,32.8-1.4
	c5.6-1.4,9.1-10.7,10-13.6v-0.1C191,173,189.4,170.5,186.8,170.1z"/>
<path class="st7" d="M188.9,188c0,0-0.1,0-0.2,0.1c-0.1,0.1-0.4,0.2-0.6,0.3c-0.3,0.1-0.6,0.3-1,0.5c-0.2,0.1-0.4,0.2-0.7,0.3
	c-0.2,0.1-0.5,0.2-0.8,0.3c-2.2,1-5.4,2.3-9.6,3.4c-4.2,1.1-9.2,2-14.8,2.5s-11.9,0.6-18.4,0.6s-12.8-0.3-18.4-1.1
	c-5.6-0.7-10.6-1.9-14.7-3.3c-4.1-1.3-7.2-2.9-9.3-4c-0.5-0.3-1-0.6-1.4-0.8s-0.7-0.4-1-0.6c-0.3-0.2-0.5-0.3-0.6-0.4
	c-0.1-0.1-0.2-0.1-0.2-0.1s0.1,0,0.2,0.1s0.3,0.2,0.6,0.4c0.3,0.2,0.6,0.4,1,0.6c0.4,0.2,0.9,0.5,1.4,0.8c2.1,1.1,5.3,2.6,9.3,3.9
	c4.1,1.3,9,2.5,14.7,3.2c5.6,0.7,11.8,1,18.4,1.1c6.5,0,12.8-0.1,18.4-0.6c5.6-0.5,10.7-1.4,14.8-2.4c4.1-1.1,7.4-2.3,9.6-3.3
	c0.3-0.1,0.5-0.2,0.8-0.3c0.2-0.1,0.5-0.2,0.7-0.3c0.4-0.2,0.8-0.4,1-0.5c0.3-0.1,0.5-0.2,0.6-0.3C188.8,188,188.9,188,188.9,188
	L188.9,188z"/>
<path class="st8" d="M189.9,174.7c0,0.1-20.3,0.1-45.3,0.1s-45.3,0-45.3-0.1s20.3-0.1,45.3-0.1S189.9,174.6,189.9,174.7z"/>
<path class="st8" d="M189.9,171.9c0,0-20.3,0.1-45.3,0.1s-45.3,0-45.3-0.1s20.3-0.1,45.3-0.1S189.9,171.9,189.9,171.9z"/>
<path class="st8" d="M177.1,169.2c0,0.1-14.5,0.1-32.4,0.1s-32.5,0-32.5-0.1s14.5-0.1,32.5-0.1C162.5,169.1,177.1,169.1,177.1,169.2
	z"/>
<path class="st8" d="M189.9,177.5c0,0-20.3,0.1-45.3,0.1s-45.3,0-45.3-0.1s20.3-0.1,45.3-0.1S189.9,177.4,189.9,177.5z"/>
<path class="st8" d="M187.9,180.3c0,0-19.5,0.1-43.5,0.1s-43.5,0-43.5-0.1s19.5-0.1,43.5-0.1S187.9,180.2,187.9,180.3z"/>
<path class="st8" d="M187,183.1c0,0.1-19,0.1-42.4,0.1s-42.4,0-42.4-0.1c0,0,19-0.1,42.4-0.1S187,183,187,183.1z"/>
<path class="st8" d="M184.8,185.9c0,0.1-18,0.1-40.2,0.1s-40.2,0-40.2-0.1c0,0,18-0.1,40.2-0.1C166.8,185.8,184.8,185.8,184.8,185.9
	z"/>
<path class="st8" d="M182.1,188.7c0,0.1-16.7,0.1-37.2,0.1s-37.2,0-37.2-0.1s16.7-0.1,37.2-0.1S182.1,188.6,182.1,188.7z"/>
<path class="st4" d="M75.4,217.7L75.4,217.7c0.2,0.6-0.3,1.3-0.9,1.3l-5.9-0.1c-0.5,0-0.8-0.5-0.9-0.9v-0.3
	c-0.1-0.6,0.5-1.1,1.1-1.1l5.9,0.4C74.9,217,75.3,217.3,75.4,217.7L75.4,217.7z"/>
<path class="st8" d="M185.6,214.2c0,0.1-19,0.1-42.5,0.1s-42.5,0-42.5-0.1c0,0,19-0.1,42.5-0.1S185.6,214.2,185.6,214.2z"/>
<path class="st8" d="M119.3,217.3h-2.5l-0.2-3.1h2.9L119.3,217.3z"/>
<path class="st8" d="M142.6,217.3h-2.5l-0.2-3.1h2.9L142.6,217.3z"/>
<path class="st8" d="M165.9,217.3h-2.5l-0.2-3.1h2.9L165.9,217.3z"/>
<path class="st8" d="M184.3,213.1c-4.5-3.9-10.6-9.9-13.7-10.4c-3.8-0.7-22.2-1.1-28.1-0.9c-5.9-0.2-24.3,0.2-28.1,0.9
	c-2.9,0.5-8.3,6.2-12.6,10.4H184.3L184.3,213.1z"/>
<path class="st7" d="M64.2,211.1c0,0,0.1-0.1,0.2-0.2c0.1-0.1,0.3-0.3,0.6-0.5c0.5-0.4,1.3-1,2.2-1.8l0,0l0,0
	c2.9,0.4,7.3,0.9,12.3,1.5c2.4,0.3,4.7,0.6,6.7,0.8l0,0l0,0c2.5,1.3,4.5,2.5,6,3.3c0.7,0.4,1.3,0.7,1.7,1l0.4,0.3
	c0.1,0.1,0.2,0.1,0.1,0.1c0,0-0.1,0-0.2-0.1s-0.3-0.1-0.5-0.2c-0.4-0.2-1-0.5-1.7-0.9c-1.5-0.8-3.6-1.9-6-3.2l0,0
	c-2-0.3-4.3-0.5-6.7-0.8c-4.9-0.6-9.3-1.2-12.3-1.6l0,0c-1,0.7-1.7,1.3-2.3,1.8c-0.3,0.2-0.5,0.3-0.6,0.5
	C64.2,211,64.2,211.1,64.2,211.1L64.2,211.1z"/>
<path class="st7" d="M94.5,204.3c0,0,1.2-2,0-2.6c-1.4-0.6-24.5-3.4-25.5-3.5c-1.9-0.2-2.6,0.7-3,2.9s-1.4,7.7,0.4,9.3
	c1.9,1.6,4.8,2.3,10.5,2.6c5.7,0.4,8.7,0.5,11.6-1S94.5,204.3,94.5,204.3L94.5,204.3z"/>
<path class="st7" d="M93.4,186.1c-0.1,0-0.4-0.6-0.9-1.7c-0.6-1.1-1.4-2.7-2.4-4.6c-0.5-1-1.1-2-1.8-3.1c-0.7-1.1-1.4-2.3-2.3-3.4
	c-0.5-0.6-0.9-1.1-1.5-1.5c-0.6-0.5-1.2-0.9-1.8-1.3c-0.7-0.4-1.4-0.8-2.1-1.1c-0.7-0.4-1.4-0.8-2.2-1.1c-1.5-0.7-3-1.4-4.4-1.8
	c-0.7-0.2-1.5-0.4-2.2-0.6s-1.4-0.3-2.1-0.2c-0.7,0-1.3,0.2-1.8,0.5s-0.8,0.9-1,1.4c-0.2,0.6-0.4,1.2-0.5,1.7
	c-0.1,0.6-0.3,1.2-0.4,1.7c-0.5,2.1-0.9,3.8-1.2,5.1c-0.3,1.2-0.4,1.9-0.5,1.8c-0.1,0,0-0.7,0.2-1.9s0.5-3,0.9-5.1
	c0.1-0.5,0.2-1.1,0.3-1.7c0.1-0.6,0.2-1.2,0.5-1.9c0.2-0.6,0.6-1.3,1.3-1.8c0.6-0.5,1.4-0.7,2.2-0.7c0.8,0,1.6,0.1,2.3,0.2
	c0.8,0.2,1.5,0.3,2.3,0.6c1.5,0.5,3.1,1.1,4.6,1.9c0.8,0.4,1.5,0.8,2.2,1.1c0.7,0.4,1.4,0.8,2.1,1.2s1.4,0.9,2,1.4s1.1,1.1,1.6,1.7
	c0.9,1.2,1.6,2.4,2.3,3.5c0.6,1.1,1.2,2.2,1.7,3.2c1,2,1.7,3.6,2.1,4.8C93.2,185.5,93.4,186.1,93.4,186.1L93.4,186.1z"/>
<path class="st2" d="M72.5,174.5c1.8,0,3.4,1,4.2,2.5c0.4-0.7,0.6-1.5,0.6-2.3c0-2.6-2.1-4.8-4.8-4.8c-2.6,0-4.8,2.1-4.8,4.8
	c0,0.8,0.2,1.6,0.6,2.3C69.1,175.5,70.7,174.5,72.5,174.5z"/>
<path class="st4" d="M72.5,176.6c1.1,0,2.1-0.9,2.1-2.1c0-1.1-0.9-2.1-2.1-2.1c-1.1,0-2.1,0.9-2.1,2.1S71.3,176.6,72.5,176.6z"/>
<path class="st7" d="M74.5,174.5c0,0,0-0.2-0.1-0.5s-0.3-0.7-0.8-1.1c-0.4-0.3-1.2-0.5-1.9-0.3c-0.7,0.2-1.3,1-1.3,1.9
	s0.6,1.6,1.3,1.9c0.7,0.3,1.4,0.1,1.9-0.3c0.5-0.3,0.7-0.8,0.8-1.1C74.5,174.7,74.5,174.5,74.5,174.5s0,0,0,0.1s0,0.2,0,0.4
	c-0.1,0.3-0.3,0.8-0.7,1.2c-0.5,0.4-1.2,0.6-2,0.3c-0.4-0.1-0.7-0.4-1-0.7c-0.3-0.4-0.4-0.8-0.4-1.3s0.2-0.9,0.4-1.3
	c0.3-0.4,0.6-0.6,1-0.7c0.8-0.3,1.5-0.1,2,0.3s0.7,0.9,0.7,1.2c0,0.2,0,0.3,0,0.4C74.5,174.5,74.5,174.5,74.5,174.5L74.5,174.5z"/>
<path class="st7" d="M77.2,174.7c0,0,0-0.4-0.2-1.2c-0.2-0.7-0.7-1.8-1.7-2.6c-0.5-0.4-1.2-0.7-2-0.9c-0.8-0.1-1.6-0.1-2.5,0.2
	c-0.4,0.1-0.8,0.4-1.2,0.6c-0.4,0.3-0.7,0.6-1,1c-0.6,0.8-0.9,1.7-0.9,2.8c0,1,0.3,2,0.9,2.8c0.3,0.4,0.6,0.7,1,1s0.8,0.5,1.2,0.6
	c0.8,0.3,1.7,0.3,2.5,0.2s1.4-0.5,2-0.9c1.1-0.8,1.6-1.9,1.7-2.6C77.2,175.1,77.2,174.7,77.2,174.7s0,0.1,0,0.3c0,0.1,0,0.2,0,0.4
	c0,0.1,0,0.3-0.1,0.5c-0.2,0.7-0.6,1.8-1.7,2.7c-0.5,0.4-1.2,0.8-2,0.9s-1.7,0.1-2.5-0.2c-0.4-0.1-0.8-0.4-1.2-0.7
	c-0.4-0.3-0.7-0.6-1-1c-0.6-0.8-0.9-1.8-0.9-2.9c0-1.1,0.3-2.1,0.9-2.9c0.3-0.4,0.6-0.7,1-1s0.8-0.5,1.2-0.7
	c0.9-0.3,1.8-0.3,2.5-0.2c0.8,0.1,1.5,0.5,2,0.9c1.1,0.8,1.6,1.9,1.7,2.7c0.1,0.2,0.1,0.4,0.1,0.5s0,0.3,0,0.4
	C77.2,174.6,77.2,174.7,77.2,174.7z"/>
<path class="st4" d="M74.3,171.3c-0.1,0.1-0.5,0-1.2-0.1s-1.6,0-2.4,0.4c-0.8,0.5-1.4,1.2-1.7,1.8c-0.3,0.6-0.4,1-0.6,1
	c-0.1,0-0.3-0.5,0-1.2c0.2-0.7,0.8-1.8,1.9-2.4c1.1-0.6,2.3-0.5,3-0.3C74,170.8,74.3,171.2,74.3,171.3L74.3,171.3z"/>
<path class="st4" d="M75.5,172c-0.2,0.1-0.4,0.2-0.5,0.2c0-0.1,0-0.3,0.2-0.5c0.1-0.2,0.4-0.3,0.5-0.2
	C75.8,171.7,75.7,171.9,75.5,172L75.5,172z"/>
<path class="st7" d="M102.5,192.7c-0.1,0.2-6.4-1.2-14.2-3.1c-7.8-2-14.1-3.8-14-4s6.4,1.1,14.2,3.1S102.6,192.4,102.5,192.7
	L102.5,192.7z"/>
<path class="st7" d="M64.9,166.6c0,0,0,0,0-0.1s0-0.2,0.1-0.3c0.1-0.3,0.2-0.7,0.4-1.2c0.3-0.5,0.7-1,1.4-1.4
	c0.2-0.1,0.4-0.2,0.5-0.3c0.2-0.1,0.4-0.1,0.6-0.2c0.2,0,0.4-0.1,0.7-0.1c0.2,0,0.5,0,0.7,0c1,0.1,2,0.3,3.1,0.6s2.2,0.7,3.5,1.1
	c2.4,0.8,5,1.8,7.7,3.1c0.3,0.2,0.7,0.3,1,0.5s0.6,0.4,0.9,0.6c0.6,0.5,1.1,1,1.5,1.5c0.8,1.1,1.6,2.2,2.3,3.3
	c1.4,2.1,2.6,4.1,3.6,5.7c1,1.7,1.7,3,2.2,4c0.3,0.5,0.4,0.8,0.6,1.1c0.1,0.1,0.1,0.2,0.1,0.3s0,0.1,0,0.1s0,0-0.1-0.1
	c0-0.1-0.1-0.2-0.2-0.3c-0.1-0.3-0.3-0.6-0.6-1.1c-0.5-0.9-1.3-2.3-2.3-3.9c-1-1.6-2.2-3.6-3.6-5.7c-0.7-1-1.5-2.2-2.3-3.3
	c-0.4-0.5-0.9-1-1.5-1.5c-0.3-0.2-0.6-0.4-0.9-0.6s-0.6-0.3-1-0.5c-2.7-1.2-5.3-2.2-7.7-3.1c-1.2-0.4-2.4-0.8-3.4-1.1
	c-1.1-0.3-2.1-0.5-3.1-0.6c-0.2,0-0.5,0-0.7,0s-0.4,0.1-0.7,0.1c-0.2,0-0.4,0.1-0.6,0.2s-0.4,0.2-0.5,0.3c-0.7,0.4-1.1,0.9-1.3,1.4
	c-0.3,0.5-0.4,0.9-0.5,1.1c0,0.1-0.1,0.2-0.1,0.3C64.9,166.6,64.9,166.6,64.9,166.6L64.9,166.6z"/>
<path class="st7" d="M66.1,139.7c0,0-0.1,0.1-0.2,0.4c-0.2,0.2-0.4,0.6-0.6,1c-0.5,0.9-1.2,2.1-1.8,3.6c-0.6,1.4-1.1,2.8-1.4,3.8
	c-0.1,0.5-0.3,0.9-0.3,1.2c-0.1,0.3-0.1,0.4-0.1,0.4s0-0.2,0.1-0.4c0-0.3,0.1-0.7,0.3-1.2c0.3-1,0.7-2.4,1.3-3.8s1.3-2.7,1.9-3.6
	c0.3-0.4,0.5-0.8,0.7-1C66,139.8,66.1,139.7,66.1,139.7z"/>
<g class="st10">
	<path class="st4" d="M63.5,168.6c-0.4,0.1-2.3,1.3-3.1,1.8s-1.5,1.2-1.8,2.1c-0.2,0.9,0,1.9,0.3,2.8c0.8,2.9,1.8,8.2,2.7,11.1
		C62.2,181,62.9,172,63.5,168.6"/>
</g>
<path class="st8" d="M89.9,210.8c0,0-5.5-0.7-12.3-1.6c-6.8-0.9-12.3-1.7-12.2-1.8c0-0.1,5.5,0.7,12.3,1.6
	C84.4,209.9,89.9,210.7,89.9,210.8z"/>
<path class="st8" d="M88.2,212.1c0,0-0.1,0-0.2,0c-0.2,0-0.4,0-0.7-0.1c-0.6-0.1-1.4-0.2-2.4-0.3c-2.1-0.2-4.9-0.6-8-1s-5.9-0.7-8-1
	c-1-0.1-1.8-0.3-2.4-0.4c-0.3,0-0.5-0.1-0.7-0.1c-0.1,0-0.2,0-0.2-0.1c0,0,0.1,0,0.2,0c0.2,0,0.4,0,0.7,0.1c0.6,0.1,1.4,0.2,2.4,0.3
	c2.1,0.2,4.9,0.6,8,1s5.9,0.7,8,1c1,0.1,1.8,0.3,2.4,0.4c0.3,0,0.5,0.1,0.7,0.1C88.1,212.1,88.2,212.1,88.2,212.1z"/>
<path class="st8" d="M84.3,213.1c0,0-0.9,0-2.3-0.2c-1.5-0.1-3.5-0.4-5.7-0.6c-2.2-0.3-4.2-0.5-5.7-0.7c-0.7-0.1-1.3-0.2-1.7-0.2
	c-0.4-0.1-0.6-0.1-0.6-0.1s0.2,0,0.6,0s1,0.1,1.7,0.2c1.5,0.2,3.5,0.4,5.7,0.6c2.2,0.3,4.2,0.5,5.7,0.7c0.7,0.1,1.3,0.2,1.7,0.2
	C84.1,213.1,84.4,213.1,84.3,213.1L84.3,213.1z"/>
<path class="st8" d="M91.2,209.2c0,0.1-5.8-0.7-12.9-1.6c-7.1-0.9-12.9-1.7-12.9-1.8c0,0,5.8,0.7,12.9,1.6
	C85.4,208.4,91.2,209.2,91.2,209.2L91.2,209.2z"/>
<path class="st8" d="M92.2,207.8c0,0.1-6-0.7-13.4-1.7s-13.4-1.8-13.3-1.8c0-0.1,6,0.7,13.4,1.7C86.2,207,92.2,207.8,92.2,207.8
	L92.2,207.8z"/>
<path class="st8" d="M93.3,206.1c0,0-6.2-0.7-13.7-1.7c-7.6-1-13.7-1.8-13.7-1.9c0-0.1,6.2,0.7,13.7,1.7
	C87.2,205.2,93.3,206.1,93.3,206.1L93.3,206.1z"/>
<path class="st8" d="M94.2,204.4c0,0.1-6.3-0.7-14-1.7s-14-1.9-14-1.9c0-0.1,6.3,0.7,14,1.7C88,203.5,94.2,204.4,94.2,204.4
	L94.2,204.4z"/>
<path class="st8" d="M95.1,202.7c0,0-6.3-0.7-14.1-1.8c-7.8-1-14.1-1.9-14.1-1.9s6.3,0.7,14.1,1.8C88.8,201.8,95.1,202.7,95.1,202.7
	L95.1,202.7z"/>
<path class="st8" d="M74.7,198.8c0,0-0.6,3.1-1.4,6.9c-0.8,3.8-1.5,6.8-1.5,6.8s0.6-3.1,1.4-6.9C73.9,201.9,74.6,198.8,74.7,198.8z"
	/>
<path class="st8" d="M72.4,198.4c0,0-0.6,3.1-1.4,6.9c-0.8,3.8-1.5,6.8-1.5,6.8s0.6-3.1,1.4-6.9C71.6,201.5,72.3,198.4,72.4,198.4z"
	/>
<path class="st8" d="M70,198c0,0-0.5,2.9-1.3,6.5s-1.4,6.5-1.5,6.5c0,0,0.5-2.9,1.3-6.5S70,198,70,198z"/>
<path class="st8" d="M67.5,198.6c0,0,0,0.1,0,0.4c-0.1,0.3-0.1,0.6-0.2,1.1c-0.2,0.9-0.4,2.1-0.6,3.5s-0.5,2.6-0.7,3.5
	c-0.1,0.4-0.2,0.8-0.2,1c-0.1,0.2-0.1,0.4-0.1,0.4s0-0.1,0-0.4c0.1-0.3,0.1-0.6,0.2-1.1c0.2-0.9,0.4-2.1,0.6-3.5s0.5-2.6,0.7-3.5
	c0.1-0.4,0.2-0.8,0.2-1C67.5,198.7,67.5,198.6,67.5,198.6L67.5,198.6z"/>
<path class="st8" d="M77.4,199.3c0,0-0.5,3-1.3,6.6c-0.8,3.7-1.4,6.6-1.5,6.6s0.5-3,1.3-6.6S77.3,199.3,77.4,199.3z"/>
<path class="st8" d="M80.1,199.8c0,0-0.5,3-1.3,6.6c-0.8,3.7-1.5,6.6-1.5,6.6s0.5-3,1.3-6.7C79.3,202.8,80,199.8,80.1,199.8
	L80.1,199.8z"/>
<path class="st8" d="M82.8,200c0,0-0.5,3-1.3,6.6s-1.4,6.6-1.5,6.6s0.5-3,1.3-6.6C82.1,202.9,82.8,200,82.8,200z"/>
<path class="st8" d="M85.5,200.3c0,0-0.5,2.9-1.3,6.6c-0.8,3.6-1.4,6.5-1.5,6.5c0,0,0.5-2.9,1.3-6.6
	C84.8,203.2,85.5,200.3,85.5,200.3z"/>
<path class="st8" d="M88.2,200.9c0,0-0.5,2.8-1.2,6.1c-0.7,3.4-1.3,6.1-1.4,6.1c0,0,0.5-2.8,1.2-6.1
	C87.5,203.6,88.2,200.9,88.2,200.9z"/>
<path class="st8" d="M90.9,201.1c0,0-0.5,2.6-1.1,5.7c-0.7,3.2-1.3,5.7-1.3,5.7s0.5-2.6,1.1-5.7C90.3,203.6,90.9,201.1,90.9,201.1
	L90.9,201.1z"/>
<path class="st8" d="M93.6,201.5c0.1,0-0.2,1.5-0.6,3.4s-0.8,3.4-0.8,3.4s0.2-1.5,0.6-3.4S93.6,201.5,93.6,201.5z"/>
<path class="st7" d="M182.2,211.7c0,0.1-17.7,0.1-39.4,0.1c-21.8,0-39.4,0-39.4-0.1c0,0,17.7-0.1,39.4-0.1
	C164.6,211.6,182.2,211.7,182.2,211.7z"/>
<path class="st7" d="M180.7,209.9c0,0.1-16.9,0.1-37.7,0.1s-37.7,0-37.7-0.1s16.9-0.1,37.7-0.1C163.8,209.8,180.7,209.9,180.7,209.9
	z"/>
<path class="st7" d="M178.3,208.1c0,0.1-16,0.1-35.7,0.1s-35.7,0-35.7-0.1c0,0,16-0.1,35.7-0.1S178.3,208.1,178.3,208.1z"/>
<path class="st7" d="M176.8,206.3c0,0.1-15.2,0.1-34,0.1s-34,0-34-0.1s15.2-0.1,34-0.1C161.5,206.2,176.8,206.2,176.8,206.3z"/>
<path class="st7" d="M174.1,204.5c0,0.1-14.1,0.1-31.5,0.1s-31.5,0-31.5-0.1c0,0,14.1-0.1,31.5-0.1S174.1,204.5,174.1,204.5z"/>
<path class="st7" d="M171.2,202.8c0,0.1-12.8,0.1-28.5,0.1s-28.5,0-28.5-0.1c0,0,12.7-0.1,28.5-0.1S171.2,202.8,171.2,202.8z"/>
<g class="st10">
	<path d="M148.6,147.4l-66-0.1c0,0,2.7,3.3,7.8,3.2c4.6,0,49.3,0,57.1,0c0,0,0.2,0,0.5,0c0.4,0,0.6,0,0.6,0c7.2,0,45.7,0,49.7,0
		c4.4,0,6.5-3.1,6.5-3.1L148.6,147.4L148.6,147.4z"/>
</g>
<path class="st7" d="M205.1,146l-12.5-21.7c-0.2-0.3-0.6-0.6-0.9-0.6l-43-1.8l-4.1-0.2c-0.5,0-1,0-1.5,0l-4.1,0.2l-43,1.8
	c-0.4,0-0.7,0.2-0.9,0.6L82.5,146c-0.4,0.7,0,1.6,0.8,1.7c0.2,0,0.4,0.1,0.6,0.1c1.1,0.1,44.7,0,59.9,0s58.8,0.1,59.9,0
	c0.2,0,0.4,0,0.6-0.1C205,147.6,205.5,146.7,205.1,146L205.1,146z M199.3,145.1l-55.5,0.4l-55.5-0.4c-0.9,0-1.4-1-1-1.7
	c2.4-4.1,8.4-14.5,9.4-15.7c1.7-2.2,28.8-2.5,43.2-2.5c0.1,0,0.2,0,0.3,0c0.8,0,2.1,0,3.7,0c1.6,0,2.9,0,3.7,0c0.1,0,0.2,0,0.3,0
	c14.4,0,41.4,0.3,43.2,2.5c1,1.2,7,11.6,9.4,15.7C200.7,144.1,200.2,145.1,199.3,145.1z"/>
<path class="st7" d="M157.9,143.9c0-1.2,0.5-4.7,1.6-5.7c0.9-0.7,3-0.9,4-1h0.1c0.5,0,4.2,0.1,5.3,1s1.6,4.4,1.6,5.7l0,0
	c0,0.8-0.6,1.4-1.4,1.4h-9.9C158.5,145.3,157.9,144.7,157.9,143.9L157.9,143.9L157.9,143.9z"/>
<g class="st10">
	<path d="M157.9,143.9c0-1.2,0.5-4.7,1.6-5.7c0.9-0.7,3-0.9,4-1h0.1c0.5,0,4.2,0.1,5.3,1s1.6,4.4,1.6,5.7l0,0c0,0.8-0.6,1.4-1.4,1.4
		h-9.9C158.5,145.3,157.9,144.7,157.9,143.9L157.9,143.9L157.9,143.9z"/>
</g>
<path class="st7" d="M162.9,143c0-2,0.8-7.7,2.7-9.3c1.4-1.2,4.9-1.5,6.6-1.6c0.1,0,0.1,0,0.2,0c0.9,0,6.9,0.2,8.7,1.6
	c1.9,1.5,2.7,7.2,2.7,9.3v0.1c0,1.3-1,2.3-2.3,2.3h-16.2C163.9,145.3,162.9,144.3,162.9,143L162.9,143L162.9,143z"/>
<g class="st10">
	<path d="M182.7,202.1c0,0-0.3,1.6,3.5,7c1.2,1.6,4.8,4.9,6.2,6.1c0.3,0.3,0.8,0.4,1.2,0.4c3.8-0.2,22.2-1,25.2-1.9
		c1.4-0.4,2.4-0.9,3.2-1.3c1.3-0.8,2.1-2.3,2.1-3.8c-0.1-2.6-0.3-7.3-0.3-8.5c0-1.7-1.2-3.2-3.4-2.9
		C218.9,197.4,182.7,202.1,182.7,202.1L182.7,202.1z M194.5,201.7l23.8-2.2l0.7,9.6l-17.5,2.8L194.5,201.7L194.5,201.7z"/>
</g>
<g class="st10">
	<path d="M223.3,177.5c0,0,1.8,5.5-9.6,8c-11.5,2.6-28.6,7.2-28.6,7.2l9.2-6.5c0,0,26.4-4.4,27.1-8.4c0.8-4.6,0-9.8,0-9.8
		L223.3,177.5z"/>
</g>
<path class="st7" d="M178.7,202c0,0,0,0,0.1,0s0.2-0.1,0.4-0.1c0.3-0.1,0.8-0.2,1.4-0.4c1.2-0.3,2.9-0.8,5.1-1.3
	c4.3-1,10.3-2.2,17-3.3c3.3-0.5,6.5-1,9.4-1.4c1.5-0.2,2.8-0.4,4.1-0.6c1.3-0.2,2.5-0.3,3.6-0.3s2.1,0.3,2.9,0.8
	c0.7,0.5,1.2,1.1,1.5,1.7c0.3,0.5,0.5,1,0.6,1.3s0.1,0.5,0.1,0.5s0-0.7-0.7-1.8c-0.3-0.5-0.8-1.1-1.5-1.6s-1.7-0.8-2.8-0.8
	s-2.3,0.1-3.6,0.3s-2.7,0.4-4.1,0.6c-2.9,0.4-6.1,0.9-9.4,1.4c-6.7,1.1-12.7,2.3-17,3.2c-2.2,0.5-3.9,0.9-5.1,1.2
	c-0.6,0.1-1.1,0.3-1.4,0.3c-0.2,0-0.3,0.1-0.4,0.1C178.7,201.9,178.7,201.9,178.7,202L178.7,202z"/>
<path class="st7" d="M224.7,187.9c0,0,0-0.1,0-0.2c0-0.2,0-0.3,0-0.6c0-0.5,0-1.3-0.1-2.1c-0.1-1.8-0.2-4.3-0.4-7s-0.6-5.2-0.8-7
	c-0.1-0.9-0.2-1.6-0.3-2.1c0-0.2-0.1-0.4-0.1-0.6c0-0.1,0-0.2,0-0.2s0,0.1,0.1,0.2c0,0.1,0.1,0.3,0.1,0.6c0.1,0.5,0.2,1.2,0.4,2.1
	c0.3,1.8,0.6,4.3,0.9,7c0.2,2.8,0.3,5.2,0.4,7.1c0,0.9,0,1.6,0,2.1c0,0.2,0,0.4,0,0.6C224.7,187.8,224.7,187.9,224.7,187.9z"/>
<path class="st7" d="M216.8,163.3c0,0,0-0.6-0.2-1.6s-0.5-2.3-1-3.8s-0.9-2.8-1.3-3.7c-0.2-0.4-0.3-0.8-0.4-1.1
	c-0.1-0.3-0.1-0.4-0.1-0.4s0.1,0.1,0.2,0.4c0.1,0.3,0.3,0.6,0.5,1.1c0.4,0.9,0.9,2.2,1.3,3.7c0.5,1.5,0.8,2.8,0.9,3.8
	c0,0.2,0.1,0.5,0.1,0.7s0,0.4,0,0.5C216.8,163.1,216.8,163.3,216.8,163.3z"/>
<path class="st0" d="M214.6,165.8c0,0,5.9-2.2,6.7,2.4c0.8,4.6,0.7,9.2-0.3,10.8s-10.2,3.8-10.2,3.8l-15.9,3.5c0,0-1.1,0.2-0.5-1.1
	c0.8-1.4,5-10.7,7.4-13C206.4,168.1,214.6,165.8,214.6,165.8L214.6,165.8z"/>
<g class="st10">
	<path d="M208.8,183.3c0,0,0-10.9,0.8-12.1c0.8-1.2,10.2-5.5,10.2-5.5s-0.9-0.8-2.8-0.4c-1.9,0.4-5,1.2-7.6,2.5s-6.7,3.2-8.3,5.4
		c-0.7,1-2.1,3.2-3.4,5.7c-1.7,3.2-3.4,6.7-3.4,6.8c0,0.4-0.1,0.8,1.4,0.4C199.3,185.4,208.8,183.3,208.8,183.3L208.8,183.3z"/>
</g>
<path class="st0" d="M203.6,182.3c2.1,0,3.9-1.7,3.9-3.9c0-2.1-1.7-3.9-3.9-3.9c-2.1,0-3.9,1.7-3.9,3.9
	C199.8,180.6,201.5,182.3,203.6,182.3z"/>
<path class="st7" d="M199.8,178.5c0,0,0-0.3,0.1-0.9c0.1-0.6,0.5-1.5,1.4-2.2c0.4-0.3,1-0.6,1.6-0.7c0.6-0.1,1.4-0.1,2.1,0.2
	c0.3,0.1,0.7,0.3,1,0.5s0.6,0.5,0.8,0.8c0.5,0.6,0.8,1.5,0.8,2.3c0,0.9-0.3,1.7-0.8,2.3c-0.2,0.3-0.5,0.6-0.8,0.8s-0.6,0.4-1,0.5
	c-0.7,0.3-1.4,0.3-2.1,0.2c-0.6-0.1-1.2-0.4-1.6-0.7c-0.9-0.7-1.3-1.6-1.4-2.2C199.7,178.8,199.8,178.5,199.8,178.5s0,0.3,0.2,0.9
	c0.1,0.6,0.5,1.4,1.4,2.1c0.4,0.3,1,0.6,1.6,0.7s1.3,0.1,2-0.2c0.3-0.1,0.7-0.3,1-0.5s0.6-0.5,0.8-0.8c0.5-0.6,0.7-1.4,0.7-2.2
	s-0.3-1.6-0.7-2.2c-0.2-0.3-0.5-0.6-0.8-0.8s-0.6-0.4-1-0.5c-0.7-0.3-1.4-0.3-2-0.2s-1.2,0.4-1.6,0.7c-0.9,0.7-1.3,1.5-1.4,2.1
	C199.8,178.1,199.8,178.5,199.8,178.5L199.8,178.5z"/>
<path class="st2" d="M203.6,178.3c-1.4,0-2.6,0.8-3.3,1.9c-0.3-0.5-0.5-1.1-0.5-1.8c0-2.1,1.7-3.7,3.7-3.7c2.1,0,3.7,1.7,3.7,3.7
	c0,0.7-0.2,1.3-0.5,1.8C206.3,179.1,205,178.3,203.6,178.3L203.6,178.3z"/>
<path class="st4" d="M201.9,178.3c0,0.9,0.7,1.7,1.7,1.7c0.9,0,1.7-0.7,1.7-1.7s-0.7-1.7-1.7-1.7
	C202.7,176.7,201.9,177.4,201.9,178.3z"/>
<path class="st7" d="M201.9,178.3L201.9,178.3c0-0.2,0-0.3,0-0.4c0.1-0.3,0.2-0.6,0.6-1c0.4-0.3,1-0.5,1.6-0.3s1.2,0.9,1.2,1.6
	c0,0.8-0.5,1.4-1.2,1.6c-0.6,0.2-1.3,0-1.6-0.3c-0.4-0.3-0.5-0.7-0.6-1C201.9,178.4,201.9,178.3,201.9,178.3
	C201.9,178.4,201.9,178.4,201.9,178.3c0,0,0,0.2,0.1,0.4s0.2,0.6,0.6,0.9c0.4,0.3,0.9,0.4,1.5,0.2s1-0.8,1-1.5s-0.5-1.3-1-1.5
	c-0.6-0.2-1.1-0.1-1.5,0.2s-0.5,0.6-0.6,0.9C202,178.2,202,178.4,201.9,178.3L201.9,178.3z"/>
<path class="st4" d="M202.2,175.7c-0.1-0.1,0.2-0.4,0.8-0.7c0.6-0.2,1.6-0.3,2.5,0.2s1.4,1.3,1.5,2c0.1,0.6,0,1-0.1,1
	s-0.2-0.3-0.5-0.8s-0.7-1-1.4-1.4s-1.4-0.4-1.9-0.4C202.6,175.8,202.2,175.9,202.2,175.7z"/>
<path class="st4" d="M201.2,176.4c-0.2-0.1-0.3-0.4-0.2-0.5s0.3,0,0.5,0.2c0.1,0.2,0.2,0.4,0.2,0.4
	C201.6,176.6,201.4,176.5,201.2,176.4L201.2,176.4z"/>
<path class="st7" d="M68.5,217c0.2-0.4,0.6-0.7,1.4-0.6c2.2,0.3,25.5,0.8,28.7,0c3.2-0.8,13.9-12.9,18.4-13.7
	c3.8-0.7,22.2-1.1,28.1-0.9c5.9-0.2,24.3,0.2,28.1,0.9c4.5,0.8,15.1,14.1,18.3,14.9c3.2,0.8,26.7-0.9,28.9-1.2
	c0.8-0.1,1.2,0.2,1.4,0.6c0.4,0.8-0.2,1.8-1.2,1.8c-5,0.1-24.1,0.4-27.7,0.3c-3.8-0.1-42.2-0.8-48.6-0.9c-9.7,0.1-42.9,0.3-46.4,0.3
	c-4.1,0.1-23.2,0.4-28.2,0.3C68.7,218.8,68.1,217.8,68.5,217L68.5,217z"/>
<path class="st7" d="M151.7,123.3c-0.2,0,0,3.3-2.7,3.3c-2.7-0.1-7.8,0-7.8,0l-2.2-4.2L151.7,123.3z"/>
<path class="st7" d="M150.5,127.8c0.4,0,0.7,0.2,0.9,0.5c0.6,0.9,1.9,2.7,2,3.3c0,0.8-0.4,1.4-1.2,1.5c-0.7,0.1-15,0-16.4,0
	c-0.1,0-0.2,0-0.3,0c-0.4-0.1-1.4-0.4-1.3-1.1c0.1-0.6,1.2-2.5,1.7-3.5c0.2-0.4,0.6-0.6,1-0.6L150.5,127.8L150.5,127.8z"/>
<path class="st7" d="M194,122.4C194,122.4,194,122.5,194,122.4c0.1,0.1,0.1,0.2,0.2,0.3c0.1,0.2,0.3,0.5,0.5,0.9
	c0.4,0.8,1.1,1.9,1.8,3.3c1.5,2.8,3.7,6.6,6,10.8c1.9,3.4,3.7,6.6,5,9.1l0,0c1.7,1.3,3.1,2.4,4,3.2c0.5,0.4,0.8,0.7,1.1,0.9
	c0.1,0.1,0.2,0.2,0.3,0.2c0.1,0.1,0.1,0.1,0.1,0.1s0,0-0.1-0.1l-0.3-0.2c-0.3-0.2-0.7-0.5-1.1-0.9c-1-0.8-2.4-1.8-4.1-3.1l0,0l0,0
	c-1.4-2.5-3.2-5.7-5.1-9.1c-2.3-4.2-4.4-8-6-10.8c-0.8-1.4-1.4-2.5-1.8-3.3c-0.2-0.4-0.4-0.7-0.5-0.9
	C194.1,122.7,194,122.6,194,122.4C194,122.5,194,122.4,194,122.4L194,122.4z"/>
<path class="st7" d="M187.4,120.4c0,0,0.4,0,0.9,0.2c0.6,0.2,1.3,0.5,2.1,1c0.7,0.5,1.2,1.2,1.6,1.7c0.3,0.5,0.5,0.8,0.5,0.8
	s-0.2-0.3-0.6-0.7c-0.4-0.5-0.9-1.1-1.6-1.6c-0.7-0.5-1.4-0.8-2-1C187.8,120.6,187.4,120.5,187.4,120.4L187.4,120.4z"/>
<path class="st7" d="M190.9,215.7c0,0-0.1,0-0.2-0.1c-0.1-0.1-0.3-0.2-0.5-0.4c-0.5-0.3-1.1-0.9-1.9-1.6c-1.6-1.4-3.9-3.6-6.6-6.3
	c-0.7-0.7-1.4-1.4-2.1-2.2c-0.7-0.7-1.4-1.6-2.3-2.3c-0.9-0.7-1.9-1.3-3-1.7s-2.3-0.6-3.6-0.7c-0.6,0-1.3,0-1.9-0.1
	c-0.7,0-1.3,0-2,0c-1.3,0-2.7,0-4.1,0c-2.8,0-5.6-0.1-8.5-0.1c-11.7-0.1-22.3-0.2-30-0.3c-3.8,0-6.9-0.1-9.1-0.1c-1.1,0-1.9,0-2.5,0
	c-0.3,0-0.5,0-0.6,0s-0.2,0-0.2,0s0.1,0,0.2,0c0.2,0,0.4,0,0.6,0c0.6,0,1.4,0,2.5,0c2.2,0,5.3,0,9.1,0.1c7.7,0.1,18.3,0.1,30,0.2
	c2.9,0,5.8,0.1,8.5,0.1c1.4,0,2.7,0,4.1,0c0.7,0,1.3,0,2,0c0.6,0,1.3,0,1.9,0.1c1.3,0.1,2.5,0.3,3.6,0.8c1.1,0.4,2.2,1,3.1,1.7
	c0.9,0.7,1.6,1.6,2.3,2.3c0.7,0.8,1.4,1.5,2.1,2.2c2.7,2.7,4.9,4.9,6.5,6.3c0.8,0.7,1.4,1.3,1.9,1.6c0.2,0.2,0.4,0.3,0.5,0.4
	C190.9,215.7,191,215.7,190.9,215.7L190.9,215.7z"/>
<g class="st10">
	<path class="st4" d="M210.1,194.5c1.1-1.1,2.2-2.2,3.5-3s3.2-1.8,4.4-1c0.6,0.7,1.1,1.4,1.4,2.2c0.1,0.3,0.2,0.6,0.1,0.9
		c-0.2,0.3-0.6,0.4-1,0.5c-2.7,0.3-5.4,0.7-8.2,1c-0.2,0-0.4,0-0.4-0.1C209.8,194.8,210,194.6,210.1,194.5z"/>
</g>
<path class="st4" d="M212.2,217.7L212.2,217.7c-0.2,0.6,0.3,1.3,0.9,1.3l5.9-0.1c0.5,0,0.8-0.5,0.9-0.9v-0.3
	c0.1-0.6-0.5-1.1-1.1-1.1l-5.9,0.4C212.6,217,212.3,217.3,212.2,217.7L212.2,217.7z"/>
<path class="st8" d="M102,214.2c0,0,19-0.1,42.5-0.1s42.5,0,42.5,0.1s-19,0.1-42.5,0.1S102,214.3,102,214.2z"/>
<path class="st8" d="M168.3,217.3h2.5l0.2-3.1h-2.9L168.3,217.3z"/>
<path class="st8" d="M145,217.3h2.5l0.2-3.1h-2.9L145,217.3z"/>
<path class="st8" d="M121.6,217.3h2.5l0.2-3.1h-2.9L121.6,217.3z"/>
<path class="st8" d="M103.3,213.1c4.5-3.9,10.6-9.9,13.7-10.4c3.8-0.7,22.2-1.1,28.1-0.9c5.9-0.2,24.3,0.2,28.1,0.9
	c2.9,0.5,8.3,6.2,12.6,10.4H103.3z"/>
<path class="st7" d="M223.4,211.1c0,0-0.1,0-0.2-0.2l-0.6-0.5c-0.5-0.4-1.3-1-2.3-1.8l0,0c-2.9,0.4-7.3,0.9-12.3,1.6
	c-2.4,0.3-4.7,0.6-6.7,0.8l0,0c-2.5,1.3-4.6,2.4-6,3.2c-0.7,0.4-1.3,0.7-1.7,0.9c-0.2,0.1-0.3,0.2-0.5,0.2c-0.1,0.1-0.2,0.1-0.2,0.1
	s0.1,0,0.1-0.1c0.1-0.1,0.3-0.2,0.4-0.3c0.4-0.2,1-0.6,1.7-1c1.5-0.8,3.6-2,6-3.3l0,0l0,0c2-0.3,4.3-0.5,6.7-0.9
	c4.9-0.6,9.3-1.1,12.3-1.5l0,0l0,0c0.9,0.8,1.7,1.4,2.2,1.8c0.2,0.2,0.4,0.4,0.6,0.5C223.3,211,223.4,211.1,223.4,211.1L223.4,211.1
	z"/>
<path class="st7" d="M193,204.3c0,0-1.2-2,0-2.6c1.4-0.6,24.5-3.4,25.5-3.5c1.9-0.2,2.6,0.7,3,2.9s1.4,7.7-0.4,9.3
	c-1.9,1.6-4.8,2.3-10.5,2.6c-5.7,0.4-8.7,0.5-11.6-1C196.2,210.5,193,204.3,193,204.3L193,204.3z"/>
<path class="st7" d="M194.2,186.1c-0.1,0,0.2-0.7,0.6-1.8c0.5-1.1,1.2-2.8,2.1-4.8c0.5-1,1-2.1,1.7-3.2c0.6-1.1,1.4-2.3,2.3-3.5
	c0.5-0.6,1-1.2,1.6-1.7s1.3-1,2-1.4s1.4-0.8,2.1-1.2c0.7-0.4,1.5-0.8,2.2-1.1c1.5-0.7,3-1.4,4.6-1.9c0.8-0.2,1.5-0.4,2.3-0.6
	s1.5-0.3,2.3-0.2c0.8,0,1.6,0.3,2.2,0.7c0.6,0.5,1,1.2,1.3,1.8c0.2,0.6,0.4,1.3,0.5,1.9c0.1,0.6,0.2,1.2,0.3,1.7
	c0.4,2.2,0.7,3.9,0.9,5.1s0.2,1.9,0.2,1.9c-0.1,0-0.2-0.7-0.5-1.8c-0.3-1.2-0.7-2.9-1.2-5.1c-0.1-0.5-0.3-1.1-0.4-1.7
	c-0.1-0.6-0.3-1.2-0.5-1.7c-0.2-0.6-0.6-1.1-1-1.4c-0.5-0.3-1.1-0.5-1.8-0.5s-1.4,0.1-2.1,0.2c-0.7,0.2-1.5,0.3-2.2,0.6
	c-1.5,0.5-3,1.1-4.4,1.8c-0.7,0.4-1.5,0.7-2.2,1.1c-0.7,0.4-1.4,0.7-2.1,1.1c-0.7,0.4-1.3,0.8-1.8,1.3c-0.6,0.5-1,1-1.5,1.5
	c-0.9,1.1-1.6,2.3-2.3,3.4c-0.7,1.1-1.2,2.1-1.8,3.1c-1,1.9-1.8,3.5-2.4,4.6C194.6,185.6,194.3,186.2,194.2,186.1L194.2,186.1z"/>
<path class="st2" d="M215.1,174.5c-1.8,0-3.4,1-4.2,2.5c-0.4-0.7-0.6-1.5-0.6-2.3c0-2.6,2.1-4.8,4.8-4.8c2.6,0,4.8,2.1,4.8,4.8
	c0,0.8-0.2,1.6-0.6,2.3C218.5,175.5,216.9,174.5,215.1,174.5z"/>
<path class="st4" d="M213,174.5c0,1.1,0.9,2.1,2.1,2.1c1.1,0,2.1-0.9,2.1-2.1c0-1.1-0.9-2.1-2.1-2.1
	C213.9,172.5,213,173.4,213,174.5z"/>
<path class="st7" d="M213,174.5c0,0,0,0,0-0.1s0-0.2,0-0.4c0.1-0.3,0.3-0.8,0.7-1.2c0.5-0.4,1.2-0.6,2-0.3c0.4,0.1,0.7,0.4,1,0.7
	c0.3,0.4,0.4,0.8,0.4,1.3s-0.2,0.9-0.4,1.3c-0.3,0.4-0.6,0.6-1,0.7c-0.8,0.3-1.5,0.1-2-0.3s-0.7-0.9-0.7-1.2c0-0.2,0-0.3,0-0.4
	V174.5c0,0,0,0.2,0.1,0.5s0.3,0.7,0.8,1.1c0.4,0.3,1.2,0.5,1.9,0.3s1.3-1,1.3-1.9s-0.6-1.6-1.3-1.9c-0.7-0.3-1.4-0.1-1.9,0.3
	c-0.5,0.3-0.7,0.8-0.8,1.1C213,174.3,213,174.5,213,174.5L213,174.5z"/>
<path class="st7" d="M210.3,174.7c0,0,0-0.1,0-0.3c0-0.1,0-0.2,0-0.4c0-0.1,0-0.3,0.1-0.5c0.2-0.7,0.6-1.8,1.7-2.7
	c0.5-0.4,1.2-0.8,2-0.9s1.7-0.1,2.5,0.2c0.4,0.1,0.8,0.4,1.2,0.7s0.7,0.6,1,1c0.6,0.8,0.9,1.8,0.9,2.9c0,1.1-0.3,2.1-0.9,2.9
	c-0.3,0.4-0.6,0.7-1,1s-0.8,0.5-1.2,0.7c-0.9,0.3-1.8,0.3-2.5,0.2c-0.8-0.1-1.5-0.5-2-0.9c-1.1-0.8-1.6-1.9-1.7-2.7
	c-0.1-0.2-0.1-0.4-0.1-0.5s0-0.3,0-0.4C210.3,174.8,210.3,174.7,210.3,174.7s0,0.4,0.2,1.2c0.2,0.7,0.7,1.8,1.7,2.6
	c0.5,0.4,1.2,0.7,2,0.9c0.8,0.1,1.6,0.1,2.5-0.2c0.4-0.1,0.8-0.4,1.2-0.6c0.4-0.3,0.7-0.6,1-1c0.6-0.8,0.9-1.8,0.9-2.8
	s-0.3-2-0.9-2.8c-0.3-0.4-0.6-0.7-1-1s-0.8-0.5-1.2-0.6c-0.8-0.3-1.7-0.3-2.5-0.2s-1.4,0.5-2,0.9c-1.1,0.8-1.6,1.9-1.7,2.6
	C210.3,174.2,210.3,174.7,210.3,174.7z"/>
<path class="st4" d="M213.3,171.3c-0.1-0.1,0.3-0.5,1-0.7c0.7-0.3,1.9-0.3,3,0.3s1.7,1.6,1.9,2.4c0.2,0.8,0.1,1.2-0.1,1.2
	c-0.1,0-0.2-0.4-0.6-1c-0.3-0.6-0.9-1.3-1.7-1.8c-0.9-0.5-1.8-0.5-2.4-0.4C213.8,171.3,213.4,171.4,213.3,171.3L213.3,171.3z"/>
<path class="st4" d="M212.1,172c-0.2-0.1-0.3-0.4-0.2-0.5s0.4,0,0.5,0.2s0.2,0.4,0.2,0.5C212.5,172.3,212.3,172.2,212.1,172
	L212.1,172z"/>
<path class="st7" d="M185,192.7c-0.1-0.2,6.2-2,14-4s14.2-3.4,14.2-3.1c0.1,0.2-6.2,2-14,4C191.5,191.5,185.1,192.9,185,192.7
	L185,192.7z"/>
<path class="st7" d="M222.6,166.6c0,0,0,0,0-0.1s0-0.2-0.1-0.3c-0.1-0.3-0.2-0.7-0.5-1.1c-0.3-0.5-0.7-1-1.3-1.4
	c-0.2-0.1-0.3-0.2-0.5-0.3s-0.4-0.1-0.6-0.2c-0.2,0-0.4-0.1-0.7-0.1c-0.2,0-0.5,0-0.7,0c-1,0.1-2,0.3-3.1,0.6s-2.2,0.7-3.4,1.1
	c-2.4,0.8-5,1.9-7.7,3.1c-0.3,0.2-0.7,0.3-1,0.5s-0.6,0.4-0.9,0.6c-0.6,0.4-1.1,0.9-1.5,1.5c-0.8,1.1-1.6,2.2-2.3,3.3
	c-1.4,2.1-2.6,4.1-3.6,5.7c-1,1.6-1.8,3-2.3,3.9c-0.3,0.5-0.5,0.8-0.6,1.1c-0.1,0.1-0.1,0.2-0.2,0.3c0,0.1-0.1,0.1-0.1,0.1
	s0,0,0-0.1s0.1-0.2,0.1-0.3c0.1-0.3,0.3-0.6,0.6-1.1c0.5-0.9,1.3-2.3,2.2-4c1-1.7,2.2-3.6,3.6-5.7c0.7-1.1,1.4-2.2,2.3-3.3
	c0.4-0.5,0.9-1,1.5-1.5c0.3-0.2,0.6-0.4,0.9-0.6c0.3-0.2,0.7-0.3,1-0.5c2.7-1.2,5.3-2.2,7.7-3.1c1.2-0.4,2.4-0.8,3.5-1.1
	s2.1-0.5,3.1-0.6c0.2,0,0.5,0,0.7,0s0.5,0.1,0.7,0.1s0.4,0.1,0.6,0.2c0.2,0.1,0.4,0.2,0.5,0.3c0.7,0.4,1.1,0.9,1.4,1.4
	c0.3,0.5,0.4,0.9,0.4,1.2c0,0.1,0,0.2,0.1,0.3C222.6,166.6,222.6,166.6,222.6,166.6L222.6,166.6z"/>
<g class="st10">
	<path class="st4" d="M224.1,168.6c0.4,0.1,2.3,1.3,3.1,1.8s1.5,1.2,1.8,2.1c0.2,0.9,0,1.9-0.3,2.8c-0.8,2.9-1.8,8.2-2.7,11.1
		C225.4,181,224.6,172,224.1,168.6"/>
</g>
<path class="st8" d="M197.6,210.8c0-0.1,5.5-0.9,12.2-1.8c6.8-0.9,12.3-1.7,12.3-1.6c0,0.1-5.5,0.9-12.2,1.8
	C203.1,210.1,197.6,210.8,197.6,210.8z"/>
<path class="st8" d="M199.4,212.1c0,0,0.1,0,0.2-0.1c0.2,0,0.4-0.1,0.7-0.1c0.6-0.1,1.4-0.2,2.4-0.4c2-0.3,4.9-0.6,8-1s5.9-0.7,8-1
	c1-0.1,1.8-0.2,2.4-0.3c0.3,0,0.5-0.1,0.7-0.1c0.1,0,0.2,0,0.2,0s-0.1,0-0.2,0.1c-0.2,0-0.4,0.1-0.7,0.1c-0.6,0.1-1.4,0.2-2.4,0.4
	c-2,0.3-4.9,0.6-8,1s-5.9,0.7-8,1c-1,0.1-1.8,0.2-2.4,0.3c-0.3,0-0.5,0.1-0.7,0.1C199.5,212.1,199.4,212.1,199.4,212.1z"/>
<path class="st8" d="M203.2,213.1c0,0,0.2,0,0.6-0.1c0.4-0.1,1-0.1,1.7-0.2c1.5-0.2,3.5-0.4,5.7-0.7c2.2-0.2,4.2-0.5,5.7-0.6
	c0.7-0.1,1.3-0.1,1.7-0.2c0.4,0,0.6-0.1,0.6,0c0,0-0.2,0.1-0.6,0.1c-0.4,0.1-1,0.1-1.7,0.2c-1.4,0.2-3.5,0.4-5.7,0.7
	s-4.2,0.5-5.7,0.6C204.1,213.1,203.2,213.2,203.2,213.1L203.2,213.1z"/>
<path class="st8" d="M196.3,209.2c0-0.1,5.8-0.9,12.9-1.8c7.1-0.9,12.9-1.7,12.9-1.6c0,0-5.8,0.9-12.9,1.8
	C202.1,208.6,196.4,209.3,196.3,209.2L196.3,209.2z"/>
<path class="st8" d="M195.3,207.8c0-0.1,6-0.9,13.3-1.8c7.4-1,13.4-1.7,13.4-1.7c0,0.1-6,0.9-13.3,1.8
	C201.3,207.1,195.4,207.9,195.3,207.8L195.3,207.8z"/>
<path class="st8" d="M194.2,206.1c0-0.1,6.1-0.9,13.7-1.9c7.6-1,13.7-1.8,13.7-1.7s-6.1,0.9-13.7,1.9
	C200.4,205.4,194.2,206.2,194.2,206.1L194.2,206.1z"/>
<path class="st8" d="M193.4,204.4c0-0.1,6.2-0.9,14-1.9c7.7-1,14-1.8,14-1.7s-6.2,0.9-14,1.9C199.6,203.7,193.4,204.5,193.4,204.4z"
	/>
<path class="st8" d="M192.5,202.7c0-0.1,6.3-0.9,14.1-1.9s14.1-1.8,14.1-1.8c0,0.1-6.3,0.9-14.1,1.9
	C198.8,202,192.5,202.8,192.5,202.7z"/>
<path class="st8" d="M212.9,198.8c0.1,0,0.7,3,1.5,6.8s1.4,6.9,1.4,6.9c-0.1,0-0.7-3-1.5-6.8C213.4,201.9,212.8,198.8,212.9,198.8z"
	/>
<path class="st8" d="M215.2,198.4c0,0,0.7,3,1.5,6.8s1.4,6.9,1.4,6.9s-0.7-3-1.5-6.8S215.1,198.4,215.2,198.4z"/>
<path class="st8" d="M217.5,198c0.1,0,0.7,2.9,1.5,6.5s1.3,6.5,1.3,6.5s-0.7-2.9-1.5-6.5C218,201,217.5,198,217.5,198z"/>
<path class="st8" d="M220,198.6c0,0,0.1,0.1,0.1,0.4c0.1,0.2,0.1,0.6,0.2,1c0.2,0.9,0.4,2.1,0.7,3.5c0.2,1.3,0.5,2.5,0.6,3.5
	c0.1,0.4,0.1,0.8,0.2,1.1c0,0.2,0.1,0.4,0,0.4c0,0-0.1-0.1-0.1-0.4c-0.1-0.2-0.1-0.6-0.2-1c-0.2-0.9-0.4-2.1-0.7-3.5
	c-0.2-1.3-0.5-2.5-0.6-3.5c-0.1-0.4-0.1-0.8-0.2-1.1C220,198.7,220,198.6,220,198.6L220,198.6z"/>
<path class="st8" d="M210.2,199.3c0,0,0.7,2.9,1.5,6.6c0.8,3.7,1.4,6.6,1.3,6.6c0,0-0.7-2.9-1.5-6.6
	C210.7,202.3,210.1,199.3,210.2,199.3z"/>
<path class="st8" d="M207.5,199.8c0.1,0,0.7,2.9,1.5,6.6c0.8,3.7,1.4,6.6,1.3,6.7c-0.1,0-0.7-2.9-1.5-6.6
	C208,202.8,207.4,199.9,207.5,199.8L207.5,199.8z"/>
<path class="st8" d="M204.7,200c0,0,0.7,2.9,1.5,6.6c0.8,3.6,1.4,6.6,1.3,6.6s-0.7-2.9-1.5-6.6C205.3,202.9,204.7,200,204.7,200z"/>
<path class="st8" d="M202,200.3c0,0,0.7,2.9,1.5,6.5s1.4,6.5,1.3,6.6c-0.1,0-0.7-2.9-1.5-6.5C202.6,203.3,202,200.3,202,200.3z"/>
<path class="st8" d="M199.3,200.9c0.1,0,0.7,2.7,1.4,6.1c0.7,3.4,1.3,6.1,1.2,6.1s-0.7-2.7-1.4-6.1
	C199.8,203.6,199.3,200.9,199.3,200.9z"/>
<path class="st8" d="M196.6,201.1c0.1,0,0.6,2.5,1.3,5.7s1.2,5.7,1.1,5.7c-0.1,0-0.6-2.5-1.3-5.7
	C197.1,203.7,196.6,201.1,196.6,201.1L196.6,201.1z"/>
<path class="st8" d="M193.9,201.5c0.1,0,0.4,1.5,0.8,3.4c0.4,1.9,0.7,3.4,0.6,3.4c-0.1,0-0.4-1.5-0.8-3.4
	C194.1,203.1,193.9,201.5,193.9,201.5z"/>
<path class="st7" d="M105.3,211.7c0,0,17.7-0.1,39.4-0.1c21.8,0,39.4,0,39.4,0.1s-17.7,0.1-39.4,0.1S105.3,211.8,105.3,211.7z"/>
<path class="st7" d="M106.9,209.9c0-0.1,16.9-0.1,37.7-0.1s37.7,0,37.7,0.1s-16.9,0.1-37.7,0.1S106.9,210,106.9,209.9z"/>
<path class="st7" d="M109.2,208.1c0,0,16-0.1,35.7-0.1s35.7,0,35.7,0.1s-16,0.1-35.7,0.1C125.2,208.2,109.2,208.2,109.2,208.1z"/>
<path class="st7" d="M110.8,206.3c0-0.1,15.2-0.1,34-0.1s34,0,34,0.1s-15.2,0.1-34,0.1C126,206.4,110.8,206.3,110.8,206.3z"/>
<path class="st7" d="M113.4,204.5c0,0,14.1-0.1,31.5-0.1s31.5,0,31.5,0.1s-14.1,0.1-31.5,0.1S113.4,204.6,113.4,204.5z"/>
<path class="st7" d="M116.4,202.8c0,0,12.8-0.1,28.5-0.1s28.5,0,28.5,0.1s-12.7,0.1-28.5,0.1S116.4,202.9,116.4,202.8z"/>
<path class="st7" d="M144.2,126.3h-1v1.7h1V126.3z"/>
<g class="st10">
	<path class="st4" d="M89.8,158.9c0,0,1.7-0.6,1.4-1.9c0,0,5,3,11.9,2.9s32,1.4,32,1.4l2.9,4c0,0-42.6-1-44.2,0L89.8,158.9z"/>
</g>
<g class="st10">
	<path class="st4" d="M73.8,162.1c-0.4,0,10.9,3.9,12.3,5.1l2.3-0.5l-8-13.3l-0.9-0.2C79.5,153.2,76.7,162.1,73.8,162.1L73.8,162.1z
		"/>
</g>
<g class="st10">
	<path class="st4" d="M100.8,121.7c0.2,0,43.9-1.9,43.8-2.4c-0.1-0.6-19.5-0.5-28,0C108.1,119.8,100.8,121.7,100.8,121.7z"/>
</g>
<g class="st12">
	<path class="st4" d="M82.5,146l35.5-8.8l6.7-14.7L96,123.8c-0.5,0-0.7,0.2-0.9,0.6L82.5,146z"/>
</g>
</svg>
