<?xml version="1.0" encoding="utf-8"?>
<!-- Generator: Adobe Illustrator 27.9.0, SVG Export Plug-In . SVG Version: 6.00 Build 0)  -->
<svg version="1.1" id="Layer_1" xmlns="http://www.w3.org/2000/svg" xmlns:xlink="http://www.w3.org/1999/xlink" x="0px" y="0px"
	 viewBox="0 0 345 300" enable-background="new 0 0 345 300" xml:space="preserve">
<path fill="#F5F5F5" d="M251.06,83.22c0-7.88-8.27-12.86-16.71-8.91c-1.91,0.89-3.48,2.4-4.44,4.25c-2.12,4.11-1.19,8.8,0.74,12.7
	l6.56,16.63c0.95,2.4,4.34,2.38,5.27-0.02l6.44-16.72C251.15,86.05,251.05,83.21,251.06,83.22L251.06,83.22z M243.14,90.07
	c-5.67,3.3-11.42-2.8-8.31-8.81c0.42-0.8,1.05-1.47,1.8-1.91c5.67-3.3,11.42,2.8,8.31,8.81C244.52,88.96,243.89,89.63,243.14,90.07z
	"/>
<path fill="#455A64" d="M137.44,243.64l-64.17-0.29c-7.72-0.03-13.95-6.32-13.91-14.04l0.68-160.88
	c0.03-7.73,6.32-13.96,14.04-13.93l64.17,0.29c7.72,0.03,13.95,6.32,13.91,14.04l-0.68,160.89
	C151.45,237.45,145.16,243.68,137.44,243.64z"/>
<path fill="#FAFAFA" d="M138.16,60.35l-12.44-0.06c-1.67-0.01-3.03,1.4-3.03,3.14l-0.01,2.25c-0.01,1.74-1.37,3.15-3.03,3.14
	l-24.25-0.1c-1.67-0.01-3.02-1.43-3.01-3.17l0.01-2.25c0-1.74-1.34-3.17-3.01-3.17l-4.37-0.02l-10.89-0.05
	c-5.41-0.02-9.81,4.34-9.83,9.75l-0.67,157.04c-0.02,5.41,4.34,9.81,9.74,9.83l64.04,0.29c5.41,0.02,9.81-4.34,9.83-9.75
	l0.67-157.04C147.94,64.77,143.57,60.38,138.16,60.35L138.16,60.35z"/>
<path fill="#EBEBEB" d="M64.21,88.65h10.5l9.37,9.37l-9.74,9.74L64.32,97.74L64.21,88.65z"/>
<path fill="#EBEBEB" d="M86.2,93.91l-5.26-5.26h11.83L86.2,93.91z"/>
<path fill="#EBEBEB" d="M90.81,98.2l9.22-9.22h32.2c0,0,4.93,22.02-14.46,36.15L90.81,98.2L90.81,98.2z"/>
<path fill="#EBEBEB" d="M86.86,101.14L77,111l27.28,27.28l9.86-10.19L86.86,101.14z"/>
<path fill="#EBEBEB" d="M64.08,116.59l6.18-6.41l-6.06-6.06L64.08,116.59z"/>
<path fill="#EBEBEB" d="M73.96,113.96l-9.49,9.49v13.19l19.6,20.06l16.6-15.45L73.96,113.96z"/>
<path fill="#EBEBEB" d="M121.42,127.9c0,0,20.33-14.91,13.76-38.91h12.64l-0.15,67.77L121.42,127.9L121.42,127.9z"/>
<path fill="#EBEBEB" d="M117.61,131.81l-9.83,10.27l30.15,30.15l9.22-9.77L117.61,131.81z"/>
<path fill="#EBEBEB" d="M103.67,144.89l-15.45,15.34l30.9,30.69l15.42-14.91L103.67,144.89z"/>
<path fill="#EBEBEB" d="M95.58,221.77l23.62-24.49l22.47,22.91L95.58,221.77z"/>
<path fill="#EBEBEB" d="M122.88,194.12l24.6-24.37c0,1.08-0.21,50.56-0.21,50.56L122.88,194.12L122.88,194.12z"/>
<path fill="#EBEBEB" d="M101.82,180.42l13.96,13.96l-27.55,28.44l-12.74-15.28L101.82,180.42z"/>
<path fill="#EBEBEB" d="M64.11,209.53c1.32-0.13,35.07-31.74,35.07-31.74l-35.07-36.34V209.53z"/>
<path fill="#EBEBEB" d="M63.62,216.73l8.12-7.2L83,222.82H63.62v-5.08"/>
<path fill="#263238" d="M74.14,79.08c-0.05,0.05-1.12-0.89-2.41-2.1c0-0.37,0-0.1,0-0.18l0,0l0.01-0.01l0.01-0.01l0.03-0.03
	l0.06-0.06l0.12-0.11c0.08-0.07,0.15-0.14,0.23-0.22c0.15-0.14,0.3-0.28,0.44-0.41c0.27-0.24,0.52-0.46,0.76-0.68
	c0.43-0.38,0.72-0.6,0.74-0.57c0.02,0.02-0.22,0.29-0.62,0.7c-0.23,0.23-0.47,0.46-0.72,0.71l-0.43,0.42l-0.23,0.22l-0.12,0.11
	l-0.06,0.06l-0.03,0.03l-0.01,0.01H71.9v0.01l0,0c0-0.08,0,0.18,0-0.18C73.19,78.01,74.19,79.03,74.14,79.08L74.14,79.08z"/>
<path fill="#263238" d="M140.86,75.4c0,0.29-0.24,0.52-0.52,0.52s-0.52-0.24-0.52-0.52c0-0.28,0.24-0.52,0.52-0.52
	C140.63,74.87,140.86,75.11,140.86,75.4z"/>
<path fill="#263238" d="M140.71,76.83c0.2,0.2,0.2,0.54,0,0.74c-0.2,0.2-0.54,0.2-0.74,0c-0.2-0.2-0.2-0.54,0-0.74
	C140.18,76.62,140.51,76.62,140.71,76.83z"/>
<path fill="#263238" d="M140.86,79c0,0.29-0.24,0.52-0.52,0.52s-0.52-0.24-0.52-0.52s0.24-0.52,0.52-0.52
	C140.63,78.48,140.86,78.71,140.86,79z"/>
<path fill="#263238" d="M118.24,77.53H95.66v1.88h22.58C118.24,79.41,118.24,77.53,118.24,77.53z"/>
<path fill="#407BFF" d="M115.79,111.34c0-8.8-9.25-14.37-18.67-9.96c-2.13,0.99-3.89,2.68-4.96,4.76
	c-2.37,4.59-1.32,9.84,0.83,14.19l7.33,18.59c1.06,2.68,4.86,2.67,5.89-0.02l7.19-18.69C115.89,114.51,115.79,111.34,115.79,111.34
	L115.79,111.34z M106.93,118.99c-6.33,3.68-12.75-3.12-9.28-9.84c0.46-0.89,1.17-1.65,2.01-2.13c6.33-3.68,12.76,3.12,9.28,9.84
	C108.49,117.75,107.78,118.51,106.93,118.99z"/>
<path fill="#407BFF" d="M323.73,174.3H38.19v41.9h285.54V174.3z"/>
<g opacity="0.5">
	<path d="M323.73,174.3H38.19v41.9h285.54V174.3z"/>
</g>
<path fill="#343F44" d="M78.41,243.39c15.17-1.02,26.64-14.15,25.62-29.32s-14.15-26.65-29.32-25.62
	c-15.17,1.02-26.64,14.15-25.62,29.32C50.11,232.94,63.24,244.41,78.41,243.39z"/>
<path fill="#343F44" d="M49.04,215.45c0,0,0,0.05,0,0.07c-0.22,15.2,11.93,27.71,27.13,27.93s27.71-11.93,27.93-27.13
	c0-0.03,0-0.05,0-0.07l-55.05-0.79h-0.01V215.45z"/>
<path fill="#FAFAFA" d="M57.24,215.64c-0.15,10.68,8.37,19.46,19.05,19.61c10.67,0.15,19.45-8.37,19.61-19.05
	c0.15-10.68-8.37-19.46-19.05-19.61C66.17,196.44,57.39,204.97,57.24,215.64z"/>
<path fill="#E0E0E0" d="M76.84,196.59c-10.67-0.15-19.45,8.37-19.61,19.05l38.66,0.56C96.05,205.52,87.52,196.74,76.84,196.59
	L76.84,196.59z"/>
<path fill="#343F44" d="M64.79,215.75c-0.09,6.5,5.1,11.85,11.61,11.95c6.5,0.09,11.85-5.1,11.94-11.61
	c0.09-6.5-5.1-11.85-11.61-11.95C70.24,204.05,64.89,209.24,64.79,215.75z"/>
<path fill="#263238" d="M288.71,243.38c15.18-0.88,26.77-13.9,25.89-29.08s-13.9-26.78-29.08-25.9s-26.77,13.9-25.89,29.09
	C260.51,232.67,273.53,244.26,288.71,243.38z"/>
<path fill="#263238" d="M259.58,215.45c0,0,0,0.05,0,0.07c-0.22,15.2,11.93,27.71,27.13,27.93s27.71-11.93,27.93-27.13
	c0-0.03,0-0.05,0-0.07l-55.05-0.79h-0.01V215.45z"/>
<path fill="#FAFAFA" d="M267.78,215.64c-0.15,10.67,8.37,19.45,19.05,19.61c10.67,0.15,19.45-8.37,19.61-19.05
	s-8.37-19.46-19.05-19.61C276.71,196.44,267.93,204.97,267.78,215.64z"/>
<path fill="#E0E0E0" d="M287.39,196.59c-10.67-0.15-19.45,8.37-19.61,19.05l38.65,0.56C306.59,205.52,298.06,196.74,287.39,196.59
	L287.39,196.59z"/>
<path fill="#263238" d="M275.33,215.75c-0.09,6.5,5.1,11.85,11.61,11.95c6.5,0.09,11.85-5.1,11.95-11.61
	c0.09-6.5-5.1-11.85-11.61-11.95C280.78,204.05,275.43,209.24,275.33,215.75z"/>
<path fill="#407BFF" d="M112.65,150.72c0,0-40.54,2.99-55.57,6.36c-10.59,2.38-31.01,6.47-30.77,19.33l1.62,9.21
	c0,0-7.58,3.46-7.58,12.29s-1.85,22.53,15.83,23.07c2.91,0.09,8.45,0,8.45,0s-3.4-37.66,31.2-38.77
	c35.2-1.12,32.86,38.42,32.86,38.42H255.6c0,0-6.03-38.52,31.86-38.58s32.12,38.83,32.12,38.83s13.94,1.2,20.42-10.51
	c6.48-11.71,4.8-20.05,4.8-20.05l-0.22-7.41c-0.07-2.52-2.09-4.56-4.61-4.65c0,0,2.53-18.65-1.35-21.87
	c-3.89-3.23-25.18-22.69-25.18-22.69l1.01-0.64c1.7-1.07,1.4-3.63-0.49-4.28c-8.08-2.78-24.07-8.28-27.83-9.59
	c-0.57-0.2-1.15-0.32-1.74-0.37c-2.24-0.17-8.59-0.58-20.25-0.7c-14.2-0.15-70.57,0-70.57,0s-19.4,1.6-30.21,6.36
	C152,129.48,112.66,150.72,112.65,150.72L112.65,150.72z"/>
<g opacity="0.4">
	<path d="M30.64,196.89c-1.47-0.3-3.73-0.33-4.85,0.67c-0.83,0.74-1.06,1.93-1.18,3.05c-0.17,1.52-0.26,3.08,0.1,4.57
		s1.23,2.91,2.57,3.64s3.19,0.61,4.24-0.5c0.96-1.02,1.07-2.55,1.04-3.95c-0.04-1.99,0.12-3.67-0.24-5.62
		c-0.07-0.37-0.27-0.84-0.5-1.13C31.43,197.13,31.13,196.93,30.64,196.89"/>
</g>
<path fill="#FAFAFA" d="M27.94,185.62c4.3,0.01,8.48-0.24,12.77-0.52c0.46-0.03,0.97-0.08,1.31-0.4c0.41-0.38,0.44-1.01,0.45-1.57
	c0.02-2.31-0.09-4.93-1.84-6.43c-1.07-0.92-2.54-1.2-3.94-1.34c-3.45-0.32-7.08-0.06-10.37,1.04L27.94,185.62L27.94,185.62z"/>
<path fill="#FFFFFF" d="M117.31,219.46c0,0-0.01-0.12-0.04-0.37c-0.01-0.25-0.04-0.61-0.07-1.08c-0.05-0.96-0.13-2.36-0.23-4.15
	c-0.1-1.8-0.22-4.01-0.48-6.56c-0.27-2.55-0.66-5.45-1.52-8.56c-0.87-3.1-2.19-6.41-4.14-9.66c-1.97-3.22-4.55-6.44-8.01-8.93
	c-6.95-4.94-16.33-7.74-26.14-7.85c-9.84-0.12-19.19,2.99-25.95,8.17c-3.42,2.54-6.25,5.5-8.42,8.6c-2.2,3.09-3.8,6.26-4.93,9.28
	c-1.14,3.02-1.74,5.89-2.08,8.43c-0.37,2.54-0.31,4.76-0.25,6.56c0.14,1.8,0.3,3.19,0.5,4.12c0.08,0.46,0.15,0.82,0.19,1.07
	c0.04,0.24,0.06,0.36,0.06,0.36s-0.03-0.12-0.08-0.36c-0.05-0.25-0.12-0.6-0.22-1.06c-0.22-0.93-0.4-2.32-0.56-4.12
	c-0.08-1.8-0.15-4.03,0.21-6.58c0.33-2.55,0.92-5.43,2.05-8.47c1.13-3.03,2.73-6.23,4.93-9.34c2.18-3.12,5.02-6.11,8.46-8.67
	c6.8-5.22,16.21-8.36,26.11-8.25c9.87,0.12,19.29,2.93,26.28,7.92c3.49,2.52,6.08,5.77,8.05,9.02c1.96,3.27,3.28,6.6,4.14,9.72
	c0.85,3.13,1.23,6.04,1.48,8.6c0.25,2.56,0.35,4.77,0.43,6.57s0.13,3.2,0.18,4.16c0.02,0.47,0.04,0.83,0.05,1.08
	C117.32,219.34,117.31,219.47,117.31,219.46L117.31,219.46z"/>
<path fill="#263238" d="M118.7,220.11c0,0-0.01-0.1-0.01-0.31l-0.03-0.91c-0.03-0.81-0.06-2-0.11-3.56
	c-0.09-3.12-0.22-7.69-0.39-13.49c-0.16-5.81-0.35-12.87-0.57-20.95c-0.06-2.02-0.11-4.11-0.17-6.25c-0.07-1.07,0.04-2.17,0.14-3.27
	c0.08-0.55,0.15-1.1,0.24-1.66c0.11-0.55,0.23-1.1,0.34-1.66c0.52-2.21,1.28-4.43,2.29-6.59c1.02-2.16,2.23-4.29,3.77-6.26
	l0.01-0.02l0.01-0.01c7.86-4.95,16.4-10.34,25.44-16.03c2.26-1.43,4.55-2.87,6.87-4.33c2.28-1.54,4.74-2.86,7.27-4.06
	c2.54-1.19,5.18-2.24,7.9-3.15c1.35-0.47,2.74-0.86,4.12-1.28c1.4-0.36,2.79-0.75,4.23-1.04c5.48-1.21,10.99-1.82,16.4-2.07
	c5.41-0.25,10.71-0.24,15.87,0.05l0.15,0.01l-0.03,0.15c-2.43,10.89-4.73,21.16-6.84,30.58v0.02l-0.01,0.02
	c-1.28,2.11-2.31,4.33-3.07,6.57c-0.73,2.24-1.2,4.55-1.04,6.8c0.18,2.26,0.24,4.47,0.29,6.61c0.04,2.15,0.08,4.23,0.12,6.25
	c0.12,8.08,0.15,15.13,0.17,20.94c0.01,5.81,0.01,10.37,0.02,13.48c0,1.55-0.01,2.74-0.02,3.56c0,0.4-0.01,0.7-0.01,0.91
	s-0.01,0.31-0.01,0.31s0-0.1-0.01-0.31c0-0.21,0-0.51-0.01-0.91c0-0.81-0.01-2-0.02-3.56c-0.02-3.12-0.05-7.68-0.08-13.48
	c-0.04-5.81-0.09-12.86-0.23-20.93c-0.04-2.02-0.09-4.1-0.13-6.25c-0.06-2.15-0.13-4.35-0.3-6.6c-0.17-2.29,0.3-4.62,1.04-6.89
	c0.77-2.26,1.79-4.49,3.08-6.62l-0.02,0.04c2.1-9.42,4.38-19.69,6.81-30.58l0.12,0.16c-5.14-0.29-10.45-0.3-15.84-0.05
	s-10.89,0.85-16.35,2.06c-1.42,0.28-2.81,0.68-4.21,1.03c-1.38,0.41-2.76,0.8-4.11,1.27c-2.7,0.91-5.34,1.95-7.87,3.14
	s-4.98,2.51-7.24,4.04c-2.32,1.46-4.61,2.9-6.87,4.32c-9.05,5.69-17.6,11.07-25.46,16.01l0.03-0.03c-1.52,1.95-2.73,4.07-3.75,6.21
	c-1.01,2.15-1.76,4.35-2.29,6.55c-1.16,4.41-0.58,8.76-0.57,12.79c0.2,8.08,0.38,15.14,0.52,20.95s0.25,10.38,0.32,13.49
	c0.03,1.56,0.06,2.75,0.08,3.56c0.01,0.4,0.01,0.71,0.01,0.91C118.71,220,118.71,220.1,118.7,220.11L118.7,220.11z"/>
<path fill="#263238" d="M212.3,124.13c0,0,0.08-0.01,0.24-0.02c0.17-0.01,0.4-0.02,0.71-0.03c0.63-0.02,1.55-0.04,2.73-0.07
	c2.39-0.05,5.84-0.11,10.13-0.2c8.61-0.15,20.6-0.35,34.16-0.58h0.06l0.04,0.05c1.53,1.88,3.14,3.85,4.79,5.86
	c4.85,5.94,9.47,11.61,13.67,16.76c0.53,0.64,1.05,1.28,1.56,1.91c0.5,0.64,0.94,1.33,1.28,2.05c0.67,1.44,1.02,2.99,1.02,4.48
	c0.02,1.49-0.29,2.93-0.83,4.21c-0.54,1.26-1.06,2.47-1.56,3.63c-1.99,4.61-3.6,8.34-4.72,10.93c-0.56,1.28-0.99,2.28-1.3,2.97
	c-0.15,0.33-0.26,0.59-0.35,0.77c-0.08,0.18-0.12,0.26-0.12,0.26s0.03-0.09,0.1-0.27c0.08-0.18,0.18-0.44,0.32-0.78
	c0.29-0.69,0.71-1.7,1.25-2.98c1.1-2.6,2.69-6.34,4.65-10.96c0.88-2.33,2.44-4.78,2.34-7.76c-0.01-1.46-0.35-2.97-1.01-4.38
	c-0.34-0.7-0.76-1.37-1.26-2c-0.51-0.63-1.03-1.26-1.56-1.9c-4.21-5.15-8.83-10.81-13.68-16.75c-1.64-2.01-3.25-3.98-4.79-5.86
	l0.1,0.05c-13.56,0.2-25.55,0.37-34.17,0.49c-4.29,0.05-7.74,0.09-10.13,0.12c-1.18,0.01-2.1,0.02-2.73,0.02h-0.71
	c-0.16,0-0.24-0.01-0.24-0.01L212.3,124.13z"/>
<path fill="#263238" d="M195.05,169.56c0,0,0.14-0.01,0.41-0.06c0.26-0.05,0.65-0.15,1.08-0.43c0.42-0.28,0.88-0.75,1.1-1.43
	c0.12-0.34,0.15-0.72,0.14-1.13c-0.01-0.4-0.11-0.83-0.32-1.22c-0.41-0.79-1.31-1.45-2.37-1.45c-1.09,0-2.25,0-3.47,0.01
	c-2.45,0-5.13,0-7.95,0.01c-0.67,0-1.33,0.26-1.81,0.71c-0.48,0.44-0.79,1.06-0.86,1.68c-0.07,0.65,0.02,1.28,0.33,1.82
	c0.3,0.54,0.78,0.94,1.32,1.17c0.54,0.24,1.13,0.21,1.71,0.21s1.14,0,1.68,0c1.09,0,2.09,0.01,3.03,0.02
	c1.83,0.01,3.32,0.03,4.38,0.04c0.5,0.01,0.9,0.02,1.19,0.03C194.91,169.54,195.06,169.54,195.05,169.56c0.01,0-0.14,0.01-0.41,0.02
	c-0.3,0-0.69,0.01-1.19,0.03c-1.06,0.01-2.55,0.03-4.38,0.04c-0.93,0-1.94,0.01-3.03,0.01c-0.55,0-1.11,0-1.68,0.01
	c-0.29,0-0.58,0.01-0.89-0.01c-0.31-0.02-0.62-0.09-0.92-0.21c-0.59-0.25-1.12-0.68-1.45-1.27c-0.34-0.58-0.44-1.3-0.37-1.97
	c0.07-0.69,0.41-1.37,0.94-1.85c0.53-0.49,1.25-0.78,1.99-0.78c2.82,0,5.51,0.01,7.95,0.01c1.22,0.01,2.38,0.01,3.47,0.01
	c1.15,0.01,2.11,0.73,2.53,1.58c0.22,0.43,0.32,0.88,0.32,1.31c0.01,0.42-0.04,0.83-0.17,1.18c-0.25,0.72-0.74,1.2-1.18,1.47
	c-0.45,0.28-0.86,0.37-1.13,0.4s-0.42,0-0.42,0v0.02H195.05z"/>
<path fill="#263238" d="M271.19,169.56c0,0,0.14-0.01,0.41-0.06c0.26-0.05,0.65-0.15,1.08-0.43c0.42-0.28,0.88-0.75,1.1-1.43
	c0.12-0.34,0.16-0.72,0.14-1.13c-0.01-0.4-0.11-0.83-0.32-1.22c-0.41-0.79-1.31-1.45-2.37-1.45c-1.09,0-2.25,0-3.47,0.01
	c-2.45,0-5.13,0-7.95,0.01c-0.68,0-1.33,0.26-1.81,0.71c-0.48,0.44-0.79,1.06-0.86,1.68c-0.07,0.65,0.02,1.28,0.33,1.82
	c0.3,0.54,0.78,0.94,1.32,1.17c0.54,0.24,1.13,0.21,1.71,0.21s1.14,0,1.68,0c1.09,0,2.1,0.01,3.03,0.02
	c1.83,0.01,3.32,0.03,4.38,0.04c0.5,0.01,0.89,0.02,1.19,0.03C271.05,169.54,271.19,169.54,271.19,169.56c0,0-0.14,0.01-0.41,0.02
	c-0.3,0-0.7,0.01-1.19,0.03c-1.06,0.01-2.55,0.03-4.38,0.04c-0.93,0-1.94,0.01-3.03,0.01c-0.54,0-1.11,0-1.68,0.01
	c-0.29,0-0.58,0.01-0.89-0.01c-0.31-0.02-0.62-0.09-0.92-0.21c-0.59-0.25-1.12-0.68-1.45-1.27c-0.34-0.58-0.44-1.3-0.37-1.97
	c0.07-0.69,0.41-1.37,0.94-1.85c0.53-0.49,1.25-0.78,1.99-0.78c2.82,0,5.51,0.01,7.95,0.01c1.22,0.01,2.38,0.01,3.47,0.01
	c1.15,0.01,2.11,0.73,2.53,1.58c0.22,0.43,0.32,0.88,0.32,1.31c0.01,0.42-0.04,0.83-0.17,1.18c-0.25,0.72-0.74,1.2-1.18,1.47
	c-0.45,0.28-0.86,0.37-1.13,0.4c-0.27,0.03-0.42,0-0.42,0v0.02H271.19z"/>
<path fill="#FAFAFA" d="M337.95,157.14h-15.23c-2.09,0-4,1.16-4.98,3.01c-0.8,1.52-0.86,3.32-0.17,4.88l5.98,13.57l15.25-0.15
	C338.8,178.45,342.04,161.25,337.95,157.14L337.95,157.14z"/>
<path fill="#263238" d="M126.38,155.22l78.6-1.45l51.16-0.94l16.87-9.74c1.36-0.79,1.73-2.6,0.78-3.86l-10.5-13.8
	c-1.1-1.44-2.79-2.29-4.6-2.31l-57.22-0.46c0,0-21.55-1.25-38.52,8.26C145.08,140.93,126.38,155.22,126.38,155.22L126.38,155.22z"/>
<path fill="#455A64" d="M162.4,124.09c0,0,3.94,1.8,1.37,3.46c-2.56,1.66-42.39,26.77-42.39,26.77l-9.15-4.14
	C128.45,141.15,144.84,132.38,162.4,124.09L162.4,124.09z"/>
<path fill="#263238" d="M122.68,154.96c0,0-0.08,0.03-0.25,0.06l-0.73,0.16c-0.65,0.13-1.59,0.33-2.79,0.58
	c-2.43,0.48-5.95,1.16-10.31,1.91c-8.73,1.5-20.85,3.25-34.32,4.42c-3.37,0.29-6.66,0.54-9.84,0.74c-3.18,0.21-6.25,0.4-9.16,0.67
	c-5.83,0.51-11.05,1.36-15.29,2.62c-4.25,1.22-7.5,2.78-9.64,4.02c-1.1,0.58-1.87,1.14-2.43,1.48c-0.27,0.17-0.47,0.3-0.63,0.4
	c-0.14,0.09-0.22,0.13-0.22,0.13s0.07-0.06,0.2-0.15c0.15-0.1,0.35-0.24,0.61-0.42c0.55-0.35,1.32-0.94,2.41-1.53
	c2.13-1.27,5.38-2.87,9.64-4.11c4.25-1.29,9.49-2.16,15.32-2.68c2.92-0.27,5.99-0.47,9.17-0.68s6.47-0.45,9.83-0.75
	c13.46-1.16,25.58-2.88,34.32-4.34c4.37-0.73,7.89-1.37,10.33-1.83c1.21-0.23,2.15-0.41,2.8-0.53c0.31-0.06,0.56-0.1,0.73-0.13
	C122.6,154.96,122.68,154.96,122.68,154.96L122.68,154.96z"/>
<path fill="#263238" d="M344.04,190.16c0,0.07-5.24,0.13-11.7,0.13c-6.46,0-11.7-0.06-11.7-0.13s5.24-0.13,11.7-0.13
	C338.8,190.03,344.04,190.09,344.04,190.16z"/>
<path fill="#263238" d="M248.19,203.53c0,0.07-29.57,0.13-66.04,0.13s-66.05-0.06-66.05-0.13s29.57-0.13,66.05-0.13
	S248.19,203.46,248.19,203.53z"/>
<path fill="#263238" d="M41.13,190.6c0,0.07-4.18,0.13-9.34,0.13s-9.34-0.06-9.34-0.13s4.18-0.13,9.34-0.13
	S41.13,190.53,41.13,190.6z"/>
<path fill="#455A64" d="M313.03,133.17c0,0-3.51,3.93-2.13,6.81s15.64,12.98,15.64,12.98l10.35,1.94L313.03,133.17L313.03,133.17z"
	/>
<path fill="#455A64" d="M214.63,126.14l-2.33,25.13l41.65-1.19l16.78-9.75l-10.86-14.19C259.87,126.14,214.63,126.14,214.63,126.14z
	"/>
<path fill="#455A64" d="M136.24,152.56c0,0,25.12-18.15,35.04-21.75c9.57-3.48,14.56-4.35,23.54-4.61
	c8.59-0.24,13.82-0.01,13.82-0.01L202,151.75l-65.76,0.82L136.24,152.56L136.24,152.56z"/>
<path fill="#407BFF" d="M132.57,152.64c0-1.59,0.86-3.06,2.24-3.84l5.77-3.24c1.65-0.93,3.5-1.41,5.39-1.41
	c1.17,0,2.33,0.19,3.43,0.55c2.47,0.81,4.11,3.15,4.21,5.74c0.14,3.6-2.75,6.6-6.36,6.6h-10.28
	C134.54,157.04,132.57,155.07,132.57,152.64z"/>
<path fill="#263238" d="M132.57,152.64c0,0,0.02,0.2,0.07,0.56s0.18,0.9,0.5,1.51c0.34,0.6,0.91,1.27,1.77,1.74
	c0.43,0.23,0.94,0.4,1.48,0.47c0.55,0.07,1.15,0.02,1.78,0.03c2.51-0.01,5.5-0.02,8.81-0.03c0.82,0,1.65-0.1,2.45-0.4
	c0.8-0.3,1.54-0.77,2.18-1.38c0.63-0.62,1.15-1.37,1.47-2.23c0.32-0.85,0.45-1.79,0.39-2.72c-0.14-1.87-1.14-3.6-2.6-4.61
	c-0.72-0.51-1.55-0.81-2.38-1c-0.83-0.2-1.67-0.29-2.49-0.29c-1.64,0-3.19,0.37-4.52,0.97c-0.66,0.3-1.27,0.67-1.87,1
	c-0.6,0.33-1.17,0.65-1.72,0.96c-1.1,0.61-2.08,1.15-2.96,1.64c-0.87,0.47-1.44,1.14-1.76,1.74c-0.33,0.61-0.46,1.15-0.51,1.51
	C132.58,152.45,132.59,152.64,132.57,152.64c0.01,0.01-0.02-0.19,0.02-0.56c0.04-0.37,0.14-0.92,0.47-1.55
	c0.32-0.62,0.9-1.33,1.79-1.83c0.87-0.49,1.85-1.06,2.94-1.67c0.54-0.31,1.12-0.63,1.71-0.97c0.6-0.33,1.21-0.71,1.88-1.02
	c1.35-0.62,2.93-1.01,4.61-1.01c0.84,0,1.7,0.09,2.55,0.29c0.85,0.2,1.72,0.5,2.47,1.04c1.52,1.04,2.57,2.85,2.71,4.8
	c0.07,0.97-0.06,1.95-0.4,2.84c-0.33,0.89-0.88,1.68-1.53,2.32c-0.66,0.64-1.44,1.13-2.27,1.44c-0.83,0.31-1.71,0.42-2.54,0.41
	c-3.31-0.01-6.29-0.02-8.81-0.03c-0.63-0.01-1.22,0.02-1.8-0.05c-0.57-0.08-1.09-0.26-1.53-0.51c-0.89-0.5-1.46-1.2-1.79-1.82
	c-0.32-0.63-0.44-1.18-0.47-1.55C132.55,152.83,132.57,152.64,132.57,152.64L132.57,152.64z"/>
<path fill="#FFFFFF" d="M326.14,219.7c0,0,0-0.12,0.02-0.36s0.04-0.59,0.07-1.04c0.03-0.46,0.08-1.02,0.11-1.7
	c0.02-0.67,0.05-1.45,0.08-2.32c0.01-0.88,0-1.85-0.02-2.91c-0.07-1.06-0.07-2.22-0.22-3.45c-0.22-2.47-0.63-5.28-1.49-8.28
	c-0.44-1.49-0.95-3.05-1.64-4.61c-0.66-1.57-1.5-3.13-2.49-4.68c-1.96-3.1-4.73-5.95-8.04-8.4c-3.32-2.44-7.25-4.4-11.54-5.69
	c-4.29-1.32-8.97-1.8-13.72-1.83c-4.76-0.01-9.41,0.63-13.69,1.99c-2.14,0.67-4.18,1.52-6.09,2.52s-3.66,2.19-5.29,3.46
	c-3.24,2.55-5.97,5.41-8.15,8.36c-1.08,1.48-1.95,3.03-2.71,4.55c-0.72,1.54-1.37,3.04-1.87,4.52c-2.09,5.9-2.74,10.97-2.97,14.44
	c-0.08,1.74-0.07,3.1-0.03,4.02c0.03,0.45,0.05,0.8,0.06,1.04c0.01,0.24,0.01,0.36,0.01,0.36s-0.01-0.12-0.04-0.36
	c-0.02-0.24-0.05-0.59-0.09-1.04c-0.06-0.92-0.09-2.28-0.02-4.03c0.2-3.48,0.83-8.57,2.9-14.5c0.5-1.49,1.15-3,1.87-4.55
	c0.76-1.53,1.64-3.09,2.72-4.59c2.19-2.97,4.92-5.85,8.18-8.42c1.64-1.28,3.4-2.48,5.32-3.49c1.93-1,3.98-1.86,6.14-2.54
	c4.3-1.37,8.99-2.02,13.77-2.01c4.78,0.03,9.47,0.52,13.79,1.84c4.32,1.3,8.27,3.28,11.61,5.74c1.67,1.23,3.19,2.57,4.55,3.99
	s2.56,2.92,3.54,4.48c0.99,1.55,1.83,3.13,2.49,4.71c0.7,1.57,1.19,3.13,1.63,4.64c0.85,3.02,1.24,5.84,1.46,8.32
	c0.14,1.24,0.13,2.4,0.2,3.46c0,1.07,0.01,2.04-0.01,2.91c-0.04,0.88-0.07,1.65-0.1,2.33c-0.04,0.67-0.1,1.24-0.14,1.7
	c-0.04,0.45-0.07,0.8-0.1,1.04C326.15,219.58,326.13,219.7,326.14,219.7L326.14,219.7z"/>
<path fill="#FFFFFF" d="M200.9,155.22c0,0-0.04,0.01-0.12,0.02c-0.09,0-0.21,0.01-0.35,0.01c-0.33,0-0.78,0.01-1.34,0.03
	c-1.19,0.02-2.87,0.05-4.93,0.09c-4.17,0.08-9.92,0.23-16.28,0.41c-6.36,0.17-12.12,0.3-16.29,0.32c-2.08,0.02-3.77,0.02-4.94,0
	c-0.57-0.01-1.01-0.01-1.34-0.02l-0.35-0.01c-0.08,0-0.12-0.01-0.12-0.01c0-0.01,0.04-0.01,0.12-0.02c0.09,0,0.21-0.01,0.35-0.02
	c0.33,0,0.78-0.01,1.34-0.03c1.19-0.02,2.87-0.05,4.93-0.09c4.17-0.08,9.93-0.23,16.29-0.41c6.36-0.18,12.12-0.3,16.29-0.32
	c2.08-0.02,3.77-0.02,4.94,0c0.57,0.01,1.01,0.01,1.34,0.02c0.14,0,0.25,0.01,0.35,0.01C200.87,155.2,200.91,155.21,200.9,155.22
	L200.9,155.22z"/>
<path fill="#FFFFFF" d="M194.08,162.96c0,0.07-2.02,0.13-4.51,0.13c-2.49,0-4.51-0.06-4.51-0.13c0-0.07,2.02-0.13,4.51-0.13
	C192.06,162.82,194.08,162.89,194.08,162.96z"/>
<path fill="#FFFFFF" d="M195.73,135.41c0.03,0.07-5.57,2.4-12.5,5.2c-6.93,2.81-12.57,5.02-12.6,4.96c-0.03-0.07,5.57-2.4,12.5-5.2
	C190.06,137.56,195.7,135.35,195.73,135.41L195.73,135.41z"/>
<path fill="#FFFFFF" d="M184.39,137.17c0.03,0.07-5.3,2.41-11.9,5.24c-6.6,2.83-11.98,5.06-12.01,5c-0.03-0.07,5.3-2.41,11.9-5.24
	C178.99,139.34,184.37,137.11,184.39,137.17z"/>
<path fill="#FFFFFF" d="M256.32,134.44c0.03,0.07-5.57,2.4-12.5,5.2c-6.93,2.81-12.57,5.02-12.6,4.96c-0.02-0.07,5.57-2.4,12.5-5.2
	C250.65,136.59,256.29,134.37,256.32,134.44L256.32,134.44z"/>
<path fill="#FFFFFF" d="M244.98,136.2c0.03,0.07-5.3,2.41-11.9,5.24c-6.6,2.83-11.98,5.06-12.01,5c-0.03-0.07,5.3-2.41,11.9-5.24
	C239.58,138.37,244.96,136.13,244.98,136.2z"/>
<path fill="#FFFFFF" d="M257.41,155.21c0,0.07-11.13,0.2-24.86,0.28c-13.74,0.08-24.86,0.09-24.86,0.02s11.13-0.2,24.86-0.28
	C246.28,155.14,257.41,155.14,257.41,155.21z"/>
<path fill="#FFFFFF" d="M269.74,162.53c0,0.07-3.12,0.17-6.97,0.2c-3.86,0.04-6.97,0.01-6.97-0.07c0-0.07,3.12-0.17,6.97-0.2
	C266.62,162.42,269.74,162.45,269.74,162.53z"/>
<path fill="#FFFFFF" d="M56.6,158.72c0,0-0.1,0.03-0.3,0.06c-0.23,0.03-0.51,0.07-0.88,0.11c-0.38,0.04-0.84,0.1-1.38,0.19
	c-0.54,0.09-1.15,0.16-1.82,0.3c-1.34,0.23-2.93,0.59-4.67,1.05c-1.73,0.48-3.63,1.09-5.56,1.84c-1.94,0.77-3.73,1.61-5.33,2.43
	c-1.6,0.84-3,1.66-4.14,2.41c-0.58,0.36-1.09,0.72-1.53,1.02c-0.45,0.3-0.83,0.57-1.14,0.8c-0.29,0.21-0.53,0.38-0.72,0.51
	c-0.16,0.11-0.26,0.17-0.26,0.16c-0.01,0,0.07-0.08,0.23-0.21c0.18-0.14,0.41-0.32,0.69-0.55c0.3-0.24,0.67-0.53,1.12-0.84
	c0.44-0.31,0.94-0.68,1.52-1.06c1.14-0.77,2.54-1.61,4.13-2.47c1.6-0.84,3.41-1.7,5.35-2.46c1.95-0.76,3.85-1.36,5.6-1.83
	c1.76-0.45,3.35-0.79,4.7-1c0.67-0.12,1.29-0.19,1.83-0.26c0.54-0.08,1-0.12,1.38-0.15c0.36-0.03,0.65-0.05,0.88-0.07
	C56.49,158.72,56.6,158.71,56.6,158.72L56.6,158.72z"/>
<path fill="#FFFFFF" d="M148.5,146.58c0,0-0.15-0.2-0.49-0.48c-0.34-0.27-0.92-0.59-1.7-0.68c-0.78-0.1-1.72,0.03-2.74,0.3
	c-1.02,0.26-2.12,0.62-3.24,1.1c-2.24,0.96-4.06,2.24-5.27,3.28c-1.22,1.03-1.87,1.79-1.91,1.75c-0.02-0.01,0.14-0.21,0.43-0.55
	c0.3-0.33,0.75-0.81,1.35-1.34c1.19-1.08,3.02-2.4,5.29-3.38c1.13-0.49,2.25-0.85,3.29-1.1c1.03-0.26,2.01-0.38,2.83-0.25
	c0.82,0.13,1.41,0.48,1.74,0.8c0.17,0.15,0.28,0.3,0.35,0.4c0.06,0.1,0.09,0.16,0.08,0.16L148.5,146.58z"/>
<path fill="#263238" d="M314.2,132.99c0,0-0.76,0.23-2.19,0.22c-0.71-0.02-1.58-0.1-2.57-0.32c-0.99-0.22-2.09-0.56-3.27-1.01
	c-1.19-0.45-2.45-1.02-3.82-1.6c-0.69-0.28-1.4-0.57-2.14-0.86c-0.74-0.29-1.51-0.55-2.3-0.83c-3.16-1.09-6.71-2.06-10.49-2.86
	c-7.56-1.59-14.55-2.24-19.6-2.44c-1.27-0.07-2.41-0.07-3.41-0.1c-1,0-1.86,0-2.58,0c-0.7,0.02-1.24,0.03-1.63,0.04
	c-0.17,0-0.31,0-0.42,0c-0.1,0-0.14,0-0.14-0.01c0,0,0.05-0.01,0.14-0.02c0.11-0.01,0.25-0.02,0.42-0.03
	c0.39-0.02,0.94-0.05,1.63-0.09c0.71-0.01,1.58-0.03,2.58-0.05c1.01,0.02,2.16,0,3.42,0.06c5.06,0.15,12.07,0.78,19.65,2.37
	c3.79,0.8,7.35,1.79,10.51,2.89c0.79,0.29,1.56,0.55,2.3,0.84c0.74,0.3,1.45,0.6,2.14,0.88c1.37,0.6,2.62,1.17,3.8,1.63
	c1.17,0.46,2.26,0.81,3.24,1.04c0.98,0.23,1.84,0.32,2.54,0.36c0.7,0.02,1.26-0.02,1.62-0.06c0.17-0.02,0.31-0.04,0.42-0.05
	c0.09-0.01,0.14-0.01,0.14-0.01L314.2,132.99z"/>
<path fill="#407BFF" d="M66.58,133.69c-2.05-11.26-3.44-12.99-4.61-16.87c-1.15-3.83-3.01-6.39-5.31-7.28
	c-1.55-0.6-9.29-3.39-12-2.47c-3,1.03-5.62,2.53-7.48,3.76c-1.81,1.2-3.18,2.95-3.9,4.99l-4.14,11.62l7.25,7.23l3.63-7.72l3.94,9.24
	l-0.58,9.34l22.62,6.1C68.06,148.34,67.75,140.09,66.58,133.69L66.58,133.69z"/>
<g opacity="0.2">
	<path d="M60.69,121.41c-1,5.86-1.16,6.67-2.16,12.53c-0.34,2.01-1.34,5.15-2.78,6.6c-1.06,1.08-2.1,2.12-3.58,2.47
		c-1.37,0.32-3.45,0.36-4.75-0.21c-1.29-0.57-2.39-3.07-1.86-4.38c1.91,0.41,2.51,1.05,4.16,0c1.44-0.92,3.49-2.94,4.27-4.46
		c3.3-6.38,4.2-6.61,6.67-12.55"/>
</g>
<path fill="#263238" d="M44.33,132.77c-0.03,0.02-0.41-0.58-1-1.56c-0.63-1.03-1.44-2.35-2.33-3.8c-0.91-1.44-1.74-2.74-2.39-3.76
	c-0.62-0.96-0.99-1.56-0.96-1.58c0.02-0.01,0.13,0.12,0.32,0.38c0.2,0.25,0.46,0.63,0.79,1.1c0.66,0.94,1.53,2.25,2.45,3.73
	c0.92,1.48,1.71,2.85,2.26,3.84c0.28,0.5,0.49,0.91,0.64,1.19C44.27,132.6,44.34,132.76,44.33,132.77z"/>
<path fill="#263238" d="M60.11,143.28c0,0-0.19,0.09-0.53,0.2c-0.17,0.06-0.39,0.12-0.64,0.18s-0.54,0.13-0.86,0.18
	c-0.64,0.12-1.42,0.19-2.29,0.21c-0.86,0-1.82-0.07-2.8-0.24c-0.98-0.19-1.9-0.46-2.71-0.77c-0.8-0.32-1.51-0.66-2.07-1
	c-0.29-0.15-0.53-0.33-0.75-0.47c-0.22-0.14-0.4-0.28-0.54-0.39c-0.29-0.23-0.44-0.36-0.43-0.38c0.03-0.04,0.66,0.46,1.8,1.08
	c0.57,0.31,1.27,0.63,2.06,0.94c0.8,0.29,1.7,0.55,2.67,0.73c0.97,0.17,1.9,0.24,2.76,0.26c0.85,0,1.62-0.05,2.26-0.15
	C59.32,143.47,60.09,143.23,60.11,143.28L60.11,143.28z"/>
<path fill="#FFC7B1" d="M51.03,125.74c-0.04,0.2-2.47,5.04-2.47,5.04l-11.46-6.05l-1.17-4.94c-0.19-0.77-0.66-1.44-1.32-1.87
	c-0.71-0.46-1.57-0.6-2.39-0.41l-3.38,1.38c-0.28,0.11-0.5,0.36-0.56,0.65c-0.05,0.25,0.02,0.49,0.45,0.46
	c0.84-0.07,2.59-0.25,2.59-0.25l-0.8,2.82c-0.21,0.74-0.13,1.53,0.23,2.21l0.51,0.97l1.12,1.81l-0.02,0.02
	c0,0,11.15,11.45,17.41,12.19c3.76,0.45,8.02-10.1,8.02-10.1l-6.74-3.94L51.03,125.74z"/>
<path fill="#AA6550" d="M31.22,119.95c0,0,0.09-0.12,0.28-0.25c0.19-0.12,0.49-0.28,0.87-0.27c0.39,0.02,0.67,0.27,0.77,0.49
	c0.1,0.23,0.04,0.39,0.02,0.38c-0.03,0-0.01-0.15-0.12-0.32s-0.36-0.37-0.67-0.38c-0.32-0.02-0.6,0.11-0.8,0.21
	C31.35,119.91,31.23,119.98,31.22,119.95L31.22,119.95z"/>
<path fill="#AA6550" d="M32.66,121.71c0,0-0.07-0.09-0.19-0.23c-0.11-0.13-0.29-0.3-0.53-0.4s-0.49-0.1-0.66-0.07
	s-0.28,0.06-0.29,0.04s0.08-0.1,0.27-0.16c0.18-0.06,0.46-0.08,0.75,0.03c0.28,0.11,0.47,0.32,0.57,0.49
	C32.67,121.58,32.68,121.7,32.66,121.71z"/>
<path fill="#407BFF" d="M53.41,110.47l-3.1,14.71l8.23,4.95l3.16-9.04C61.7,121.08,60.39,110.1,53.41,110.47z"/>
<path fill="#EBEBEB" d="M57.85,110.73c0,0-0.07,0.05-0.21,0.13s-0.35,0.19-0.63,0.33c-0.55,0.28-1.34,0.67-2.35,1.12
	c-2,0.89-4.86,2.02-8.18,2.58c-3.32,0.57-6.43,0.3-8.55-0.29c-1.07-0.29-1.9-0.61-2.45-0.88c-0.28-0.12-0.49-0.25-0.63-0.32
	c-0.14-0.08-0.22-0.12-0.21-0.13c0.01-0.02,0.32,0.12,0.89,0.36s1.4,0.53,2.46,0.79c2.11,0.54,5.17,0.77,8.46,0.21
	s6.13-1.65,8.15-2.49c1.01-0.42,1.82-0.79,2.38-1.03c0.56-0.25,0.87-0.39,0.88-0.37L57.85,110.73z"/>
<path fill="#EBEBEB" d="M60.01,112.35c0,0-0.07,0.07-0.23,0.17c-0.18,0.12-0.41,0.26-0.68,0.44c-0.3,0.19-0.66,0.42-1.11,0.64
	c-0.44,0.23-0.94,0.52-1.52,0.77c-0.29,0.13-0.59,0.27-0.9,0.41s-0.65,0.26-1,0.4c-0.68,0.29-1.45,0.52-2.24,0.78
	c-1.6,0.47-3.4,0.87-5.31,1.11c-1.91,0.22-3.76,0.25-5.42,0.16c-0.83-0.07-1.63-0.11-2.36-0.23c-0.37-0.06-0.73-0.09-1.06-0.15
	c-0.33-0.07-0.66-0.13-0.97-0.19c-0.62-0.11-1.17-0.27-1.65-0.4c-0.49-0.12-0.9-0.25-1.23-0.37c-0.31-0.11-0.56-0.2-0.77-0.27
	c-0.17-0.06-0.26-0.1-0.26-0.11c0-0.01,0.1,0.01,0.28,0.06c0.21,0.06,0.46,0.13,0.78,0.22c0.33,0.1,0.75,0.22,1.24,0.32
	c0.48,0.11,1.03,0.26,1.65,0.36c0.31,0.06,0.63,0.11,0.97,0.18c0.33,0.06,0.69,0.09,1.06,0.14c0.73,0.11,1.52,0.15,2.34,0.21
	c1.65,0.07,3.48,0.03,5.38-0.19c1.9-0.24,3.68-0.63,5.27-1.08c0.79-0.25,1.54-0.47,2.23-0.75c0.34-0.13,0.68-0.25,0.99-0.38
	c0.31-0.14,0.61-0.27,0.9-0.4c0.58-0.24,1.08-0.51,1.52-0.73c0.45-0.22,0.82-0.43,1.13-0.6c0.29-0.16,0.52-0.29,0.71-0.39
	c0.16-0.09,0.25-0.13,0.26-0.12h0V112.35z"/>
<path fill="#263238" d="M58.54,130.13c0,0-0.24-0.11-0.67-0.34c-0.46-0.26-1.07-0.6-1.81-1.02c-1.57-0.91-3.72-2.14-6.19-3.57
	l-0.08-0.05l0.02-0.09c0.22-1.1,0.46-2.28,0.7-3.49c0.38-1.83,0.73-3.57,1.06-5.16c0.17-0.79,0.31-1.55,0.46-2.25
	c0.16-0.71,0.37-1.36,0.66-1.91c0.57-1.13,1.47-1.74,2.13-1.95c0.33-0.11,0.61-0.13,0.79-0.13s0.28,0.02,0.28,0.03
	c0,0.04-0.39-0.04-1.03,0.2c-0.62,0.23-1.47,0.84-1.99,1.94c-0.27,0.54-0.46,1.18-0.61,1.87c-0.14,0.71-0.28,1.46-0.44,2.25
	c-0.32,1.59-0.67,3.34-1.03,5.17c-0.25,1.21-0.49,2.39-0.71,3.49l-0.06-0.13c2.45,1.46,4.59,2.72,6.14,3.65
	c0.73,0.45,1.33,0.81,1.78,1.08C58.32,129.97,58.54,130.12,58.54,130.13L58.54,130.13z"/>
<path fill="#263238" d="M61.06,120.65c0.03,0,0.04,0.53-0.04,1.37c-0.08,0.84-0.26,2.01-0.59,3.26c-0.33,1.26-0.75,2.35-1.09,3.13
	s-0.61,1.23-0.64,1.21c-0.04-0.02,0.16-0.5,0.46-1.29c0.3-0.79,0.68-1.88,1.01-3.12c0.32-1.24,0.54-2.38,0.66-3.22
	C60.96,121.17,61.02,120.65,61.06,120.65L61.06,120.65z"/>
<path fill="#455A64" d="M16.41,202.5l-0.09,7.86c0,0-8.02,2.55-8.17,4l15.23,0.73l0.64-12.24L16.41,202.5L16.41,202.5z"/>
<path fill="#E0E0E0" d="M21.06,209.92c0.29,0.09,0.48,0.44,0.4,0.73s-0.43,0.49-0.72,0.4c-0.29-0.09-0.53-0.49-0.42-0.78
	c0.11-0.28,0.54-0.49,0.8-0.33"/>
<path fill="#E0E0E0" d="M23.37,215.07l0.02-1.24L8.78,213.6c0,0-0.69,0.26-0.64,0.75L23.37,215.07L23.37,215.07z"/>
<path fill="#263238" d="M16.07,210.26c0,0.07,0.37,0.12,0.73,0.38c0.36,0.25,0.54,0.58,0.6,0.55c0.07-0.01-0.02-0.46-0.45-0.76
	C16.52,210.12,16.06,210.19,16.07,210.26z"/>
<path fill="#263238" d="M14.45,210.85c-0.02,0.07,0.29,0.21,0.54,0.54c0.25,0.32,0.29,0.66,0.37,0.66c0.07,0.01,0.14-0.42-0.16-0.82
	C14.9,210.83,14.46,210.78,14.45,210.85L14.45,210.85z"/>
<path fill="#263238" d="M13.45,212.72c0.07,0.02,0.19-0.35,0.02-0.76c-0.17-0.42-0.51-0.6-0.55-0.53c-0.05,0.06,0.17,0.29,0.3,0.63
	C13.37,212.39,13.37,212.71,13.45,212.72L13.45,212.72z"/>
<path fill="#263238" d="M16.3,208.48c0.03,0.07,0.38-0.02,0.79,0.03c0.42,0.04,0.74,0.2,0.78,0.13c0.05-0.05-0.26-0.34-0.76-0.39
	C16.62,208.2,16.26,208.41,16.3,208.48z"/>
<g opacity="0.3">
	<path d="M16.39,204.05l-0.02,1.4l7.49,0.29l0.07-1.26L16.39,204.05z"/>
</g>
<path fill="#263238" d="M16.34,206.89c0,0.03,0.29,0.09,0.76,0.03c0.24-0.03,0.51-0.09,0.81-0.21c0.15-0.06,0.3-0.13,0.45-0.21
	c0.07-0.04,0.16-0.08,0.24-0.17c0.09-0.07,0.14-0.27,0.05-0.4c-0.07-0.12-0.21-0.18-0.32-0.19c-0.11-0.01-0.21,0.01-0.29,0.03
	c-0.17,0.03-0.33,0.08-0.48,0.14c-0.3,0.12-0.54,0.27-0.73,0.43c-0.37,0.31-0.5,0.58-0.48,0.6c0.03,0.03,0.22-0.2,0.59-0.45
	c0.19-0.12,0.42-0.25,0.7-0.35c0.14-0.05,0.29-0.09,0.44-0.11c0.16-0.04,0.3-0.03,0.34,0.05c0.02,0.03,0.02,0.04-0.02,0.08
	s-0.1,0.08-0.17,0.12c-0.14,0.08-0.28,0.15-0.41,0.21c-0.27,0.12-0.53,0.2-0.75,0.25C16.63,206.84,16.34,206.85,16.34,206.89
	L16.34,206.89z"/>
<path fill="#263238" d="M16.43,207.01c0.03,0.01,0.19-0.25,0.24-0.73c0.03-0.24,0.02-0.53-0.07-0.84c-0.04-0.15-0.1-0.31-0.17-0.47
	c-0.08-0.15-0.18-0.36-0.47-0.41c-0.15-0.01-0.28,0.1-0.33,0.2c-0.06,0.1-0.07,0.19-0.09,0.28c-0.04,0.18-0.04,0.35-0.03,0.51
	c0.03,0.32,0.15,0.6,0.29,0.8c0.28,0.41,0.59,0.51,0.59,0.49c0.03-0.04-0.23-0.19-0.44-0.58c-0.1-0.19-0.19-0.44-0.21-0.73
	c-0.01-0.14,0-0.29,0.04-0.44c0.03-0.16,0.1-0.29,0.16-0.27c0.08,0,0.2,0.13,0.26,0.26c0.07,0.14,0.13,0.28,0.17,0.42
	c0.08,0.28,0.11,0.55,0.11,0.77C16.49,206.73,16.4,207,16.43,207.01L16.43,207.01z"/>
<path fill="#263238" d="M47.44,145.62c0,0-23.78-9.97-31.15-10.4c-4.62-0.27-8.11,2.7-7.48,7.48c0.31,2.39,6.89,30.37,6.89,30.37
	l10.03-4.58l-4.82-19.35l19.54,9.5L47.44,145.62L47.44,145.62z"/>
<path fill="#455A64" d="M17.91,144.24c-0.08,0.07,0.71,1.08,1.54,2.42c0.83,1.34,1.39,2.5,1.48,2.46c0.09-0.03-0.33-1.28-1.18-2.65
	C18.9,145.11,17.97,144.18,17.91,144.24L17.91,144.24z"/>
<path fill="#455A64" d="M15.96,145.36c-0.05,0.09,1.15,0.85,2.56,1.89c1.41,1.03,2.5,1.95,2.56,1.88c0.06-0.07-0.93-1.11-2.36-2.16
	C17.3,145.91,16,145.27,15.96,145.36z"/>
<path fill="#263238" d="M66,151.62c0,0-2.99,3.85-5.85,4.91c-3.58,1.32-30.09,13.83-30.09,13.83s-4.81,35.71-4.43,34.22l-11.09-0.27
	l1.2-32.89c0.14-4.21,3.52-9.05,7.14-11.2l24.54-14.6L66,151.62L66,151.62z"/>
<path fill="#455A64" d="M15.54,177.44c0,0,0.03-0.15,0.05-0.45c0.02-0.33,0.04-0.76,0.07-1.29c0.06-1.12,0.12-2.75,0.44-4.73
	c0.33-1.96,0.93-4.33,2.4-6.52c0.73-1.09,1.71-2.08,2.85-2.94c1.14-0.86,2.43-1.63,3.76-2.38c5.34-3.06,9.94-6.18,13.35-8.31
	c1.7-1.08,3.08-1.94,4.03-2.53c0.45-0.28,0.82-0.5,1.1-0.68c0.25-0.16,0.38-0.25,0.38-0.26c-0.01-0.01-0.14,0.06-0.41,0.2
	c-0.26,0.14-0.65,0.34-1.14,0.62c-0.98,0.55-2.38,1.38-4.1,2.43c-3.44,2.08-8.07,5.17-13.39,8.22c-1.33,0.76-2.64,1.52-3.8,2.41
	c-1.16,0.89-2.17,1.91-2.91,3.04c-1.49,2.26-2.07,4.68-2.37,6.66c-0.28,2-0.31,3.64-0.33,4.76c0,0.54,0,0.96,0,1.3
	C15.52,177.28,15.54,177.43,15.54,177.44L15.54,177.44z"/>
<path fill="#455A64" d="M56.21,155.39c0.04-0.05-0.28-0.35-0.68-0.92s-0.84-1.43-1.05-2.46s-0.14-2,0.01-2.68
	c0.14-0.68,0.32-1.08,0.27-1.11c-0.03-0.02-0.29,0.35-0.51,1.04c-0.22,0.69-0.33,1.71-0.11,2.81c0.22,1.09,0.73,1.99,1.19,2.54
	C55.81,155.18,56.19,155.42,56.21,155.39z"/>
<path fill="#455A64" d="M18.63,204.31c0,0,0.02-0.06,0.04-0.18c0.02-0.14,0.04-0.32,0.07-0.54c0.05-0.5,0.13-1.2,0.22-2.08
	c0.18-1.83,0.44-4.44,0.75-7.65c0.15-1.62,0.32-3.39,0.5-5.29c0.19-1.9,0.38-3.93,0.52-6.07c0.16-2.14,0.37-4.38,0.76-6.68
	c0.4-2.28,1-4.64,2.04-6.87c1.02-2.24,2.47-4.19,4.02-5.9c1.59-1.7,3.3-3.15,5.02-4.43c3.45-2.54,6.85-4.39,9.65-6.03
	c2.82-1.62,5.06-3,6.55-4.04c0.75-0.51,1.32-0.93,1.7-1.22c0.18-0.14,0.31-0.25,0.43-0.33c0.09-0.08,0.14-0.12,0.14-0.12
	s-0.06,0.03-0.16,0.1c-0.12,0.08-0.26,0.18-0.45,0.31c-0.39,0.27-0.97,0.67-1.73,1.17c-1.51,1-3.77,2.34-6.6,3.93
	c-2.82,1.61-6.24,3.44-9.72,5.98c-1.74,1.27-3.47,2.73-5.08,4.45c-1.59,1.73-3.05,3.71-4.09,5.99c-1.05,2.27-1.66,4.65-2.06,6.95
	c-0.39,2.31-0.59,4.57-0.74,6.71c-0.14,2.14-0.32,4.17-0.49,6.07c-0.16,1.9-0.32,3.67-0.46,5.29c-0.27,3.22-0.49,5.83-0.64,7.66
	c-0.07,0.88-0.12,1.58-0.15,2.08c-0.02,0.22-0.03,0.4-0.03,0.55c-0.01,0.12,0,0.18,0,0.18L18.63,204.31z"/>
<path fill="#263238" d="M44.74,88.97c-0.68-1.94-2.96-3.17-4.96-2.67c-0.46,0.11-0.91,0.31-1.38,0.3c-0.58-0.01-1.11-0.33-1.68-0.44
	c-1.22-0.25-2.56,0.62-2.84,1.84c-0.97-0.2-2.05-0.06-2.83,0.56c-0.77,0.62-1.13,1.79-0.66,2.67c0.2,0.38,0.53,0.67,0.72,1.06
	c0.3,0.63,0.16,1.39,0.38,2.06c0.31,0.99,1.36,1.61,2.4,1.72c1.03,0.12,2.07-0.16,3.07-0.44"/>
<path fill="#FFC7B1" d="M39.97,109.33c-0.13-0.99-0.22-1.69-0.22-1.69s-3.31-0.03-4.65-4.14c-0.66-2.04-1.11-5.5-1.37-8.33
	c-0.24-2.55,1.69-4.8,4.25-4.93l8.81-0.46l0.19,1.36l2.32,16.94c0.36,2.58-1.46,4.96-4.05,5.3
	C42.67,113.72,40.31,111.9,39.97,109.33L39.97,109.33z"/>
<path fill="#263238" d="M34.97,97.6c0.04,0.29,0.31,0.49,0.61,0.46s0.51-0.29,0.48-0.58c-0.04-0.29-0.31-0.49-0.61-0.46
	S34.93,97.31,34.97,97.6z"/>
<path fill="#263238" d="M34.75,96.84c0.08,0.06,0.44-0.31,1.02-0.4c0.58-0.1,1.06,0.13,1.11,0.05c0.03-0.04-0.06-0.15-0.27-0.26
	s-0.54-0.19-0.9-0.13c-0.36,0.06-0.64,0.24-0.8,0.41C34.75,96.67,34.71,96.81,34.75,96.84z"/>
<path fill="#263238" d="M40.49,96.66c0.04,0.29,0.31,0.49,0.61,0.46c0.3-0.03,0.51-0.29,0.48-0.58c-0.04-0.29-0.31-0.49-0.61-0.46
	C40.67,96.12,40.46,96.37,40.49,96.66z"/>
<path fill="#263238" d="M40.48,96.04c0.08,0.06,0.44-0.31,1.02-0.4c0.58-0.1,1.06,0.13,1.11,0.05c0.03-0.04-0.06-0.15-0.27-0.26
	c-0.21-0.11-0.54-0.19-0.9-0.13s-0.64,0.24-0.8,0.41S40.45,96.01,40.48,96.04z"/>
<path fill="#263238" d="M39.06,100.69c0-0.04-0.38-0.04-0.97-0.02c-0.15,0.01-0.3,0-0.34-0.1c-0.05-0.1-0.02-0.27,0.03-0.46
	c0.08-0.38,0.17-0.78,0.26-1.2c0.36-1.71,0.59-3.1,0.51-3.11c-0.07-0.02-0.41,1.36-0.77,3.07c-0.08,0.42-0.16,0.82-0.24,1.2
	c-0.03,0.18-0.1,0.39,0.02,0.6c0.06,0.1,0.18,0.17,0.28,0.18c0.1,0.02,0.19,0,0.26,0C38.7,100.79,39.06,100.73,39.06,100.69
	L39.06,100.69z"/>
<path fill="#AA6550" d="M39.75,107.63c0,0,2.87-0.27,5.4-2.4c0,0-0.91,3.11-5.19,3.39L39.75,107.63z"/>
<path fill="#263238" d="M40.83,100.81c-0.1,0.01,0,0.64-0.46,1.17c-0.47,0.54-1.15,0.57-1.14,0.66c0,0.04,0.17,0.1,0.45,0.06
	c0.28-0.04,0.67-0.19,0.96-0.51c0.29-0.33,0.37-0.72,0.35-0.98C40.98,100.95,40.88,100.8,40.83,100.81L40.83,100.81z"/>
<path fill="#263238" d="M39.97,93.78c0.08,0.15,0.65-0.02,1.35-0.05c0.69-0.04,1.28,0.07,1.34-0.08c0.03-0.07-0.09-0.21-0.33-0.32
	c-0.25-0.12-0.62-0.21-1.03-0.19c-0.42,0.02-0.78,0.14-1.01,0.28C40.04,93.56,39.94,93.71,39.97,93.78L39.97,93.78z"/>
<path fill="#263238" d="M34.69,95.12c0.12,0.11,0.5-0.09,0.98-0.17c0.48-0.1,0.91-0.05,0.98-0.21c0.03-0.07-0.06-0.2-0.25-0.29
	c-0.2-0.1-0.5-0.15-0.83-0.09s-0.6,0.23-0.74,0.39C34.68,94.92,34.64,95.06,34.69,95.12L34.69,95.12z"/>
<path fill="#263238" d="M33.28,93.32c0,0,2.33,0.79,5.01-1c1.76-1.17,3.89-1.91,4.42-1.59c0.53,0.31,0.87,2.24,2.8,2.56
	c0,0,0.34,3.71,1.79,3.39c1.03-0.23,0.43-4.31,0-6.64c-0.17-0.93-0.97-1.62-1.92-1.66l-2.71-0.1l-3.39,0.95l-3.63,0.99l-2.76,1.15
	L33.28,93.32L33.28,93.32z"/>
<path fill="#FFC7B1" d="M46.98,95.18c0.06-0.04,2.31-1.22,2.72,1.24c0.42,2.46-2.14,2.37-2.15,2.3
	C47.54,98.64,46.98,95.18,46.98,95.18z"/>
<path fill="#AA6550" d="M48.15,97.65c0,0,0.05,0.02,0.12,0.04c0.08,0.02,0.2,0.02,0.32-0.05c0.24-0.14,0.39-0.59,0.33-1.03
	c-0.03-0.23-0.11-0.43-0.22-0.59c-0.1-0.16-0.24-0.27-0.38-0.27c-0.13-0.01-0.22,0.09-0.23,0.16c-0.02,0.07,0,0.12-0.01,0.13
	c-0.01,0.01-0.06-0.03-0.06-0.14c0-0.05,0.02-0.11,0.07-0.17c0.05-0.06,0.13-0.1,0.23-0.1c0.19-0.02,0.39,0.13,0.51,0.3
	c0.13,0.18,0.23,0.41,0.26,0.66c0.07,0.5-0.11,1-0.44,1.16c-0.16,0.07-0.32,0.05-0.4,0C48.16,97.7,48.14,97.65,48.15,97.65
	C48.15,97.64,48.15,97.65,48.15,97.65z"/>
<path fill="#455A64" d="M34.46,87.1c0,0,0.09,0.13,0.26,0.33s0.48,0.44,0.93,0.6s1.02,0.2,1.64,0.07c0.62-0.12,1.27-0.38,1.98-0.63
	s1.43-0.42,2.1-0.38c0.67,0.03,1.26,0.34,1.6,0.72c0.35,0.38,0.49,0.79,0.49,1.08c0.01,0.28-0.06,0.43-0.07,0.43
	c-0.03,0,0.01-0.15-0.03-0.42c-0.04-0.26-0.19-0.63-0.52-0.95c-0.33-0.33-0.85-0.59-1.48-0.6c-0.62-0.03-1.31,0.14-2,0.38
	s-1.37,0.51-2.02,0.62c-0.65,0.12-1.28,0.06-1.74-0.14c-0.47-0.19-0.79-0.47-0.95-0.71C34.48,87.26,34.45,87.1,34.46,87.1z"/>
<path fill="#455A64" d="M42.75,89.45c0,0-0.12-0.13-0.38-0.31c-0.25-0.18-0.68-0.35-1.24-0.37c-0.56-0.03-1.2,0.13-1.87,0.46
	c-0.67,0.31-1.38,0.77-2.23,1.04c-1.72,0.56-3.42,0.1-4.4-0.48c-0.5-0.29-0.86-0.6-1.08-0.83c-0.22-0.24-0.32-0.38-0.31-0.39
	c0.04-0.04,0.48,0.54,1.48,1.06c0.97,0.52,2.59,0.92,4.23,0.39c0.81-0.26,1.51-0.71,2.21-1.01c0.69-0.32,1.4-0.48,1.99-0.42
	c0.59,0.04,1.04,0.26,1.29,0.47C42.69,89.28,42.77,89.45,42.75,89.45L42.75,89.45z"/>
<path fill="#FFC7B1" d="M35.13,131.27l-11.95-10.18l-3.94,0.89c0,0,4.15,8.64,7.16,11.8c0,0,2.97,3.98,7.87,2.26
	S35.13,131.28,35.13,131.27L35.13,131.27z"/>
<path fill="#455A64" d="M22.28,109.87H17.2c-0.77,0-1.46,0.89-1.18,1.62l5.11,9.95c0.2,0.39,0.6,0.63,1.03,0.63l6.19-0.02
	c0.71-0.1,0.97-0.89,0.67-1.31L24.1,111C23.76,110.3,23.05,109.86,22.28,109.87L22.28,109.87z"/>
<path fill="#263238" d="M21.94,110.47h-5.08c-0.64,0-1.05,0.67-0.76,1.24l4.99,9.73c0.2,0.39,0.6,0.63,1.03,0.63h6.12
	c0.38,0,0.62-0.39,0.45-0.73l-4.93-9.74C23.42,110.9,22.71,110.46,21.94,110.47L21.94,110.47z"/>
<path fill="#FFC7B1" d="M21.5,114.54l-3.09,1.24l-0.66,2.49l1.49,3.71l5.46,0.79l-1.6-1.64l0.21-1.43c0,0,1.52-0.48,1.56-0.71
	c0.04-0.23-0.19-1.01-0.42-1.06c-0.23-0.04-1.83,0.56-1.83,0.56s1.89-1.5,1.84-1.74c-0.05-0.24-0.26-0.85-0.63-0.93
	c-0.38-0.07-3.43,1.37-3.43,1.37l-0.49,1.13l-0.43-1.81c0,0,2.71-0.76,2.04-1.99L21.5,114.54z"/>
<path fill="#AA6550" d="M21.89,120.38c0,0-0.08-0.11-0.1-0.31c-0.03-0.2-0.02-0.49,0.09-0.78s0.29-0.52,0.44-0.65
	c0.15-0.13,0.27-0.18,0.28-0.16c0.03,0.04-0.37,0.32-0.57,0.88C21.83,119.89,21.94,120.37,21.89,120.38z"/>
<path fill="#AA6550" d="M20.42,119.84c0,0,0.09-0.3,0.12-0.81c0.03-0.25,0.04-0.57,0.15-0.9c0.06-0.16,0.14-0.33,0.28-0.48
	c0.14-0.14,0.32-0.24,0.5-0.32c0.74-0.27,1.4-0.48,1.89-0.64c0.49-0.15,0.79-0.24,0.8-0.22c0.01,0.02-0.28,0.14-0.76,0.32
	c-0.47,0.19-1.14,0.42-1.87,0.68c-0.18,0.07-0.33,0.16-0.45,0.28c-0.12,0.12-0.2,0.27-0.26,0.42c-0.12,0.3-0.14,0.61-0.18,0.86
	C20.6,119.56,20.44,119.85,20.42,119.84z"/>
<path fill="#AA6550" d="M19.71,119.28c-0.04-0.01-0.04-0.28,0.02-0.61c0.06-0.33,0.13-0.59,0.17-0.58s0.04,0.28-0.02,0.61
	C19.83,119.03,19.75,119.29,19.71,119.28z"/>
<path fill="#FAFAFA" d="M19.63,112.34c0,0.36,0.29,0.65,0.65,0.65c0.36,0,0.65-0.29,0.65-0.65s-0.29-0.65-0.65-0.65
	C19.92,111.7,19.63,111.98,19.63,112.34z"/>
<path fill="#EBEBEB" d="M43.52,75.05c0.33-2.42-3.08-4.4-5.64-4.61c-1.23-0.1-2.49,0.09-3.65-0.31c-2.51-0.87-3.51-4.12-5.96-5.15
	c-1.83-0.77-3.94-0.08-5.71,0.81c-1.78,0.9-3.53,2.01-5.51,2.14c-1.72,0.11-3.6-0.53-5.11,0.31c-1.13,0.63-1.72,1.92-2.75,2.69
	c-1.01,0.75-2.34,0.9-3.59,0.97c-1.26,0.07-2.56,0.08-3.71,0.6c-1.15,0.52-2.09,1.74-1.85,2.97L43.52,75.05L43.52,75.05z"/>
</svg>
