<?xml version="1.0" encoding="utf-8"?>
<!-- Generator: Adobe Illustrator 27.9.0, SVG Export Plug-In . SVG Version: 6.00 Build 0)  -->
<svg version="1.1" id="Layer_1" xmlns="http://www.w3.org/2000/svg" xmlns:xlink="http://www.w3.org/1999/xlink" x="0px" y="0px"
	 viewBox="0 0 345 300" enable-background="new 0 0 345 300" xml:space="preserve">
<path fill="#EBEBEB" d="M246.4,23.5c0.5-3.5-4.4-6.4-8.2-6.7c-1.8-0.1-3.6,0.1-5.3-0.5c-3.6-1.3-5.1-6-8.6-7.4
	c-2.6-1.1-5.7-0.1-8.3,1.2s-5.1,2.9-8,3.1c-2.5,0.2-5.2-0.8-7.4,0.5c-1.6,0.9-2.5,2.8-4,3.9s-3.4,1.3-5.2,1.4s-3.7,0.1-5.4,0.9
	s-3,2.5-2.7,4.3L246.4,23.5L246.4,23.5z"/>
<path fill="#F5F5F5" d="M220.6,74.7c0.8-6-7.7-11-14.1-11.5c-3-0.2-6.2,0.2-9.1-0.8c-6.3-2.2-8.7-10.3-14.8-12.8
	c-4.6-1.9-9.8-0.2-14.2,2s-8.8,5-13.7,5.3c-4.3,0.3-9-1.3-12.7,0.8c-2.8,1.6-4.3,4.8-6.8,6.7c-2.5,1.9-5.8,2.3-9,2.4
	c-3.1,0.2-6.4,0.2-9.2,1.5c-2.9,1.3-5.2,4.3-4.6,7.4L220.6,74.7L220.6,74.7z"/>
<path fill="#E0E0E0" d="M92.9,281.8h-6.3l0.8-10.2h5.5V281.8z"/>
<path fill="#263238" d="M92.9,281.8c0,0,0-0.3,0-0.8v-2.1v-7.4l0.1,0.3c-1.5,0-3.4,0.1-5.5,0.1l0.1-0.3l-0.1,1.5
	c-0.3,3.1-0.5,6-0.7,8.7l-0.1-0.4c1.8,0,3.4,0.1,4.5,0.2c0.5,0,1,0.1,1.3,0.1C92.8,281.8,92.9,281.8,92.9,281.8
	c0,0.1-0.2,0.1-0.5,0.1s-0.8,0.1-1.3,0.1c-1.1,0.1-2.7,0.1-4.6,0.2h-0.1v-0.4l0.7-8.7l0.1-1.5v-0.3h0.1c2.1,0,4,0.1,5.5,0.1H93v0.3
	c0,3.2,0,5.8,0,7.6v2C92.9,281.6,92.9,281.9,92.9,281.8L92.9,281.8z"/>
<path fill="#E0E0E0" d="M342.6,281.8h-6.3l0.8-10.2h5.5V281.8z"/>
<path fill="#263238" d="M342.6,281.8c0,0,0-0.3,0-0.8c0-0.6,0-1.2,0-2.1c0-1.9,0-4.4,0-7.4l0.1,0.3c-1.5,0-3.4,0.1-5.5,0.1l0.1-0.3
	c0,0.5-0.1,1-0.1,1.5c-0.3,3.1-0.5,6-0.7,8.7l-0.1-0.4c1.8,0,3.4,0.1,4.5,0.2c0.5,0,1,0.1,1.3,0.1
	C342.4,281.8,342.6,281.8,342.6,281.8c0,0.1-0.2,0.1-0.5,0.1s-0.8,0.1-1.3,0.1c-1.1,0.1-2.7,0.1-4.6,0.2h-0.1v-0.4
	c0.2-2.7,0.5-5.7,0.7-8.7c0-0.5,0.1-1,0.1-1.5v-0.3h0.1c2.1,0,4,0.1,5.5,0.1h0.1v0.3c0,3.2,0,5.8,0,7.6c0,0.8,0,1.5,0,2
	C342.6,281.6,342.6,281.9,342.6,281.8L342.6,281.8z"/>
<path fill="#E0E0E0" d="M176,271.6h-3.8h-1.7h-3.8l-0.8,10.2h4.6h1.7h4.6L176,271.6z"/>
<path fill="#263238" d="M176,271.6c0,0,0,0.2,0.1,0.7c0,0.5,0.1,1.2,0.2,2c0.2,1.8,0.4,4.4,0.6,7.6v0.3h-0.1
	c-2.4,0.1-6,0.1-10.1,0.1c-0.3,0-0.6,0-0.8,0h-0.1v-0.4c0.3-3.6,0.6-7,0.8-10.2v-0.2h0.1c2.7,0.1,5,0.1,6.7,0.1
	c0.8,0,1.5,0.1,1.9,0.1c0.2,0,0.4,0,0.5,0.1C176,271.6,176,271.6,176,271.6s-0.1,0-0.2,0.1l-0.5,0.1c-0.5,0-1.1,0.1-1.9,0.1
	c-1.7,0-4,0.1-6.6,0.1l0.1-0.2c-0.3,3.2-0.5,6.7-0.8,10.2l-0.1-0.4c0.3,0,0.5,0,0.8,0c4.1,0,7.7,0.1,10.1,0.1l-0.1,0.3
	c-0.2-3.1-0.4-5.7-0.6-7.5c-0.1-0.8-0.1-1.5-0.1-2C176,271.9,176,271.6,176,271.6L176,271.6z"/>
<path fill="#407BFF" d="M142.4,148.6h-19.1c-2.9,0-5.3-2.4-5.3-5.3c0-4.5,3.6-8.1,8.1-8.1h11.8c2.5,0,4.5,2,4.5,4.5V148.6z"/>
<path fill="#407BFF" d="M317.6,148.6h19.1c2.9,0,5.3-2.4,5.3-5.3c0-4.5-3.6-8.1-8.1-8.1h-11.8c-2.5,0-4.5,2-4.5,4.5V148.6z"/>
<path fill="#263238" d="M143.8,230.3h-10.3c-7.7,0-14,6.3-14,14v23.3c0,7.7,6.3,14,14,14h10.3c7.7,0,14-6.3,14-14v-23.3
	C157.8,236.6,151.5,230.3,143.8,230.3z"/>
<path fill="#263238" d="M342.9,228.9h-38.3v51.3h38.3V228.9z"/>
<path fill="#407BFF" d="M123.4,160.7l11.1-8.9l17.6-48.4c2.6-6,7.7-13.8,19.4-15l121.4,1.1c6.9,0.1,13,4.4,15.4,10.8l15.8,43.2
	l4.3,9.8l10.3,7.2c3.9,2.8,6.3,7.3,6.3,12.1v69.3c0,0-0.5,12.7-13.8,12.7H132.8c0,0-12.7,0.5-14.8-14.3c-1.6-11.7-0.7-52.4-0.2-68.7
	C118,167.4,120,163.4,123.4,160.7z"/>
<g opacity="0.3">
	<path d="M116.9,210.2c1.5,0.4,228.1,0,228.1,0v30.9c0,7.5-5.4,13.5-12.9,13.5h-198c-9.7,0-16.9-7.2-16.8-17L116.9,210.2
		L116.9,210.2z"/>
</g>
<path fill="#ECECEC" d="M124.8,165.8l44,5.3v25.8c0,0-48.7-1.4-51.6-7.8l0.7-17.3C117.9,168,121.2,165.3,124.8,165.8z"/>
<path fill="#263238" d="M124.8,165.8c0,0-0.7-0.1-1.9,0.1c-1.2,0.3-3.1,1.1-4.2,3.2c-0.6,1-0.7,2.3-0.7,3.8s-0.1,3-0.1,4.7
	c-0.1,3.4-0.2,7.2-0.4,11.5V189c0.7,1.2,2.4,1.9,4,2.4s3.3,1,5.1,1.3c3.6,0.7,7.4,1.3,11.4,1.7c8,0.9,16.7,1.5,25.7,1.9
	c1.7,0.1,3.5,0.1,5.2,0.2l-0.4,0.3c0-9.2,0-17.9,0-25.8l0.3,0.3c-12.9-1.6-23.9-3-31.7-4c-3.8-0.5-6.9-0.9-9-1.2
	c-1-0.1-1.8-0.3-2.4-0.3C125,165.9,124.7,165.8,124.8,165.8c0,0,0.3,0,0.8,0.1c0.6,0.1,1.4,0.1,2.4,0.2c2.2,0.2,5.2,0.6,9,1
	c7.8,0.9,18.8,2.2,31.7,3.7h0.3v0.3c0,7.9,0,16.6,0,25.8v0.4h-0.4c-1.7-0.1-3.4-0.1-5.2-0.2c-9.1-0.4-17.8-1-25.8-2
	c-4-0.5-7.8-1-11.4-1.8c-1.8-0.4-3.5-0.8-5.2-1.4c-0.8-0.3-1.6-0.6-2.4-1c-0.7-0.4-1.5-0.9-1.9-1.7v-0.1V189
	c0.2-4.2,0.3-8.1,0.5-11.4c0.1-1.7,0.1-3.3,0.2-4.7c0-1.4,0.2-2.9,0.8-3.9c1.2-2.2,3.2-3,4.4-3.2
	C124.1,165.6,124.7,165.8,124.8,165.8L124.8,165.8z"/>
<path fill="#E0E0E0" d="M337.4,165.8l-44,5.3v25.8c0,0,47.7-1.7,50.6-8.2l0.3-17C344.2,168.1,341,165.3,337.4,165.8L337.4,165.8z"/>
<path fill="#263238" d="M337.4,165.8c0,0,0.7-0.2,1.9,0c1.2,0.2,3.2,0.9,4.4,3.1c0.6,1,0.9,2.4,0.8,3.9c0,1.4,0,3-0.1,4.7
	c0,3.4-0.1,7.1-0.1,11.3v0.1l0,0c-0.4,0.8-1.2,1.3-1.9,1.7c-0.7,0.4-1.5,0.7-2.3,1c-1.6,0.6-3.3,1-5.1,1.4
	c-3.6,0.8-7.3,1.4-11.3,1.9c-7.9,1-16.6,1.7-25.6,2.1c-1.5,0.1-3.1,0.1-4.6,0.2h-0.4v-0.3c0-9.2,0-17.9,0-25.8v-0.3h0.3
	c12.9-1.5,23.9-2.8,31.7-3.7c3.8-0.4,6.9-0.8,9-1c1-0.1,1.8-0.2,2.4-0.2C337.1,165.8,337.4,165.8,337.4,165.8s-0.3,0.1-0.8,0.2
	c-0.6,0.1-1.4,0.2-2.4,0.3c-2.1,0.3-5.2,0.7-9,1.2c-7.8,1-18.8,2.3-31.7,4l0.3-0.3c0,7.9,0,16.6,0,25.8l-0.4-0.3
	c1.5-0.1,3-0.1,4.6-0.2c9-0.5,17.7-1.1,25.6-2.1c4-0.5,7.7-1.1,11.3-1.8c1.8-0.4,3.5-0.8,5.1-1.4c1.5-0.6,3.2-1.2,3.9-2.4v0.1
	c0.1-4.2,0.2-8,0.3-11.3c0-1.7,0.1-3.2,0.1-4.7c0.1-1.4-0.1-2.7-0.7-3.7c-1.1-2.1-3-2.8-4.2-3.1C338,165.7,337.4,165.8,337.4,165.8
	L337.4,165.8z"/>
<path fill="#263238" d="M185.6,171.1c-6.8,0-12.8,4.9-13.8,11.7c-0.3,1.9-0.4,4.2-0.3,6.7c0.8,15.4,3.8,34.3,11.2,38.9h50.5v-57.3
	L185.6,171.1L185.6,171.1z"/>
<path fill="#263238" d="M275,171.1c6.8,0,12.8,4.9,13.8,11.7c0.3,1.9,0.4,4.2,0.3,6.7c-0.8,15.4-3.8,34.3-11.2,38.9h-50.5v-57.3
	L275,171.1L275,171.1z"/>
<path fill="#455A64" d="M287.7,191.4H173.4c-1.7,0-3.1-1.4-3.1-3.1c0-1.7,1.4-3.1,3.1-3.1h114.3c1.7,0,3.1,1.4,3.1,3.1
	C290.8,190,289.4,191.4,287.7,191.4z"/>
<path fill="#455A64" d="M281.7,179.2H177.4c-1.7,0-3.1-1.4-3.1-3.1c0-1.7,1.4-3.1,3.1-3.1h104.3c1.7,0,3.1,1.4,3.1,3.1
	C284.8,177.8,283.4,179.2,281.7,179.2z"/>
<path fill="#455A64" d="M287.7,198.9H174.6c-1.7,0-3.1,1.4-3.1,3.1s1.4,3.1,3.1,3.1h113.1c1.7,0,3.1-1.4,3.1-3.1
	S289.4,198.9,287.7,198.9z"/>
<path fill="#455A64" d="M283.7,218.8H177.1c-1.7,0-3.1-1.4-3.1-3.1c0-1.7,1.4-3.1,3.1-3.1h106.6c1.7,0,3.1,1.4,3.1,3.1
	C286.8,217.4,285.4,218.8,283.7,218.8L283.7,218.8z"/>
<path fill="#455A64" d="M142.9,144.3c0,0,12.7-42.5,18.8-47.9h139.5c0,0,12,26.3,16.4,47.9H142.9z"/>
<path fill="#263238" d="M178.5,235.8v3.7c0,4.5,3.6,8.2,8.2,8.2h89c4.5,0,8.2-3.6,8.2-8.2v-3.7H178.5z"/>
<path fill="#263238" d="M301.7,225.6v16.2c0,0,32.6,4.6,37.3-16.2H301.7z"/>
<path fill="#263238" d="M165.1,225.6v16.2c0,0-32.6,4.6-37.3-16.2H165.1z"/>
<path fill="#263238" d="M328.4,153.3c0,0-0.1-0.1-0.1-0.3c-0.1-0.2-0.2-0.5-0.3-0.8c-0.3-0.7-0.7-1.8-1.2-3.1
	c-1.1-2.7-2.6-6.7-4.5-11.6c-3.9-10-9.3-24.2-15.8-41l0.3,0.2c-13.6,0-28.9,0-45.1,0c-29.2-0.1-55.7-0.1-74.9-0.2
	c-9.6-0.1-17.3-0.1-22.7-0.1l-6.2-0.1c-0.7,0-1.2,0-1.6,0c-0.4,0-0.5,0-0.5,0s0.2,0,0.5,0c0.4,0,0.9,0,1.6,0c1.4,0,3.5,0,6.2-0.1
	c5.4,0,13.1,0,22.7-0.1c19.2,0,45.7,0,74.9,0c16.2,0,31.6,0.1,45.1,0.1h0.2l0.1,0.2c6.4,16.8,11.7,31,15.6,41
	c1.9,5,3.3,8.9,4.4,11.7c0.5,1.3,0.9,2.4,1.1,3.1c0.1,0.3,0.2,0.6,0.3,0.8C328.4,153.2,328.5,153.3,328.4,153.3L328.4,153.3z"/>
<path fill="#263238" d="M317.6,144.3c0,0.2-39.1,0.4-87.3,0.4s-87.3-0.1-87.3-0.3s39.1-0.4,87.3-0.4S317.6,144.1,317.6,144.3z"/>
<path fill="#263238" d="M316.4,144c0.1-0.1,5.7,3.9,12.6,9c6.8,5.1,12.3,9.4,12.2,9.6c-0.1,0.1-5.7-3.9-12.6-9
	S316.2,144.2,316.4,144L316.4,144z"/>
<path fill="#263238" d="M142.9,144.3c0.1,0.1-4.6,4.4-10.6,9.4c-6,5.1-10.9,9.1-11,8.9c-0.1-0.1,4.6-4.4,10.6-9.4
	C137.9,148.1,142.8,144.1,142.9,144.3L142.9,144.3z"/>
<path fill="#263238" d="M144.5,124.1c0.2,0.1-1.9,6.3-4.7,13.9s-5.2,13.7-5.4,13.7c-0.2-0.1,1.9-6.3,4.7-13.9
	C142,130.2,144.4,124.1,144.5,124.1L144.5,124.1z"/>
<path fill="#263238" d="M298.3,170.5c0,0-0.1,0-0.3,0.1c-0.3,0-0.6,0-1,0.1c-0.9,0.1-2.2,0.1-3.8,0.2c-3.3,0.2-8,0.4-13.9,0.5
	c-11.7,0.4-27.9,0.5-45.8,0.5c-17.9-0.1-34.1-0.3-45.8-0.4c-5.8-0.1-10.5-0.1-13.9-0.2c-1.6,0-2.9-0.1-3.8-0.1c-0.4,0-0.7,0-1,0
	c-0.2,0-0.3,0-0.3,0s0.1,0,0.3,0h1c0.9,0,2.2,0,3.8-0.1c3.3,0,8.1,0,13.9,0c11.8,0.1,28,0.1,45.8,0.2c17.9,0.1,34.1,0,45.8-0.3
	c5.8-0.1,10.5-0.2,13.9-0.3c1.6,0,2.9-0.1,3.8-0.1c0.4,0,0.7,0,1,0C298.3,170.4,298.4,170.4,298.3,170.5L298.3,170.5z"/>
<path fill="#263238" d="M210.6,96.4H248v2.1c0,3.3-2.7,6-6,6h-25.5c-3.3,0-6-2.7-6-6v-2.1H210.6z"/>
<path fill="#263238" d="M301.8,143.5h-1.3c0-10-8.2-18.2-18.2-18.2s-18.2,8.2-18.2,18.2h-1.3c0-10.8,8.8-19.5,19.5-19.5
	S301.8,132.8,301.8,143.5z"/>
<path fill="#263238" d="M256.8,142.8c0,0,2.7-5,10.5-5.2c7.3-0.2,25.8,0,25.8,0s9,0.4,11.6,4.1v2.4h-47.9V142.8L256.8,142.8z"/>
<path fill="#263238" d="M163.8,144.8c-0.8,0.9,0.4-12.9,2.3-19c0.4-1.4,1.9-2.4,3.7-2.4h33.8c1.9,0,3.4,1.1,3.7,2.7
	c0.8,4.2,2.8,12.2,3.3,18.7H163.8z"/>
<path fill="#263238" d="M197.6,108.3h-21c-2.4,0-4.4,2-4.4,4.4v4.5c0,2.4,2,4.4,4.4,4.4h21c2.4,0,4.4-2,4.4-4.4v-4.5
	C201.9,110.3,200,108.3,197.6,108.3z"/>
<path fill="#263238" d="M245.2,144.3c-0.8,0.9,0.7-13.6,2.6-19.7c0.4-1.4,1.9-2.4,3.7-2.4h33.8c1.9,0,3.4,1.1,3.7,2.7
	c0.8,4.2,2.8,12.8,3.3,19.4H245.2z"/>
<path fill="#263238" d="M279.3,108.3h-21c-2.4,0-4.4,2-4.4,4.4v4.5c0,2.4,2,4.4,4.4,4.4h21c2.4,0,4.4-2,4.4-4.4v-4.5
	C283.7,110.3,281.7,108.3,279.3,108.3z"/>
<path fill="#E0E0E0" d="M74.8,113.5H62.2v168.2h12.7V113.5H74.8z"/>
<path fill="#263238" d="M74.8,281.7c0,0,0-0.3,0-0.9s0-1.4,0-2.5c0-2.3,0-5.5-0.1-9.7c0-8.4-0.1-20.7-0.1-35.8
	c0-30.3-0.1-72.3-0.2-119.3l0.4,0.4c-4,0-8.3,0-12.7,0l0.4-0.4c0,76.7-0.1,142.3-0.3,168.2l-0.1-0.1c4.1,0,7.3,0.1,9.4,0.1h2.4
	C74.6,281.7,74.8,281.7,74.8,281.7s-0.3,0-0.8,0c-0.6,0-1.4,0-2.4,0c-2.2,0-5.3,0-9.5,0.1H62v-0.1c-0.1-25.9-0.3-91.5-0.3-168.2
	v-0.4h0.4c4.3,0,8.6,0,12.7,0h0.4v0.4c-0.1,47.1-0.1,89.2-0.2,119.5c0,15.1-0.1,27.3-0.1,35.7c0,4.2,0,7.4-0.1,9.6
	c0,1.1,0,1.9,0,2.5C74.8,281.4,74.8,281.7,74.8,281.7L74.8,281.7z"/>
<path fill="#455A64" d="M105,23.7H36.2c-7.9,0-14.4,6.4-14.4,14.4v68.8c0,7.9,6.4,14.4,14.4,14.4H105c7.9,0,14.4-6.4,14.4-14.4V38.1
	C119.4,30.1,112.9,23.7,105,23.7z"/>
<path fill="#FFFFFF" d="M104.8,118H36.3c-6.2,0-11.2-5-11.2-11.2V38.3c0-6.2,5-11.2,11.2-11.2h68.6c6.2,0,11.2,5,11.2,11.2v68.6
	C116,113,111,118,104.8,118z M36.3,28.6c-5.3,0-9.7,4.3-9.7,9.7v68.6c0,5.3,4.3,9.7,9.7,9.7h68.6c5.3,0,9.7-4.3,9.7-9.7V38.3
	c0-5.3-4.3-9.7-9.7-9.7C104.9,28.6,36.3,28.6,36.3,28.6z"/>
<path fill="#FFFFFF" d="M84.9,49.7c3.1,1.4,5.5,3.4,7.2,6s2.5,5.7,2.5,9.2s-0.8,6.6-2.5,9.2s-4.1,4.6-7.2,6s-6.8,2.1-11,2.1h-8.2
	v12.2H52.5V47.6h21.4C78.2,47.6,81.8,48.3,84.9,49.7z M79.3,70c1.4-1.2,2.1-2.9,2.1-5.1c0-2.2-0.7-3.9-2.1-5.1
	c-1.4-1.2-3.4-1.8-6.2-1.8h-7.4v13.7h7.4C75.8,71.7,77.9,71.1,79.3,70z"/>
<path fill="#FFD0B7" d="M86.6,142.4l-6.1-12.9l-8.5,3.7l7.6,12.3L86.6,142.4z"/>
<path fill="#FFD0B7" d="M86,141.6l6.1,4.7c0.3,0.3,0.1,2.6,0.1,2.6l-0.7,6.9c0,0-1.5,0.9-1.9-0.9c-0.1-0.4-0.1-2-0.2-2.3
	c-0.2-1.3-0.2-2.5-0.2-2.5l-0.2,2.1c0,0-0.1,0.6-1.3,1.6c-1.4,1.2-2.9,0.3-2.2-0.4c0.7-0.7,1.8-2,1.8-2s-1.8,1.1-2.3,0
	c0,0-1.4,0.4-1.9-0.6s-0.4-1.9-0.4-1.9s-3.1-1.7-3.5-3c-0.4-1.2-1.1-3.4-1.1-3.4L86,141.6L86,141.6z"/>
<path fill="#455A64" d="M89.5,148.5l6.6,4.3c0.2,0.1,0.2,0.3,0.1,0.5l-1.2,1.8c-0.1,0.2-0.3,0.2-0.5,0.1l-6.6-4.3
	c-0.2-0.1-0.2-0.3-0.1-0.5l1.2-1.8C89.2,148.4,89.4,148.4,89.5,148.5z"/>
<path fill="#FFD0B7" d="M94.3,150.3c0,0-1.4-3.2-1.6-3.6c-0.2-0.3-4.6-3.1-4.6-3.1s-4,2.3-4.1,3s2.7,2.1,6.1,1.8l1.8,1.8
	c0,0,0.6,2.1,1.5,2.4c0.9,0.3,1.1-0.2,1.1-0.2L94.3,150.3L94.3,150.3z"/>
<path fill="#FF9A6C" d="M85.1,144.7c-0.1,0-0.3,0.6,0.1,1.5c0.2,0.4,0.4,0.9,0.9,1.4s1.2,0.7,1.9,0.8c0.9,0.1,1.8,0.2,2.4,0.3
	l-0.1-0.1c1,1,1.7,1.6,1.8,1.6c0.1-0.1-0.5-0.8-1.4-1.9l0,0h-0.1c-0.7-0.3-1.6-0.3-2.5-0.5c-0.6-0.1-1.2-0.2-1.6-0.6
	c-0.4-0.4-0.7-0.8-0.9-1.1C85.2,145.3,85.2,144.7,85.1,144.7L85.1,144.7z"/>
<path fill="#FF9A6C" d="M85.2,151.3c0.1-0.1-0.1-0.4-0.2-1c0-0.3-0.1-0.6-0.1-1s0.2-0.8,0-1.4c-0.2-0.6-0.8-0.9-1.3-0.9
	s-0.9,0.4-1,0.8c-0.2,0.7,0.2,1.1,0.2,1c0.1,0-0.1-0.4,0.2-0.9c0.1-0.2,0.4-0.4,0.6-0.4c0.3,0,0.6,0.2,0.7,0.5s0,0.8,0,1.2
	s0.1,0.8,0.2,1.1C84.8,151.1,85.1,151.4,85.2,151.3z"/>
<path fill="#FF9A6C" d="M87,151.2c0.1,0,0.2-0.4,0.3-1c0-0.3,0.1-0.7,0.1-1.1c0-0.4-0.1-1-0.5-1.5c-0.2-0.2-0.5-0.4-0.8-0.4
	s-0.6,0.1-0.8,0.2c-0.4,0.3-0.5,0.8-0.6,1.1c-0.1,0.7-0.1,1,0,1.1c0.1,0,0.3-0.4,0.4-1c0.1-0.3,0.2-0.6,0.5-0.8
	c0.2-0.2,0.6-0.1,0.8,0.2c0.3,0.3,0.3,0.7,0.4,1.1c0,0.4,0.1,0.8,0.1,1.1C86.9,150.8,86.9,151.2,87,151.2L87,151.2z"/>
<path fill="#263238" d="M97.2,156.7c0,0.1,0.2,0.1,0.6-0.1c0.3-0.2,0.7-0.5,1-1.1s0.2-1.1,0-1.4c-0.1-0.4-0.3-0.5-0.3-0.5
	c-0.1,0,0.3,0.9-0.1,1.8C98,156.3,97.1,156.6,97.2,156.7L97.2,156.7z"/>
<path fill="#263238" d="M98.7,159.2c0,0,0.5,0.1,1.2-0.2s1.7-1,2.1-2.1c0.2-0.6,0.3-1.2,0.3-1.7c-0.1-0.5-0.2-1-0.4-1.3
	c-0.4-0.7-0.6-1-0.7-1s0.1,0.5,0.4,1.2c0.1,0.3,0.3,0.8,0.3,1.2c0,0.5-0.1,1-0.3,1.5c-0.4,1-1.2,1.7-1.8,2
	C99.1,159,98.7,159.1,98.7,159.2L98.7,159.2z"/>
<path fill="#263238" d="M101.5,161.3c0,0,0.7,0,1.6-0.5s2-1.6,2.4-3.1c0.4-1.6,0-3.1-0.5-3.9c-0.5-0.9-1.1-1.3-1.1-1.2
	c-0.1,0.1,0.4,0.5,0.8,1.4s0.8,2.2,0.4,3.7c-0.4,1.4-1.4,2.5-2.2,3C102.1,161.1,101.4,161.2,101.5,161.3L101.5,161.3z"/>
<path fill="#EF8D53" d="M16.6,275.8l-1.2,5.1c0,0-8.3,10.7-10.8,10.2c-1.7-0.3,0.4-3.1,3.5-11.3l0.7-3.4L16.6,275.8z"/>
<path fill="#263238" d="M4.3,289.5c0,0,0,0.1,0.1,0.1c0.1,0.1,0.2,0.2,0.3,0.3c0.2,0.1,0.4,0.2,0.7,0.2c0.3,0,0.6-0.1,0.9-0.3
	c1.2-0.9,2.6-2.3,4.2-3.9c1.5-1.6,2.8-3.2,3.7-4.3c0.4-0.6,0.8-1.1,1-1.4c0.1-0.1,0.2-0.3,0.3-0.4s0.1-0.1,0.1-0.1s0,0-0.1,0.1
	l-0.3,0.4c-0.3,0.4-0.7,0.8-1.1,1.4c-0.9,1.1-2.2,2.7-3.7,4.3c-1.5,1.6-3,3-4.1,3.9c-0.6,0.4-1.2,0.4-1.6,0.2
	C4.4,289.7,4.3,289.5,4.3,289.5z"/>
<path fill="#263238" d="M5.5,286c0,0,0.3,0,0.7,0c0.4,0.1,1,0.2,1.5,0.6c0.5,0.3,0.9,0.8,1.1,1.1c0.2,0.4,0.3,0.6,0.3,0.6
	s0-0.3-0.2-0.7c-0.2-0.4-0.6-0.9-1.1-1.2c-0.5-0.3-1.1-0.5-1.6-0.5C5.7,285.9,5.5,286,5.5,286L5.5,286z"/>
<path fill="#263238" d="M13.3,283.5c0,0-0.1-0.4-0.1-1c-0.1-0.6,0-1.4,0.4-2.2c0.4-0.8,1.1-1.3,1.6-1.6c0.5-0.3,0.9-0.3,0.9-0.3
	s-0.1,0-0.3,0s-0.4,0.1-0.7,0.2c-0.5,0.2-1.2,0.8-1.7,1.6c-0.4,0.8-0.5,1.7-0.4,2.3c0,0.3,0.1,0.5,0.2,0.7
	C13.2,283.4,13.3,283.5,13.3,283.5L13.3,283.5z"/>
<path fill="#263238" d="M16.1,276.6c0,0-0.3,0.7-0.5,1.6c-0.1,0.9-0.3,1.6-0.3,1.6s0.3-0.7,0.4-1.6C16,277.4,16.1,276.7,16.1,276.6
	L16.1,276.6z"/>
<path fill="#263238" d="M8,280.5c0,0,0.5,0,1,0.2c0.5,0.1,1,0.3,1,0.3s-0.4-0.3-1-0.5C8.5,280.3,8,280.4,8,280.5L8,280.5z"/>
<path fill="#263238" d="M7.8,281.3c0,0,0.4,0,0.9,0.1s0.8,0.3,0.8,0.3s-0.3-0.3-0.8-0.4C8.2,281.2,7.8,281.3,7.8,281.3z"/>
<path fill="#263238" d="M7.2,282.4c0,0,0.4-0.1,0.9,0s0.8,0.4,0.8,0.4s-0.2-0.4-0.8-0.5C7.6,282.2,7.2,282.4,7.2,282.4L7.2,282.4z"
	/>
<path fill="#263238" d="M8.6,280.1c0,0,0.1,0,0.3,0s0.4-0.1,0.7-0.2s0.7-0.3,1-0.5c0.2-0.1,0.4-0.2,0.6-0.4c0.2-0.1,0.4-0.3,0.4-0.6
	c0-0.3-0.4-0.5-0.6-0.4c-0.3,0.1-0.4,0.2-0.6,0.4c-0.3,0.3-0.6,0.6-0.8,0.8c-0.2,0.3-0.4,0.5-0.5,0.6c0,0.2-0.1,0.3-0.1,0.3
	s0.3-0.3,0.7-0.8c0.2-0.2,0.5-0.5,0.8-0.8c0.1-0.1,0.3-0.3,0.5-0.3s0.4,0.1,0.4,0.3c0,0.2-0.2,0.4-0.3,0.5c-0.2,0.1-0.4,0.3-0.5,0.4
	c-0.4,0.2-0.7,0.4-1,0.5C8.9,280,8.5,280.1,8.6,280.1L8.6,280.1z"/>
<path fill="#263238" d="M9,280c0,0,0-0.1,0-0.3c0-0.2,0-0.4-0.1-0.7c0-0.3-0.1-0.6-0.3-1c-0.1-0.2-0.2-0.4-0.3-0.5s-0.4-0.4-0.7-0.2
	c-0.3,0.2-0.3,0.5-0.2,0.7c0,0.2,0.1,0.4,0.2,0.6c0.2,0.4,0.4,0.6,0.6,0.8c0.2,0.2,0.4,0.4,0.5,0.4C8.9,280,9,280,9,280
	s-0.3-0.2-0.7-0.6c-0.2-0.2-0.4-0.5-0.5-0.8c-0.1-0.2-0.1-0.4-0.2-0.6c0-0.2,0-0.4,0.1-0.5s0.3,0,0.5,0.2c0.1,0.1,0.2,0.3,0.3,0.5
	c0.2,0.3,0.2,0.7,0.3,1C8.9,279.7,9,280,9,280L9,280z"/>
<g opacity="0.4">
	<path d="M15.4,280.9l0.6-2.4c0,0-2,0.4-2.6,1.9c-0.5,1.5-0.4,2.6-0.4,2.6l-4.4,4.7c0,0-1.1-2.2-3.1-1.6c0,0-1.6,3.5-1.5,4.3
		c0.1,1,1.1,0.8,1.4,0.6c0.2-0.1,2.1-1.2,3.9-3.1C11.7,285.4,14.3,282.3,15.4,280.9L15.4,280.9z"/>
</g>
<path fill="#EF8D53" d="M57.7,278.3v-6.7l-12.6-0.1l-0.2,9.9l0.8,0.1c3.5,0.2,17.7,1,20,0.3C68.4,280.9,57.7,278.4,57.7,278.3
	L57.7,278.3z"/>
<g opacity="0.4">
	<path d="M49.5,281.3c-0.2-1.1-0.7-2-1.6-2.7c-0.8-0.7-1.9-1-2.9-1v3.5L49.5,281.3L49.5,281.3z"/>
</g>
<g opacity="0.4">
	<path d="M62.9,279.8c0,0,3.7,1.1,3.3,1.7c-0.5,0.6-14.9,0.4-21.2-0.2V281l16.8,0.4C61.8,281.4,62.2,279.8,62.9,279.8L62.9,279.8z"
		/>
</g>
<path fill="#263238" d="M44.8,281c0,0,0.1,0,0.2,0c0.2,0,0.4,0,0.6,0c0.6,0,1.4,0.1,2.3,0.1c1.9,0.1,4.6,0.2,7.6,0.2s5.6,0,7.6,0
	c0.9,0,1.7,0,2.3-0.1c0.2,0,0.4,0,0.6,0c0.1,0,0.2,0,0.2,0s-0.1,0-0.2,0c-0.2,0-0.4,0-0.6,0c-0.6,0-1.4,0-2.3,0c-1.9,0-4.6,0-7.6,0
	s-5.6-0.1-7.6-0.2c-0.9,0-1.7-0.1-2.3-0.1c-0.2,0-0.4,0-0.6,0C44.9,281,44.8,281,44.8,281L44.8,281z"/>
<path fill="#263238" d="M61.8,281.6c0,0,0.1-0.5,0.4-1.1c0.3-0.6,0.8-0.8,0.8-0.9c0,0-0.5,0.2-0.9,0.8
	C61.7,281,61.7,281.6,61.8,281.6L61.8,281.6z"/>
<path fill="#263238" d="M58.1,279.6c0,0,0.2-0.2,0.4-0.5s0.3-0.5,0.3-0.6c0,0-0.2,0.2-0.4,0.5C58.2,279.4,58,279.6,58.1,279.6z"/>
<path fill="#263238" d="M57.1,279.1c0,0,0.2-0.1,0.4-0.3c0.2-0.2,0.4-0.4,0.3-0.4c0,0-0.2,0.1-0.4,0.3
	C57.2,278.9,57,279.1,57.1,279.1z"/>
<path fill="#263238" d="M56.4,277.9c0,0,0.3,0.1,0.7,0.1s0.7,0,0.7-0.1c0,0-0.3-0.1-0.7-0.1S56.4,277.9,56.4,277.9z"/>
<path fill="#263238" d="M56.2,277.1c0,0,0.3,0.2,0.7,0.2s0.8-0.1,0.8-0.1s-0.3,0-0.7-0.1C56.6,277.1,56.2,277,56.2,277.1L56.2,277.1
	z"/>
<path fill="#263238" d="M58.5,278.6c0,0,0.3,0.1,0.8,0c0.3,0,0.5-0.1,0.9-0.2c0.2-0.1,0.3-0.1,0.5-0.2c0.1-0.1,0.2-0.1,0.2-0.3
	c0-0.1,0-0.3-0.1-0.3c-0.8-0.4-1.6,0-1.8,0.4c-0.2,0.2-0.2,0.4-0.3,0.5c0,0.1,0,0.2,0,0.2s0.1-0.3,0.4-0.7c0.2-0.2,0.4-0.4,0.7-0.4
	c0.3-0.1,0.7-0.1,1,0.1c0.1,0.1,0.1,0.3-0.1,0.3c-0.1,0.1-0.3,0.1-0.5,0.2c-0.3,0.1-0.6,0.2-0.8,0.2
	C58.8,278.5,58.5,278.5,58.5,278.6L58.5,278.6z"/>
<path fill="#263238" d="M58.7,278.6c0,0,0.1-0.2,0.1-0.6c0-0.2-0.1-0.4-0.2-0.6c-0.1-0.2-0.3-0.4-0.7-0.4c-0.2,0-0.3,0.2-0.3,0.4
	c0,0.1,0.1,0.3,0.1,0.4c0.1,0.2,0.3,0.4,0.4,0.5C58.4,278.5,58.6,278.6,58.7,278.6c-0.1,0-0.2-0.2-0.5-0.4c-0.1-0.1-0.2-0.3-0.3-0.5
	s-0.2-0.5,0-0.5s0.4,0.2,0.5,0.4c0.1,0.2,0.2,0.4,0.2,0.5C58.8,278.4,58.7,278.6,58.7,278.6L58.7,278.6z"/>
<path fill="#263238" d="M45.1,277.6c0,0,0.4,0,0.9,0c0.6,0.1,1.4,0.3,2,0.9c0.7,0.6,1.1,1.3,1.2,1.8c0.2,0.5,0.2,0.9,0.2,0.9
	s0-0.1,0-0.3c0-0.2,0-0.4-0.1-0.7c-0.2-0.6-0.5-1.3-1.3-1.9c-0.7-0.6-1.5-0.8-2.1-0.9c-0.3,0-0.5,0-0.7,0
	C45.2,277.5,45.1,277.6,45.1,277.6L45.1,277.6z"/>
<path fill="#263238" d="M46.5,272.3c0,0-0.1,1.2-0.1,2.6s0,2.6,0,2.6s0.1-1.2,0.1-2.6S46.5,272.3,46.5,272.3L46.5,272.3z"/>
<path fill="#263238" d="M51.1,280.1c0,0,0.8,0.2,1.8,0.2s1.9-0.1,1.8-0.1c0,0-0.8,0-1.8,0C52,280.1,51.1,280,51.1,280.1L51.1,280.1z
	"/>
<path fill="#263238" d="M48.7,280c0,0,0.1,0.2,0.1,0.4c0.1,0.2,0.1,0.4,0.2,0.4c0,0,0.1-0.2,0-0.4C48.9,280.1,48.7,280,48.7,280
	L48.7,280z"/>
<path fill="#263238" d="M47.7,278.9c0,0,0,0.2,0.2,0.3c0.1,0.1,0.3,0.2,0.3,0.2s0-0.2-0.2-0.3C47.9,278.9,47.8,278.8,47.7,278.9z"/>
<path fill="#263238" d="M46.4,278.3c0,0,0.2,0,0.4,0.1s0.3,0.2,0.4,0.1c0,0-0.1-0.2-0.3-0.3C46.6,278.2,46.4,278.3,46.4,278.3
	L46.4,278.3z"/>
<path fill="#263238" d="M45.5,278c0,0,0.1,0.1,0.2,0.1c0.1,0,0.2,0,0.2,0s-0.1-0.1-0.2-0.1S45.5,278,45.5,278z"/>
<path fill="#455A64" d="M5.7,276.8l22.5-132.3l34.7,5.3l-4,126l-16.1,1.4l1.2-111L19.3,277.3L5.7,276.8z"/>
<path fill="#263238" d="M24.7,154.4l4.6-39l-7,10.9l-11.1-9.6l13-17.6c2.4-2.5,5.2-4.3,8.5-5.5c1.6-0.6,3.4-0.9,5.4-1
	c4.3,1.3,8.6,1.3,12.9,0c0.7,0.1,1.9,0.2,3.3,0.4c5,0.7,9.6,3.4,12.6,7.5L80.4,126l-11.5,4.3l-6-10.9l1.1,36.2L53.2,158l-8.2-6
	l-11.4,6L24.7,154.4L24.7,154.4z"/>
<path fill="#455A64" d="M62.3,105.8c-0.1,0,0,6,0.3,13.4s0.6,13.4,0.7,13.4c0.1,0,0-6-0.3-13.5C62.7,111.8,62.4,105.8,62.3,105.8
	L62.3,105.8z"/>
<path fill="#455A64" d="M30.1,108.2c-0.1,0-0.6,3.5-1,7.8s-0.7,7.8-0.5,7.8c0.1,0,0.6-3.5,1-7.8C29.9,111.7,30.2,108.2,30.1,108.2z"
	/>
<path fill="#263238" d="M48.1,59.5c-1.8-0.4-3.6-0.8-5.4-0.7c-1.8,0.1-3.7,0.7-4.9,2.1c-0.7,0.8-1.2,2-2.1,2.7
	c-1.1,0.9-2.9,1.2-3.2,2.5c-0.4,1.4,1.1,2.7,1,4.1c-0.1,0.8-0.6,1.5-1.1,2.2s-0.9,1.5-0.6,2.3c0.2,0.6,0.9,1,1.2,1.6
	c0.5,0.9,0.1,2,0.2,3c0.2,1.5,1.6,2.6,3,3c1.5,0.4,3,0.2,4.5,0"/>
<path fill="#263238" d="M49.5,60.2c1.2-0.2,2.5-0.5,3.7-0.2s2.4,1.2,2.6,2.4c0.1,0.8-0.1,1.6,0.3,2.3c0.5,0.7,1.6,0.8,2.1,1.4
	c1.2,1.4-1.1,3.9,0.1,5.3c0.3,0.4,0.8,0.6,1.2,0.9c0.5,0.7,0.5,1.7,0,2.4s-1.4,1.1-2.2,1.1c-0.9,0-1.7-0.2-2.5-0.5
	c-2.7-1-5.2-2.8-6.5-5.4C47,67.4,47.2,64,49,61.8"/>
<path fill="#FFC7AA" d="M38,69.8l-0.3,24.5L50,94.6c0.2-1.4,0.7-6.9,0.7-6.9s5.1-0.3,5.7-5.3c0.3-2.5,0.4-7.6,0.5-12.2
	c0.1-5.1-3.9-9.4-9-9.6C42.5,60.3,38,64.5,38,69.8L38,69.8z"/>
<path fill="#EB996E" d="M50.6,87.6c0,0-3.2-0.1-6.4-2.5c0,0,1.2,3.8,6.3,3.8L50.6,87.6L50.6,87.6z"/>
<path fill="#263238" d="M54.5,73c0,0.4-0.4,0.7-0.8,0.7c-0.4,0-0.7-0.3-0.7-0.7c0-0.4,0.4-0.7,0.8-0.7C54.2,72.3,54.5,72.7,54.5,73z
	"/>
<path fill="#263238" d="M55.5,72.5c-0.1,0.1-0.6-0.4-1.4-0.4c-0.8-0.1-1.4,0.3-1.5,0.1c0,0,0.1-0.2,0.3-0.4c0.3-0.2,0.7-0.3,1.2-0.2
	c0.5,0.1,0.9,0.3,1.1,0.5C55.5,72.3,55.5,72.5,55.5,72.5L55.5,72.5z"/>
<path fill="#263238" d="M46.7,72.6c0,0.4-0.4,0.7-0.8,0.7c-0.4,0-0.7-0.3-0.7-0.7c0-0.4,0.4-0.7,0.8-0.7
	C46.4,71.9,46.7,72.2,46.7,72.6z"/>
<path fill="#263238" d="M47.8,71.9c-0.1,0.1-0.6-0.4-1.4-0.4c-0.8-0.1-1.4,0.3-1.5,0.1c0,0,0.1-0.2,0.3-0.4c0.3-0.2,0.7-0.3,1.2-0.2
	c0.5,0.1,0.9,0.3,1.1,0.5C47.8,71.7,47.9,71.9,47.8,71.9L47.8,71.9z"/>
<path fill="#263238" d="M50.1,78c0,0,0.5-0.1,1.3-0.1c0.2,0,0.4,0,0.4-0.1c0.1-0.1,0-0.4-0.1-0.6c-0.1-0.5-0.3-1-0.4-1.6
	c-0.6-2.2-1-4.1-0.9-4.1s0.7,1.8,1.2,4c0.1,0.5,0.3,1.1,0.4,1.6c0.1,0.2,0.2,0.5,0,0.8c-0.1,0.1-0.2,0.2-0.4,0.3c-0.1,0-0.2,0-0.3,0
	C50.5,78.1,50,78,50.1,78L50.1,78z"/>
<path fill="#263238" d="M47.7,78.3c0.1,0,0,0.8,0.7,1.5s1.6,0.7,1.6,0.8c0,0.1-0.2,0.1-0.6,0.1c-0.4,0-0.9-0.2-1.3-0.6
	c-0.4-0.4-0.5-0.9-0.5-1.3C47.5,78.5,47.6,78.3,47.7,78.3z"/>
<path fill="#263238" d="M48.3,68.9c-0.1,0.2-0.9,0-1.8,0c-0.9,0-1.7,0.2-1.8,0c0-0.1,0.1-0.3,0.4-0.5c0.3-0.2,0.8-0.3,1.4-0.3
	c0.5,0,1,0.1,1.4,0.3C48.2,68.6,48.4,68.8,48.3,68.9L48.3,68.9z"/>
<path fill="#263238" d="M55.4,70.3c-0.2,0.2-0.7-0.1-1.3-0.1c-0.6-0.1-1.2,0-1.3-0.2c0-0.1,0.1-0.3,0.3-0.4c0.3-0.1,0.7-0.2,1.1-0.2
	c0.4,0.1,0.8,0.3,1,0.5C55.4,70,55.5,70.2,55.4,70.3L55.4,70.3z"/>
<path fill="#FFC7AA" d="M39.3,73.7c-0.1,0-3.4-1.4-3.6,2.1c-0.2,3.5,3.3,3,3.3,2.9S39.3,73.7,39.3,73.7z"/>
<path fill="#EB996E" d="M38,77.4c0,0-0.1,0-0.2,0.1c-0.1,0-0.3,0.1-0.5,0c-0.4-0.2-0.6-0.8-0.6-1.4c0-0.3,0.1-0.6,0.2-0.9
	c0.1-0.2,0.3-0.4,0.5-0.4s0.3,0.1,0.3,0.2s0,0.2,0,0.2s0.1-0.1,0.1-0.2s0-0.2-0.1-0.2c-0.1-0.1-0.2-0.1-0.3-0.1
	c-0.3,0-0.5,0.2-0.7,0.5s-0.3,0.6-0.3,1c0,0.7,0.3,1.4,0.8,1.6c0.2,0.1,0.4,0,0.6-0.1C38,77.4,38,77.3,38,77.4L38,77.4z"/>
<path fill="#263238" d="M51.1,60.7c-0.3-0.5-1.1-1.1-1.5-1.4c-0.5-0.4-1.6-0.6-2.2-0.7c-1.6-0.1-3.1,0-4.6,0.4
	c-1.5,0.5-2.9,1.4-3.6,2.8c-0.6,1.1-0.7,2.4-1.6,3.3c-0.7,0.7-1.8,1-2.2,1.9c-0.7,1.6,1.4,3.4,0.7,5c-0.1,0.3-0.3,0.5-0.3,0.9
	s0.3,0.7,0.6,0.8c0.3,0.1,0.7,0.2,1.1,0.2c1.3,0,2.9-0.2,3.4-1.3c0.5-1.1-0.2-2.6,0.6-3.5c0.6-0.8,1.7-0.5,2.6-1
	c0.4-0.2,0.7-0.5,1-0.8c0.6-0.1,1.2-0.1,1.7-0.3c0.7-0.2,1.4-0.7,1.7-1.3c0.4-0.7,0.4-1.6,1-2.2c0.6-0.6,1.7-0.7,2-1.5
	C51.8,61.6,51.5,61,51.1,60.7L51.1,60.7z"/>
<path fill="#263238" d="M80.4,124.8l1.1,2.1c0.6,1.1,0.1,2.5-1,3.1l-7.5,3.7c-1.1,0.5-2.4,0.1-3-1l-1.7-3.1L80.4,124.8z"/>
<path fill="#FFD0B7" d="M3.7,95.3l6.8,1.7c0,0,0.3-1.3,0.4-1.8c0.3-1.5,0-2.3-0.2-2.6c-0.1-0.2-0.1-0.5-0.1-0.5c0-0.5,1.3-3,1.7-4
	c0.5-1.1,0-1.8-0.4-1.4c-0.6,0.8-2.5,4.3-3,4.6C8.5,91.6,9,89.7,9,89.7c1.3-4,1.7-4.6,1-4.8c-0.8-0.3-2.8,5.6-2.8,5.6
	s0.3-0.8-0.4-1.1C6.4,89.1,6,89.9,6,89.9c0.2-0.4-0.4-0.6-0.4-0.6C3.9,89.3,3.7,95.3,3.7,95.3l6.8,1.7l-0.7,23.8l2.5-2.7l8.4,6.9
	l-8.4,7.7c-1.8,1.5-4.1,2.1-6.4,1.6c-3.8-0.8-6.3-4.4-5.9-8.2L3.7,95.3L3.7,95.3z"/>
<path fill="#EB996E" d="M9.1,96.4c0,0-0.3-0.4-0.7-1.1C8.2,95,8,94.5,7.8,94c-0.1-0.2-0.2-0.5-0.3-0.8c-0.1-0.3-0.2-0.6-0.1-0.8
	c0-0.1,0.1-0.2,0.3-0.3c0.1,0,0.3,0,0.4,0.1c0.3,0.2,0.5,0.4,0.7,0.6c0.4,0.4,0.6,0.9,0.8,1.2l0.1,0.1L9.8,94
	c0.3-0.5,0.7-0.6,0.7-0.6s-0.4,0-0.8,0.5h0.1C9.7,93.5,9.4,93,9,92.6c-0.2-0.2-0.4-0.5-0.7-0.7c-0.1,0.1-0.3,0-0.6,0
	c-0.2,0-0.4,0.2-0.5,0.4c-0.1,0.4,0,0.7,0.1,1s0.2,0.5,0.3,0.8C7.8,94.6,8,95,8.3,95.4C8.8,96,9.1,96.4,9.1,96.4L9.1,96.4z"/>
<path fill="#EB996E" d="M7.3,91c0,0-0.1,0.5-0.2,1.3c0,0.4-0.1,0.9-0.2,1.4c0,0.3,0,0.5-0.1,0.8c-0.1,0.2-0.3,0.4-0.5,0.3
	s-0.2-0.4-0.2-0.7c0-0.3,0-0.6-0.1-0.8c0-0.5,0-1,0-1.4c0-0.8,0-1.3-0.1-1.3c0,0-0.1,0.5-0.1,1.3c0,0.4,0,0.9,0,1.4
	c0,0.3,0,0.5,0,0.8s0,0.6,0.3,0.9c0.2,0.1,0.4,0.1,0.6,0S7,94.7,7,94.6c0.1-0.3,0.1-0.6,0.1-0.8c0-0.5,0.1-1,0.1-1.4
	C7.3,91.4,7.3,91,7.3,91L7.3,91z"/>
<path fill="#EB996E" d="M5.8,92.5c0,0,0,0.3-0.1,0.7c-0.1,0.2-0.1,0.5-0.3,0.7c-0.1,0.1-0.2,0.1-0.2,0C5.1,93.7,5,93.5,5,93.4
	c-0.4-1.4-0.2-2.6-0.3-2.6c-0.1,0-0.3,1.2,0.1,2.6c0.1,0.2,0.1,0.3,0.2,0.5c0,0.1,0.1,0.2,0.3,0.2c0.1,0,0.3,0,0.3-0.1
	c0.1-0.1,0.2-0.3,0.3-0.4C6,93.5,6,93.3,6,93.2C5.9,92.8,5.8,92.5,5.8,92.5L5.8,92.5z"/>
<path fill="#263238" d="M11.2,116l12,10l-0.2,0.2c-1.4,1.5-3.8,1.7-5.3,0.3l-6.7-5.8c-1.1-1-1.3-2.7-0.4-4L11.2,116L11.2,116z"/>
<path fill="#263238" d="M51.8,92.8L51,89.1c0,0-4.5,0.3-5.9,4.4c0,0-1.7-4.4-7.1-5.2L36.9,93l8.6,3.6L51.8,92.8"/>
<path fill="#455A64" d="M68.9,130.2c0.1,0.1,2.4-1.1,5.2-2.5c2.9-1.4,5.2-2.5,5.2-2.6s-2.5,0.8-5.4,2.2
	C71,128.6,68.8,130,68.9,130.2z"/>
<path fill="#455A64" d="M11.9,115.8c0,0,0.3,0.7,1.1,1.8c0.8,1,1.9,2.4,3.4,3.7c1.5,1.3,2.9,2.4,4,3c1.1,0.7,1.8,1,1.9,0.9
	s-2.7-1.7-5.6-4.4C13.8,118.4,12,115.7,11.9,115.8z"/>
<path fill="#455A64" d="M45.1,93.5c0,0,0,0.2,0,0.6s0,1,0,1.6c0,1.5-0.1,3.6-0.1,6.1c0,5.2-0.1,12.3-0.1,20.1s0,14.9,0,20.1
	c0,2.5,0,4.6,0.1,6.1c0,0.7,0,1.2,0,1.7c0,0.4,0,0.6,0,0.6s0-0.2,0-0.6c0-0.4,0-1,0-1.7c0-1.5,0.1-3.6,0.1-6.1
	c0-5.2,0.1-12.3,0.1-20.1s0-14.9,0-20.1c0-2.5,0-4.6-0.1-6.1c0-0.7,0-1.2,0-1.6C45.1,93.7,45.1,93.5,45.1,93.5z"/>
<path fill="#455A64" d="M46,92.1c0,0,0.1-0.1,0.4,0c0.2,0,0.4,0.3,0.6,0.7c0.4,0.8,0.9,1.9,0.9,3.2v0.6l0.4-0.4l0,0
	c1.9-2,3.7-3.3,3.6-3.4c-0.1-0.1-2,1.1-3.9,3.1l0,0l0.4,0.2c-0.1-1.4-0.6-2.6-1.1-3.4c-0.2-0.4-0.6-0.7-0.9-0.7
	C46,92,45.9,92.1,46,92.1L46,92.1z"/>
<path fill="#455A64" d="M37.9,88.4c-0.1,0-0.6,1.8-1.2,4.4v0.1l0.1,0.1c0.8,0.5,1.6,1.1,2.6,1.6c1,0.6,2,1.1,2.8,1.5l0.3,0.2V96
	c0-1.2,0.5-2.3,0.9-2.9s0.8-0.9,0.7-1c0,0-0.4,0.2-0.9,0.8c-0.5,0.6-1.1,1.7-1.1,3l0.3-0.2c-0.8-0.4-1.8-1-2.8-1.5
	c-0.9-0.5-1.8-1.1-2.6-1.6l0.1,0.2C37.7,90.3,38,88.5,37.9,88.4L37.9,88.4z"/>
<path fill="#455A64" d="M43.7,103.8c0,0.1,0,0.2,0,0.4c-0.1,0.2-0.2,0.3-0.4,0.2c-0.2-0.1-0.2-0.3,0-0.5
	C43.4,103.8,43.6,103.8,43.7,103.8c0-0.1-0.2-0.3-0.6-0.2c-0.2,0.1-0.4,0.2-0.4,0.4c-0.1,0.3,0.1,0.6,0.3,0.7c0.2,0.2,0.6,0.2,0.8,0
	s0.3-0.4,0.2-0.6C44,103.9,43.7,103.8,43.7,103.8L43.7,103.8z"/>
<path fill="#455A64" d="M43.3,119.7c0,0.1,0,0.2,0,0.4c-0.1,0.2-0.2,0.3-0.4,0.2c-0.2-0.1-0.2-0.3,0-0.5
	C43,119.7,43.2,119.7,43.3,119.7c0-0.1-0.2-0.3-0.6-0.2c-0.2,0.1-0.4,0.2-0.4,0.4c-0.1,0.3,0.1,0.6,0.3,0.7c0.2,0.2,0.6,0.2,0.8,0
	s0.3-0.4,0.2-0.6C43.6,119.8,43.3,119.7,43.3,119.7L43.3,119.7z"/>
<path fill="#455A64" d="M43.2,137.4c0,0.1,0,0.2,0,0.4c-0.1,0.2-0.2,0.3-0.4,0.2s-0.2-0.3,0-0.5C43,137.4,43.1,137.4,43.2,137.4
	c0-0.1-0.2-0.3-0.6-0.2c-0.2,0.1-0.4,0.2-0.4,0.4c-0.1,0.3,0.1,0.6,0.3,0.7c0.2,0.2,0.6,0.2,0.8,0s0.3-0.4,0.2-0.6
	C43.5,137.4,43.3,137.3,43.2,137.4L43.2,137.4z"/>
<path fill="#F5F5F5" d="M72.4,124.1c0.1,0,0.4-0.7,0.6-1.6s0.2-1.6,0.1-1.7c-0.1,0-0.4,0.7-0.6,1.6
	C72.3,123.4,72.3,124.1,72.4,124.1z"/>
<path fill="#F5F5F5" d="M68.9,114.2c0,0.1,0.7,0.4,1.6,0.6s1.7,0.3,1.8,0.1c0-0.1-0.7-0.4-1.6-0.6C69.7,114.1,68.9,114,68.9,114.2z"
	/>
<path fill="#F5F5F5" d="M66.4,119.8c-0.1,0.1,0.2,0.6,0.7,1.1s0.9,0.8,1,0.7c0.1-0.1-0.2-0.6-0.7-1.1
	C67,120.1,66.5,119.7,66.4,119.8z"/>
<path fill="#F5F5F5" d="M65.9,109c0.1,0,0.3-0.9,0.3-2s0-2-0.2-2c-0.1,0-0.3,0.9-0.3,2C65.7,108.1,65.7,109,65.9,109z"/>
<path fill="#F5F5F5" d="M58.8,100c0,0.1,0.9,0.2,2,0.2s1.9-0.1,1.9-0.3c0-0.1-0.9-0.2-2-0.2C59.6,99.7,58.8,99.9,58.8,100z"/>
<path fill="#F5F5F5" d="M53.7,99.8c0.1,0-0.1-1-0.4-2c-0.4-1.1-0.8-1.9-0.9-1.9c-0.1,0,0.1,1,0.4,2C53.2,99,53.6,99.8,53.7,99.8z"/>
<path fill="#F5F5F5" d="M55.6,111c0.1,0.1,0.6-0.7,1.1-1.6s0.8-1.8,0.7-1.8c-0.1-0.1-0.6,0.6-1.1,1.6
	C55.8,110.1,55.5,110.9,55.6,111z"/>
<path fill="#F5F5F5" d="M48.9,107.1c0.1,0,0.1-0.7,0-1.5s-0.3-1.4-0.4-1.4c-0.1,0-0.1,0.7,0,1.5C48.5,106.5,48.7,107.1,48.9,107.1z"
	/>
<path fill="#F5F5F5" d="M49.6,113.9c0,0.1,0.6,0.3,1.4,0.4c0.8,0.1,1.4,0.1,1.5-0.1c0-0.1-0.6-0.3-1.4-0.4
	C50.3,113.7,49.7,113.7,49.6,113.9z"/>
<path fill="#F5F5F5" d="M58.8,122.6c0.1,0,0.3-0.7,0.4-1.5c0.1-0.8,0-1.5-0.1-1.5s-0.3,0.7-0.4,1.5S58.6,122.6,58.8,122.6z"/>
<path fill="#F5F5F5" d="M51.2,125.2c-0.1,0.1,0.4,0.8,1,1.6c0.7,0.8,1.3,1.4,1.4,1.3c0.1-0.1-0.4-0.8-1-1.7
	C52,125.7,51.3,125.1,51.2,125.2L51.2,125.2z"/>
<path fill="#F5F5F5" d="M57.8,135.1c0.1,0.1,0.5-0.6,0.9-1.4c0.4-0.8,0.5-1.5,0.4-1.6s-0.5,0.6-0.9,1.4
	C57.9,134.3,57.7,135,57.8,135.1z"/>
<path fill="#F5F5F5" d="M49.3,136.1c-0.1,0-0.1,0.8,0.1,1.7c0.2,0.9,0.4,1.7,0.6,1.6c0.1,0,0.1-0.8-0.1-1.7
	C49.6,136.8,49.4,136.1,49.3,136.1z"/>
<path fill="#F5F5F5" d="M57.4,148.5c0.1,0.1,0.7-0.4,1.3-1.2c0.6-0.7,1.1-1.4,1-1.5s-0.7,0.4-1.3,1.2
	C57.7,147.8,57.3,148.4,57.4,148.5z"/>
<path fill="#F5F5F5" d="M56.9,153.3c0,0.1,0.7,0.4,1.6,0.5c0.9,0.1,1.7,0.2,1.7,0c0-0.1-0.7-0.4-1.6-0.5S57,153.1,56.9,153.3z"/>
<path fill="#F5F5F5" d="M47.3,146.9c-0.1,0.1,0.6,0.9,1.5,1.8c0.9,0.9,1.8,1.5,1.8,1.4c0.1-0.1-0.6-0.9-1.5-1.8
	C48.2,147.4,47.4,146.8,47.3,146.9L47.3,146.9z"/>
<path fill="#F5F5F5" d="M55.1,140c-0.1,0-0.2,0.5-0.1,1c0.1,0.5,0.2,1,0.4,0.9c0.1,0,0.2-0.5,0.1-1C55.4,140.4,55.3,140,55.1,140z"
	/>
<path fill="#F5F5F5" d="M47.4,119.7c0,0.1,0.7,0.1,1.4-0.2c0.7-0.2,1.3-0.5,1.2-0.6c0-0.1-0.7-0.1-1.4,0.2
	C47.9,119.3,47.4,119.6,47.4,119.7z"/>
<path fill="#F5F5F5" d="M40.9,114.8c0.1,0,0.1-0.9-0.1-2c-0.2-1.1-0.4-1.9-0.6-1.9c-0.1,0-0.1,0.9,0.1,2
	C40.6,113.9,40.8,114.8,40.9,114.8z"/>
<path fill="#F5F5F5" d="M33.1,119.3c0.1,0.1,0.7-0.5,1.4-1.3s1.1-1.5,1-1.6s-0.7,0.5-1.4,1.3C33.4,118.5,33,119.2,33.1,119.3z"/>
<path fill="#F5F5F5" d="M37.9,123.1c-0.1,0,0.1,0.9,0.5,1.8c0.4,1,0.8,1.7,0.9,1.7c0.1,0-0.1-0.9-0.5-1.8
	C38.5,123.8,38.1,123,37.9,123.1z"/>
<path fill="#F5F5F5" d="M37.3,133.6c0.1,0.1,0.8-0.4,1.5-1.2s1.3-1.5,1.2-1.6s-0.8,0.4-1.5,1.2C37.7,132.9,37.2,133.6,37.3,133.6z"
	/>
<path fill="#F5F5F5" d="M31.3,134.1c0.1,0,0.1-0.8-0.2-1.8c-0.2-1-0.5-1.7-0.6-1.7s-0.1,0.8,0.2,1.8
	C30.9,133.4,31.2,134.2,31.3,134.1z"/>
<path fill="#F5F5F5" d="M37,143.5c0.1,0.1,0.7-0.4,1.4-1.1c0.7-0.6,1.3-1.1,1.2-1.3c-0.1-0.1-0.8,0.2-1.5,0.9
	C37.3,142.7,36.9,143.4,37,143.5L37,143.5z"/>
<path fill="#F5F5F5" d="M36.6,149.3c-0.1,0.1,0.5,0.7,1.4,1.2s1.7,0.7,1.8,0.6c0-0.1-0.7-0.5-1.5-1S36.7,149.2,36.6,149.3z"/>
<path fill="#F5F5F5" d="M29,150.4c-0.1,0-0.3,0.7-0.3,1.6c0,0.9,0,1.6,0.2,1.6c0.1,0,0.3-0.7,0.3-1.6
	C29.2,151.2,29.1,150.4,29,150.4z"/>
<path fill="#F5F5F5" d="M31.8,143.5c0.1,0,0.2-1.2,0.2-2.6c0-1.4-0.2-2.6-0.3-2.6c-0.1,0-0.2,1.2-0.2,2.6
	C31.5,142.4,31.6,143.5,31.8,143.5z"/>
<path fill="#F5F5F5" d="M30.1,123.9c-0.1,0.1,0.4,0.5,1.2,0.6c0.7,0.2,1.3,0,1.3-0.1s-0.6-0.2-1.2-0.4
	C30.7,123.9,30.2,123.8,30.1,123.9z"/>
<path fill="#F5F5F5" d="M32.8,104c-0.1,0-0.1,1,0,2.1c0.2,1.1,0.4,2.1,0.5,2.1s0.1-1,0-2.1C33.2,104.9,32.9,103.9,32.8,104z"/>
<path fill="#F5F5F5" d="M38.8,101.6c-0.1,0-0.4,0.6-0.7,1.4s-0.4,1.5-0.2,1.6c0.1,0,0.4-0.6,0.7-1.4
	C38.8,102.4,38.9,101.6,38.8,101.6z"/>
<path fill="#F5F5F5" d="M36.1,96.5c-0.1,0.1,0.7,0.6,1.7,0.9s1.9,0.3,1.9,0.2c0-0.1-0.8-0.3-1.8-0.6C37,96.6,36.2,96.4,36.1,96.5
	L36.1,96.5z"/>
<path fill="#F5F5F5" d="M31.7,98.9c0.1,0,0-0.8-0.4-1.6c-0.3-0.9-0.7-1.5-0.8-1.5c-0.1,0,0,0.8,0.4,1.6
	C31.2,98.3,31.6,98.9,31.7,98.9z"/>
<path fill="#F5F5F5" d="M22.7,104.1c0.1,0.1,0.8-0.4,1.7-1c0.9-0.7,1.5-1.3,1.4-1.4s-0.8,0.4-1.7,1C23.2,103.3,22.6,104,22.7,104.1z
	"/>
<path fill="#F5F5F5" d="M25.8,109.7c0.1,0,0.3-0.9,0.3-2.1c0-1.1,0-2.1-0.2-2.1s-0.3,0.9-0.3,2.1C25.6,108.7,25.7,109.7,25.8,109.7z
	"/>
<path fill="#F5F5F5" d="M22.7,116.5c0,0.1,0.7,0.2,1.6,0.1s1.5-0.3,1.5-0.4s-0.7-0.2-1.6-0.1C23.4,116.2,22.7,116.4,22.7,116.5z"/>
<path fill="#F5F5F5" d="M18.6,115.9c0.1,0.1,0.6-0.8,0.8-2.1c0.2-1.2,0-2.2-0.1-2.2s-0.1,1-0.4,2.2C18.8,115,18.4,115.9,18.6,115.9z
	"/>
<path fill="#F5F5F5" d="M19.3,121.9c0,0.1,0.6,0.4,1.3,0.5c0.8,0.1,1.4,0.2,1.4,0c0-0.1-0.6-0.4-1.3-0.5S19.4,121.8,19.3,121.9
	L19.3,121.9z"/>
<path fill="#F5F5F5" d="M41.3,93c0.1,0.1,0.5-0.1,0.7-0.5s0.2-0.9,0.1-0.9c-0.1,0-0.3,0.3-0.5,0.7C41.4,92.6,41.2,92.9,41.3,93z"/>
<path fill="#F5F5F5" d="M38.7,92.2c0.1,0.1,0.4-0.3,0.7-0.8s0.4-1,0.2-1c-0.1-0.1-0.4,0.3-0.7,0.8C38.7,91.7,38.6,92.2,38.7,92.2z"
	/>
<path fill="#F5F5F5" d="M48.9,91.7c0,0.1,0.4,0.2,0.9,0.2s0.9-0.2,0.9-0.3s-0.4-0.2-0.9-0.2C49.3,91.4,48.9,91.6,48.9,91.7z"/>
<path fill="#455A64" d="M32.4,75.4c0,0,0.1,0,0.3,0c0.2-0.1,0.4-0.1,0.7-0.3c0.6-0.4,1.4-1.1,1.6-2.4c0.1-0.6,0.1-1.3,0.3-1.9
	c0.1-0.3,0.3-0.6,0.6-0.8c0.3-0.2,0.6-0.3,1-0.4s0.8-0.2,1.2-0.5s0.7-0.7,0.9-1.1c0.3-0.9,0.4-1.8,0.9-2.5c1.1-1.3,3.5,0,4.8-1.6
	c0.6-0.7,0.6-1.6,0.8-2.2c0.2-0.6,0.6-1.1,1.1-1.5c1-0.7,2-0.6,2.6-0.5c0.6,0.2,0.9,0.4,1,0.4c0,0-0.1-0.1-0.2-0.2
	c-0.1-0.1-0.4-0.3-0.7-0.4c-0.6-0.2-1.8-0.4-2.9,0.4c-0.5,0.4-1,0.9-1.3,1.6c-0.3,0.7-0.3,1.5-0.8,2.1s-1.3,0.7-2.2,0.7
	c-0.4,0-0.9,0-1.4,0.1s-1,0.3-1.3,0.7c-0.7,0.9-0.6,1.9-0.9,2.6c-0.1,0.4-0.4,0.7-0.7,0.9c-0.3,0.2-0.7,0.3-1.1,0.4
	c-0.4,0.1-0.8,0.2-1.1,0.5c-0.4,0.3-0.6,0.6-0.7,1c-0.2,0.7-0.2,1.4-0.3,2c-0.2,1.2-0.9,1.9-1.4,2.3C32.8,75.3,32.4,75.4,32.4,75.4
	L32.4,75.4z"/>
<path fill="#263238" d="M51.1,275.8c0,0,0-0.1,0-0.3c0-0.2,0-0.5,0-0.9c0-0.8,0.1-2,0.1-3.4c0.1-3,0.2-7.3,0.4-12.6
	c0.4-10.7,0.9-25.3,1.4-41.6c0.5-16.2,0.9-30.9,0.9-41.6c0-5.3,0-9.6,0-12.6c0-1.5,0-2.6,0-3.4c0-0.4,0-0.7,0-0.9s0-0.3,0-0.3
	s0,0.1,0,0.3v0.9c0,0.8,0,2,0,3.4c0,3-0.1,7.3-0.2,12.6c-0.2,10.6-0.5,25.3-1.1,41.6c-0.5,16.2-1,30.9-1.3,41.6
	c-0.1,5.3-0.2,9.6-0.3,12.6c0,1.5,0,2.6,0,3.4c0,0.4,0,0.7,0,0.9C51.1,275.7,51.1,275.8,51.1,275.8L51.1,275.8z"/>
<path fill="#263238" d="M12,277c0.1,0,5.1-26.6,11-59.5c6-32.9,10.7-59.5,10.6-59.5c-0.1,0-5.1,26.6-11,59.5
	C16.6,250.3,11.8,277,12,277L12,277z"/>
<path fill="#263238" d="M43.4,165.7c0,0,0.2,0.1,0.6,0.1c0.4,0,0.9-0.3,1.3-0.8c0.4-0.5,0.7-1.3,0.8-2.1c0.2-0.8,0.3-1.7,0.5-2.7
	c0.3-1.9,0.4-3.7,0.4-4.9c0-1.3,0-2.1-0.1-2.1s-0.3,3.1-0.8,6.9c-0.1,0.9-0.3,1.8-0.4,2.7c-0.1,0.8-0.3,1.5-0.7,2
	c-0.3,0.5-0.8,0.7-1.1,0.8C43.6,165.7,43.4,165.7,43.4,165.7z"/>
<path fill="#263238" d="M45.2,153.9c0,0,0,0.2,0,0.4c-0.1,0.2-0.3,0.4-0.5,0.2c-0.3-0.2-0.2-0.4,0-0.6c0.2-0.2,0.3-0.1,0.4-0.2
	c0,0-0.2-0.2-0.5-0.1c-0.2,0.1-0.4,0.2-0.4,0.5c-0.1,0.3,0.1,0.6,0.3,0.8c0.3,0.2,0.6,0.2,0.8,0s0.3-0.4,0.3-0.6
	C45.5,154,45.2,153.9,45.2,153.9L45.2,153.9z"/>
</svg>
