<?xml version="1.0" encoding="utf-8"?>
<!-- Generator: Adobe Illustrator 27.9.0, SVG Export Plug-In . SVG Version: 6.00 Build 0)  -->
<svg version="1.1" id="Layer_1" xmlns="http://www.w3.org/2000/svg" xmlns:xlink="http://www.w3.org/1999/xlink" x="0px" y="0px"
	 viewBox="0 0 345 300" enable-background="new 0 0 345 300" xml:space="preserve">
<path fill="#F5F5F5" d="M299.99,59.36h-37.58v119.12h37.58V59.36z"/>
<path fill="#EBEBEB" d="M300,59.36h-18.8v118.79H300V59.36z"/>
<path fill="#F5F5F5" d="M279.97,47.67H266.7v11.69h13.27V47.67z"/>
<path fill="#EBEBEB" d="M279.98,47.67h-3.16v11.69h3.16V47.67z"/>
<path fill="#E0E0E0" d="M259.27,59.36v-0.68h41.82v0.68"/>
<path fill="#FAFAFA" d="M273.01,64.46h-3.18v6.71h3.18V64.46z"/>
<path fill="#E0E0E0" d="M281.2,73.8c0,0.07-4.21,0.13-9.4,0.13s-9.4-0.06-9.4-0.13s4.21-0.13,9.4-0.13
	C276.99,73.67,281.2,73.73,281.2,73.8z"/>
<path fill="#E0E0E0" d="M291.97,64.46h-3.18v6.71h3.18V64.46z"/>
<path fill="#E0E0E0" d="M300.16,73.8c0,0.07-4.21,0.13-9.4,0.13s-9.4-0.06-9.4-0.13s4.21-0.13,9.4-0.13
	C295.95,73.67,300.16,73.73,300.16,73.8z"/>
<path fill="#E0E0E0" d="M291.97,77.78h-3.18v6.71h3.18V77.78z"/>
<path fill="#E0E0E0" d="M300.16,87.12c0,0.07-4.21,0.13-9.4,0.13s-9.4-0.06-9.4-0.13s4.21-0.13,9.4-0.13
	C295.95,86.99,300.16,87.05,300.16,87.12z"/>
<path fill="#E0E0E0" d="M291.97,91.5h-3.18v6.71h3.18V91.5z"/>
<path fill="#E0E0E0" d="M300.16,100.84c0,0.07-4.21,0.13-9.4,0.13s-9.4-0.06-9.4-0.13s4.21-0.13,9.4-0.13
	S300.16,100.77,300.16,100.84z"/>
<path fill="#E0E0E0" d="M291.97,105.22h-3.18v6.71h3.18V105.22z"/>
<path fill="#E0E0E0" d="M300.16,114.56c0,0.07-4.21,0.13-9.4,0.13s-9.4-0.06-9.4-0.13s4.21-0.13,9.4-0.13
	C295.95,114.44,300.16,114.5,300.16,114.56z"/>
<path fill="#E0E0E0" d="M291.97,118.55h-3.18v6.71h3.18V118.55z"/>
<path fill="#E0E0E0" d="M300.16,127.89c0,0.07-4.21,0.13-9.4,0.13s-9.4-0.06-9.4-0.13s4.21-0.13,9.4-0.13
	C295.95,127.76,300.16,127.82,300.16,127.89z"/>
<path fill="#E0E0E0" d="M291.97,131.93h-3.18v6.71h3.18V131.93z"/>
<path fill="#E0E0E0" d="M291.97,145.49h-3.18v6.71h3.18V145.49z"/>
<path fill="#E0E0E0" d="M300.16,141.27c0,0.07-4.21,0.13-9.4,0.13s-9.4-0.06-9.4-0.13s4.21-0.13,9.4-0.13
	S300.16,141.2,300.16,141.27z"/>
<path fill="#FAFAFA" d="M273.01,77.98h-3.18v6.71h3.18V77.98z"/>
<path fill="#E0E0E0" d="M281.2,87.32c0,0.07-4.21,0.13-9.4,0.13s-9.4-0.06-9.4-0.13s4.21-0.13,9.4-0.13
	C276.99,87.2,281.2,87.25,281.2,87.32z"/>
<path fill="#FAFAFA" d="M273.01,91.5h-3.18v6.71h3.18V91.5z"/>
<path fill="#E0E0E0" d="M281.2,100.85c0,0.07-4.21,0.13-9.4,0.13s-9.4-0.06-9.4-0.13s4.21-0.13,9.4-0.13
	C276.99,100.72,281.2,100.78,281.2,100.85z"/>
<path fill="#FAFAFA" d="M273.01,105.02h-3.18v6.71h3.18V105.02z"/>
<path fill="#E0E0E0" d="M281.2,114.37c0,0.07-4.21,0.13-9.4,0.13s-9.4-0.06-9.4-0.13s4.21-0.13,9.4-0.13
	C276.99,114.24,281.2,114.3,281.2,114.37z"/>
<path fill="#FAFAFA" d="M273.01,118.55h-3.18v6.71h3.18V118.55z"/>
<path fill="#E0E0E0" d="M281.2,127.89c0,0.07-4.21,0.13-9.4,0.13s-9.4-0.06-9.4-0.13s4.21-0.13,9.4-0.13
	C276.99,127.76,281.2,127.82,281.2,127.89z"/>
<path fill="#FAFAFA" d="M273.01,132.07h-3.18v6.71h3.18V132.07z"/>
<path fill="#E0E0E0" d="M281.2,141.41c0,0.07-4.21,0.13-9.4,0.13s-9.4-0.06-9.4-0.13s4.21-0.13,9.4-0.13
	C276.99,141.28,281.2,141.34,281.2,141.41z"/>
<path fill="#FAFAFA" d="M273.01,145.59h-3.18v6.71h3.18V145.59z"/>
<path fill="#F5F5F5" d="M343.7,110.53h-44.42V251.3h44.42V110.53z"/>
<path fill="#EBEBEB" d="M343.7,112.38h-22.21v138.93h22.21V112.38z"/>
<path fill="#F5F5F5" d="M320.04,98.56h-15.68v13.82h15.68V98.56z"/>
<path fill="#EBEBEB" d="M320.04,98.56h-3.74v13.82h3.74V98.56z"/>
<path fill="#E0E0E0" d="M295.58,112.38v-0.81H345v0.81"/>
<path fill="#FAFAFA" d="M311.81,118.41h-3.76v7.93h3.76V118.41z"/>
<path fill="#E0E0E0" d="M321.49,129.45c0,0.08-4.97,0.15-11.1,0.15s-11.11-0.07-11.11-0.15c0-0.08,4.97-0.15,11.11-0.15
	S321.49,129.36,321.49,129.45z"/>
<path fill="#E0E0E0" d="M334.21,118.41h-3.76v7.93h3.76V118.41z"/>
<path fill="#E0E0E0" d="M343.89,129.45c0,0.08-4.97,0.15-11.1,0.15s-11.11-0.07-11.11-0.15c0-0.08,4.97-0.15,11.11-0.15
	S343.89,129.36,343.89,129.45z"/>
<path fill="#E0E0E0" d="M334.21,134.15h-3.76v7.93h3.76V134.15z"/>
<path fill="#E0E0E0" d="M343.89,145.18c0,0.08-4.97,0.15-11.1,0.15s-11.11-0.07-11.11-0.15c0-0.08,4.97-0.15,11.11-0.15
	S343.89,145.1,343.89,145.18z"/>
<path fill="#E0E0E0" d="M334.21,150.36h-3.76v7.93h3.76V150.36z"/>
<path fill="#E0E0E0" d="M343.89,161.4c0,0.08-4.97,0.15-11.1,0.15s-11.11-0.07-11.11-0.15c0-0.08,4.97-0.15,11.11-0.15
	S343.89,161.32,343.89,161.4z"/>
<path fill="#E0E0E0" d="M334.21,166.57h-3.76v7.93h3.76V166.57z"/>
<path fill="#E0E0E0" d="M343.89,177.61c0,0.08-4.97,0.15-11.1,0.15s-11.11-0.07-11.11-0.15s4.97-0.15,11.11-0.15
	S343.89,177.53,343.89,177.61z"/>
<path fill="#E0E0E0" d="M334.21,182.32h-3.76v7.93h3.76V182.32z"/>
<path fill="#E0E0E0" d="M343.89,193.36c0,0.08-4.97,0.15-11.1,0.15s-11.11-0.07-11.11-0.15s4.97-0.15,11.11-0.15
	S343.89,193.28,343.89,193.36z"/>
<path fill="#E0E0E0" d="M334.21,198.14h-3.76v7.93h3.76V198.14z"/>
<path fill="#E0E0E0" d="M334.21,214.16h-3.76v7.93h3.76V214.16z"/>
<path fill="#E0E0E0" d="M343.89,209.18c0,0.08-4.97,0.15-11.1,0.15s-11.11-0.07-11.11-0.15c0-0.08,4.97-0.15,11.11-0.15
	S343.89,209.1,343.89,209.18z"/>
<path fill="#FAFAFA" d="M311.81,134.39h-3.76v7.93h3.76V134.39z"/>
<path fill="#E0E0E0" d="M321.49,145.43c0,0.08-4.97,0.15-11.1,0.15s-11.11-0.07-11.11-0.15c0-0.08,4.97-0.15,11.11-0.15
	S321.49,145.34,321.49,145.43z"/>
<path fill="#FAFAFA" d="M311.81,150.36h-3.76v7.93h3.76V150.36z"/>
<path fill="#E0E0E0" d="M321.49,161.41c0,0.08-4.97,0.15-11.1,0.15s-11.11-0.07-11.11-0.15c0-0.08,4.97-0.15,11.11-0.15
	S321.49,161.32,321.49,161.41z"/>
<path fill="#FAFAFA" d="M311.81,166.34h-3.76v7.93h3.76V166.34z"/>
<path fill="#E0E0E0" d="M321.49,177.39c0,0.08-4.97,0.15-11.1,0.15s-11.11-0.07-11.11-0.15c0-0.08,4.97-0.15,11.11-0.15
	S321.49,177.3,321.49,177.39z"/>
<path fill="#FAFAFA" d="M311.81,182.32h-3.76v7.93h3.76V182.32z"/>
<path fill="#E0E0E0" d="M321.49,193.36c0,0.08-4.97,0.15-11.1,0.15s-11.11-0.07-11.11-0.15s4.97-0.15,11.11-0.15
	S321.49,193.28,321.49,193.36z"/>
<path fill="#FAFAFA" d="M311.81,198.3h-3.76v7.93h3.76V198.3z"/>
<path fill="#E0E0E0" d="M321.49,209.34c0,0.08-4.97,0.15-11.1,0.15s-11.11-0.07-11.11-0.15c0-0.08,4.97-0.15,11.11-0.15
	S321.49,209.26,321.49,209.34z"/>
<path fill="#FAFAFA" d="M311.81,214.29h-3.76v7.93h3.76V214.29z"/>
<path fill="#F5F5F5" d="M310.32,251.3h-57.81l-0.25-91.37h57.81L310.32,251.3z"/>
<path fill="#EBEBEB" d="M310.07,159.93h-28.91v91.37h28.91V159.93z"/>
<path fill="#F5F5F5" d="M279.27,141.95h-20.42v17.99h20.42V141.95z"/>
<path fill="#EBEBEB" d="M279.27,141.95h-4.86v17.99h4.86V141.95z"/>
<path fill="#E0E0E0" d="M311.76,158.88h-64.32v1.05h64.32V158.88z"/>
<path fill="#FFFFFF" d="M268.56,167.78h-4.89v10.32h4.89V167.78z"/>
<path fill="#E0E0E0" d="M281.16,182.15c0,0.11-6.47,0.2-14.45,0.2s-14.45-0.09-14.45-0.2s6.47-0.2,14.45-0.2
	S281.16,182.04,281.16,182.15z"/>
<path fill="#F5F5F5" d="M297.72,167.78h-4.89v10.32h4.89V167.78z"/>
<path fill="#E0E0E0" d="M310.32,182.15c0,0.11-6.47,0.2-14.45,0.2s-14.45-0.09-14.45-0.2s6.47-0.2,14.45-0.2
	S310.32,182.04,310.32,182.15z"/>
<path fill="#F5F5F5" d="M297.72,188.27h-4.89v10.32h4.89V188.27z"/>
<path fill="#E0E0E0" d="M310.32,202.63c0,0.11-6.47,0.2-14.45,0.2s-14.45-0.09-14.45-0.2s6.47-0.2,14.45-0.2
	C303.85,202.43,310.32,202.52,310.32,202.63z"/>
<path fill="#F5F5F5" d="M297.72,209.37h-4.89v10.32h4.89V209.37z"/>
<path fill="#E0E0E0" d="M310.32,223.74c0,0.11-6.47,0.2-14.45,0.2s-14.45-0.09-14.45-0.2s6.47-0.2,14.45-0.2
	C303.85,223.54,310.32,223.63,310.32,223.74z"/>
<path fill="#F5F5F5" d="M297.72,230.47h-4.89v10.32h4.89V230.47z"/>
<path fill="#E0E0E0" d="M310.32,244.84c0,0.11-6.47,0.2-14.45,0.2s-14.45-0.09-14.45-0.2s6.47-0.2,14.45-0.2
	C303.85,244.65,310.32,244.73,310.32,244.84z"/>
<path fill="#FFFFFF" d="M268.56,188.58h-4.89v10.32h4.89V188.58z"/>
<path fill="#E0E0E0" d="M281.16,202.95c0,0.11-6.47,0.2-14.45,0.2s-14.45-0.09-14.45-0.2s6.47-0.2,14.45-0.2
	S281.16,202.84,281.16,202.95z"/>
<path fill="#FFFFFF" d="M268.56,209.38h-4.89v10.32h4.89V209.38z"/>
<path fill="#E0E0E0" d="M281.16,223.75c0,0.11-6.47,0.2-14.45,0.2s-14.45-0.09-14.45-0.2s6.47-0.2,14.45-0.2
	S281.16,223.64,281.16,223.75z"/>
<path fill="#FFFFFF" d="M268.56,230.18h-4.89v10.32h4.89V230.18z"/>
<path fill="#E0E0E0" d="M281.16,244.55c0,0.11-6.47,0.2-14.45,0.2s-14.45-0.09-14.45-0.2s6.47-0.2,14.45-0.2
	S281.16,244.44,281.16,244.55z"/>
<path fill="#F5F5F5" d="M93.03,57.53h-43.5v137.85h43.5V57.53z"/>
<path fill="#EBEBEB" d="M93.02,57.53H71.28V195h21.75V57.53H93.02z"/>
<path fill="#F5F5F5" d="M69.86,44H54.5v13.53h15.36V44z"/>
<path fill="#EBEBEB" d="M69.86,44H66.2v13.53h3.66V44z"/>
<path fill="#E0E0E0" d="M45.91,57.53v-0.79H94.3v0.79"/>
<path fill="#FAFAFA" d="M61.8,63.43h-3.68v7.76h3.68V63.43z"/>
<path fill="#E0E0E0" d="M71.28,74.25c0,0.08-4.87,0.15-10.88,0.15s-10.88-0.06-10.88-0.15c0-0.08,4.87-0.15,10.88-0.15
	S71.28,74.16,71.28,74.25z"/>
<path fill="#E0E0E0" d="M83.74,63.43h-3.68v7.76h3.68V63.43z"/>
<path fill="#E0E0E0" d="M93.22,74.25c0,0.08-4.87,0.15-10.88,0.15c-6.01,0-10.88-0.06-10.88-0.15c0-0.08,4.87-0.15,10.88-0.15
	S93.22,74.16,93.22,74.25z"/>
<path fill="#E0E0E0" d="M83.74,78.85h-3.68v7.76h3.68V78.85z"/>
<path fill="#E0E0E0" d="M93.22,89.66c0,0.08-4.87,0.15-10.88,0.15c-6.01,0-10.88-0.06-10.88-0.15c0-0.08,4.87-0.15,10.88-0.15
	S93.22,89.58,93.22,89.66z"/>
<path fill="#E0E0E0" d="M83.74,94.73h-3.68v7.76h3.68V94.73z"/>
<path fill="#E0E0E0" d="M93.22,105.54c0,0.08-4.87,0.15-10.88,0.15c-6.01,0-10.88-0.06-10.88-0.15s4.87-0.15,10.88-0.15
	S93.22,105.45,93.22,105.54z"/>
<path fill="#E0E0E0" d="M83.74,110.6h-3.68v7.76h3.68V110.6z"/>
<path fill="#E0E0E0" d="M93.22,121.41c0,0.08-4.87,0.15-10.88,0.15c-6.01,0-10.88-0.06-10.88-0.15c0-0.08,4.87-0.15,10.88-0.15
	C88.35,121.27,93.22,121.33,93.22,121.41z"/>
<path fill="#E0E0E0" d="M83.74,126.03h-3.68v7.76h3.68V126.03z"/>
<path fill="#E0E0E0" d="M93.22,136.84c0,0.08-4.87,0.15-10.88,0.15c-6.01,0-10.88-0.06-10.88-0.15c0-0.08,4.87-0.15,10.88-0.15
	S93.22,136.75,93.22,136.84z"/>
<path fill="#E0E0E0" d="M83.74,141.51h-3.68v7.76h3.68V141.51z"/>
<path fill="#E0E0E0" d="M83.74,157.2h-3.68v7.76h3.68V157.2z"/>
<path fill="#E0E0E0" d="M93.22,152.32c0,0.08-4.87,0.15-10.88,0.15c-6.01,0-10.88-0.06-10.88-0.15s4.87-0.15,10.88-0.15
	C88.35,152.18,93.22,152.24,93.22,152.32z"/>
<path fill="#FAFAFA" d="M61.8,79.08h-3.68v7.76h3.68V79.08z"/>
<path fill="#E0E0E0" d="M71.28,89.89c0,0.08-4.87,0.15-10.88,0.15s-10.88-0.06-10.88-0.15c0-0.08,4.87-0.15,10.88-0.15
	S71.28,89.81,71.28,89.89z"/>
<path fill="#FAFAFA" d="M61.8,94.73h-3.68v7.76h3.68V94.73z"/>
<path fill="#E0E0E0" d="M71.28,105.54c0,0.08-4.87,0.15-10.88,0.15s-10.88-0.06-10.88-0.15s4.87-0.15,10.88-0.15
	S71.28,105.46,71.28,105.54z"/>
<path fill="#FAFAFA" d="M61.8,110.38h-3.68v7.76h3.68V110.38z"/>
<path fill="#E0E0E0" d="M71.28,121.19c0,0.08-4.87,0.15-10.88,0.15s-10.88-0.06-10.88-0.15c0-0.08,4.87-0.15,10.88-0.15
	S71.28,121.1,71.28,121.19z"/>
<path fill="#FAFAFA" d="M61.8,126.03h-3.68v7.76h3.68V126.03z"/>
<path fill="#E0E0E0" d="M71.28,136.84c0,0.08-4.87,0.15-10.88,0.15s-10.88-0.06-10.88-0.15c0-0.08,4.87-0.15,10.88-0.15
	S71.28,136.75,71.28,136.84z"/>
<path fill="#FAFAFA" d="M61.8,141.68h-3.68v7.76h3.68V141.68z"/>
<path fill="#E0E0E0" d="M71.28,152.48c0,0.08-4.87,0.15-10.88,0.15s-10.88-0.06-10.88-0.15c0-0.08,4.87-0.15,10.88-0.15
	S71.28,152.4,71.28,152.48z"/>
<path fill="#FAFAFA" d="M61.8,157.32h-3.68v7.76h3.68V157.32z"/>
<path fill="#F5F5F5" d="M136.64,68.63H97.06v125.44h39.58V68.63z"/>
<path fill="#EBEBEB" d="M136.64,68.63h-19.79v125.1h19.79V68.63z"/>
<path fill="#E0E0E0" d="M137.8,67.91H95.59v0.72h42.21L137.8,67.91L137.8,67.91z"/>
<path fill="#FAFAFA" d="M108.23,74h-3.35v7.07h3.35V74z"/>
<path fill="#E0E0E0" d="M116.85,83.84c0,0.07-4.43,0.13-9.89,0.13s-9.9-0.06-9.9-0.13s4.43-0.13,9.9-0.13
	C112.42,83.7,116.85,83.76,116.85,83.84z"/>
<path fill="#E0E0E0" d="M128.19,74h-3.35v7.07h3.35V74z"/>
<path fill="#E0E0E0" d="M136.82,83.83c0,0.07-4.43,0.13-9.89,0.13c-5.46,0-9.89-0.06-9.89-0.13s4.43-0.13,9.89-0.13
	C132.39,83.7,136.82,83.76,136.82,83.83z"/>
<path fill="#E0E0E0" d="M128.19,88.02h-3.35v7.07h3.35V88.02z"/>
<path fill="#E0E0E0" d="M136.82,97.86c0,0.07-4.43,0.13-9.89,0.13c-5.46,0-9.89-0.06-9.89-0.13s4.43-0.13,9.89-0.13
	C132.39,97.73,136.82,97.79,136.82,97.86z"/>
<path fill="#E0E0E0" d="M128.19,102.47h-3.35v7.07h3.35V102.47z"/>
<path fill="#E0E0E0" d="M136.82,112.31c0,0.07-4.43,0.13-9.89,0.13c-5.46,0-9.89-0.06-9.89-0.13s4.43-0.13,9.89-0.13
	C132.39,112.18,136.82,112.24,136.82,112.31z"/>
<path fill="#E0E0E0" d="M128.19,116.92h-3.35v7.07h3.35V116.92z"/>
<path fill="#E0E0E0" d="M136.82,126.76c0,0.07-4.43,0.13-9.89,0.13c-5.46,0-9.89-0.06-9.89-0.13s4.43-0.13,9.89-0.13
	C132.39,126.63,136.82,126.69,136.82,126.76z"/>
<path fill="#E0E0E0" d="M128.19,130.96h-3.35v7.07h3.35V130.96z"/>
<path fill="#E0E0E0" d="M136.82,140.8c0,0.07-4.43,0.13-9.89,0.13c-5.46,0-9.89-0.06-9.89-0.13s4.43-0.13,9.89-0.13
	C132.39,140.67,136.82,140.73,136.82,140.8z"/>
<path fill="#E0E0E0" d="M128.19,145.05h-3.35v7.07h3.35V145.05z"/>
<path fill="#E0E0E0" d="M128.19,159.33h-3.35v7.07h3.35V159.33z"/>
<path fill="#E0E0E0" d="M136.82,154.89c0,0.07-4.43,0.13-9.89,0.13c-5.46,0-9.89-0.06-9.89-0.13s4.43-0.13,9.89-0.13
	C132.39,154.75,136.82,154.81,136.82,154.89z"/>
<path fill="#FAFAFA" d="M108.23,88.24h-3.35v7.07h3.35V88.24z"/>
<path fill="#E0E0E0" d="M116.85,98.08c0,0.07-4.43,0.13-9.89,0.13s-9.9-0.06-9.9-0.13s4.43-0.13,9.9-0.13
	C112.42,97.94,116.85,98,116.85,98.08z"/>
<path fill="#FAFAFA" d="M108.23,102.48h-3.35v7.07h3.35V102.48z"/>
<path fill="#E0E0E0" d="M116.85,112.32c0,0.07-4.43,0.13-9.89,0.13s-9.9-0.06-9.9-0.13s4.43-0.13,9.9-0.13
	C112.42,112.18,116.85,112.24,116.85,112.32z"/>
<path fill="#FAFAFA" d="M108.23,116.72h-3.35v7.07h3.35V116.72z"/>
<path fill="#E0E0E0" d="M116.85,126.56c0,0.07-4.43,0.13-9.89,0.13s-9.9-0.06-9.9-0.13s4.43-0.13,9.9-0.13
	C112.42,126.42,116.85,126.48,116.85,126.56z"/>
<path fill="#FAFAFA" d="M108.23,130.96h-3.35v7.07h3.35V130.96z"/>
<path fill="#E0E0E0" d="M116.85,140.8c0,0.07-4.43,0.13-9.89,0.13s-9.9-0.06-9.9-0.13s4.43-0.13,9.9-0.13
	C112.42,140.67,116.85,140.73,116.85,140.8z"/>
<path fill="#FAFAFA" d="M108.23,145.2h-3.35v7.07h3.35V145.2z"/>
<path fill="#E0E0E0" d="M116.85,155.04c0,0.07-4.43,0.13-9.89,0.13s-9.9-0.06-9.9-0.13s4.43-0.13,9.9-0.13
	C112.42,154.9,116.85,154.96,116.85,155.04z"/>
<path fill="#FAFAFA" d="M108.23,159.44h-3.35v7.07h3.35V159.44z"/>
<path fill="#F5F5F5" d="M47.12,113.37H3.63v137.85h43.5V113.37H47.12z"/>
<path fill="#EBEBEB" d="M47.12,113.37H25.37v137.47h21.75C47.12,250.84,47.12,113.37,47.12,113.37z"/>
<path fill="#F5F5F5" d="M23.95,99.83H8.59v13.53h15.36V99.83z"/>
<path fill="#EBEBEB" d="M23.95,99.83h-3.66v13.53h3.66V99.83z"/>
<path fill="#E0E0E0" d="M0,113.37v-0.79h48.39v0.79"/>
<path fill="#FAFAFA" d="M15.89,119.26h-3.68v7.76h3.68V119.26z"/>
<path fill="#E0E0E0" d="M25.37,130.08c0,0.08-4.87,0.15-10.88,0.15s-10.88-0.06-10.88-0.15c0-0.08,4.87-0.15,10.88-0.15
	C20.5,129.93,25.37,129.99,25.37,130.08z"/>
<path fill="#E0E0E0" d="M37.83,119.26h-3.68v7.76h3.68V119.26z"/>
<path fill="#E0E0E0" d="M47.31,130.08c0,0.08-4.87,0.15-10.88,0.15s-10.88-0.06-10.88-0.15c0-0.08,4.87-0.15,10.88-0.15
	C42.44,129.93,47.31,129.99,47.31,130.08z"/>
<path fill="#E0E0E0" d="M37.83,134.68h-3.68v7.76h3.68V134.68z"/>
<path fill="#E0E0E0" d="M47.31,145.49c0,0.08-4.87,0.15-10.88,0.15s-10.88-0.06-10.88-0.15c0-0.08,4.87-0.15,10.88-0.15
	C42.44,145.34,47.31,145.41,47.31,145.49z"/>
<path fill="#E0E0E0" d="M37.83,150.55h-3.68v7.76h3.68V150.55z"/>
<path fill="#E0E0E0" d="M47.31,161.37c0,0.08-4.87,0.15-10.88,0.15s-10.88-0.06-10.88-0.15c0-0.08,4.87-0.15,10.88-0.15
	S47.31,161.28,47.31,161.37z"/>
<path fill="#E0E0E0" d="M37.83,166.44h-3.68v7.76h3.68V166.44z"/>
<path fill="#E0E0E0" d="M47.31,177.24c0,0.08-4.87,0.15-10.88,0.15s-10.88-0.06-10.88-0.15c0-0.08,4.87-0.15,10.88-0.15
	C42.44,177.1,47.31,177.16,47.31,177.24z"/>
<path fill="#E0E0E0" d="M37.83,181.86h-3.68v7.76h3.68V181.86z"/>
<path fill="#E0E0E0" d="M47.31,192.67c0,0.08-4.87,0.15-10.88,0.15s-10.88-0.06-10.88-0.15c0-0.08,4.87-0.15,10.88-0.15
	S47.31,192.58,47.31,192.67z"/>
<path fill="#E0E0E0" d="M37.83,197.34h-3.68v7.76h3.68V197.34z"/>
<path fill="#E0E0E0" d="M37.83,213.03h-3.68v7.76h3.68V213.03z"/>
<path fill="#E0E0E0" d="M47.31,208.15c0,0.08-4.87,0.15-10.88,0.15s-10.88-0.06-10.88-0.15S30.42,208,36.43,208
	C42.44,208.01,47.31,208.07,47.31,208.15z"/>
<path fill="#FAFAFA" d="M15.89,134.92h-3.68v7.76h3.68V134.92z"/>
<path fill="#E0E0E0" d="M25.37,145.73c0,0.08-4.87,0.15-10.88,0.15s-10.88-0.06-10.88-0.15c0-0.08,4.87-0.15,10.88-0.15
	S25.37,145.64,25.37,145.73z"/>
<path fill="#FAFAFA" d="M15.89,150.57h-3.68v7.76h3.68V150.57z"/>
<path fill="#E0E0E0" d="M25.37,161.37c0,0.08-4.87,0.15-10.88,0.15s-10.88-0.06-10.88-0.15c0-0.08,4.87-0.15,10.88-0.15
	S25.37,161.29,25.37,161.37z"/>
<path fill="#FAFAFA" d="M15.89,166.21h-3.68v7.76h3.68V166.21z"/>
<path fill="#E0E0E0" d="M25.37,177.02c0,0.08-4.87,0.15-10.88,0.15s-10.88-0.06-10.88-0.15s4.87-0.15,10.88-0.15
	C20.5,176.87,25.37,176.94,25.37,177.02z"/>
<path fill="#FAFAFA" d="M15.89,181.86h-3.68v7.76h3.68V181.86z"/>
<path fill="#E0E0E0" d="M25.37,192.67c0,0.08-4.87,0.15-10.88,0.15s-10.88-0.06-10.88-0.15c0-0.08,4.87-0.15,10.88-0.15
	S25.37,192.58,25.37,192.67z"/>
<path fill="#FAFAFA" d="M15.89,197.51h-3.68v7.76h3.68V197.51z"/>
<path fill="#E0E0E0" d="M25.37,208.32c0,0.08-4.87,0.15-10.88,0.15s-10.88-0.06-10.88-0.15s4.87-0.15,10.88-0.15
	C20.5,208.17,25.37,208.23,25.37,208.32z"/>
<path fill="#FAFAFA" d="M15.89,213.16h-3.68v7.76h3.68V213.16z"/>
<path fill="#F5F5F5" d="M95.17,251.15H38.56l-0.25-89.47h56.61L95.17,251.15z"/>
<path fill="#EBEBEB" d="M94.92,161.68h-28.3v89.47h28.3V161.68z"/>
<path fill="#F5F5F5" d="M64.77,144.06H44.78v17.62h19.99V144.06z"/>
<path fill="#EBEBEB" d="M64.77,144.06H60v17.62h4.77V144.06z"/>
<path fill="#E0E0E0" d="M96.58,160.65H33.59v1.02h62.99V160.65z"/>
<path fill="#FFFFFF" d="M54.28,169.36h-4.79v10.11h4.79V169.36z"/>
<path fill="#E0E0E0" d="M66.62,183.43c0,0.11-6.34,0.19-14.15,0.19c-7.82,0-14.15-0.08-14.15-0.19s6.34-0.19,14.15-0.19
	C60.28,183.24,66.62,183.32,66.62,183.43z"/>
<path fill="#F5F5F5" d="M82.83,169.36h-4.79v10.11h4.79V169.36z"/>
<path fill="#E0E0E0" d="M95.17,183.43c0,0.11-6.34,0.19-14.15,0.19c-7.82,0-14.15-0.08-14.15-0.19s6.34-0.19,14.15-0.19
	C88.84,183.24,95.17,183.32,95.17,183.43z"/>
<path fill="#F5F5F5" d="M82.83,189.42h-4.79v10.11h4.79V189.42z"/>
<path fill="#E0E0E0" d="M95.17,203.49c0,0.11-6.34,0.19-14.15,0.19c-7.82,0-14.15-0.09-14.15-0.19s6.34-0.19,14.15-0.19
	C88.84,203.3,95.17,203.38,95.17,203.49z"/>
<path fill="#F5F5F5" d="M82.83,210.09h-4.79v10.11h4.79V210.09z"/>
<path fill="#E0E0E0" d="M95.17,224.16c0,0.11-6.34,0.19-14.15,0.19c-7.82,0-14.15-0.09-14.15-0.19s6.34-0.19,14.15-0.19
	C88.84,223.96,95.17,224.05,95.17,224.16z"/>
<path fill="#F5F5F5" d="M82.83,230.75h-4.79v10.11h4.79V230.75z"/>
<path fill="#E0E0E0" d="M95.17,244.82c0,0.11-6.34,0.19-14.15,0.19c-7.82,0-14.15-0.09-14.15-0.19s6.34-0.19,14.15-0.19
	C88.84,244.63,95.17,244.72,95.17,244.82z"/>
<path fill="#FFFFFF" d="M54.28,189.73h-4.79v10.11h4.79V189.73z"/>
<path fill="#E0E0E0" d="M66.62,203.79c0,0.11-6.34,0.19-14.15,0.19c-7.82,0-14.15-0.09-14.15-0.19s6.34-0.19,14.15-0.19
	C60.28,203.6,66.62,203.69,66.62,203.79z"/>
<path fill="#FFFFFF" d="M54.28,210.09h-4.79v10.11h4.79V210.09z"/>
<path fill="#E0E0E0" d="M66.62,224.16c0,0.11-6.34,0.19-14.15,0.19c-7.82,0-14.15-0.09-14.15-0.19s6.34-0.19,14.15-0.19
	S66.62,224.06,66.62,224.16z"/>
<path fill="#FFFFFF" d="M54.28,230.46h-4.79v10.11h4.79V230.46z"/>
<path fill="#E0E0E0" d="M66.62,244.53c0,0.11-6.34,0.19-14.15,0.19c-7.82,0-14.15-0.09-14.15-0.19s6.34-0.19,14.15-0.19
	S66.62,244.43,66.62,244.53z"/>
<path fill="#F5F5F5" d="M137.18,251.12H94.33l-0.19-67.72h42.85L137.18,251.12z"/>
<path fill="#EBEBEB" d="M136.99,183.4h-21.43v67.72h21.43V183.4z"/>
<path fill="#F5F5F5" d="M114.17,170.07H99.04v13.33h15.13V170.07z"/>
<path fill="#EBEBEB" d="M114.17,170.07h-3.61v13.33h3.61V170.07z"/>
<path fill="#E0E0E0" d="M138.24,182.62H90.57v0.78h47.67L138.24,182.62L138.24,182.62z"/>
<path fill="#FFFFFF" d="M106.23,189.21h-3.63v7.65h3.63V189.21z"/>
<path fill="#E0E0E0" d="M115.57,199.86c0,0.08-4.79,0.15-10.71,0.15s-10.71-0.06-10.71-0.15c0-0.08,4.79-0.15,10.71-0.15
	C110.77,199.71,115.57,199.78,115.57,199.86z"/>
<path fill="#F5F5F5" d="M127.84,189.21h-3.63v7.65h3.63V189.21z"/>
<path fill="#E0E0E0" d="M137.18,199.86c0,0.08-4.79,0.15-10.71,0.15s-10.71-0.06-10.71-0.15c0-0.08,4.79-0.15,10.71-0.15
	C132.39,199.71,137.18,199.78,137.18,199.86z"/>
<path fill="#F5F5F5" d="M127.84,204.4h-3.63v7.65h3.63V204.4z"/>
<path fill="#E0E0E0" d="M137.18,215.04c0,0.08-4.79,0.15-10.71,0.15s-10.71-0.06-10.71-0.15s4.79-0.15,10.71-0.15
	C132.39,214.89,137.18,214.96,137.18,215.04z"/>
<path fill="#F5F5F5" d="M127.84,220.04h-3.63v7.65h3.63V220.04z"/>
<path fill="#E0E0E0" d="M137.18,230.69c0,0.08-4.79,0.15-10.71,0.15s-10.71-0.06-10.71-0.15s4.79-0.15,10.71-0.15
	C132.39,230.54,137.18,230.6,137.18,230.69z"/>
<path fill="#F5F5F5" d="M127.84,235.68h-3.63v7.65h3.63V235.68z"/>
<path fill="#E0E0E0" d="M137.18,246.33c0,0.08-4.79,0.15-10.71,0.15s-10.71-0.06-10.71-0.15c0-0.08,4.79-0.15,10.71-0.15
	C132.39,246.18,137.18,246.25,137.18,246.33z"/>
<path fill="#FFFFFF" d="M106.23,204.63h-3.63v7.65h3.63V204.63z"/>
<path fill="#E0E0E0" d="M115.57,215.28c0,0.08-4.79,0.15-10.71,0.15s-10.71-0.06-10.71-0.15s4.79-0.15,10.71-0.15
	C110.77,215.13,115.57,215.2,115.57,215.28z"/>
<path fill="#FFFFFF" d="M106.23,220.04h-3.63v7.65h3.63V220.04z"/>
<path fill="#E0E0E0" d="M115.57,230.69c0,0.08-4.79,0.15-10.71,0.15s-10.71-0.07-10.71-0.15c0-0.08,4.79-0.15,10.71-0.15
	C110.77,230.55,115.57,230.61,115.57,230.69z"/>
<path fill="#FFFFFF" d="M106.23,235.46h-3.63v7.65h3.63V235.46z"/>
<path fill="#E0E0E0" d="M115.57,246.11c0,0.08-4.79,0.15-10.71,0.15s-10.71-0.06-10.71-0.15c0-0.08,4.79-0.15,10.71-0.15
	C110.77,245.96,115.57,246.02,115.57,246.11z"/>
<path fill="#F5F5F5" d="M216.07,86.33c0.46-3.3-4.26-6.02-7.81-6.31c-1.69-0.14-3.45,0.12-5.05-0.43c-3.47-1.19-4.86-5.63-8.25-7.04
	c-2.53-1.06-5.45-0.11-7.91,1.1c-2.46,1.22-4.88,2.76-7.63,2.93c-2.39,0.15-4.98-0.72-7.07,0.43c-1.56,0.86-2.37,2.63-3.81,3.67
	c-1.4,1.02-3.23,1.24-4.97,1.33c-1.74,0.1-3.55,0.11-5.13,0.83s-2.9,2.37-2.57,4.06L216.07,86.33z"/>
<path fill="#F5F5F5" d="M249.15,58.94c0.25-1.81-2.3-3.29-4.22-3.45c-0.91-0.07-1.86,0.06-2.73-0.24c-1.88-0.66-2.63-3.07-4.46-3.85
	c-1.37-0.58-2.94-0.06-4.27,0.61c-1.32,0.67-2.64,1.51-4.12,1.6c-1.29,0.08-2.69-0.39-3.82,0.24c-0.84,0.47-1.28,1.44-2.05,2.01
	c-0.76,0.56-1.75,0.68-2.69,0.73s-1.91,0.06-2.77,0.45s-1.57,1.3-1.38,2.22L249.15,58.94L249.15,58.94z"/>
<path fill="#F5F5F5" d="M37.31,74.83c0.25-1.81-2.3-3.29-4.22-3.45c-0.91-0.07-1.86,0.06-2.73-0.24c-1.88-0.66-2.63-3.07-4.45-3.85
	c-1.37-0.58-2.94-0.06-4.27,0.61s-2.64,1.51-4.12,1.6c-1.29,0.08-2.69-0.39-3.82,0.24c-0.84,0.47-1.28,1.44-2.05,2.01
	c-0.76,0.56-1.74,0.68-2.69,0.73c-0.94,0.05-1.91,0.06-2.77,0.45s-1.57,1.3-1.38,2.22L37.31,74.83L37.31,74.83z"/>
<path fill="#FFBF9D" d="M293.25,96.24c0,0-1.33-1.44-1.98-1.1s-1.11,1.28-1.37,1.81c-0.28,0.59,0.33,1.06,0.59,0.97
	s0.88-0.81,0.88-0.81l1.23,1l0.04,1.68l-0.07,0.49L291.5,100l-0.22-1.27c-0.08-0.46-0.65-0.68-0.98-0.36
	c-0.13,0.13-0.23,0.32-0.25,0.63c-0.07,1.09,0.02,2.99,1.26,3.57c1.23,0.59,3.45,1.23,3.45,1.23l1.01,1.05l4.21-0.86l-0.82-1.82
	l-0.39-5.61c0,0,1.29-2.33,1.2-3.11s-0.63-3.1-0.63-3.1s-0.65-0.25-0.79,0.46c-0.14,0.72,0.07,2.65,0.07,2.65l-1.1,1.87l-1.12-6.16
	c-0.09-0.47-0.73-0.59-0.96-0.18c-0.11,0.19-0.18,0.47-0.17,0.89c0.04,1.57,0.63,5.3,0.45,5.35c-0.18,0.05-0.68-0.2-0.9-0.96
	c-0.19-0.69-1.28-3.69-1.72-4.9c-0.11-0.3-0.51-0.36-0.7-0.11c-0.24,0.33-0.42,0.91-0.17,1.92c0.31,1.24,0.96,3.71,1.02,4.01
	C293.31,95.5,293.25,96.24,293.25,96.24L293.25,96.24z"/>
<path fill="#FF9A6C" d="M296.06,101.43c-0.03,0.02-0.15-0.15-0.38-0.37c-0.23-0.23-0.6-0.49-1.05-0.66
	c-0.46-0.17-0.91-0.21-1.23-0.19c-0.33,0.02-0.52,0.07-0.54,0.03c-0.01-0.02,0.18-0.13,0.52-0.19c0.34-0.06,0.83-0.05,1.33,0.14
	c0.5,0.18,0.88,0.5,1.09,0.77C296.01,101.22,296.08,101.42,296.06,101.43z"/>
<path fill="#263238" d="M285.05,230.93l6.91,10.69l3.03,10.03c0.22,0.72,1,1.11,1.71,0.84c0.4-0.15,0.71-0.47,0.8-0.89
	c0.55-2.54,2.43-14.23,2.07-14.77c-0.6-0.9-6.03-9.94-6.03-9.94L285.05,230.93L285.05,230.93z"/>
<path fill="#455A64" d="M296.7,252.49l2.42-16.39l0.28,0.46c0.24,0.4,0.34,0.87,0.27,1.33c-0.19,1.23-0.79,7.13-2.14,13.69
	C297.45,252.01,297.11,252.35,296.7,252.49L296.7,252.49z"/>
<g opacity="0.6">
	<path fill="#FFFFFF" d="M295.26,235.79c-0.16,0.36,0.01,0.82,0.36,0.99c0.35,0.17,0.83,0.01,0.99-0.34
		c0.16-0.35-0.02-0.91-0.38-1.05c-0.36-0.13-0.91,0.09-0.99,0.47"/>
</g>
<path fill="#FFFFFF" d="M296.26,246.23c-0.05,0.07-0.64-0.35-1.47-0.26c-0.83,0.07-1.34,0.59-1.4,0.53
	c-0.03-0.02,0.06-0.19,0.29-0.38s0.62-0.38,1.08-0.42s0.88,0.07,1.14,0.22C296.17,246.05,296.29,246.19,296.26,246.23L296.26,246.23
	z"/>
<path fill="#FFFFFF" d="M296.39,248.15c-0.02,0.08-0.59-0.06-1.25,0.13c-0.66,0.17-1.09,0.57-1.14,0.51
	c-0.06-0.04,0.32-0.59,1.07-0.78C295.82,247.8,296.42,248.09,296.39,248.15z"/>
<path fill="#FFFFFF" d="M296.56,243.48c-0.02,0.08-0.89-0.14-1.94,0.06c-1.05,0.18-1.79,0.68-1.84,0.61
	c-0.05-0.04,0.66-0.69,1.79-0.89S296.59,243.42,296.56,243.48z"/>
<path fill="#FFFFFF" d="M294.73,240.06c0.01,0.08-0.74,0.2-1.54,0.65c-0.8,0.44-1.3,1.02-1.37,0.96c-0.06-0.04,0.37-0.73,1.23-1.21
	C293.92,239.99,294.74,239.99,294.73,240.06L294.73,240.06z"/>
<path fill="#FFFFFF" d="M293.45,237.78c0.01,0.08-0.82,0.09-1.62,0.64c-0.81,0.53-1.14,1.28-1.22,1.24c-0.03-0.01,0-0.22,0.16-0.52
	s0.46-0.67,0.9-0.96c0.43-0.29,0.9-0.42,1.23-0.46C293.25,237.7,293.46,237.74,293.45,237.78L293.45,237.78z"/>
<path fill="#263238" d="M258.1,163.17c0,0.43,3.17,39.9,4.38,42.48c1.21,2.58,25.16,32.08,25.16,32.08l9.99-6.89l-21.22-30.76
	l-0.6-28.81l-4.92-11.3L258.1,163.17L258.1,163.17z"/>
<path fill="#263238" d="M288.06,155.27c0.25,0.6,3.55,10.01,3.79,14c0.25,4-7.13,74.9-7.13,74.9l-12.19-0.97l3.17-68.76l-5.26-14.46
	L288.06,155.27z"/>
<path fill="#455A64" d="M274.37,170.55c0,0,0,0.05,0,0.14c0,0.1,0.01,0.24,0.02,0.41c0.02,0.36,0.05,0.9,0.09,1.58
	c0.09,1.39,0.22,3.42,0.39,6c0.35,5.18,0.84,12.55,1.44,21.41v0.03l0.02,0.02c4.95,7.19,10.81,15.69,17.06,24.76
	c1.41,2.04,2.79,4.04,4.15,6.01l0.03-0.17c-3.48,2.4-6.83,4.71-9.99,6.89l0.15,0.02c-7.35-9.14-13.65-16.98-18.12-22.54
	c-2.23-2.77-4.01-4.97-5.24-6.48c-0.61-0.75-1.08-1.32-1.4-1.72c-0.16-0.19-0.28-0.33-0.36-0.44c-0.08-0.1-0.13-0.14-0.13-0.14
	s0.04,0.05,0.11,0.16c0.08,0.11,0.2,0.26,0.35,0.45c0.31,0.4,0.78,0.99,1.37,1.74c1.21,1.52,2.97,3.74,5.18,6.52
	c4.45,5.57,10.73,13.43,18.05,22.59l0.07,0.09l0.09-0.06c3.16-2.18,6.52-4.48,9.99-6.88l0.1-0.07l-0.07-0.1
	c-1.36-1.96-2.74-3.97-4.14-6.01c-6.26-9.07-12.13-17.56-17.09-24.74l0.02,0.05c-0.63-8.86-1.16-16.23-1.53-21.4
	c-0.19-2.58-0.34-4.61-0.45-5.99c-0.05-0.68-0.1-1.21-0.13-1.58c-0.01-0.17-0.03-0.31-0.04-0.4
	C274.37,170.6,274.37,170.55,274.37,170.55L274.37,170.55z"/>
<path fill="#263238" d="M275.11,237.28l0.25,9.25c0,0-9.31,3.36-9.43,5.07l17.95,0.15l0.2-14.42L275.11,237.28L275.11,237.28z"/>
<path fill="#E0E0E0" d="M280.92,245.79c0.35,0.1,0.58,0.49,0.5,0.84c-0.09,0.35-0.48,0.6-0.83,0.5c-0.35-0.09-0.65-0.55-0.52-0.89
	c0.12-0.34,0.6-0.6,0.92-0.43"/>
<path fill="#455A64" d="M283.87,251.76l-0.04-1.46l-17.2,0.4c0,0-0.8,0.34-0.72,0.91L283.87,251.76z"/>
<path fill="#FFFFFF" d="M275.07,246.43c0,0.09,0.44,0.13,0.87,0.41c0.44,0.27,0.65,0.66,0.73,0.62c0.08-0.02-0.04-0.54-0.57-0.88
	C275.58,246.24,275.05,246.34,275.07,246.43L275.07,246.43z"/>
<path fill="#FFFFFF" d="M273.18,247.19c-0.02,0.09,0.36,0.24,0.65,0.61c0.31,0.37,0.38,0.77,0.46,0.76c0.08,0.01,0.15-0.5-0.23-0.96
	C273.7,247.15,273.18,247.1,273.18,247.19L273.18,247.19z"/>
<path fill="#FFFFFF" d="M272.09,249.43c0.08,0.02,0.21-0.42-0.01-0.9s-0.63-0.68-0.67-0.6c-0.05,0.07,0.21,0.33,0.39,0.73
	C271.98,249.05,272.01,249.43,272.09,249.43z"/>
<path fill="#FFFFFF" d="M275.25,244.32c0.04,0.08,0.44-0.04,0.93,0c0.49,0.03,0.88,0.2,0.93,0.12c0.05-0.06-0.33-0.39-0.91-0.43
	C275.62,243.97,275.21,244.24,275.25,244.32L275.25,244.32z"/>
<path fill="#263238" d="M268.65,91.64c0.98-0.12,1.78-1.06,1.76-2.05c-0.02-0.99-0.87-1.88-1.86-1.96c0.45-0.75,0.35-1.78-0.22-2.44
	s-1.58-0.9-2.39-0.56c-0.24-0.83-0.93-1.51-1.77-1.73c-0.83-0.22-1.78,0.02-2.39,0.63c-1.12-0.57-2.61-0.24-3.39,0.75
	c-0.85,0.05-1.63,0.69-1.83,1.52c-0.2,0.82,0.18,1.76,0.92,2.2"/>
<path fill="#FFBF9D" d="M272.16,102.3c-0.49-2.16-1.87-6.52-3.16-10.45c-1.39-4.23-5.79-6.68-10.12-5.64l-0.43,0.1
	c-4.57,1.39-5.94,6.05-4.43,10.58l4.65,16.1l11-1.22l-0.79-3.23C268.89,108.54,273.18,106.78,272.16,102.3L272.16,102.3z"/>
<path fill="#FF9A6C" d="M268.93,108.52c0,0-2.8,0.86-6.25-0.3c0,0,2.15,2.87,6.5,1.4L268.93,108.52L268.93,108.52z"/>
<path fill="#263238" d="M268.03,96.19c0.1,0.33-0.11,0.69-0.46,0.79s-0.7-0.08-0.79-0.41c-0.1-0.33,0.11-0.68,0.46-0.79
	S267.94,95.86,268.03,96.19z"/>
<path fill="#263238" d="M268.57,94.26c-0.06,0.1-0.63-0.14-1.31,0.03c-0.68,0.16-1.1,0.63-1.2,0.56c-0.04-0.03,0-0.2,0.18-0.41
	c0.18-0.21,0.51-0.46,0.93-0.55c0.43-0.1,0.82-0.03,1.07,0.08C268.49,94.08,268.6,94.21,268.57,94.26L268.57,94.26z"/>
<path fill="#263238" d="M261.99,97.71c0.1,0.33-0.11,0.68-0.46,0.79c-0.35,0.1-0.7-0.08-0.79-0.41s0.11-0.68,0.46-0.79
	C261.54,97.2,261.9,97.38,261.99,97.71z"/>
<path fill="#263238" d="M261.95,96.02c-0.05,0.11-0.64-0.09-1.31,0.13c-0.67,0.21-1.05,0.71-1.15,0.65
	c-0.05-0.02-0.02-0.2,0.15-0.42c0.16-0.23,0.47-0.49,0.89-0.63s0.82-0.09,1.07,0C261.86,95.84,261.98,95.97,261.95,96.02z"/>
<path fill="#263238" d="M265.58,100.49c-0.01-0.04,0.4-0.22,1.06-0.47c0.17-0.06,0.33-0.14,0.33-0.26c0.01-0.14-0.11-0.31-0.24-0.49
	c-0.27-0.38-0.55-0.78-0.84-1.21c-1.18-1.72-2.07-3.15-2-3.2c0.07-0.05,1.08,1.31,2.25,3.03c0.28,0.42,0.56,0.83,0.82,1.22
	c0.11,0.18,0.28,0.38,0.26,0.66c-0.01,0.14-0.12,0.27-0.23,0.32c-0.1,0.06-0.2,0.09-0.29,0.11
	C266.02,100.41,265.59,100.52,265.58,100.49L265.58,100.49z"/>
<path fill="#263238" d="M261.15,93.77c0.01,0.2-0.61,0.34-1.28,0.69c-0.67,0.34-1.14,0.78-1.29,0.65c-0.07-0.06-0.04-0.27,0.13-0.53
	c0.16-0.26,0.46-0.56,0.85-0.77c0.4-0.21,0.81-0.28,1.1-0.26C260.96,93.58,261.14,93.67,261.15,93.77z"/>
<path fill="#263238" d="M268.06,92.37c-0.11,0.18-0.66,0.11-1.29,0.21c-0.64,0.08-1.14,0.31-1.29,0.17
	c-0.07-0.07-0.01-0.24,0.19-0.43s0.57-0.38,1-0.44s0.83,0.01,1.08,0.14C268,92.13,268.1,92.28,268.06,92.37z"/>
<path fill="#263238" d="M268.08,89.91c0,0-1.85-2.51-3.35-2.83c-1.82-0.4-2.09,1.56-3.75,1.5s-3.39-0.44-4.69,1.14
	c-1.42,1.73-0.38,2.46-0.01,4.46c1.5,8.12,0.58,10.74-0.75,7.07c-0.14-0.4-1.37-0.46-1.97-2.16c-0.77-2.21-1.52-4.94-1.4-6.67
	c0.1-1.46,0.65-2.58,1.78-3.95c1.79-2.16,4.79-2.92,6.88-3.2S267.42,86.37,268.08,89.91L268.08,89.91z"/>
<path fill="#FFBF9D" d="M255.79,101.05c-0.19-0.68-0.92-1.08-1.59-0.85c-0.81,0.28-1.62,0.97-1.15,2.68
	c0.83,3.02,3.69,1.56,3.68,1.48C256.71,104.3,256.15,102.31,255.79,101.05z"/>
<path fill="#FF9A6C" d="M255.75,103.4c0,0-0.04,0.05-0.12,0.12c-0.08,0.06-0.22,0.13-0.39,0.12c-0.35-0.03-0.76-0.46-0.92-1
	c-0.08-0.27-0.1-0.55-0.06-0.79c0.03-0.25,0.13-0.44,0.28-0.51c0.15-0.08,0.29-0.02,0.35,0.06c0.06,0.07,0.06,0.14,0.08,0.14
	c0.01,0,0.05-0.07-0.01-0.18c-0.03-0.06-0.09-0.12-0.17-0.16c-0.09-0.04-0.2-0.04-0.31,0c-0.23,0.08-0.38,0.35-0.42,0.62
	c-0.05,0.27-0.05,0.59,0.05,0.89c0.18,0.6,0.65,1.09,1.13,1.1c0.23,0,0.39-0.12,0.46-0.21C255.76,103.48,255.76,103.4,255.75,103.4z
	"/>
<path fill="#263238" d="M254.42,95.14c0.46,0.18,0.95,0.35,1.43,0.28c0.49-0.07,0.97-0.47,0.93-0.96c-0.01-0.22-0.13-0.46-0.03-0.65
	c0.12-0.23,0.44-0.25,0.7-0.28c0.91-0.12,1.66-0.96,1.68-1.88c0.31,0.28,0.83,0.14,1.12-0.16s0.42-0.72,0.62-1.09
	s0.5-0.73,0.92-0.78c0.23-0.02,0.48,0.06,0.7-0.01c0.39-0.13,0.47-0.65,0.44-1.06c-0.04-0.41-0.1-0.89,0.19-1.19
	c0.27-0.27,0.7-0.26,1.08-0.29c0.38-0.04,0.84-0.23,0.84-0.62c0-0.2-0.13-0.38-0.27-0.52c-0.65-0.63-1.77-0.72-2.51-0.18
	c-0.54-0.93-1.67-1.49-2.74-1.35c-1.07,0.14-2.02,0.97-2.3,2.01c-0.78-0.43-1.78-0.45-2.58-0.05c-0.8,0.4-1.39,1.2-1.52,2.09
	c-0.79-0.02-1.56,0.47-1.89,1.19c-0.32,0.72-0.18,1.62,0.36,2.2c-0.47,0.45-0.81,1.1-0.67,1.73c0.14,0.64,0.91,1.11,1.47,0.8
	c-0.13,0.55,0.23,1.17,0.78,1.33c0.54,0.16,1.18-0.16,1.37-0.69"/>
<path fill="#455A64" d="M262.72,86.59c0,0,0.01,0.02,0.01,0.05c0,0.04,0.02,0.09,0.02,0.17c0,0.15,0,0.37-0.08,0.64
	s-0.23,0.59-0.5,0.88s-0.66,0.56-1.16,0.66l0.04-0.08c0.16,0.24,0.21,0.56,0.14,0.86c-0.06,0.3-0.19,0.59-0.34,0.87
	c-0.08,0.14-0.14,0.29-0.26,0.43s-0.27,0.23-0.44,0.3c-0.33,0.13-0.75,0.11-1.06-0.12l0.11-0.06c0.07,0.63-0.13,1.31-0.59,1.82
	c-0.24,0.28-0.57,0.49-0.92,0.57s-0.71,0.06-1.04,0.02l0.07-0.05c-0.07,0.42-0.25,0.8-0.5,1.11c-0.24,0.31-0.61,0.55-0.99,0.55
	c-0.76,0.02-1.38-0.46-1.61-1l0.08,0.01c-0.31,0.28-0.69,0.39-1.01,0.41c-0.32,0.02-0.6-0.06-0.81-0.15
	c-0.21-0.09-0.34-0.21-0.43-0.29c-0.08-0.09-0.12-0.14-0.12-0.14c0.01-0.02,0.16,0.21,0.57,0.38c0.2,0.08,0.47,0.15,0.78,0.12
	c0.31-0.02,0.66-0.14,0.95-0.4l0.05-0.04l0.03,0.06c0.23,0.5,0.82,0.95,1.51,0.92c0.35,0,0.67-0.21,0.9-0.5s0.4-0.66,0.46-1.05
	l0.01-0.06h0.06c0.32,0.04,0.67,0.06,0.99-0.01c0.33-0.07,0.62-0.26,0.85-0.53c0.43-0.47,0.62-1.12,0.56-1.71l-0.01-0.15l0.12,0.09
	c0.27,0.2,0.64,0.22,0.94,0.1c0.15-0.05,0.29-0.14,0.39-0.26c0.1-0.11,0.16-0.27,0.24-0.41c0.15-0.28,0.28-0.56,0.34-0.84
	s0.02-0.56-0.12-0.78l-0.04-0.07L261,88.9c0.47-0.08,0.86-0.33,1.12-0.61c0.27-0.28,0.42-0.59,0.51-0.84
	c0.17-0.53,0.08-0.85,0.1-0.85L262.72,86.59z"/>
<path fill="#FF9A6C" d="M263.79,101.89c0.87-0.05,1.74,0.01,2.6,0.17l0.01,0.02c0.04,0.59,0.03,1.26-0.39,1.68
	c-0.31,0.32-0.8,0.42-1.23,0.29c-0.42-0.13-0.74-0.41-0.92-0.81C263.7,102.84,263.75,102.32,263.79,101.89L263.79,101.89z"/>
<path fill="#263238" d="M265.54,103.98c-0.01-0.04-0.33,0.17-0.82-0.03c-0.24-0.09-0.49-0.28-0.65-0.58s-0.23-0.68-0.21-1.08
	c0.01-0.09,0.01-0.22,0.03-0.27c0.02-0.02-0.02,0,0.01-0.01h0.14c0.19,0.01,0.38,0.02,0.56,0.03c0.33,0.01,0.65,0.02,0.95,0.03
	c0.55,0.01,0.88,0,0.88-0.03s-0.33-0.08-0.87-0.13c-0.3-0.03-0.62-0.05-0.95-0.08c-0.18-0.01-0.37-0.03-0.56-0.04
	c-0.05,0-0.09-0.01-0.16-0.01c-0.07-0.01-0.2,0.08-0.21,0.16c-0.04,0.14-0.03,0.22-0.05,0.34c-0.02,0.43,0.05,0.86,0.25,1.19
	c0.19,0.34,0.5,0.55,0.77,0.63c0.27,0.09,0.52,0.06,0.67,0.01C265.49,104.06,265.55,103.99,265.54,103.98L265.54,103.98z"/>
<path fill="#455A64" d="M247.69,118.06l-17.06,5.02l-5.61-7.36c0.04,0.87-6.94-0.23-6.94-0.23c4.97,11.95,7.69,15.94,8.43,16.28
	c1.88,0.87,16.07,0.75,17.19,0.48s11.36-1.73,11.36-1.73l-1.87-14.34l-4.26,1.35C248.5,117.66,248.09,117.84,247.69,118.06
	L247.69,118.06z"/>
<path fill="#455A64" d="M288.9,150.67c-0.98-3.72-3.15-12.19-3.15-12.19l-4.47-26.32l-10.04,0.08l-0.83-1.76
	c-0.18-0.37-0.59-0.59-0.99-0.51l-10.63,1.9c-0.49,0.09-0.82,0.55-0.75,1.03l0.2,1.42l-8.1,3.01l-0.88,11.79l6.52,26.85l0.4,3.78
	c0.1,0.89,0.56,1.71,1.29,2.26l1.16,0.87l29.4-6.79l0.73-1.99C289.14,152.99,289.2,151.8,288.9,150.67z"/>
<path fill="#455A64" d="M258.1,162.24l0.28,3.97l31.43-7.33l-1.12-5.1L258.1,162.24z"/>
<path fill="#263238" d="M285.79,156.27c-0.07,0.01-0.04,0.73,0.05,1.62c0.1,0.89,0.23,1.6,0.3,1.59s0.04-0.73-0.05-1.62
	C285.99,156.98,285.86,156.27,285.79,156.27z"/>
<path fill="#263238" d="M280.79,157.43c-0.07,0.01,0.01,0.74,0.18,1.63c0.17,0.89,0.35,1.6,0.42,1.59c0.07-0.01-0.01-0.74-0.18-1.63
	C281.04,158.13,280.86,157.42,280.79,157.43z"/>
<path fill="#263238" d="M275.55,158.98c-0.07,0.01,0,0.71,0.15,1.55s0.33,1.52,0.4,1.51c0.07-0.01,0-0.71-0.15-1.55
	C275.79,159.65,275.62,158.97,275.55,158.98L275.55,158.98z"/>
<path fill="#263238" d="M269.01,160.51c-0.07,0.01,0.02,0.8,0.2,1.75c0.18,0.96,0.37,1.72,0.44,1.71s-0.02-0.8-0.2-1.75
	C269.27,161.26,269.07,160.49,269.01,160.51z"/>
<path fill="#263238" d="M262.88,161.91c-0.06,0.02,0.08,0.75,0.33,1.64s0.5,1.59,0.56,1.57c0.06-0.02-0.08-0.75-0.33-1.64
	C263.2,162.59,262.95,161.89,262.88,161.91z"/>
<path fill="#455A64" d="M281.27,112.16l1.14,0.02c1.38,0.03,2.73,0.41,3.92,1.1l9.91,5.79l-2.41-14.36l7.82-1.6
	c0,0,4.6,18.67,4.58,21.63c-0.03,5.97-4.61,8.02-9.21,6.61c-1.37-0.42-17.75-7.88-17.75-7.88L281.27,112.16L281.27,112.16z"/>
<path fill="#263238" d="M285.53,140.2c0.07-0.01-0.66-5.6-1.62-12.49c-0.96-6.89-1.79-12.47-1.86-12.46
	c-0.07,0.01,0.66,5.6,1.62,12.5C284.62,134.63,285.46,140.21,285.53,140.2L285.53,140.2z"/>
<path fill="#263238" d="M278.48,137.56c0,0-0.06,0.06-0.15,0.19c-0.1,0.15-0.23,0.34-0.39,0.56c-0.35,0.52-0.83,1.23-1.4,2.08
	c-1.19,1.75-2.87,4.16-4.79,6.75c-1.93,2.6-3.74,4.89-5.08,6.54c-0.65,0.8-1.18,1.46-1.59,1.95l-0.43,0.53
	c-0.09,0.12-0.14,0.19-0.13,0.2s0.07-0.05,0.17-0.17c0.13-0.14,0.27-0.3,0.46-0.51c0.4-0.44,0.96-1.09,1.65-1.9
	c1.37-1.62,3.21-3.91,5.15-6.51c1.93-2.6,3.58-5.02,4.74-6.8c0.58-0.89,1.04-1.62,1.34-2.12c0.14-0.23,0.26-0.43,0.35-0.59
	C278.45,137.64,278.48,137.57,278.48,137.56L278.48,137.56z"/>
<path fill="#263238" d="M275.04,131.18c0,0-0.14,0.19-0.36,0.57c-0.24,0.41-0.55,0.94-0.92,1.58c-0.77,1.33-1.86,3.17-3.1,5.17
	c-1.24,2-2.41,3.79-3.27,5.07c-0.41,0.61-0.75,1.13-1.01,1.52c-0.24,0.36-0.36,0.57-0.35,0.58c0.01,0.01,0.16-0.17,0.42-0.52
	c0.26-0.34,0.63-0.85,1.07-1.48c0.89-1.26,2.09-3.04,3.33-5.04c1.24-2.01,2.31-3.86,3.05-5.22c0.37-0.68,0.66-1.23,0.85-1.62
	C274.95,131.4,275.05,131.18,275.04,131.18z"/>
<path fill="#263238" d="M270.98,112.25c-0.02-0.04-0.67,0.28-1.75,0.7c-1.09,0.41-2.62,0.89-4.37,1.18
	c-1.75,0.28-3.36,0.32-4.52,0.27s-1.87-0.15-1.88-0.11c0,0.02,0.18,0.05,0.5,0.11s0.79,0.12,1.38,0.17c1.17,0.09,2.8,0.09,4.57-0.2
	c1.77-0.29,3.32-0.8,4.39-1.26c0.54-0.23,0.97-0.43,1.25-0.59C270.83,112.35,270.98,112.26,270.98,112.25L270.98,112.25z"/>
<g opacity="0.3">
	<path d="M276.84,140.23c-0.81,5.99-4.88,11.44-10.39,13.91L276.84,140.23z"/>
</g>
<path fill="#263238" d="M248.26,123.85c-0.07,0.02,0.73,3.51,1.78,7.8s1.95,7.76,2.02,7.75c0.06-0.02-0.73-3.51-1.78-7.8
	C249.23,127.3,248.32,123.84,248.26,123.85L248.26,123.85z"/>
<path fill="#FFBF9D" d="M223.06,110.91c0,0,0.97-0.2,1.45,0.63c0.48,0.83,0.93,2.74,0.89,3.67c0,0,1.37,0.24,1.42,0.8
	c0.05,0.56-0.29,1.11-1.61,1.09c0,0-0.88,1.67-1.74,1.08s-0.59-1.28-0.59-1.28s-0.78,1.3-2-0.37c0,0-0.54,0.42-1.13,0.27
	c-0.59-0.14-0.83-0.55-0.83-0.55s-0.75,0.41-1.18-0.12s-1.88-2.74-2.11-3.46c-0.24-0.72-0.02-1.67,0.59-2.05
	c0.61-0.38,1.63-0.03,1.63-0.03s0.96-1,2.12-0.2C219.97,110.39,221.68,108.88,223.06,110.91L223.06,110.91z"/>
<path fill="#FF9A6C" d="M217.59,112.59c-0.07,0.03,0.22,0.85,0.62,1.84c0.2,0.5,0.37,0.95,0.47,1.28c0.11,0.33,0.15,0.54,0.19,0.54
	c0.03,0,0.05-0.23-0.02-0.58s-0.21-0.82-0.41-1.32C218.04,113.35,217.65,112.57,217.59,112.59L217.59,112.59z"/>
<path fill="#FF9A6C" d="M219.5,112.13c-0.06,0.02,0.17,1.03,0.54,2.25c0.37,1.23,0.79,2.18,0.85,2.15c0.06-0.02-0.26-1-0.62-2.23
	C219.9,113.09,219.56,112.11,219.5,112.13L219.5,112.13z"/>
<path fill="#FF9A6C" d="M222.01,112.16c-0.07,0.03,0.32,1.07,0.62,2.39c0.14,0.66,0.28,1.28,0.3,1.7c0.02,0.44-0.13,0.68-0.09,0.7
	c0.02,0.02,0.24-0.22,0.26-0.69c0.02-0.47-0.09-1.09-0.23-1.76C222.56,113.15,222.07,112.13,222.01,112.16z"/>
<path fill="#FF9A6C" d="M224.87,112.46c-0.08,0.02,0.25,1.09,0.38,2.42c0.06,0.67,0.04,1.29,0.01,1.72
	c-0.04,0.43-0.21,0.65-0.18,0.68c0.02,0.03,0.27-0.18,0.35-0.65c0.08-0.46,0.12-1.07,0.06-1.77
	C225.35,113.48,224.91,112.44,224.87,112.46L224.87,112.46z"/>
<path fill="#263238" d="M74.95,177.68c0,0-2.74-2.77-3.53,13.97c-0.74,15.8-1.83,38.58,1.97,48.35c0.41,1.06,1.14,1.97,2.1,2.56
	c0.78,0.49,1.88,0.97,3.29,1.19c3.3,0.51,16.36,0.22,16.36,0.22s7.41,0,7.52-6.1c0.09-5.02,0-15.94,0-15.94L74.95,177.68z"/>
<g opacity="0.3">
	<path d="M74.95,177.68c0,0-2.74-2.77-3.53,13.97c-0.74,15.8-1.83,38.58,1.97,48.35c0.41,1.06,1.14,1.97,2.1,2.56
		c0.78,0.49,1.88,0.97,3.29,1.19c3.3,0.51,16.36,0.22,16.36,0.22s7.41,0,7.52-6.1c0.09-5.02,0-15.94,0-15.94L74.95,177.68z"/>
</g>
<path fill="#263238" d="M225.79,177.68c0,0-2.74-2.77-3.52,13.97c-0.74,15.8-1.83,38.58,1.97,48.35c0.41,1.06,1.14,1.97,2.11,2.56
	c0.78,0.49,1.88,0.97,3.29,1.19c3.31,0.51,16.36,0.22,16.36,0.22s7.41,0,7.52-6.1c0.09-5.02,0-15.94,0-15.94L225.79,177.68
	L225.79,177.68z"/>
<g opacity="0.3">
	<path d="M225.79,177.68c0,0-2.74-2.77-3.52,13.97c-0.74,15.8-1.83,38.58,1.97,48.35c0.41,1.06,1.14,1.97,2.11,2.56
		c0.78,0.49,1.88,0.97,3.29,1.19c3.31,0.51,16.36,0.22,16.36,0.22s7.41,0,7.52-6.1c0.09-5.02,0-15.94,0-15.94L225.79,177.68
		L225.79,177.68z"/>
</g>
<path fill="#263238" d="M266.12,148.72c0,0-0.83,2.83-2.54,3.12c-1.71,0.3-15.18,0.71-15.18,0.71l-1.32,2.71h-2.54l-1.85-10.88
	l1.57,0.32c0.54,0.11,0.99,0.48,1.2,0.98c0.24,0.56,0.76,0.94,1.36,1.01L266.12,148.72L266.12,148.72z"/>
<path fill="#407BFF" d="M265.55,149.14c1-0.08,1.73-0.98,1.59-1.98c-0.44-3.11-2.07-9.14-8.07-10.04c-5.31-0.79-9.16-0.55-11.2-0.29
	c-0.93,0.12-1.39,0.97-1.5,1.9c-0.51,4.27-0.1,9.57,1.14,10.22C248.79,149.64,261.17,149.49,265.55,149.14L265.55,149.14z"/>
<path fill="#263238" d="M257.51,137.15c0,0,0.13,0.14,0.34,0.43c0.21,0.28,0.49,0.71,0.83,1.24c0.68,1.07,1.53,2.59,2.29,4.36
	s1.29,3.43,1.6,4.66c0.16,0.61,0.27,1.11,0.33,1.45c0.07,0.35,0.1,0.54,0.08,0.54c-0.02,0-0.07-0.18-0.17-0.52
	c-0.09-0.34-0.23-0.83-0.4-1.43c-0.35-1.2-0.9-2.85-1.65-4.61c-0.76-1.75-1.58-3.28-2.22-4.36c-0.32-0.54-0.58-0.97-0.77-1.27
	C257.6,137.33,257.5,137.16,257.51,137.15z"/>
<path fill="#263238" d="M263.08,189.01c0,0,2.74-2.77,3.52,13.97c0.74,15.8,1.83,38.58-1.97,48.35c-0.41,1.06-1.14,1.97-2.11,2.56
	c-0.78,0.49-1.88,0.97-3.29,1.19c-3.31,0.52-16.36,0.22-16.36,0.22s-7.41,0-7.52-6.1c-0.09-5.02,0-15.94,0-15.94L263.08,189.01
	L263.08,189.01z"/>
<path fill="#455A64" d="M263.08,189.01c0,0-0.04,0.07-0.13,0.22s-0.22,0.36-0.39,0.63c-0.35,0.56-0.85,1.38-1.51,2.44
	c-1.33,2.13-3.26,5.23-5.7,9.15c-4.89,7.83-11.81,18.9-19.92,31.88l0.02-0.06c0,4.75,0,9.74,0,14.91c0,0.65-0.03,1.3,0.08,1.93
	c0.1,0.63,0.29,1.25,0.61,1.81c0.63,1.13,1.71,1.96,2.92,2.47c2.45,1.1,5.24,0.77,7.96,0.87c2.87,0.03,5.7,0.04,8.5-0.04
	c1.39-0.05,2.79-0.07,4.12-0.32c0.67-0.13,1.32-0.34,1.93-0.62s1.2-0.62,1.68-1.08c0.48-0.46,0.87-1,1.14-1.6
	c0.14-0.29,0.23-0.62,0.34-0.93c0.1-0.32,0.21-0.63,0.31-0.94c0.11-0.31,0.19-0.63,0.27-0.95c0.08-0.32,0.16-0.64,0.23-0.96
	c0.17-0.63,0.28-1.28,0.39-1.92c0.26-1.27,0.39-2.56,0.57-3.81c0.08-0.63,0.13-1.26,0.19-1.89c0.06-0.62,0.12-1.25,0.16-1.87
	c0.35-4.95,0.4-9.68,0.37-14.1c-0.04-4.42-0.17-8.54-0.31-12.3c-0.15-3.76-0.3-7.15-0.44-10.14c-0.16-2.98-0.4-5.54-0.73-7.62
	c-0.34-2.07-0.74-3.68-1.33-4.62c-0.15-0.23-0.3-0.42-0.47-0.54s-0.34-0.17-0.48-0.16C263.18,188.89,263.08,189.02,263.08,189.01
	c0,0,0.03-0.03,0.09-0.07c0.06-0.04,0.16-0.1,0.3-0.11c0.14-0.01,0.33,0.03,0.5,0.15s0.34,0.31,0.49,0.55
	c0.6,0.95,1.03,2.56,1.38,4.62c0.35,2.08,0.6,4.64,0.77,7.63c0.16,2.98,0.32,6.38,0.48,10.14c0.15,3.76,0.29,7.88,0.33,12.3
	c0.04,4.42,0,9.16-0.35,14.12c-0.03,0.62-0.1,1.24-0.16,1.87c-0.06,0.63-0.11,1.26-0.19,1.89c-0.17,1.26-0.31,2.55-0.57,3.83
	c-0.11,0.64-0.22,1.29-0.39,1.93c-0.08,0.32-0.16,0.64-0.23,0.97c-0.07,0.32-0.16,0.65-0.27,0.96c-0.1,0.32-0.21,0.63-0.32,0.95
	c-0.11,0.32-0.2,0.64-0.35,0.95c-0.29,0.62-0.69,1.19-1.2,1.67c-0.5,0.48-1.11,0.83-1.74,1.12s-1.29,0.5-1.98,0.64
	c-1.37,0.25-2.77,0.27-4.16,0.32c-2.8,0.08-5.63,0.07-8.51,0.04c-1.37-0.02-2.73-0.04-4.08-0.06c-1.36-0.04-2.71-0.3-3.96-0.83
	c-1.24-0.52-2.37-1.38-3.03-2.57c-0.33-0.58-0.53-1.23-0.63-1.89c-0.11-0.66-0.08-1.31-0.08-1.96c0-5.17,0-10.16,0-14.91v-0.03
	l0.02-0.03c8.14-12.97,15.08-24.03,20-31.85c2.46-3.9,4.4-6.99,5.74-9.11c0.67-1.05,1.18-1.86,1.53-2.42
	c0.17-0.27,0.31-0.48,0.4-0.62C263.02,189.08,263.07,189.01,263.08,189.01L263.08,189.01z"/>
<path fill="#263238" d="M62.64,189.01c0,0-2.74-2.77-3.53,13.97c-0.74,15.8-1.83,38.58,1.97,48.35c0.41,1.06,1.14,1.97,2.1,2.56
	c0.78,0.49,1.88,0.97,3.29,1.19c3.3,0.52,16.36,0.22,16.36,0.22s7.41,0,7.52-6.1c0.09-5.02,0-15.94,0-15.94L62.64,189.01
	L62.64,189.01z"/>
<path fill="#407BFF" d="M265.62,174.59l-6.07-3.98c-1.38-6.2-12.63-19.06-12.63-19.06s-11.71-28.24-21.82-34.9
	c-10.1-6.66-59.45-5.82-59.45-5.82l-2.61,0.04c0,0-52.29-0.87-62.4,5.78c-10.1,6.66-21.82,34.9-21.82,34.9s-11.25,12.86-12.63,19.06
	l-6.07,3.98c-1.23,0.81-1.94,2.19-1.89,3.66c0.37,10.46,2.38,51.99,5.89,56.65c3.36,4.46,35.11,2.1,43.74,2.08
	c12.38-0.02,50.94-0.53,50.94-0.53l56.66-0.14c6.43-0.69,41.78,3.63,46.14-1.42c3.81-4.41,5.52-46.19,5.89-56.65
	C267.55,176.78,266.83,175.4,265.62,174.59L265.62,174.59z"/>
<path fill="#455A64" d="M222.37,118.54c-0.25-0.45-0.72-0.73-1.23-0.75l-57.37-2.46l-0.45-0.02l-0.01,0.04l-58.72,2.44
	c-0.51,0.02-0.98,0.31-1.23,0.75l-14.96,26.1c-0.51,0.88,0.11,1.98,1.13,2.01c1.64,0.05,4.08,0.07,6.91-0.04
	c4.6-0.19,41.2-0.1,60.51-0.04l-0.01,0.04c0,0,2.24-0.01,5.93-0.02c3.69,0.01,5.93,0.02,5.93,0.02l-0.01-0.04
	c19.32-0.06,55.91-0.15,60.51,0.04c2.98,0.12,5.52,0.09,7.16,0.04c0.9-0.03,1.45-1.01,1-1.79L222.37,118.54z"/>
<path fill="#263238" d="M59.59,148.72c0,0,0.83,2.83,2.54,3.12c1.71,0.3,15.18,0.71,15.18,0.71l1.32,2.71h2.54l1.85-10.88
	l-1.57,0.32c-0.54,0.11-0.99,0.48-1.2,0.98c-0.24,0.56-0.76,0.94-1.36,1.01L59.59,148.72L59.59,148.72z"/>
<path fill="#263238" d="M145.67,142.32c0-1.51-0.58-5.76-1.98-6.9c-1.08-0.87-3.63-1.14-4.89-1.21c-0.04,0-0.08,0-0.12,0
	c-0.67,0.01-5.13,0.13-6.46,1.21c-1.39,1.13-1.98,5.39-1.97,6.9v0.04c0,0.94,0.76,1.69,1.7,1.69h12.03c0.93,0,1.7-0.76,1.7-1.69
	L145.67,142.32L145.67,142.32z"/>
<g opacity="0.3">
	<path d="M145.67,142.32c0-1.51-0.58-5.76-1.98-6.9c-1.08-0.87-3.63-1.14-4.89-1.21c-0.04,0-0.08,0-0.12,0
		c-0.67,0.01-5.13,0.13-6.46,1.21c-1.39,1.13-1.98,5.39-1.97,6.9v0.04c0,0.94,0.76,1.69,1.7,1.69h12.03c0.93,0,1.7-0.76,1.7-1.69
		L145.67,142.32L145.67,142.32z"/>
</g>
<path fill="#263238" d="M139.59,141.21c0-2.46-0.95-9.43-3.24-11.29c-1.77-1.43-5.94-1.86-8-1.98c-0.07,0-0.13,0-0.2,0
	c-1.09,0.01-8.39,0.21-10.58,1.99c-2.29,1.86-3.23,8.83-3.23,11.29v0.07c0,1.53,1.24,2.78,2.78,2.78h19.7
	c1.53,0,2.78-1.24,2.78-2.78L139.59,141.21L139.59,141.21z"/>
<g opacity="0.3">
	<path d="M115.46,213.27c0,0-44.18-5.81-45.97-6.03c-2.73-0.33-4.19,1.44-4.19,3.54c0,1.48-0.2,7.14-0.32,10.36
		c-0.07,1.9,0.89,3.69,2.52,4.66c0.94,0.55,2.21,1.13,3.89,1.62c3.72,1.09,26.11,2.13,30.75,2.33c0.54,0.03,1.07-0.16,1.48-0.52
		c1.67-1.47,6.15-5.49,7.55-7.48C115.79,215.23,115.46,213.26,115.46,213.27L115.46,213.27z M92.53,225.34l-21.36-3.46l0.84-11.7
		l29.01,2.63L92.53,225.34L92.53,225.34z"/>
</g>
<g opacity="0.3">
	<path d="M65.96,183.24c0,0-2.19,6.64,11.72,9.74c14.08,3.13,34.9,8.8,34.9,8.8l-11.19-7.97c0,0-32.18-5.37-32.98-10.29
		c-0.92-5.63,0-11.96,0-11.96L65.96,183.24z"/>
</g>
<path fill="#263238" d="M120.27,213.07c0,0-0.05,0-0.15-0.03c-0.11-0.03-0.25-0.06-0.44-0.1c-0.4-0.1-0.96-0.24-1.69-0.43
	c-1.47-0.36-3.59-0.89-6.23-1.47c-5.28-1.18-12.61-2.63-20.75-3.95c-4.07-0.66-7.96-1.27-11.5-1.73c-1.77-0.24-3.45-0.47-5.03-0.69
	c-1.57-0.22-3.04-0.43-4.39-0.4c-1.34,0.03-2.56,0.34-3.42,0.97c-0.87,0.61-1.48,1.33-1.88,1.96c-0.81,1.29-0.8,2.18-0.84,2.16
	c0,0,0-0.21,0.09-0.6c0.09-0.39,0.28-0.96,0.68-1.61c0.39-0.65,1-1.39,1.88-2.02c0.87-0.66,2.13-1,3.48-1.03
	c1.36-0.04,2.84,0.16,4.41,0.37c1.58,0.21,3.26,0.43,5.03,0.67c3.55,0.45,7.44,1.05,11.51,1.71c8.15,1.32,15.48,2.79,20.75,4.02
	c2.64,0.6,4.75,1.16,6.22,1.54c0.72,0.2,1.28,0.35,1.68,0.47c0.18,0.05,0.33,0.1,0.43,0.12c0.1,0.03,0.15,0.05,0.15,0.05
	L120.27,213.07z"/>
<path fill="#263238" d="M64.2,195.89c0,0-0.02-0.09-0.02-0.25c0-0.19-0.01-0.42-0.02-0.71c-0.01-0.61-0.02-1.51,0-2.61
	c0.03-2.2,0.15-5.25,0.44-8.6c0.3-3.35,0.72-6.37,1.08-8.54c0.18-1.09,0.34-1.97,0.46-2.57c0.06-0.28,0.11-0.51,0.15-0.69
	c0.03-0.16,0.06-0.24,0.07-0.24s0,0.09-0.02,0.25c-0.03,0.19-0.06,0.42-0.1,0.7c-0.1,0.64-0.23,1.51-0.39,2.58
	c-0.32,2.18-0.71,5.19-1.01,8.54c-0.29,3.34-0.44,6.38-0.51,8.58c-0.03,1.08-0.05,1.96-0.07,2.61c-0.01,0.29-0.02,0.52-0.02,0.71
	C64.21,195.81,64.21,195.89,64.2,195.89z"/>
<path fill="#263238" d="M73.86,165.97c0,0-0.02-0.19-0.02-0.53c0-0.17,0-0.38,0.04-0.62c0.03-0.24,0.04-0.52,0.1-0.82
	c0.18-1.21,0.59-2.86,1.15-4.64c0.56-1.78,1.16-3.36,1.62-4.49c0.23-0.57,0.42-1.02,0.56-1.33s0.23-0.48,0.24-0.47
	c0.01,0-0.04,0.19-0.16,0.51c-0.13,0.36-0.3,0.82-0.5,1.36c-0.42,1.15-0.99,2.73-1.55,4.5c-0.56,1.77-0.99,3.4-1.21,4.6
	C73.92,165.21,73.91,165.97,73.86,165.97z"/>
<path fill="#F5F5F5" d="M76.49,169c0,0-7.25-2.64-8.17,2.98c-0.93,5.62-0.83,11.21,0.39,13.17c1.22,1.97,12.4,4.64,12.4,4.64
	l19.35,4.25c0,0,1.39,0.29,0.55-1.29c-0.94-1.76-6.06-13.07-9.03-15.81C86.51,171.87,76.49,168.99,76.49,169L76.49,169z"/>
<g opacity="0.3">
	<path d="M83.63,190.35c0,0,0.03-13.24-0.94-14.71s-12.37-6.75-12.37-6.75s1.11-0.94,3.39-0.51c2.28,0.43,6.07,1.46,9.21,3.08
		c3.15,1.62,8.19,3.93,10.07,6.6c0.82,1.16,2.53,3.94,4.16,6.96c2.12,3.92,4.13,8.11,4.13,8.34c0,0.48,0.11,0.92-1.77,0.52
		C95.15,192.95,83.63,190.35,83.63,190.35L83.63,190.35z"/>
</g>
<path fill="#F5F5F5" d="M89.93,189.15c2.59,0,4.69-2.1,4.69-4.7c0-2.59-2.1-4.69-4.69-4.69c-2.59,0-4.69,2.1-4.69,4.69
	C85.24,187.05,87.34,189.15,89.93,189.15z"/>
<path fill="#263238" d="M94.63,184.46c-0.03,0,0-0.42-0.19-1.13c-0.18-0.7-0.65-1.74-1.71-2.53c-0.52-0.39-1.18-0.72-1.94-0.85
	c-0.75-0.13-1.6-0.1-2.41,0.21c-0.41,0.14-0.8,0.35-1.16,0.63c-0.36,0.26-0.7,0.59-0.97,0.97c-0.56,0.75-0.88,1.72-0.89,2.71
	c0.01,0.99,0.32,1.96,0.89,2.71c0.27,0.38,0.6,0.71,0.97,0.97c0.36,0.27,0.75,0.49,1.16,0.63c0.81,0.31,1.66,0.33,2.41,0.21
	c0.76-0.13,1.42-0.46,1.94-0.85c1.06-0.8,1.53-1.83,1.71-2.53C94.62,184.87,94.6,184.45,94.63,184.46c0,0,0.06,0.42-0.1,1.15
	c-0.16,0.72-0.62,1.8-1.7,2.64c-0.54,0.41-1.22,0.76-2.01,0.91c-0.78,0.14-1.67,0.12-2.52-0.19c-0.42-0.15-0.84-0.37-1.22-0.65
	c-0.38-0.28-0.73-0.62-1.02-1.02c-0.59-0.78-0.93-1.8-0.94-2.84c0.01-1.04,0.35-2.05,0.94-2.84c0.29-0.4,0.64-0.74,1.02-1.02
	s0.79-0.5,1.22-0.65c0.85-0.32,1.73-0.34,2.52-0.2c0.79,0.15,1.47,0.5,2.01,0.91c1.08,0.84,1.54,1.91,1.7,2.64
	C94.68,184.04,94.63,184.46,94.63,184.46z"/>
<path fill="#E0E0E0" d="M89.93,184.25c1.72,0,3.22,0.96,4,2.37c0.36-0.65,0.56-1.4,0.56-2.2c0-2.52-2.04-4.57-4.56-4.57
	s-4.56,2.04-4.56,4.57c0,0.8,0.2,1.55,0.56,2.2C86.7,185.21,88.2,184.25,89.93,184.25L89.93,184.25z"/>
<path fill="#FFFFFF" d="M91.95,184.3c0,1.12-0.91,2.02-2.02,2.02c-1.12,0-2.02-0.9-2.02-2.02s0.91-2.02,2.02-2.02
	C91.05,182.28,91.95,183.18,91.95,184.3z"/>
<path fill="#263238" d="M91.95,184.3c-0.02,0-0.02-0.18-0.1-0.49c-0.09-0.3-0.29-0.73-0.74-1.06c-0.43-0.33-1.14-0.51-1.83-0.26
	c-0.68,0.24-1.26,0.96-1.26,1.8c-0.01,0.85,0.58,1.57,1.26,1.8c0.68,0.25,1.39,0.07,1.83-0.26c0.45-0.33,0.65-0.76,0.74-1.06
	C91.94,184.48,91.93,184.3,91.95,184.3c0.01,0,0.01,0.04,0.02,0.13c0,0.09,0,0.21-0.04,0.37c-0.06,0.32-0.26,0.79-0.73,1.16
	c-0.45,0.38-1.23,0.6-2,0.32c-0.76-0.25-1.42-1.05-1.41-2c-0.01-0.95,0.65-1.75,1.41-2c0.76-0.27,1.54-0.05,2,0.32
	c0.47,0.38,0.67,0.85,0.73,1.17c0.03,0.16,0.04,0.29,0.04,0.37c0,0.09-0.01,0.13-0.02,0.13V184.3z"/>
<path fill="#FFFFFF" d="M91.7,181.12c-0.08,0.14-0.51,0.02-1.15-0.02c-0.64-0.05-1.52,0.02-2.33,0.45
	c-0.81,0.43-1.36,1.13-1.68,1.68c-0.32,0.56-0.46,0.98-0.62,0.97c-0.14,0-0.3-0.48-0.12-1.26c0.17-0.75,0.77-1.79,1.89-2.39
	c1.12-0.59,2.31-0.51,3.04-0.23C91.47,180.6,91.78,181,91.7,181.12z"/>
<path fill="#FFFFFF" d="M92.88,181.87c-0.26,0.18-0.49,0.28-0.54,0.24c-0.04-0.04,0.06-0.28,0.23-0.54c0.17-0.26,0.43-0.4,0.56-0.27
	C93.26,181.43,93.13,181.69,92.88,181.87L92.88,181.87z"/>
<path fill="#263238" d="M163.82,169.69c0,0-0.06,0.01-0.19,0.01s-0.31,0-0.55,0.01c-0.49,0.01-1.19,0.01-2.09,0.02
	c-1.83,0-4.46,0.02-7.7,0.03c-6.51,0-15.48,0-25.39,0c-4.96-0.01-9.68-0.02-13.98-0.03c-2.15-0.01-4.19-0.01-6.1-0.02
	c-0.95,0-1.88-0.01-2.76-0.01c-0.88-0.06-1.71,0.19-2.34,0.68c-1.24,1.04-2.37,1.99-3.35,2.82c-0.49,0.42-0.96,0.8-1.38,1.16
	c-0.45,0.34-0.93,0.55-1.37,0.66c-0.45,0.11-0.86,0.12-1.21,0.09c-0.35-0.02-0.64-0.04-0.88-0.05c-0.23-0.01-0.41-0.03-0.54-0.04
	c-0.12-0.01-0.19-0.01-0.19-0.02c0,0,0.06,0,0.19,0c0.13,0,0.31,0,0.55,0.01c0.24,0.01,0.54,0.01,0.88,0.03
	c0.35,0.02,0.75,0,1.19-0.11c0.43-0.11,0.9-0.32,1.33-0.66c0.42-0.36,0.87-0.75,1.36-1.16c0.98-0.84,2.1-1.79,3.34-2.85
	c0.65-0.52,1.55-0.78,2.44-0.73c0.89,0,1.81,0,2.76,0c1.91,0,3.95,0,6.1,0c4.3,0,9.02,0,13.98,0.01c9.91,0.03,18.88,0.05,25.39,0.06
	c3.24,0.02,5.87,0.03,7.7,0.04c0.9,0.01,1.6,0.02,2.09,0.02c0.23,0,0.41,0.01,0.54,0.01C163.76,169.68,163.83,169.69,163.82,169.69
	L163.82,169.69z"/>
<path fill="#263238" d="M254.6,231.43c-0.23-0.49-0.73-0.84-1.7-0.73c-2.71,0.31-31.08,0.94-34.99,0s-16.94-15.73-22.45-16.73
	c-4.63-0.85-27.12-1.29-34.25-1.09c-7.13-0.21-29.62,0.25-34.24,1.09c-5.51,1.01-18.35,17.24-22.26,18.18
	c-3.91,0.94-32.48-1.14-35.19-1.45c-0.98-0.11-1.47,0.24-1.7,0.73c-0.48,1.02,0.3,2.19,1.43,2.23c6.04,0.17,29.38,0.44,33.75,0.36
	c4.58-0.08,51.43-0.94,59.29-1.08c11.84,0.07,52.28,0.33,56.56,0.39c5.05,0.07,28.3,0.5,34.34,0.33c1.13-0.03,1.91-1.2,1.43-2.23
	H254.6z"/>
<path fill="#263238" d="M153.25,117.27c0.23,0,0.94,4.08,4.22,4c3.29-0.08,11.31,0,11.31,0v-5.09L153.25,117.27L153.25,117.27z"/>
<path fill="#407BFF" d="M60.16,149.14c-1-0.08-1.73-0.98-1.59-1.98c0.44-3.11,2.07-9.14,8.07-10.04c5.31-0.79,9.16-0.55,11.2-0.29
	c0.93,0.12,1.39,0.97,1.5,1.9c0.51,4.27,0.1,9.57-1.13,10.22C76.92,149.64,64.54,149.49,60.16,149.14L60.16,149.14z"/>
<path fill="#263238" d="M101.67,116.17c0,0-0.01,0.03-0.04,0.1c-0.04,0.08-0.09,0.17-0.15,0.29c-0.14,0.27-0.34,0.63-0.58,1.1
	c-0.52,0.97-1.27,2.33-2.19,4.01c-1.87,3.39-4.44,8.05-7.28,13.2c-2.33,4.18-4.48,8.04-6.19,11.12L85.22,146l-0.01,0.01
	c-2.07,1.58-3.76,2.89-4.97,3.82c-0.58,0.44-1.05,0.79-1.38,1.04c-0.15,0.11-0.27,0.2-0.36,0.27c-0.08,0.06-0.13,0.09-0.13,0.08
	c0,0,0.03-0.04,0.11-0.1c0.09-0.07,0.2-0.17,0.35-0.29c0.32-0.26,0.78-0.62,1.35-1.08c1.19-0.94,2.87-2.26,4.92-3.88l-0.02,0.03
	c1.7-3.08,3.84-6.95,6.15-11.14c2.86-5.13,5.46-9.78,7.35-13.17c0.94-1.67,1.71-3.02,2.25-3.98c0.26-0.45,0.47-0.81,0.62-1.07
	l0.16-0.28C101.64,116.21,101.66,116.18,101.67,116.17L101.67,116.17z"/>
<path fill="#263238" d="M109.66,113.73c0.01,0.03-0.41,0.17-1.07,0.42c-0.66,0.26-1.57,0.64-2.42,1.28
	c-0.86,0.65-1.48,1.41-1.91,1.97c-0.42,0.57-0.67,0.93-0.7,0.91c-0.02-0.01,0.18-0.41,0.57-1c0.4-0.59,1.01-1.39,1.9-2.06
	c0.89-0.66,1.83-1.03,2.51-1.25C109.22,113.79,109.65,113.71,109.66,113.73L109.66,113.73z"/>
<g opacity="0.3">
	<path d="M85.19,145.97l-0.42,0.29c-0.17-0.21,10,21.11,14.79,26.74l3.15-2.67C95.92,163.75,90.85,153.54,85.19,145.97z"/>
</g>
<path fill="#263238" d="M105.37,229.8c0,0,0.09-0.02,0.24-0.11s0.36-0.24,0.64-0.46c0.54-0.42,1.31-1.09,2.28-1.97
	c1.93-1.76,4.67-4.38,7.96-7.7c0.82-0.83,1.68-1.71,2.56-2.63c0.89-0.91,1.73-1.95,2.81-2.83c1.08-0.87,2.34-1.59,3.72-2.09
	c1.39-0.51,2.89-0.81,4.44-0.92c0.77-0.06,1.56-0.06,2.35-0.07c0.79-0.01,1.59-0.02,2.4-0.02c1.62-0.02,3.27-0.03,4.96-0.05
	c3.36-0.03,6.85-0.07,10.42-0.1c14.27-0.12,27.19-0.22,36.56-0.3c4.67-0.03,8.45-0.05,11.08-0.07c1.3,0,2.32-0.01,3.01-0.01
	c0.34,0,0.6,0,0.78,0s0.27,0.01,0.27,0.01s-0.09,0.01-0.27,0.01c-0.19,0-0.45,0.01-0.78,0.02c-0.7,0.01-1.71,0.03-3.01,0.05
	c-2.62,0.04-6.4,0.08-11.08,0.14c-9.36,0.1-22.28,0.23-36.56,0.37c-3.57,0.03-7.05,0.07-10.42,0.1c-1.68,0.01-3.34,0.03-4.96,0.04
	c-0.81,0.01-1.61,0.01-2.4,0.02c-0.79,0.01-1.57,0.01-2.34,0.06c-1.53,0.12-3.02,0.41-4.38,0.9c-1.37,0.49-2.61,1.2-3.68,2.05
	c-1.06,0.86-1.91,1.89-2.81,2.8c-0.88,0.92-1.75,1.79-2.57,2.62c-3.3,3.31-6.06,5.91-8.01,7.66c-0.98,0.87-1.75,1.52-2.31,1.94
	c-0.27,0.21-0.49,0.36-0.65,0.44C105.47,229.8,105.37,229.8,105.37,229.8L105.37,229.8z"/>
<g opacity="0.3">
	<path fill="#FFFFFF" d="M82.03,203.98c-1.34-1.33-2.69-2.66-4.28-3.66c-1.59-1.01-3.88-2.18-5.32-1.25
		c-0.73,0.8-1.32,1.72-1.74,2.71c-0.14,0.34-0.26,0.74-0.1,1.07c0.2,0.41,0.73,0.51,1.18,0.57c3.31,0.42,6.63,0.83,9.94,1.25
		c0.19,0.03,0.43,0.03,0.52-0.14C82.34,204.34,82.18,204.12,82.03,203.98z"/>
</g>
<g opacity="0.3">
	<path d="M120.78,197.69c25.37,6.76,52.17,5.06,78.26,2.05c4.03-0.46,8.41-1.13,11.15-4.11"/>
</g>
<path fill="#263238" d="M215.34,174.29c-9.91-1.4-30.74-2.1-51.42-2.08c-20.68-0.01-41.52,0.68-51.42,2.08
	c-3.11,0.44-5.13,3.52-4.24,6.53c0.01,0.03,0.02,0.07,0.03,0.11c1.08,3.56,5.36,14.92,12.16,16.62c3.16,0.79,20.95,1.55,39.94,1.7
	v0.03c1.18,0,2.36,0,3.53-0.01c1.18,0.01,2.36,0.01,3.53,0.01v-0.03c18.98-0.15,36.78-0.91,39.94-1.7
	c6.81-1.7,11.08-13.06,12.16-16.62c0.01-0.04,0.02-0.07,0.03-0.11C220.46,177.82,218.44,174.73,215.34,174.29z"/>
<path fill="#263238" d="M217.84,196.05c0,0-0.09,0.05-0.26,0.14c-0.18,0.1-0.44,0.23-0.77,0.4c-0.35,0.18-0.77,0.39-1.27,0.65
	c-0.25,0.12-0.52,0.27-0.81,0.4c-0.29,0.13-0.61,0.27-0.94,0.42c-2.65,1.23-6.61,2.76-11.66,4.11c-5.06,1.31-11.2,2.43-18.09,3.01
	c-6.88,0.64-14.48,0.78-22.45,0.74s-15.57-0.4-22.43-1.31c-6.85-0.89-12.94-2.32-17.89-3.98c-4.96-1.64-8.79-3.48-11.36-4.87
	c-0.65-0.34-1.2-0.67-1.69-0.95c-0.49-0.28-0.89-0.53-1.22-0.73c-0.32-0.2-0.57-0.35-0.74-0.46c-0.17-0.1-0.25-0.16-0.25-0.16
	s0.09,0.05,0.26,0.15c0.18,0.1,0.42,0.25,0.75,0.45s0.74,0.44,1.23,0.72c0.49,0.27,1.05,0.6,1.7,0.93c2.58,1.36,6.41,3.18,11.37,4.8
	c4.95,1.64,11.03,3.05,17.87,3.93c6.84,0.9,14.44,1.25,22.4,1.29c7.96,0.03,15.56-0.1,22.43-0.72c6.87-0.58,13.01-1.67,18.06-2.96
	c5.05-1.32,9.01-2.82,11.66-4.03c0.33-0.14,0.65-0.28,0.95-0.41c0.29-0.13,0.56-0.27,0.81-0.39c0.5-0.25,0.93-0.45,1.28-0.62
	c0.34-0.17,0.6-0.29,0.79-0.38C217.76,196.09,217.85,196.06,217.84,196.05L217.84,196.05z"/>
<path fill="#455A64" d="M219.06,179.83c0,0.06-24.74,0.11-55.25,0.11s-55.26-0.05-55.26-0.11s24.73-0.11,55.26-0.11
	C194.33,179.71,219.06,179.76,219.06,179.83z"/>
<path fill="#455A64" d="M219.06,176.46c0,0.06-24.74,0.11-55.25,0.11s-55.26-0.05-55.26-0.11s24.73-0.11,55.26-0.11
	C194.33,176.35,219.06,176.4,219.06,176.46z"/>
<path fill="#455A64" d="M203.42,173.1c0,0.06-17.71,0.11-39.55,0.11s-39.55-0.05-39.55-0.11s17.7-0.11,39.55-0.11
	C185.72,172.98,203.42,173.04,203.42,173.1z"/>
<path fill="#455A64" d="M219.06,183.24c0,0.06-24.74,0.11-55.25,0.11s-55.26-0.05-55.26-0.11s24.73-0.11,55.26-0.11
	C194.33,183.13,219.06,183.18,219.06,183.24z"/>
<path fill="#455A64" d="M216.61,186.65c0,0.06-23.76,0.11-53.05,0.11s-53.06-0.05-53.06-0.11s23.75-0.11,53.06-0.11
	C192.86,186.54,216.61,186.59,216.61,186.65z"/>
<path fill="#455A64" d="M215.53,190.06c0,0.06-23.11,0.11-51.62,0.11s-51.62-0.05-51.62-0.11s23.11-0.11,51.62-0.11
	S215.53,190,215.53,190.06z"/>
<path fill="#455A64" d="M212.87,193.48c0,0.06-21.92,0.11-48.96,0.11s-48.96-0.05-48.96-0.11s21.92-0.11,48.96-0.11
	S212.87,193.42,212.87,193.48z"/>
<path fill="#455A64" d="M209.55,196.89c0,0.06-20.31,0.11-45.36,0.11s-45.37-0.05-45.37-0.11s20.31-0.11,45.37-0.11
	S209.55,196.82,209.55,196.89z"/>
<path fill="#FFFFFF" d="M79.5,232.25l0.01,0.03c0.21,0.74-0.34,1.55-1.11,1.54l-7.2-0.12c-0.56-0.01-1.03-0.57-1.1-1.13l-0.05-0.4
	c-0.09-0.71,0.57-1.36,1.28-1.31l7.14,0.52C78.95,231.42,79.37,231.79,79.5,232.25L79.5,232.25z"/>
<path fill="#455A64" d="M213.8,228.05c0,0.06-23.21,0.11-51.84,0.11s-51.85-0.05-51.85-0.11s23.21-0.11,51.85-0.11
	S213.8,227.99,213.8,228.05z"/>
<path fill="#455A64" d="M132.97,231.83h-3.04l-0.21-3.78h3.48L132.97,231.83z"/>
<path fill="#455A64" d="M161.41,231.83h-3.04l-0.22-3.78h3.49L161.41,231.83z"/>
<path fill="#455A64" d="M189.85,231.83h-3.04l-0.22-3.78h3.49L189.85,231.83z"/>
<path fill="#455A64" d="M212.2,226.69c-5.5-4.74-12.91-12.03-16.72-12.72c-4.63-0.85-27.12-1.29-34.25-1.09
	c-7.13-0.21-29.62,0.25-34.24,1.09c-3.55,0.65-10.13,7.6-15.4,12.72H212.2L212.2,226.69z"/>
<path fill="#263238" d="M65.83,224.21c0,0,0.08-0.08,0.24-0.22c0.18-0.15,0.42-0.35,0.72-0.6c0.65-0.52,1.57-1.27,2.72-2.2
	l0.02-0.02h0.03c3.57,0.44,8.94,1.1,14.95,1.84c2.92,0.37,5.7,0.72,8.17,1.04h0.02l0.02,0.01c2.99,1.64,5.52,3.04,7.32,4.03
	c0.88,0.49,1.58,0.88,2.07,1.16l0.55,0.32c0.12,0.07,0.19,0.11,0.18,0.12c0,0-0.07-0.03-0.2-0.09c-0.14-0.07-0.33-0.17-0.56-0.29
	c-0.51-0.27-1.21-0.64-2.1-1.11c-1.81-0.97-4.36-2.34-7.36-3.96l0.03,0.01c-2.47-0.31-5.25-0.65-8.17-1.01
	c-6.01-0.77-11.38-1.46-14.95-1.91l0.06-0.02c-1.17,0.91-2.1,1.64-2.75,2.15c-0.31,0.24-0.56,0.43-0.74,0.57
	C65.93,224.15,65.83,224.21,65.83,224.21L65.83,224.21z"/>
<path fill="#263238" d="M102.84,215.94c0,0,1.47-2.49,0-3.11c-1.69-0.72-29.89-4.1-31.04-4.21c-2.29-0.2-3.12,0.83-3.66,3.52
	s-1.72,9.35,0.54,11.28c2.26,1.94,5.8,2.79,12.79,3.22c6.99,0.43,10.66,0.67,14.1-1.27C99.01,223.43,102.84,215.93,102.84,215.94
	L102.84,215.94z"/>
<path fill="#263238" d="M101.4,193.81c-0.07,0.03-0.47-0.7-1.15-2.03s-1.65-3.26-2.91-5.61c-0.64-1.17-1.34-2.45-2.15-3.79
	c-0.81-1.33-1.7-2.75-2.77-4.1c-0.55-0.67-1.11-1.3-1.81-1.88c-0.69-0.58-1.44-1.09-2.25-1.55c-0.81-0.47-1.68-0.92-2.56-1.39
	c-0.87-0.46-1.77-0.93-2.67-1.37c-1.81-0.9-3.62-1.67-5.42-2.24c-0.9-0.29-1.8-0.52-2.69-0.71c-0.89-0.2-1.75-0.32-2.56-0.3
	c-0.81,0.03-1.57,0.23-2.16,0.65c-0.58,0.42-0.99,1.04-1.26,1.73c-0.28,0.68-0.45,1.4-0.61,2.1c-0.15,0.71-0.31,1.4-0.46,2.05
	c-0.62,2.59-1.12,4.69-1.47,6.16c-0.35,1.46-0.54,2.26-0.62,2.25c-0.07-0.01-0.03-0.85,0.19-2.33c0.21-1.49,0.6-3.62,1.13-6.24
	c0.13-0.66,0.26-1.34,0.39-2.06c0.14-0.72,0.29-1.49,0.59-2.28c0.29-0.78,0.77-1.59,1.54-2.18c0.78-0.58,1.75-0.84,2.7-0.89
	s1.91,0.09,2.82,0.28c0.93,0.19,1.86,0.42,2.8,0.71c1.88,0.58,3.74,1.38,5.59,2.29c0.92,0.46,1.82,0.92,2.7,1.39
	c0.87,0.47,1.74,0.92,2.59,1.42s1.66,1.06,2.39,1.68c0.73,0.61,1.37,1.35,1.93,2.05c1.1,1.44,1.97,2.9,2.76,4.27
	c0.79,1.38,1.45,2.69,2.05,3.89c1.18,2.41,2.04,4.4,2.61,5.79C101.2,192.99,101.46,193.78,101.4,193.81L101.4,193.81z"/>
<path fill="#E0E0E0" d="M75.95,179.61c2.2,0,4.11,1.22,5.09,3.01c0.46-0.83,0.72-1.78,0.72-2.8c0-3.21-2.6-5.81-5.81-5.81
	s-5.81,2.6-5.81,5.81c0,1.01,0.26,1.97,0.72,2.8C71.84,180.83,73.75,179.61,75.95,179.61z"/>
<path fill="#FFFFFF" d="M75.95,182.14c1.38,0,2.5-1.12,2.5-2.5s-1.12-2.5-2.5-2.5s-2.5,1.12-2.5,2.5
	C73.44,181.02,74.56,182.14,75.95,182.14z"/>
<path fill="#263238" d="M78.45,179.63c-0.02,0-0.02-0.22-0.12-0.6c-0.1-0.37-0.36-0.91-0.92-1.33c-0.54-0.42-1.43-0.65-2.29-0.33
	c-0.85,0.29-1.59,1.2-1.57,2.26c-0.01,1.06,0.72,1.96,1.57,2.26c0.86,0.32,1.75,0.09,2.29-0.33c0.56-0.41,0.81-0.96,0.92-1.32
	C78.43,179.86,78.43,179.63,78.45,179.63c0.01,0,0.01,0.06,0.01,0.16s-0.01,0.26-0.05,0.46c-0.08,0.39-0.32,0.97-0.91,1.43
	c-0.56,0.46-1.52,0.73-2.45,0.39c-0.46-0.16-0.9-0.47-1.22-0.9s-0.51-0.98-0.51-1.55s0.19-1.12,0.51-1.55
	c0.32-0.43,0.76-0.75,1.22-0.91c0.94-0.34,1.89-0.06,2.45,0.39c0.58,0.46,0.82,1.04,0.91,1.43c0.04,0.2,0.06,0.35,0.05,0.46
	C78.46,179.57,78.45,179.63,78.45,179.63L78.45,179.63z"/>
<path fill="#263238" d="M81.76,179.83c-0.03,0,0-0.52-0.23-1.41c-0.23-0.87-0.81-2.16-2.12-3.15c-0.65-0.49-1.47-0.9-2.41-1.06
	s-1.99-0.13-3,0.26c-0.51,0.18-1,0.44-1.44,0.78c-0.45,0.33-0.87,0.74-1.2,1.21c-0.7,0.93-1.1,2.13-1.11,3.37
	c0.01,1.23,0.41,2.44,1.11,3.37c0.34,0.47,0.75,0.88,1.2,1.21c0.45,0.34,0.94,0.6,1.44,0.78c1,0.38,2.06,0.42,3,0.25
	c0.94-0.16,1.76-0.58,2.41-1.06c1.31-0.99,1.9-2.27,2.12-3.15C81.76,180.35,81.72,179.82,81.76,179.83c0.01,0,0.01,0.13,0,0.37
	c0,0.12,0,0.27-0.03,0.45c-0.02,0.18-0.04,0.38-0.11,0.61c-0.2,0.89-0.77,2.22-2.11,3.25c-0.66,0.51-1.5,0.94-2.47,1.12
	c-0.97,0.17-2.06,0.15-3.11-0.24c-0.52-0.18-1.04-0.46-1.5-0.8c-0.47-0.34-0.9-0.76-1.26-1.26c-0.73-0.97-1.14-2.22-1.16-3.5
	c0.01-1.29,0.42-2.53,1.16-3.5c0.36-0.49,0.78-0.91,1.26-1.26c0.47-0.35,0.97-0.62,1.5-0.8c1.04-0.39,2.14-0.42,3.11-0.24
	s1.81,0.61,2.47,1.12c1.34,1.04,1.91,2.36,2.11,3.25c0.06,0.22,0.09,0.43,0.11,0.61c0.03,0.18,0.03,0.33,0.03,0.45
	C81.76,179.7,81.76,179.83,81.76,179.83z"/>
<path fill="#FFFFFF" d="M78.14,175.7c-0.09,0.14-0.6-0.04-1.4-0.12c-0.8-0.09-1.93-0.02-2.97,0.53s-1.72,1.46-2.1,2.16
	c-0.39,0.71-0.52,1.24-0.68,1.23c-0.14,0-0.31-0.59-0.06-1.52c0.23-0.91,0.97-2.15,2.31-2.87c1.35-0.71,2.79-0.63,3.67-0.32
	C77.83,175.12,78.22,175.59,78.14,175.7L78.14,175.7z"/>
<path fill="#FFFFFF" d="M79.59,176.62c-0.26,0.18-0.51,0.26-0.57,0.2s0.02-0.31,0.19-0.58c0.17-0.26,0.45-0.38,0.6-0.23
	C79.97,176.17,79.85,176.45,79.59,176.62L79.59,176.62z"/>
<path fill="#263238" d="M112.58,201.78c-0.08,0.3-7.85-1.4-17.36-3.8c-9.51-2.4-17.16-4.6-17.09-4.9c0.08-0.3,7.85,1.4,17.36,3.8
	C105.01,199.29,112.66,201.48,112.58,201.78L112.58,201.78z"/>
<path fill="#263238" d="M66.77,169.97c0,0,0-0.05,0-0.13c0.01-0.09,0.03-0.22,0.07-0.39c0.08-0.34,0.22-0.84,0.53-1.42
	c0.32-0.58,0.84-1.23,1.65-1.72c0.2-0.13,0.43-0.22,0.65-0.33c0.24-0.07,0.48-0.18,0.74-0.23c0.26-0.05,0.53-0.13,0.81-0.13
	c0.28-0.02,0.58-0.01,0.87,0.01c1.18,0.1,2.44,0.38,3.78,0.74c1.33,0.36,2.74,0.8,4.21,1.31c2.93,1.02,6.12,2.24,9.38,3.75
	c0.41,0.19,0.81,0.39,1.2,0.6c0.4,0.21,0.76,0.48,1.1,0.75c0.69,0.55,1.31,1.16,1.84,1.83c1,1.38,1.89,2.73,2.76,4.02
	c1.72,2.58,3.2,4.95,4.4,6.97c1.19,2.02,2.11,3.68,2.73,4.84c0.31,0.58,0.55,1.03,0.7,1.34c0.07,0.15,0.13,0.26,0.18,0.35
	c0.04,0.08,0.06,0.12,0.05,0.12c0,0-0.03-0.04-0.07-0.11c-0.05-0.09-0.12-0.2-0.19-0.34c-0.18-0.32-0.42-0.76-0.74-1.32
	c-0.64-1.14-1.58-2.79-2.79-4.8c-1.21-2.01-2.71-4.37-4.43-6.94c-0.87-1.28-1.77-2.65-2.76-4c-0.52-0.65-1.13-1.25-1.81-1.79
	c-0.34-0.26-0.69-0.52-1.07-0.73c-0.39-0.21-0.78-0.4-1.19-0.59c-3.24-1.5-6.43-2.73-9.35-3.76c-1.46-0.51-2.87-0.96-4.19-1.32
	c-1.33-0.36-2.58-0.65-3.74-0.76c-0.29-0.03-0.57-0.04-0.84-0.02c-0.27,0.01-0.54,0.08-0.79,0.12c-0.26,0.05-0.49,0.15-0.73,0.22
	c-0.22,0.11-0.45,0.19-0.64,0.31c-0.8,0.47-1.32,1.1-1.64,1.66c-0.32,0.57-0.48,1.06-0.57,1.39c-0.04,0.16-0.07,0.29-0.09,0.38
	C66.77,169.93,66.77,169.97,66.77,169.97L66.77,169.97z"/>
<path fill="#263238" d="M68.19,137.15c0,0-0.08,0.18-0.27,0.48c-0.19,0.3-0.45,0.73-0.77,1.27c-0.64,1.08-1.46,2.61-2.22,4.36
	c-0.76,1.76-1.31,3.4-1.65,4.61c-0.18,0.6-0.31,1.09-0.4,1.43s-0.15,0.52-0.16,0.52s0.01-0.19,0.08-0.54
	c0.06-0.35,0.17-0.84,0.33-1.45c0.31-1.22,0.84-2.88,1.6-4.66c0.77-1.77,1.62-3.29,2.29-4.36c0.34-0.53,0.62-0.95,0.83-1.24
	C68.06,137.29,68.18,137.14,68.19,137.15z"/>
<g opacity="0.3">
	<path fill="#FFFFFF" d="M64.96,172.42c-0.43,0.14-2.78,1.61-3.78,2.17s-1.87,1.44-2.16,2.54c-0.29,1.1,0.03,2.26,0.34,3.35
		c1.03,3.57,2.22,10,3.24,13.57C63.42,187.57,64.29,176.53,64.96,172.42"/>
</g>
<path fill="#455A64" d="M97.22,223.82c-0.01,0.06-6.7-0.82-14.96-1.96c-8.25-1.14-14.94-2.12-14.93-2.18s6.7,0.81,14.96,1.96
	C90.54,222.79,97.23,223.76,97.22,223.82z"/>
<path fill="#455A64" d="M95.09,225.46c0,0-0.1,0-0.28-0.02c-0.21-0.02-0.47-0.05-0.8-0.09c-0.72-0.09-1.72-0.21-2.95-0.35
	c-2.52-0.3-5.94-0.71-9.73-1.16c-3.8-0.45-7.24-0.88-9.72-1.23c-1.24-0.17-2.25-0.32-2.94-0.43c-0.33-0.05-0.59-0.1-0.8-0.13
	c-0.18-0.03-0.28-0.05-0.28-0.06s0.1,0,0.28,0.02c0.21,0.02,0.47,0.05,0.8,0.09c0.72,0.09,1.72,0.21,2.95,0.35
	c2.52,0.3,5.94,0.71,9.73,1.16c3.8,0.45,7.24,0.88,9.72,1.22c1.24,0.17,2.25,0.32,2.94,0.43c0.33,0.05,0.59,0.1,0.8,0.13
	C94.99,225.43,95.09,225.45,95.09,225.46z"/>
<path fill="#455A64" d="M90.4,226.69c0.02,0.06-1.1-0.03-2.86-0.21c-1.77-0.18-4.22-0.45-6.91-0.77c-2.7-0.32-5.14-0.62-6.9-0.85
	c-0.85-0.12-1.56-0.21-2.09-0.29c-0.49-0.07-0.76-0.12-0.76-0.13c0-0.02,0.28,0,0.77,0.05c0.53,0.05,1.24,0.13,2.1,0.21
	c1.8,0.2,4.23,0.48,6.91,0.78c2.68,0.32,5.1,0.62,6.91,0.83c0.86,0.11,1.56,0.2,2.09,0.26C90.14,226.64,90.43,226.68,90.4,226.69
	L90.4,226.69z"/>
<path fill="#455A64" d="M98.78,221.96c-0.01,0.06-7.06-0.81-15.74-1.96c-8.69-1.14-15.72-2.12-15.71-2.18s7.06,0.81,15.74,1.96
	C91.75,220.93,98.78,221.9,98.78,221.96L98.78,221.96z"/>
<path fill="#455A64" d="M100,220.23c-0.01,0.06-7.3-0.85-16.29-2.03s-16.28-2.19-16.27-2.25s7.3,0.85,16.3,2.03
	C92.73,219.16,100.01,220.17,100,220.23L100,220.23z"/>
<path fill="#455A64" d="M101.37,218.19c-0.01,0.06-7.51-0.88-16.75-2.09c-9.25-1.22-16.73-2.25-16.73-2.31
	c0.01-0.06,7.51,0.87,16.75,2.09C93.89,217.09,101.38,218.12,101.37,218.19L101.37,218.19z"/>
<path fill="#455A64" d="M102.43,216.1c-0.01,0.06-7.64-0.89-17.05-2.13s-17.03-2.29-17.02-2.35c0.01-0.06,7.64,0.89,17.05,2.13
	S102.44,216.04,102.43,216.1L102.43,216.1z"/>
<path fill="#455A64" d="M103.49,214.01c-0.01,0.06-7.7-0.9-17.19-2.15c-9.48-1.25-17.17-2.31-17.16-2.37s7.7,0.9,17.19,2.15
	S103.5,213.95,103.49,214.01L103.49,214.01z"/>
<path fill="#455A64" d="M78.65,209.25c0.06,0.01-0.68,3.76-1.67,8.38c-0.98,4.61-1.83,8.34-1.89,8.33s0.68-3.76,1.67-8.38
	C77.75,212.96,78.59,209.23,78.65,209.25z"/>
<path fill="#455A64" d="M75.82,208.77c0.06,0.01-0.68,3.76-1.67,8.38c-0.98,4.61-1.83,8.34-1.89,8.33s0.68-3.76,1.67-8.38
	C74.91,212.49,75.76,208.76,75.82,208.77z"/>
<path fill="#455A64" d="M72.98,208.3c0.06,0.01-0.64,3.56-1.57,7.93s-1.73,7.89-1.79,7.88s0.64-3.56,1.57-7.93
	C72.12,211.82,72.92,208.29,72.98,208.3z"/>
<path fill="#455A64" d="M69.91,208.95c0,0,0,0.17-0.06,0.48c-0.06,0.35-0.14,0.78-0.23,1.29c-0.2,1.14-0.47,2.61-0.76,4.24
	c-0.29,1.66-0.59,3.16-0.83,4.24c-0.12,0.54-0.22,0.97-0.3,1.27s-0.13,0.46-0.14,0.46c-0.02,0,0-0.17,0.06-0.48
	c0.07-0.35,0.14-0.78,0.23-1.29c0.2-1.14,0.47-2.61,0.76-4.24c0.29-1.66,0.58-3.16,0.83-4.23c0.12-0.54,0.22-0.97,0.3-1.27
	C69.84,209.11,69.89,208.95,69.91,208.95L69.91,208.95z"/>
<path fill="#455A64" d="M81.93,209.84c0.06,0.01-0.66,3.63-1.61,8.09c-0.95,4.45-1.77,8.05-1.83,8.04s0.66-3.63,1.61-8.09
	S81.87,209.82,81.93,209.84z"/>
<path fill="#455A64" d="M85.19,210.49c0.06,0.01-0.66,3.64-1.61,8.1s-1.77,8.07-1.83,8.06c-0.06-0.01,0.66-3.64,1.61-8.11
	C84.31,214.09,85.13,210.48,85.19,210.49L85.19,210.49z"/>
<path fill="#455A64" d="M88.55,210.67c0.06,0.01-0.65,3.61-1.59,8.03c-0.94,4.43-1.75,8-1.81,7.99s0.65-3.61,1.59-8.03
	S88.49,210.66,88.55,210.67z"/>
<path fill="#455A64" d="M91.86,211.1c0.06,0.01-0.65,3.59-1.59,7.99c-0.94,4.4-1.75,7.96-1.81,7.94c-0.06-0.01,0.65-3.59,1.59-7.99
	C90.99,214.65,91.8,211.09,91.86,211.1z"/>
<path fill="#455A64" d="M95.12,211.75c0.06,0.01-0.6,3.36-1.48,7.48c-0.87,4.11-1.64,7.44-1.7,7.43c-0.06-0.01,0.6-3.36,1.48-7.47
	C94.3,215.06,95.06,211.74,95.12,211.75z"/>
<path fill="#455A64" d="M98.46,212.03c0.06,0.01-0.55,3.14-1.37,6.99s-1.53,6.96-1.59,6.94c-0.06-0.01,0.55-3.14,1.37-6.99
	S98.4,212.01,98.46,212.03L98.46,212.03z"/>
<path fill="#455A64" d="M101.75,212.56c0.06,0.01-0.28,1.86-0.77,4.14c-0.49,2.27-0.93,4.1-0.99,4.09
	c-0.06-0.01,0.28-1.86,0.77-4.14C101.25,214.38,101.69,212.55,101.75,212.56z"/>
<path fill="#263238" d="M209.7,224.98c0,0.06-21.52,0.11-48.06,0.11s-48.07-0.05-48.07-0.11s21.52-0.11,48.07-0.11
	C188.19,224.86,209.7,224.92,209.7,224.98z"/>
<path fill="#263238" d="M207.82,222.8c0,0.06-20.6,0.11-45.99,0.11c-25.4,0-46-0.05-46-0.11s20.59-0.11,46-0.11
	C187.23,222.69,207.82,222.74,207.82,222.8z"/>
<path fill="#263238" d="M204.96,220.57c0,0.06-19.48,0.11-43.5,0.11s-43.51-0.05-43.51-0.11s19.48-0.11,43.51-0.11
	S204.96,220.51,204.96,220.57z"/>
<path fill="#263238" d="M203.05,218.35c0,0.06-18.55,0.11-41.44,0.11s-41.44-0.05-41.44-0.11s18.55-0.11,41.44-0.11
	S203.05,218.29,203.05,218.35z"/>
<path fill="#263238" d="M199.87,216.23c0,0.06-17.2,0.11-38.42,0.11s-38.42-0.05-38.42-0.11s17.2-0.11,38.42-0.11
	S199.87,216.17,199.87,216.23z"/>
<path fill="#263238" d="M196.26,214.11c0,0.06-15.54,0.11-34.71,0.11c-19.16,0-34.71-0.05-34.71-0.11s15.54-0.11,34.71-0.11
	S196.26,214.05,196.26,214.11z"/>
<g opacity="0.3">
	<path d="M168.79,146.61l-80.5-0.13c0,0,3.33,3.98,9.47,3.95c5.6-0.03,60.05-0.01,69.61,0c0,0,0.23,0,0.67,0c0.5,0,0.76,0,0.76,0
		c8.82-0.01,55.68-0.03,60.53,0c5.35,0.03,7.97-3.82,7.97-3.82L168.79,146.61L168.79,146.61z"/>
</g>
<path fill="#263238" d="M237.57,144.89l-15.23-26.41c-0.24-0.41-0.67-0.68-1.15-0.7l-52.4-2.25l-5.03-0.22
	c-0.6-0.03-1.2-0.03-1.81,0l-5.03,0.22l-52.4,2.25c-0.48,0.02-0.91,0.28-1.15,0.7l-15.23,26.41c-0.49,0.85,0.03,1.93,1,2.07
	c0.22,0.03,0.45,0.06,0.69,0.09c1.33,0.15,54.49,0.05,73.02,0.01c18.53,0.04,71.69,0.13,73.02-0.01c0.24-0.03,0.48-0.06,0.69-0.09
	C237.54,146.82,238.05,145.75,237.57,144.89L237.57,144.89z M230.56,143.78l-67.7,0.46l-67.7-0.46c-1.07-0.01-1.73-1.16-1.2-2.09
	c2.92-5.05,10.25-17.69,11.43-19.15c2.13-2.65,35.09-3,52.62-2.99c0.1,0.03,0.21,0.04,0.32,0.04c1.03-0.01,2.58-0.02,4.53-0.03
	c1.95,0.01,3.5,0.02,4.53,0.03c0.11,0,0.22-0.01,0.32-0.04c17.53,0,50.49,0.35,52.62,2.99c1.17,1.46,8.51,14.1,11.43,19.15
	C232.29,142.62,231.62,143.78,230.56,143.78z"/>
<path fill="#263238" d="M180.05,142.32c0-1.51,0.58-5.76,1.97-6.9c1.08-0.87,3.63-1.14,4.89-1.21c0.04,0,0.08,0,0.12,0
	c0.67,0.01,5.13,0.13,6.46,1.21c1.39,1.13,1.98,5.39,1.97,6.9v0.04c0,0.94-0.76,1.69-1.7,1.69h-12.03c-0.93,0-1.7-0.76-1.7-1.69
	L180.05,142.32L180.05,142.32z"/>
<g opacity="0.3">
	<path d="M180.05,142.32c0-1.51,0.58-5.76,1.97-6.9c1.08-0.87,3.63-1.14,4.89-1.21c0.04,0,0.08,0,0.12,0
		c0.67,0.01,5.13,0.13,6.46,1.21c1.39,1.13,1.98,5.39,1.97,6.9v0.04c0,0.94-0.76,1.69-1.7,1.69h-12.03c-0.93,0-1.7-0.76-1.7-1.69
		L180.05,142.32L180.05,142.32z"/>
</g>
<path fill="#263238" d="M186.12,141.21c0-2.46,0.95-9.43,3.24-11.29c1.77-1.43,5.94-1.86,8-1.98c0.07,0,0.13,0,0.2,0
	c1.09,0.01,8.39,0.21,10.58,1.99c2.29,1.86,3.24,8.83,3.24,11.29v0.07c0,1.53-1.24,2.78-2.78,2.78h-19.7
	c-1.53,0-2.78-1.24-2.78-2.78L186.12,141.21L186.12,141.21z"/>
<g opacity="0.3">
	<path d="M210.25,213.27c0,0-0.32,1.97,4.29,8.49c1.41,1.99,5.88,6.01,7.55,7.48c0.41,0.36,0.93,0.55,1.48,0.52
		c4.64-0.2,27.03-1.24,30.75-2.33c1.68-0.49,2.95-1.07,3.89-1.62c1.64-0.97,2.59-2.76,2.52-4.66c-0.12-3.22-0.32-8.88-0.32-10.36
		c0-2.11-1.46-3.88-4.19-3.54C254.43,207.47,210.25,213.27,210.25,213.27L210.25,213.27z M224.68,212.82l29.01-2.63l0.84,11.7
		l-21.36,3.46L224.68,212.82L224.68,212.82z"/>
</g>
<g opacity="0.3">
	<path d="M259.75,183.24c0,0,2.19,6.64-11.72,9.74c-14.08,3.13-34.9,8.8-34.9,8.8l11.19-7.97c0,0,32.18-5.37,32.98-10.29
		c0.92-5.63,0-11.96,0-11.96L259.75,183.24z"/>
</g>
<path fill="#263238" d="M205.44,213.07c0,0,0.05-0.02,0.15-0.05c0.11-0.03,0.25-0.07,0.43-0.12c0.4-0.11,0.96-0.27,1.68-0.47
	c1.46-0.39,3.58-0.94,6.22-1.54c5.27-1.23,12.6-2.69,20.75-4.02c4.07-0.66,7.96-1.26,11.51-1.71c1.77-0.23,3.46-0.46,5.03-0.67
	c1.57-0.21,3.05-0.42,4.41-0.37c1.36,0.04,2.61,0.37,3.48,1.03c0.88,0.63,1.49,1.37,1.88,2.02c0.4,0.65,0.59,1.22,0.68,1.61
	s0.09,0.6,0.09,0.6c-0.04,0.02-0.04-0.88-0.84-2.16c-0.4-0.63-1-1.35-1.88-1.96c-0.86-0.64-2.08-0.95-3.42-0.98
	c-1.34-0.03-2.82,0.18-4.39,0.4c-1.58,0.22-3.26,0.45-5.03,0.69c-3.54,0.46-7.43,1.07-11.5,1.73c-8.14,1.32-15.47,2.77-20.75,3.95
	c-2.64,0.58-4.76,1.11-6.23,1.47c-0.72,0.18-1.29,0.32-1.69,0.43c-0.19,0.04-0.33,0.08-0.44,0.1c-0.1,0.02-0.15,0.03-0.15,0.03
	L205.44,213.07z"/>
<path fill="#263238" d="M261.52,195.89c0,0-0.02-0.09-0.02-0.25c0-0.19-0.01-0.42-0.02-0.71c-0.02-0.65-0.04-1.53-0.07-2.61
	c-0.07-2.2-0.21-5.24-0.51-8.58c-0.3-3.35-0.69-6.36-1.01-8.54c-0.16-1.07-0.29-1.94-0.39-2.58c-0.04-0.29-0.08-0.52-0.1-0.7
	c-0.02-0.16-0.03-0.25-0.02-0.25s0.03,0.08,0.07,0.24c0.04,0.18,0.09,0.41,0.15,0.69c0.12,0.6,0.28,1.48,0.46,2.57
	c0.36,2.17,0.78,5.19,1.08,8.54c0.29,3.35,0.42,6.4,0.44,8.6c0.01,1.1,0.01,1.99,0,2.61c-0.01,0.29-0.02,0.52-0.02,0.71
	C261.53,195.81,261.52,195.89,261.52,195.89z"/>
<path fill="#263238" d="M251.85,165.97c-0.04,0-0.05-0.75-0.28-1.95c-0.22-1.2-0.65-2.82-1.21-4.6c-0.56-1.78-1.13-3.36-1.55-4.5
	c-0.2-0.54-0.36-0.99-0.5-1.36c-0.12-0.32-0.17-0.5-0.16-0.51c0.01,0,0.1,0.17,0.24,0.47c0.14,0.31,0.34,0.77,0.56,1.33
	c0.46,1.14,1.06,2.72,1.62,4.5s0.97,3.43,1.15,4.64c0.06,0.3,0.07,0.58,0.1,0.82s0.04,0.45,0.04,0.62
	C251.87,165.78,251.87,165.97,251.85,165.97z"/>
<path fill="#F5F5F5" d="M249.22,169c0,0,7.25-2.64,8.17,2.98s0.83,11.21-0.39,13.17c-1.22,1.97-12.4,4.64-12.4,4.64l-19.35,4.25
	c0,0-1.39,0.29-0.55-1.29c0.94-1.76,6.06-13.07,9.03-15.81C239.2,171.87,249.22,168.99,249.22,169L249.22,169z"/>
<g opacity="0.3">
	<path d="M242.08,190.35c0,0-0.03-13.24,0.94-14.71s12.37-6.75,12.37-6.75s-1.11-0.94-3.39-0.51s-6.07,1.46-9.21,3.08
		c-3.15,1.62-8.18,3.93-10.07,6.6c-0.82,1.16-2.53,3.94-4.16,6.96c-2.12,3.92-4.13,8.11-4.13,8.34c0,0.48-0.11,0.92,1.77,0.52
		C230.56,192.95,242.08,190.35,242.08,190.35L242.08,190.35z"/>
</g>
<path fill="#F5F5F5" d="M235.78,189.15c2.59,0,4.7-2.1,4.7-4.7c0-2.59-2.1-4.69-4.7-4.69c-2.59,0-4.69,2.1-4.69,4.69
	C231.08,187.05,233.18,189.15,235.78,189.15z"/>
<path fill="#263238" d="M231.09,184.46c0,0-0.06-0.42,0.1-1.16c0.16-0.72,0.62-1.8,1.7-2.64c0.54-0.41,1.22-0.76,2.01-0.91
	c0.78-0.14,1.67-0.12,2.52,0.19c0.42,0.15,0.84,0.37,1.22,0.65s0.73,0.62,1.02,1.02c0.59,0.78,0.93,1.8,0.93,2.84
	c-0.01,1.04-0.35,2.05-0.93,2.84c-0.29,0.4-0.64,0.74-1.02,1.02s-0.79,0.5-1.22,0.65c-0.85,0.32-1.73,0.34-2.52,0.19
	c-0.79-0.15-1.47-0.5-2.01-0.91c-1.08-0.84-1.54-1.92-1.7-2.64C231.03,184.87,231.09,184.45,231.09,184.46c0.03,0,0,0.42,0.19,1.13
	c0.18,0.7,0.65,1.74,1.71,2.53c0.52,0.39,1.18,0.72,1.94,0.85c0.75,0.13,1.6,0.1,2.41-0.21c0.41-0.14,0.8-0.35,1.16-0.63
	c0.36-0.26,0.7-0.59,0.97-0.97c0.56-0.75,0.88-1.71,0.89-2.71c-0.01-0.99-0.32-1.96-0.89-2.71c-0.27-0.38-0.6-0.71-0.97-0.97
	c-0.36-0.27-0.75-0.49-1.16-0.63c-0.81-0.31-1.66-0.33-2.41-0.21c-0.76,0.13-1.42,0.46-1.94,0.85c-1.06,0.8-1.53,1.83-1.71,2.53
	C231.09,184.04,231.12,184.46,231.09,184.46L231.09,184.46z"/>
<path fill="#E0E0E0" d="M235.78,184.25c-1.72,0-3.22,0.96-4,2.37c-0.36-0.65-0.56-1.4-0.56-2.2c0-2.52,2.04-4.57,4.57-4.57
	c2.52,0,4.56,2.04,4.56,4.57c0,0.8-0.2,1.55-0.56,2.2C239.01,185.21,237.51,184.25,235.78,184.25L235.78,184.25z"/>
<path fill="#FFFFFF" d="M233.75,184.3c0,1.12,0.9,2.02,2.02,2.02c1.12,0,2.02-0.9,2.02-2.02s-0.9-2.02-2.02-2.02
	C234.66,182.28,233.75,183.18,233.75,184.3z"/>
<path fill="#263238" d="M233.75,184.3c0,0-0.01-0.04-0.02-0.13c0-0.09,0-0.21,0.04-0.37c0.06-0.32,0.26-0.79,0.73-1.16
	c0.46-0.38,1.23-0.6,2-0.32c0.76,0.25,1.42,1.05,1.41,2c0.01,0.94-0.65,1.75-1.41,2c-0.76,0.27-1.54,0.05-2-0.32
	c-0.47-0.38-0.67-0.85-0.73-1.16c-0.03-0.16-0.04-0.29-0.04-0.37C233.74,184.35,233.75,184.31,233.75,184.3
	c0.03,0.01,0.02,0.19,0.11,0.49s0.29,0.73,0.74,1.06c0.43,0.33,1.14,0.51,1.83,0.26c0.68-0.24,1.26-0.96,1.26-1.8
	c0.01-0.85-0.58-1.56-1.26-1.8c-0.68-0.26-1.4-0.07-1.83,0.26c-0.45,0.33-0.65,0.76-0.74,1.06c-0.09,0.3-0.08,0.49-0.1,0.49
	L233.75,184.3z"/>
<path fill="#FFFFFF" d="M234.01,181.12c-0.08-0.12,0.23-0.52,0.97-0.8c0.72-0.28,1.91-0.36,3.04,0.23c1.12,0.6,1.71,1.63,1.89,2.39
	c0.18,0.77,0.02,1.26-0.12,1.26c-0.16,0.01-0.3-0.41-0.62-0.97c-0.32-0.55-0.87-1.25-1.68-1.68s-1.69-0.5-2.33-0.45
	C234.52,181.14,234.09,181.27,234.01,181.12z"/>
<path fill="#FFFFFF" d="M232.83,181.87c-0.26-0.18-0.38-0.44-0.25-0.57s0.39,0,0.56,0.27c0.17,0.26,0.27,0.5,0.22,0.54
	C233.32,182.15,233.09,182.05,232.83,181.87L232.83,181.87z"/>
<path fill="#263238" d="M71.11,231.43c0.23-0.49,0.73-0.84,1.7-0.73c2.71,0.31,31.08,0.94,34.99,0s16.94-15.73,22.45-16.73
	c4.63-0.85,27.12-1.29,34.24-1.09c7.13-0.21,29.62,0.25,34.24,1.09c5.51,1.01,18.35,17.24,22.26,18.18
	c3.91,0.94,32.48-1.14,35.19-1.45c0.98-0.11,1.47,0.24,1.7,0.73c0.48,1.02-0.3,2.19-1.43,2.23c-6.04,0.17-29.38,0.44-33.75,0.36
	c-4.58-0.08-51.43-0.94-59.29-1.08c-11.84,0.07-52.28,0.33-56.56,0.39c-5.05,0.07-28.3,0.5-34.34,0.33
	c-1.13-0.03-1.91-1.2-1.43-2.23H71.11z"/>
<path fill="#263238" d="M172.46,117.27c-0.23,0-0.04,4.07-3.33,3.99s-9.48,0-9.48,0l-2.72-5.09L172.46,117.27z"/>
<path fill="#263238" d="M171,122.67c0.46,0,0.89,0.22,1.16,0.59c0.78,1.07,2.35,3.28,2.4,3.98c0.06,0.92-0.46,1.68-1.42,1.79
	c-0.9,0.11-18.25,0.01-20.04,0c-0.11,0-0.22-0.01-0.33-0.04c-0.47-0.12-1.7-0.51-1.61-1.35c0.09-0.77,1.42-3.09,2.12-4.27
	c0.26-0.43,0.72-0.7,1.23-0.7L171,122.67L171,122.67z"/>
<path fill="#263238" d="M224.04,116.17c0,0,0.03,0.03,0.06,0.09c0.04,0.07,0.1,0.16,0.17,0.28c0.15,0.26,0.36,0.62,0.62,1.07
	c0.54,0.96,1.31,2.31,2.25,3.98c1.89,3.38,4.48,8.03,7.34,13.17c2.32,4.19,4.45,8.06,6.15,11.14l-0.02-0.03
	c2.04,1.61,3.73,2.94,4.91,3.88c0.57,0.46,1.02,0.82,1.35,1.08c0.14,0.12,0.26,0.21,0.35,0.29c0.08,0.07,0.12,0.1,0.11,0.1
	c0,0-0.05-0.03-0.13-0.08l-0.36-0.27c-0.33-0.25-0.79-0.6-1.38-1.04c-1.2-0.92-2.9-2.23-4.97-3.82l-0.01-0.01l-0.01-0.02
	c-1.71-3.08-3.86-6.93-6.19-11.12c-2.84-5.15-5.41-9.81-7.29-13.2c-0.92-1.68-1.66-3.05-2.19-4.01c-0.25-0.46-0.44-0.83-0.59-1.1
	c-0.06-0.12-0.11-0.21-0.15-0.29C224.05,116.2,224.04,116.17,224.04,116.17L224.04,116.17z"/>
<path fill="#263238" d="M216.05,113.73c0.01-0.03,0.44,0.06,1.13,0.27c0.68,0.22,1.62,0.58,2.51,1.25c0.88,0.67,1.5,1.47,1.9,2.06
	c0.4,0.6,0.6,0.99,0.57,1c-0.03,0.02-0.28-0.35-0.7-0.91c-0.43-0.56-1.05-1.33-1.9-1.97c-0.86-0.64-1.77-1.02-2.43-1.28
	C216.46,113.9,216.04,113.76,216.05,113.73L216.05,113.73z"/>
<path fill="#263238" d="M220.35,229.8c0,0-0.1,0-0.25-0.09c-0.16-0.09-0.38-0.23-0.65-0.44c-0.56-0.41-1.33-1.07-2.31-1.94
	c-1.95-1.74-4.71-4.34-8.01-7.66c-0.83-0.83-1.68-1.7-2.57-2.62c-0.9-0.91-1.75-1.94-2.81-2.8c-1.06-0.85-2.31-1.56-3.68-2.05
	c-1.37-0.5-2.85-0.79-4.38-0.9c-0.77-0.06-1.55-0.06-2.34-0.06c-0.79-0.01-1.59-0.01-2.4-0.02c-1.62-0.01-3.27-0.03-4.96-0.04
	c-3.37-0.03-6.85-0.06-10.42-0.1c-14.27-0.14-27.19-0.27-36.56-0.37c-4.67-0.06-8.45-0.1-11.08-0.14c-1.3-0.02-2.31-0.04-3.01-0.05
	c-0.34-0.01-0.6-0.01-0.78-0.02c-0.18,0-0.27-0.01-0.27-0.01s0.09-0.01,0.27-0.01c0.19,0,0.45,0,0.78,0c0.7,0,1.71,0,3.01,0.01
	c2.62,0.02,6.41,0.04,11.08,0.07c9.36,0.08,22.28,0.18,36.56,0.3c3.57,0.04,7.05,0.07,10.42,0.1c1.68,0.02,3.33,0.03,4.96,0.05
	c0.81,0.01,1.61,0.02,2.4,0.02c0.79,0.01,1.58,0.01,2.35,0.07c1.55,0.12,3.05,0.42,4.44,0.92s2.65,1.23,3.72,2.09
	c1.08,0.88,1.92,1.92,2.81,2.83c0.88,0.92,1.74,1.8,2.56,2.63c3.29,3.32,6.02,5.94,7.96,7.7c0.97,0.88,1.73,1.55,2.28,1.97
	c0.27,0.21,0.49,0.36,0.64,0.46C220.26,229.78,220.35,229.79,220.35,229.8L220.35,229.8z"/>
<g opacity="0.3">
	<path fill="#FFFFFF" d="M243.68,203.98c1.34-1.33,2.69-2.66,4.28-3.66c1.59-1.01,3.88-2.18,5.32-1.25c0.73,0.8,1.32,1.72,1.74,2.71
		c0.14,0.34,0.26,0.74,0.1,1.07c-0.2,0.41-0.73,0.51-1.18,0.57c-3.31,0.42-6.63,0.83-9.94,1.25c-0.19,0.03-0.43,0.03-0.52-0.14
		C243.37,204.34,243.53,204.12,243.68,203.98z"/>
</g>
<path fill="#FFFFFF" d="M246.21,232.25l-0.01,0.03c-0.21,0.74,0.34,1.55,1.11,1.54l7.2-0.12c0.56-0.01,1.03-0.57,1.1-1.13l0.05-0.4
	c0.09-0.71-0.57-1.36-1.28-1.31l-7.14,0.52C246.76,231.42,246.34,231.79,246.21,232.25L246.21,232.25z"/>
<path fill="#455A64" d="M111.91,228.05c0-0.06,23.21-0.11,51.84-0.11s51.85,0.05,51.85,0.11s-23.21,0.11-51.85,0.11
	S111.91,228.12,111.91,228.05z"/>
<path fill="#455A64" d="M192.74,231.83h3.04l0.21-3.78h-3.48L192.74,231.83z"/>
<path fill="#455A64" d="M164.3,231.83h3.04l0.21-3.78h-3.48L164.3,231.83z"/>
<path fill="#455A64" d="M135.86,231.83h3.04l0.22-3.78h-3.49L135.86,231.83z"/>
<path fill="#455A64" d="M113.51,226.69c5.5-4.74,12.91-12.03,16.72-12.72c4.62-0.85,27.12-1.29,34.25-1.09
	c7.13-0.21,29.62,0.25,34.24,1.09c3.55,0.65,10.13,7.6,15.41,12.72H113.51z"/>
<path fill="#263238" d="M259.88,224.21c0,0-0.1-0.06-0.26-0.19l-0.74-0.57c-0.66-0.52-1.59-1.24-2.75-2.15l0.06,0.02
	c-3.56,0.45-8.94,1.15-14.95,1.91c-2.92,0.36-5.7,0.71-8.17,1.01l0.03-0.01c-3.01,1.62-5.55,2.98-7.36,3.96
	c-0.89,0.47-1.6,0.84-2.1,1.11c-0.23,0.12-0.42,0.21-0.56,0.29c-0.13,0.07-0.2,0.1-0.2,0.09c0,0,0.06-0.04,0.18-0.12
	c0.14-0.08,0.32-0.19,0.55-0.32c0.5-0.28,1.2-0.67,2.07-1.16c1.81-0.99,4.33-2.39,7.32-4.03l0.02-0.01h0.02
	c2.47-0.32,5.24-0.67,8.17-1.04c6.01-0.74,11.39-1.4,14.96-1.84h0.03l0.02,0.02c1.15,0.93,2.07,1.68,2.72,2.2
	c0.3,0.25,0.54,0.45,0.72,0.6C259.81,224.13,259.89,224.2,259.88,224.21L259.88,224.21z"/>
<path fill="#263238" d="M222.87,215.94c0,0-1.47-2.49,0-3.11c1.69-0.72,29.89-4.1,31.04-4.21c2.29-0.2,3.12,0.83,3.66,3.52
	s1.72,9.35-0.54,11.28c-2.26,1.94-5.8,2.79-12.78,3.22c-6.99,0.43-10.66,0.67-14.1-1.27C226.71,223.43,222.88,215.93,222.87,215.94
	L222.87,215.94z"/>
<path fill="#263238" d="M224.32,193.81c-0.07-0.03,0.19-0.82,0.75-2.21s1.42-3.38,2.61-5.79c0.6-1.2,1.26-2.52,2.05-3.89
	c0.79-1.37,1.66-2.83,2.76-4.27c0.55-0.71,1.2-1.44,1.93-2.05c0.73-0.62,1.54-1.19,2.39-1.68s1.72-0.95,2.59-1.42
	c0.88-0.47,1.78-0.94,2.7-1.4c1.85-0.91,3.71-1.71,5.59-2.29c0.94-0.29,1.88-0.52,2.8-0.71s1.87-0.32,2.82-0.28
	c0.95,0.05,1.92,0.31,2.7,0.89c0.77,0.58,1.25,1.4,1.54,2.18c0.3,0.78,0.45,1.55,0.59,2.28c0.14,0.71,0.27,1.4,0.39,2.06
	c0.52,2.62,0.91,4.76,1.13,6.24c0.22,1.49,0.26,2.32,0.19,2.33c-0.08,0.01-0.27-0.79-0.62-2.25c-0.35-1.47-0.85-3.57-1.47-6.16
	c-0.16-0.65-0.31-1.35-0.46-2.05c-0.16-0.7-0.33-1.43-0.61-2.1c-0.27-0.68-0.68-1.3-1.26-1.73c-0.58-0.42-1.35-0.62-2.16-0.65
	c-0.82-0.03-1.68,0.1-2.56,0.3c-0.89,0.19-1.78,0.42-2.69,0.71c-1.8,0.57-3.61,1.35-5.42,2.24c-0.91,0.45-1.8,0.91-2.67,1.37
	c-0.88,0.47-1.75,0.91-2.56,1.39c-0.81,0.47-1.56,0.98-2.25,1.55c-0.7,0.57-1.26,1.2-1.81,1.88c-1.07,1.35-1.96,2.77-2.77,4.1
	s-1.51,2.62-2.15,3.79c-1.26,2.35-2.23,4.28-2.91,5.61C224.78,193.11,224.38,193.84,224.32,193.81L224.32,193.81z"/>
<path fill="#E0E0E0" d="M249.77,179.61c-2.2,0-4.11,1.22-5.09,3.01c-0.46-0.83-0.72-1.78-0.72-2.8c0-3.21,2.6-5.81,5.81-5.81
	c3.21,0,5.81,2.6,5.81,5.81c0,1.01-0.26,1.97-0.72,2.8C253.87,180.83,251.96,179.61,249.77,179.61z"/>
<path fill="#FFFFFF" d="M247.26,179.63c0,1.38,1.12,2.5,2.5,2.5s2.5-1.12,2.5-2.5s-1.12-2.5-2.5-2.5
	C248.38,177.13,247.26,178.25,247.26,179.63z"/>
<path fill="#263238" d="M247.26,179.63c0,0-0.01-0.06-0.01-0.16s0.01-0.26,0.05-0.46c0.08-0.39,0.32-0.97,0.9-1.43
	c0.56-0.46,1.52-0.73,2.45-0.39c0.46,0.16,0.9,0.47,1.22,0.91c0.33,0.43,0.51,0.98,0.51,1.55c-0.01,0.57-0.19,1.12-0.51,1.55
	c-0.32,0.43-0.76,0.74-1.22,0.9c-0.93,0.34-1.89,0.07-2.45-0.39c-0.58-0.46-0.82-1.04-0.9-1.43c-0.04-0.2-0.06-0.35-0.05-0.46
	C247.24,179.7,247.25,179.64,247.26,179.63c0.02,0.01,0.02,0.23,0.12,0.61c0.1,0.37,0.36,0.91,0.92,1.32
	c0.54,0.42,1.43,0.65,2.29,0.33c0.85-0.29,1.59-1.2,1.57-2.26c0.01-1.06-0.72-1.96-1.57-2.26c-0.86-0.32-1.74-0.09-2.29,0.33
	c-0.56,0.42-0.81,0.96-0.92,1.33C247.27,179.42,247.28,179.64,247.26,179.63L247.26,179.63z"/>
<path fill="#263238" d="M243.95,179.83c0,0-0.01-0.12,0-0.37c0-0.12,0-0.27,0.03-0.45c0.02-0.18,0.04-0.38,0.11-0.61
	c0.2-0.89,0.77-2.22,2.11-3.25c0.66-0.51,1.5-0.94,2.47-1.12c0.97-0.17,2.06-0.15,3.1,0.24c0.52,0.18,1.04,0.45,1.5,0.8
	c0.47,0.34,0.9,0.76,1.26,1.26c0.73,0.97,1.14,2.22,1.16,3.5c-0.01,1.29-0.43,2.53-1.16,3.5c-0.36,0.49-0.78,0.91-1.26,1.26
	c-0.47,0.35-0.98,0.62-1.5,0.8c-1.04,0.39-2.14,0.42-3.1,0.24c-0.98-0.18-1.82-0.61-2.47-1.12c-1.34-1.03-1.91-2.36-2.11-3.25
	c-0.07-0.23-0.09-0.43-0.11-0.61c-0.03-0.18-0.03-0.33-0.03-0.45C243.95,179.96,243.95,179.83,243.95,179.83
	c0.03,0,0,0.52,0.23,1.41c0.23,0.87,0.8,2.16,2.12,3.15c0.65,0.49,1.47,0.9,2.41,1.06s1.99,0.13,3-0.25c0.51-0.18,1-0.44,1.44-0.78
	c0.45-0.33,0.87-0.74,1.2-1.21c0.7-0.94,1.1-2.14,1.11-3.37c-0.01-1.23-0.41-2.43-1.11-3.37c-0.34-0.47-0.75-0.88-1.2-1.21
	c-0.45-0.34-0.94-0.6-1.44-0.78c-1-0.39-2.06-0.42-3-0.26s-1.76,0.58-2.41,1.06c-1.31,0.99-1.9,2.27-2.12,3.15
	C243.95,179.31,243.99,179.83,243.95,179.83z"/>
<path fill="#FFFFFF" d="M247.57,175.7c-0.08-0.12,0.32-0.59,1.23-0.9c0.88-0.32,2.32-0.4,3.67,0.32c1.34,0.72,2.08,1.96,2.31,2.87
	c0.24,0.93,0.08,1.52-0.06,1.52c-0.17,0.01-0.3-0.52-0.68-1.23c-0.37-0.71-1.06-1.61-2.1-2.17c-1.04-0.55-2.17-0.62-2.97-0.53
	C248.17,175.66,247.66,175.85,247.57,175.7L247.57,175.7z"/>
<path fill="#FFFFFF" d="M246.12,176.62c-0.26-0.18-0.37-0.46-0.22-0.61s0.43-0.03,0.6,0.23c0.17,0.26,0.25,0.51,0.19,0.58
	C246.62,176.89,246.38,176.8,246.12,176.62L246.12,176.62z"/>
<path fill="#263238" d="M213.13,201.78c-0.08-0.3,7.57-2.49,17.08-4.9c9.51-2.4,17.29-4.11,17.36-3.8c0.08,0.3-7.57,2.49-17.09,4.9
	C220.97,200.38,213.2,202.08,213.13,201.78L213.13,201.78z"/>
<path fill="#263238" d="M258.95,169.97c0,0-0.01-0.04-0.03-0.13c-0.02-0.09-0.04-0.22-0.09-0.38c-0.09-0.33-0.24-0.82-0.57-1.39
	c-0.33-0.56-0.85-1.19-1.64-1.66c-0.2-0.12-0.42-0.21-0.64-0.31c-0.24-0.07-0.47-0.17-0.73-0.22c-0.26-0.04-0.52-0.12-0.79-0.12
	c-0.27-0.02-0.56-0.01-0.84,0.02c-1.16,0.1-2.41,0.39-3.74,0.76c-1.33,0.36-2.73,0.81-4.19,1.32c-2.92,1.03-6.11,2.26-9.35,3.76
	c-0.4,0.19-0.8,0.39-1.19,0.59s-0.73,0.46-1.07,0.73c-0.68,0.54-1.29,1.14-1.81,1.79c-0.99,1.35-1.89,2.72-2.76,4
	c-1.73,2.57-3.22,4.94-4.43,6.94c-1.21,2.01-2.15,3.65-2.79,4.8c-0.32,0.56-0.56,1-0.74,1.32c-0.08,0.14-0.15,0.25-0.2,0.34
	c-0.04,0.08-0.07,0.11-0.07,0.11s0.01-0.04,0.05-0.12c0.04-0.09,0.1-0.21,0.18-0.35c0.16-0.31,0.39-0.76,0.7-1.34
	c0.62-1.16,1.54-2.82,2.73-4.84c1.2-2.02,2.68-4.39,4.4-6.97c0.87-1.29,1.75-2.64,2.76-4.02c0.53-0.67,1.16-1.28,1.84-1.83
	c0.35-0.27,0.71-0.54,1.1-0.75s0.79-0.41,1.2-0.6c3.25-1.51,6.44-2.73,9.38-3.76c1.47-0.5,2.88-0.95,4.21-1.31
	c1.33-0.35,2.6-0.64,3.78-0.74c0.29-0.03,0.59-0.03,0.87-0.01c0.29,0.01,0.55,0.09,0.81,0.13c0.26,0.05,0.5,0.16,0.74,0.23
	c0.23,0.11,0.45,0.2,0.65,0.33c0.81,0.49,1.34,1.15,1.65,1.72c0.32,0.58,0.46,1.08,0.53,1.42c0.04,0.17,0.06,0.3,0.07,0.39
	C258.95,169.93,258.95,169.98,258.95,169.97L258.95,169.97z"/>
<g opacity="0.3">
	<path fill="#FFFFFF" d="M260.75,172.42c0.43,0.14,2.78,1.61,3.78,2.17s1.87,1.44,2.16,2.54c0.29,1.1-0.03,2.26-0.34,3.35
		c-1.03,3.57-2.22,10-3.24,13.57C262.3,187.57,261.42,176.53,260.75,172.42"/>
</g>
<path fill="#455A64" d="M228.5,223.82c-0.01-0.06,6.67-1.04,14.93-2.18c8.25-1.14,14.95-2.02,14.96-1.96
	c0.01,0.06-6.67,1.04-14.93,2.18C235.21,223.01,228.51,223.88,228.5,223.82z"/>
<path fill="#455A64" d="M230.63,225.46c0,0,0.1-0.03,0.28-0.06c0.2-0.03,0.47-0.08,0.8-0.13c0.69-0.11,1.7-0.26,2.94-0.43
	c2.49-0.35,5.92-0.78,9.72-1.23c3.78-0.45,7.21-0.86,9.73-1.16c1.23-0.15,2.23-0.27,2.95-0.35c0.33-0.04,0.6-0.07,0.8-0.09
	c0.18-0.02,0.28-0.02,0.28-0.02c0,0.01-0.1,0.03-0.28,0.06c-0.2,0.03-0.47,0.08-0.8,0.13c-0.69,0.11-1.7,0.26-2.94,0.43
	c-2.49,0.35-5.92,0.78-9.72,1.23c-3.79,0.45-7.21,0.86-9.73,1.16c-1.22,0.15-2.23,0.27-2.95,0.35c-0.33,0.04-0.6,0.07-0.8,0.09
	C230.73,225.46,230.63,225.46,230.63,225.46z"/>
<path fill="#455A64" d="M235.31,226.69c-0.02,0,0.26-0.04,0.75-0.1c0.53-0.07,1.23-0.16,2.09-0.26c1.8-0.22,4.23-0.51,6.91-0.83
	c2.68-0.3,5.11-0.58,6.91-0.78c0.86-0.09,1.57-0.16,2.1-0.21c0.49-0.04,0.77-0.07,0.77-0.05s-0.27,0.07-0.76,0.14
	c-0.53,0.07-1.23,0.17-2.09,0.29c-1.77,0.23-4.21,0.53-6.9,0.85c-2.7,0.32-5.14,0.58-6.91,0.77
	C236.41,226.66,235.29,226.75,235.31,226.69L235.31,226.69z"/>
<path fill="#455A64" d="M226.93,221.96c-0.01-0.06,7.02-1.04,15.71-2.18s15.74-2.02,15.74-1.96c0.01,0.06-7.03,1.04-15.71,2.18
	C233.98,221.15,226.94,222.02,226.93,221.96L226.93,221.96z"/>
<path fill="#455A64" d="M225.71,220.23c-0.01-0.06,7.28-1.07,16.26-2.25c8.99-1.18,16.29-2.09,16.3-2.03
	c0.01,0.06-7.27,1.07-16.27,2.25C233.01,219.38,225.72,220.29,225.71,220.23L225.71,220.23z"/>
<path fill="#455A64" d="M224.34,218.19c-0.01-0.06,7.48-1.1,16.72-2.31c9.25-1.22,16.75-2.15,16.75-2.09
	c0.01,0.06-7.48,1.1-16.73,2.31C231.84,217.32,224.34,218.25,224.34,218.19L224.34,218.19z"/>
<path fill="#455A64" d="M223.29,216.1c-0.01-0.06,7.61-1.11,17.02-2.35s17.04-2.19,17.05-2.13c0.01,0.06-7.61,1.11-17.02,2.35
	C230.93,215.21,223.29,216.16,223.29,216.1z"/>
<path fill="#455A64" d="M222.22,214.01c-0.01-0.06,7.67-1.12,17.16-2.37s17.18-2.21,17.19-2.15c0.01,0.06-7.68,1.12-17.16,2.37
	S222.23,214.07,222.22,214.01z"/>
<path fill="#455A64" d="M247.06,209.25c0.06-0.01,0.9,3.72,1.89,8.33c0.98,4.61,1.73,8.36,1.67,8.38c-0.06,0.01-0.91-3.72-1.89-8.33
	C247.74,213.01,247,209.26,247.06,209.25z"/>
<path fill="#455A64" d="M249.9,208.77c0.06-0.01,0.9,3.72,1.89,8.33c0.98,4.61,1.73,8.36,1.67,8.38c-0.06,0.01-0.9-3.72-1.89-8.33
	S249.84,208.79,249.9,208.77z"/>
<path fill="#455A64" d="M252.73,208.3c0.06-0.01,0.86,3.52,1.79,7.88c0.93,4.37,1.63,7.91,1.57,7.93c-0.06,0.01-0.86-3.51-1.79-7.88
	C253.37,211.87,252.67,208.32,252.73,208.3z"/>
<path fill="#455A64" d="M255.8,208.95c0,0,0.07,0.16,0.14,0.46c0.08,0.3,0.18,0.73,0.3,1.27c0.24,1.08,0.54,2.57,0.83,4.23
	c0.3,1.63,0.56,3.1,0.76,4.24c0.09,0.51,0.17,0.93,0.23,1.29c0.05,0.3,0.07,0.48,0.06,0.48c-0.02,0-0.07-0.16-0.14-0.46
	c-0.08-0.3-0.18-0.73-0.3-1.27c-0.24-1.08-0.54-2.57-0.83-4.24c-0.29-1.63-0.56-3.1-0.76-4.24c-0.09-0.51-0.17-0.94-0.23-1.29
	C255.81,209.12,255.79,208.94,255.8,208.95L255.8,208.95z"/>
<path fill="#455A64" d="M243.79,209.84c0.06-0.01,0.88,3.59,1.83,8.04s1.67,8.07,1.61,8.09c-0.06,0.01-0.88-3.59-1.83-8.04
	C244.44,213.47,243.72,209.85,243.79,209.84z"/>
<path fill="#455A64" d="M240.52,210.49c0.06-0.01,0.88,3.6,1.83,8.06c0.95,4.47,1.67,8.1,1.61,8.11s-0.88-3.6-1.83-8.06
	C241.19,214.14,240.46,210.51,240.52,210.49L240.52,210.49z"/>
<path fill="#455A64" d="M237.16,210.67c0.06-0.01,0.87,3.56,1.81,7.99c0.94,4.43,1.65,8.02,1.59,8.03s-0.88-3.56-1.82-7.99
	C237.82,214.28,237.1,210.68,237.16,210.67z"/>
<path fill="#455A64" d="M233.85,211.1c0.06-0.01,0.87,3.54,1.81,7.94c0.93,4.4,1.65,7.98,1.58,7.99c-0.06,0.01-0.87-3.54-1.81-7.94
	C234.5,214.69,233.79,211.12,233.85,211.1z"/>
<path fill="#455A64" d="M230.59,211.75c0.06-0.01,0.82,3.31,1.7,7.43c0.88,4.12,1.54,7.46,1.48,7.47s-0.82-3.31-1.7-7.43
	C231.19,215.11,230.53,211.76,230.59,211.75z"/>
<path fill="#455A64" d="M227.25,212.03c0.06-0.01,0.78,3.1,1.59,6.94c0.82,3.85,1.43,6.98,1.37,6.99c-0.06,0.01-0.78-3.09-1.59-6.94
	C227.8,215.17,227.19,212.04,227.25,212.03L227.25,212.03z"/>
<path fill="#455A64" d="M223.96,212.56c0.06-0.01,0.5,1.82,0.99,4.09c0.49,2.27,0.83,4.12,0.77,4.14c-0.06,0.01-0.5-1.82-0.99-4.09
	C224.24,214.43,223.9,212.58,223.96,212.56z"/>
<path fill="#263238" d="M116,224.98c0-0.06,21.52-0.11,48.07-0.11c26.54,0,48.07,0.05,48.07,0.11s-21.52,0.11-48.07,0.11
	S116,225.04,116,224.98z"/>
<path fill="#263238" d="M117.89,222.8c0-0.06,20.6-0.11,45.99-0.11s46,0.05,46,0.11s-20.59,0.11-46,0.11
	C138.48,222.91,117.89,222.86,117.89,222.8z"/>
<path fill="#263238" d="M120.75,220.57c0-0.06,19.48-0.11,43.5-0.11s43.51,0.05,43.51,0.11s-19.48,0.11-43.51,0.11
	C140.23,220.69,120.75,220.64,120.75,220.57z"/>
<path fill="#263238" d="M122.66,218.35c0-0.06,18.55-0.11,41.44-0.11c22.88,0,41.44,0.05,41.44,0.11s-18.55,0.11-41.44,0.11
	S122.66,218.41,122.66,218.35z"/>
<path fill="#263238" d="M125.84,216.23c0-0.06,17.2-0.11,38.42-0.11s38.42,0.05,38.42,0.11s-17.2,0.11-38.42,0.11
	S125.84,216.29,125.84,216.23z"/>
<path fill="#263238" d="M129.45,214.11c0-0.06,15.54-0.11,34.71-0.11c19.16,0,34.71,0.05,34.71,0.11s-15.54,0.11-34.71,0.11
	S129.45,214.17,129.45,214.11z"/>
<path fill="#263238" d="M163.41,120.92h-1.18v2.12h1.18V120.92z"/>
<g opacity="0.3">
	<path fill="#FFFFFF" d="M97.05,160.62c0,0,2.12-0.72,1.71-2.31c0,0,6.15,3.6,14.53,3.48c8.37-0.12,39.05,1.75,39.05,1.75l3.52,4.85
		c0,0-51.95-1.2-53.88,0.05L97.05,160.62z"/>
</g>
<g opacity="0.3">
	<path fill="#FFFFFF" d="M77.56,164.49c-0.43,0,13.24,4.7,15.01,6.18l2.79-0.61l-9.76-16.18l-1.12-0.26
		C84.48,153.61,81.13,164.5,77.56,164.49L77.56,164.49z"/>
</g>
<g opacity="0.3">
	<path fill="#FFFFFF" d="M110.43,115.31c0.26,0,53.51-2.28,53.42-2.98c-0.09-0.7-23.74-0.61-34.13,0
		C119.33,112.95,110.43,115.31,110.43,115.31z"/>
</g>
<g opacity="0.2">
	<path fill="#FFFFFF" d="M88.14,144.89l43.29-10.68l8.16-17.87l-35.01,1.46c-0.57,0.02-0.8,0.19-1.08,0.69L88.14,144.89z"/>
</g>
</svg>
