<svg width="20" height="18" viewBox="0 0 20 18" fill="none" xmlns="http://www.w3.org/2000/svg">
<path d="M13.3339 18C14.6728 18 15.7582 16.9601 15.7582 15.6774L15.7582 4.06452L4.24304 4.06451L4.24303 15.6774C4.24303 16.9601 5.3284 18 6.66728 18L13.3339 18Z" fill="#ADB3BC"/>
<path d="M18.1824 12.1935C19.1866 12.1935 20.0006 11.4137 20.0006 10.4516L20.0006 3C20.0006 1.34315 18.6575 -1.17421e-07 17.0006 -2.62268e-07L3.00061 -1.48619e-06C1.34376 -1.63103e-06 0.000611808 1.34315 0.000611663 3L0.000611011 10.4516C0.000610927 11.4137 0.814639 12.1935 1.81879 12.1935C2.82295 12.1935 3.63697 11.4137 3.63697 10.4516L3.63698 3.48387L16.3642 3.48387L16.3642 10.4516C16.3642 11.4137 17.1783 12.1935 18.1824 12.1935Z" fill="#ADB3BC"/>
</svg>
