<svg width="32" height="33" viewBox="0 0 32 33" fill="none" xmlns="http://www.w3.org/2000/svg">
<path d="M16 0.697266C24.8438 0.697266 32 7.85352 32 16.6973C32 25.541 24.8438 32.6973 16 32.6973C7.15625 32.6973 0 25.541 0 16.6973C0 7.85352 7.15625 0.697266 16 0.697266ZM16 30.7285C23.7188 30.7285 30 24.416 30 16.6973C30 8.97852 23.7188 2.69727 16 2.69727C8.28125 2.69727 2 8.97852 2 16.6973C2 24.416 8.28125 30.7285 16 30.7285ZM14.9062 17.6973H9C8.4375 17.6973 8 17.2598 8 16.6973C8 16.1348 8.4375 15.6973 9 15.6973H23C23.5625 15.6973 24 16.1348 24 16.6973C24 17.2598 23.5625 17.6973 23 17.6973H14.9062Z" fill="#B1B1B1"/>
</svg>
