<svg width="32" height="33" viewBox="0 0 32 33" fill="none" xmlns="http://www.w3.org/2000/svg">
<path d="M16 0.697266C7.1635 0.697266 0 7.86077 0 16.6973C0 25.5343 7.1635 32.6973 16 32.6973C24.837 32.6973 32 25.5343 32 16.6973C32 7.86077 24.837 0.697266 16 0.697266ZM16 30.7288C8.2805 30.7288 2 24.4168 2 16.6972C2 8.9777 8.2805 2.6972 16 2.6972C23.7195 2.6972 30 8.97773 30 16.6972C30 24.4167 23.7195 30.7288 16 30.7288ZM23 15.6973H17V9.69727C17 9.14527 16.552 8.69727 16 8.69727C15.448 8.69727 15 9.14527 15 9.69727V15.6973H9C8.448 15.6973 8 16.1453 8 16.6973C8 17.2493 8.448 17.6973 9 17.6973H15V23.6973C15 24.2493 15.448 24.6973 16 24.6973C16.552 24.6973 17 24.2493 17 23.6973V17.6973H23C23.552 17.6973 24 17.2493 24 16.6973C24 16.1453 23.552 15.6973 23 15.6973Z" fill="#3A79D7"/>
</svg>
