<svg width="18" height="18" viewBox="0 0 18 18" fill="none" xmlns="http://www.w3.org/2000/svg">
<path fill-rule="evenodd" clip-rule="evenodd" d="M8.99996 0.666016C4.39746 0.666016 0.666626 4.39685 0.666626 8.99935C0.666626 13.6018 4.39746 17.3327 8.99996 17.3327C13.6025 17.3327 17.3333 13.6018 17.3333 8.99935C17.3333 4.39685 13.6025 0.666016 8.99996 0.666016ZM6.08329 6.91602C6.08329 6.53299 6.15873 6.15372 6.30531 5.79986C6.45189 5.44599 6.66673 5.12446 6.93756 4.85362C7.2084 4.58278 7.52993 4.36794 7.8838 4.22137C8.23767 4.07479 8.61694 3.99935 8.99996 3.99935C9.38298 3.99935 9.76225 4.07479 10.1161 4.22137C10.47 4.36794 10.7915 4.58278 11.0624 4.85362C11.3332 5.12446 11.548 5.44599 11.6946 5.79986C11.8412 6.15372 11.9166 6.53299 11.9166 6.91602C11.9166 7.68956 11.6093 8.43143 11.0624 8.97841C10.5154 9.52539 9.77351 9.83268 8.99996 9.83268C8.22641 9.83268 7.48455 9.52539 6.93756 8.97841C6.39058 8.43143 6.08329 7.68956 6.08329 6.91602ZM14.215 13.1527C13.5912 13.9374 12.7981 14.571 11.8951 15.0062C10.9921 15.4414 10.0024 15.667 8.99996 15.666C7.99753 15.667 7.00784 15.4414 6.10482 15.0062C5.20179 14.571 4.40876 13.9374 3.78496 13.1527C5.13579 12.1835 6.97913 11.4993 8.99996 11.4993C11.0208 11.4993 12.8641 12.1835 14.215 13.1527Z" fill="#3A79D7"/>
</svg>
