<svg width="18" height="15" viewBox="0 0 18 15" fill="none" xmlns="http://www.w3.org/2000/svg">
<path d="M0.666626 12.3327H13.1666V14.8327H0.666626V12.3327ZM16.0833 12.3327H17.3333V14.8327H16.0833V12.3327ZM14 12.3327H15.25V14.8327H14V12.3327ZM14.7083 5.44102C15.225 4.93268 15.5416 4.23268 15.5416 3.45768C15.5416 1.91602 14.2916 0.666016 12.75 0.666016V1.91602C13.5833 1.91602 14.2916 2.60768 14.2916 3.45768C14.2916 4.30768 13.5833 4.99935 12.75 4.99935V6.24935C14.6166 6.24935 16.0833 7.77435 16.0833 9.64102V11.4993H17.3333V9.63268C17.3333 7.78268 16.2666 6.18268 14.7083 5.44102ZM12.3583 7.49935H11.0833C10.25 7.49935 9.54163 6.68268 9.54163 5.83268C9.54163 4.98268 10.25 4.37435 11.0833 4.37435V3.12435C10.3429 3.12435 9.63282 3.41847 9.10929 3.94201C8.58575 4.46555 8.29163 5.17562 8.29163 5.91602C8.29163 6.65641 8.58575 7.36648 9.10929 7.89002C9.63282 8.41356 10.3429 8.70768 11.0833 8.70768H12.3583C13.2333 8.70768 14 9.32435 14 10.416V11.4993H15.25V10.1327C15.25 8.62435 13.9166 7.49935 12.3583 7.49935Z" fill="#ADB3BC"/>
</svg>
